<svg width="25" height="24" viewBox="0 0 25 24" fill="none" xmlns="http://www.w3.org/2000/svg">
<path d="M21.7461 12.0001C21.7461 9.59415 20.8021 7.41316 19.2652 5.79786L19.2141 5.84898L18.8358 9.58052L11.5874 16.2837L11.993 16.6892L11.6488 17.0334L11.3591 16.7437L11.1512 16.863L12.5007 17.8683L11.0524 18.3386C11.0524 18.3386 10.1664 17.3367 10.0573 17.4423C9.94829 17.548 9.77449 17.4832 9.77449 17.4832L9.36896 17.0777L9.20539 17.2413L8.85439 16.8903L6.89831 18.8463C8.46931 20.189 10.5106 21.0035 12.7393 21.0035C17.7113 21.0035 21.7393 16.9754 21.7393 12.0035L21.7461 12.0001Z" fill="#0F1410"/>
<path d="M8.13875 16.1508L7.78774 15.7998L7.95132 15.6362L7.54579 15.2307C7.54579 15.2307 7.47764 15.0569 7.58668 14.9478C7.69573 14.8388 6.69043 13.9527 6.69043 13.9527L7.16071 12.5044L8.16601 13.8539L8.28528 13.646L7.99562 13.3564L8.33981 13.0122L8.74534 13.4177L15.4485 6.17613L19.18 5.79786L19.2209 5.75697C17.5886 4.05648 15.2917 3.00006 12.7461 3.00006C7.77752 3.00006 3.74609 7.02808 3.74609 12.0001C3.74609 14.3685 4.66279 16.5222 6.15882 18.1307L8.13875 16.1508Z" fill="#0F1410"/>
</svg>
