<svg width="25" height="24" viewBox="0 0 25 24" fill="none" xmlns="http://www.w3.org/2000/svg">
<path d="M6.0806 15.2803C5.63299 15.2803 5.2339 15.1796 4.88329 14.9782C4.53269 14.7768 4.25667 14.5007 4.05527 14.1501V15.1684H2.74609V7.00006H4.24549V10.3345C4.45436 9.98393 4.72664 9.70792 5.06232 9.50651C5.40547 9.3051 5.80456 9.20439 6.25957 9.20439C6.64008 9.20439 6.9869 9.28645 7.3002 9.45056C7.61351 9.60722 7.88208 9.82728 8.10586 10.1107C8.33716 10.3942 8.51245 10.7187 8.63174 11.0842C8.75863 11.4498 8.82199 11.8414 8.82199 12.2591C8.82199 12.6768 8.75111 13.0685 8.60942 13.434C8.47509 13.7996 8.28491 14.1241 8.03874 14.4075C7.79256 14.6835 7.50166 14.8999 7.16595 15.0565C6.83769 15.2057 6.4759 15.2803 6.0806 15.2803ZM5.66655 14.0047C5.90526 14.0047 6.12156 13.96 6.31557 13.8704C6.51695 13.7735 6.68856 13.6466 6.83025 13.4899C6.97946 13.3333 7.09139 13.1506 7.16595 12.9417C7.24804 12.7253 7.289 12.5016 7.289 12.2703C7.289 11.9496 7.22188 11.6549 7.08763 11.3864C6.96082 11.1103 6.78177 10.8903 6.55055 10.7262C6.32677 10.5621 6.06195 10.48 5.75607 10.48C5.53974 10.48 5.33087 10.5322 5.12946 10.6366C4.93551 10.7336 4.76021 10.8679 4.60355 11.0395C4.45436 11.211 4.335 11.405 4.24549 11.6213V13.02C4.29024 13.1692 4.36111 13.3034 4.45809 13.4228C4.56252 13.5422 4.68188 13.6466 4.81615 13.7361C4.95043 13.8182 5.08843 13.8853 5.23016 13.9376C5.37935 13.9823 5.52482 14.0047 5.66655 14.0047ZM13.329 10.6031C12.8739 10.6031 12.4674 10.6926 12.1093 10.8716C11.7513 11.0432 11.4939 11.2931 11.3373 11.6213V15.1684H9.83788V9.3051H11.2142V10.5583C11.423 10.1555 11.6878 9.83846 12.0087 9.60722C12.3294 9.37597 12.6688 9.24915 13.0269 9.22677C13.109 9.22677 13.1724 9.22677 13.2171 9.22677C13.2619 9.22677 13.2992 9.2305 13.329 9.23797V10.6031ZM14.1651 15.1684V9.3051H15.6644V15.1684H14.1651ZM14.1651 8.48826V7.00006H15.6644V8.48826H14.1651ZM19.2326 15.2803C18.8597 15.2803 18.5165 15.202 18.2032 15.0453C17.8899 14.8812 17.6176 14.6611 17.3864 14.3851C17.1551 14.1091 16.9761 13.7846 16.8493 13.4116C16.7299 13.0386 16.6702 12.6433 16.6702 12.2255C16.6702 11.8004 16.7373 11.405 16.8716 11.0395C17.0134 10.6739 17.2073 10.3532 17.4535 10.0772C17.6997 9.80117 17.9906 9.58857 18.3263 9.43937C18.662 9.28272 19.0237 9.20439 19.4116 9.20439C19.8592 9.20439 20.2546 9.30883 20.5977 9.5177C20.9408 9.71911 21.2206 9.98766 21.437 10.3233V9.3051H22.7461V17.5518H21.2467V14.1389C20.7992 14.8999 20.1277 15.2803 19.2326 15.2803ZM19.7921 14.0047C20.0085 14.0047 20.2024 13.9637 20.3739 13.8816C20.553 13.7996 20.7134 13.6876 20.8551 13.5459C21.0043 13.3967 21.1349 13.2289 21.2467 13.0424V11.6549C21.2094 11.4908 21.1385 11.3379 21.0341 11.1961C20.9372 11.0544 20.8178 10.9313 20.676 10.8269C20.5418 10.715 20.3963 10.6292 20.2397 10.5695C20.083 10.5098 19.9264 10.48 19.7697 10.48C19.5384 10.48 19.3258 10.5285 19.1319 10.6255C18.9454 10.7224 18.7813 10.8567 18.6396 11.0283C18.4979 11.1924 18.3897 11.3826 18.3151 11.5989C18.2405 11.8078 18.2032 12.0316 18.2032 12.2703C18.2032 12.5911 18.2703 12.882 18.4046 13.1431C18.5388 13.4042 18.7253 13.6131 18.9641 13.7697C19.2028 13.9264 19.4788 14.0047 19.7921 14.0047Z" fill="#0F1410"/>
</svg>
