<svg width="25" height="24" viewBox="0 0 25 24" fill="currentColor" xmlns="http://www.w3.org/2000/svg">
<path d="M21.6314 11.7618C21.6314 11.7618 21.0877 10.9997 21.0386 10.5407C20.9896 10.0816 19.8175 8.65541 19.5768 8.48604C19.3406 8.31669 18.984 8.45039 18.9662 8.33451C18.9484 8.21863 18.7122 8.08047 18.7122 8.08047C18.8147 7.96014 18.8637 7.65707 18.8637 7.24704C18.8637 6.83701 18.7612 6.34676 18.7612 6.34676C18.7612 6.34676 17.9768 4.57739 16.9383 4.05594C11.9868 1.57793 8.47033 4.23867 8.47033 4.23867C8.47033 4.23867 7.85974 5.12113 7.69038 5.25929C7.52102 5.39299 6.46921 7.75512 6.46921 7.75512L6.53606 8.38799L6.41573 8.82922H6.1706C5.92547 8.82922 4.89594 9.58689 4.89594 9.58689C4.89594 9.58689 3.19788 11.9624 3.92881 13.5713C4.58396 15.0109 7.27144 18.817 7.27144 18.817C7.27144 18.817 7.71267 19.4276 9.17897 19.6237C10.6497 19.8198 11.0865 19.4543 11.6258 19.4543C12.1651 19.4543 12.6063 19.0131 12.6063 19.0131L12.9138 18.7368L13.355 18.9997C13.355 18.9997 14.4782 19.7173 16.0247 20.0114C16.3411 20.0738 17.6247 19.4722 18.1996 19.0621C19.9824 17.7919 21.5601 13.0677 21.6982 12.6621C21.8364 12.2565 21.6314 11.7618 21.6314 11.7618ZM12.1829 14.8861L9.71825 11.2448C9.71825 11.2448 10.3066 10.3223 10.0703 9.52003C9.89207 8.91836 14.603 9.44872 14.603 9.44872C14.603 9.44872 15.111 10.4649 15.5523 10.7145C16.3991 11.1958 13.5645 14.4939 13.5645 14.4939L12.1784 14.8816L12.1829 14.8861ZM17.2236 6.19077C17.2236 6.19077 17.7317 6.69885 17.3305 7.42532C17.3305 7.42532 15.4141 7.84872 14.9684 8.65095C14.9684 8.65095 10.935 8.14287 9.70488 8.57518C9.70488 8.57518 9.35279 7.07323 8.39902 7.11334L8.26977 6.70776C8.26977 6.70776 11.2648 4.47934 17.228 6.19968L17.2236 6.19077ZM10.3511 17.578L10.2263 17.9346C10.2263 17.9346 7.22241 15.9201 5.48425 11.1512C5.48425 11.1512 5.31934 10.2287 6.52715 10.2108C6.52715 10.2108 7.0486 11.695 9.12549 11.7886C9.12549 11.7886 10.4492 13.7273 10.9305 15.6883C10.9305 15.6883 9.85641 16.7223 10.3467 17.578H10.3511ZM15.5389 18.5719C14.7144 19.1602 14.1528 17.832 14.1528 17.832C14.8525 16.5262 14.3088 15.2783 14.3088 15.2783L17.1567 10.9908C18.6587 11.2627 19.1266 10.5629 19.1266 10.5629L19.4966 10.7189C19.4966 10.7189 18.4314 16.5173 15.5389 18.5763V18.5719Z" fill="#0F1410"/>
</svg>
