<svg width="25" height="24" viewBox="0 0 25 24" xmlns="http://www.w3.org/2000/svg">
<path d="M17.522 5.11211L15.6073 4.29582H13.6955L14.9292 4.82691L14.5378 5.11211L14.9292 5.3973L13.6955 5.92806H15.6073L17.522 5.11211Z"/>
<path d="M17.522 11.9999C17.522 14.6376 15.384 16.7757 12.7464 16.7757V7.22429C15.384 7.22429 17.522 9.36238 17.522 11.9999Z" />
<path d="M12.6915 19.2602C8.68817 19.2602 5.43059 16.003 5.43059 11.9999C5.43059 7.99665 8.68817 4.73967 12.6915 4.73967C12.71 4.73967 12.728 4.74239 12.7465 4.74512V3.00006C7.77557 3.00006 3.74609 7.02969 3.74609 11.9999C3.74609 16.9706 7.77557 21.0001 12.7465 21.0001V19.2547C12.728 19.2573 12.71 19.2602 12.6915 19.2602Z" />
<path d="M7.9708 11.9999C7.9708 9.36238 10.1091 7.22429 12.7464 7.22429L12.7464 5.481C12.728 5.48374 12.71 5.48659 12.6914 5.48659C9.09978 5.48659 6.17785 8.40854 6.17785 11.9999C6.17785 15.5911 9.09978 18.513 12.6914 18.513C12.71 18.513 12.728 18.5156 12.7464 18.5188L12.7464 16.7757C10.1091 16.7757 7.9708 14.6376 7.9708 11.9999Z" />
</svg>
