<svg width="205" height="334" viewBox="0 0 205 334" fill="none" xmlns="http://www.w3.org/2000/svg">
<path d="M8.4857 315.075C8.20532 319.708 7.01574 323.345 5.82334 326.962C5.15522 328.988 4.44104 331.38 2.75709 330.41C1.03817 329.421 1.37909 326.76 1.57689 324.464C2.24176 316.745 3.21562 309.075 4.23703 301.534C6.35556 285.892 4.8728 270.389 4.78386 254.815C4.68576 237.633 2.84687 220.726 2.31185 203.624C2.1904 199.74 2.34374 195.834 3.2171 191.958C5.61044 202.537 7.03211 213.562 8.83554 224.398C9.49995 212.793 5.99189 202.503 5.60437 190.843C4.78107 176.725 8.59121 165.402 12.0206 153.984C13.5248 148.976 15.3588 149.335 17.5151 153.665C20.4645 159.587 19.8612 166.678 20.174 173.547C20.4786 180.235 19.7056 187.136 21.3074 193.57C21.9928 196.323 20.5914 198.198 20.5763 200.759C20.5321 208.244 21.3965 215.708 20.2912 223.279C19.8694 226.169 19.8595 229.646 19.5612 232.693C19.2781 235.586 19.2292 237.969 20.0342 240.942C20.354 244.126 20.1126 246.954 19.2677 249.066C16.2504 256.61 16.2083 265.299 15.7174 273.846C15.6146 275.636 15.7919 277.502 14.9798 279.352C14.3412 279.865 13.8875 279.9 13.2169 279.85C12.262 279.845 12.0747 280.219 12.0011 281.746C11.4632 292.921 10.0747 303.846 8.4857 315.075Z" fill="#0E0F0F"/>
<path d="M23.3048 60.4354C25.4257 58.7485 26.64 55.8075 28.0229 52.6994C31.2422 47.2902 34.5166 42.9335 39.227 43.6872C40.763 43.9329 42.1508 42.3249 43.5557 41.2909C44.4654 40.6214 45.4578 39.4634 46.355 40.9061C47.2498 42.3449 46.715 44.1494 46.2063 46.1059C44.763 49.8332 43.5238 53.3072 41.5656 56.2203C38.1027 60.2858 36.0011 65.913 33.9809 71.657C33.4299 73.2239 33.074 75.1484 31.8847 75.6376C29.1894 76.7465 27.45 79.9518 25.7204 83.4203C23.523 87.8268 21.2115 91.9764 17.679 93.4745C15.7965 94.2729 15.3902 97.7265 14.8711 100.586C12.819 111.891 11.4586 123.489 10.1118 135.083C9.69435 138.677 9.35918 142.337 8.68468 145.774C8.02885 149.116 7.61681 152.296 8.20061 156.099C8.2058 156.717 8.21003 156.964 8.2301 157.578C8.62203 159.901 8.5894 161.852 8.18375 164.186C7.0335 169.061 7.19176 174.479 4.64478 178.28C3.0921 180.875 3.30284 177.995 3.32221 177.287C3.50068 170.763 2.00923 164.536 2.17902 157.723C1.65297 155.495 1.75259 153.418 1.68944 150.98C2.72553 145.085 2.14889 139.426 2.4454 133.866C3.11302 121.347 5.49613 109.606 7.67791 97.7671C8.325 94.2559 8.79764 90.7082 8.98214 86.6061C8.93123 83.7426 10.7371 84.025 11.0295 81.6807C11.1224 79.5257 12.113 78.4517 12.268 76.3666C12.3796 75.8109 12.4433 75.6025 12.6868 75.2299C14.0544 75.0286 14.5845 73.6177 15.0496 72.0087C15.4923 70.477 15.8588 68.7765 16.6653 67.7345C17.5261 66.6224 18.4306 65.3931 19.6657 66.579C20.9124 67.7761 20.0548 69.4656 20.0807 70.9268C20.111 72.6451 19.5659 74.0733 19.1411 75.5481C20.6951 70.6923 19.9142 63.9966 23.3048 60.4354Z" fill="#0C0E0D"/>
<path d="M4.5246 178.877C4.78865 173.547 5.85832 168.921 6.68942 163.798C6.13302 161.943 6.78766 160.709 7.17395 159.025C8.93251 154.845 9.9311 150.671 10.5614 146.008C11.0926 142.078 12.7902 138.814 14.0839 135.468C15.1094 132.815 17.081 134.852 18.6117 135.284C20.0445 135.688 20.1807 138.076 20.2955 139.852C20.4034 141.519 20.3462 143.322 20.2289 145.075C19.996 148.554 20.7878 151.482 22.2676 154.431C22.9561 172.072 23.7959 189.258 22.3774 206.454C22.1344 209.399 22.9578 212.091 23.4434 215.344C22.1652 222.526 22.6737 229.748 21.5946 236.549C21.2096 238.976 21.0014 241.386 19.1456 242.4C17.7636 240.677 18.0357 238.503 18.2321 236.361C19.2539 225.221 19.8187 214.141 19.7427 202.733C19.6626 190.711 18.0769 178.863 18.7756 166.798C18.999 162.939 17.9015 159.351 16.5727 156.201C15.0385 152.565 13.92 152.591 12.8799 156.73C10.1747 167.497 6.58933 177.714 5.66603 190.056C4.68275 186.852 5.31523 182.871 4.5246 178.877Z" fill="#0A0A09"/>
<path d="M10.7744 85.974C9.73545 96.0904 8.25251 105.469 6.04286 114.585C4.48463 121.013 4.27777 128.159 3.85599 135.1C3.55487 140.056 3.49461 145.08 2.20792 150.089C2.01908 150.588 1.9215 150.746 1.68416 150.655C1.35157 144.718 1.15878 139.03 0.965634 132.883C0.964505 131.979 0.964117 131.534 0.964505 130.754C0.96514 129.671 0.965422 128.922 0.965634 127.799C1.51532 124.727 1.91219 121.965 2.12096 118.774C2.12022 116.382 2.12071 114.341 2.1211 111.864C3.68691 103.662 4.75457 95.6627 5.77733 87.6509C5.96835 86.1545 6.17723 84.8229 6.63537 83.4713C7.27138 81.5948 7.66155 78.9929 9.24828 79.8649C10.6621 80.6421 11.1209 82.9193 10.7744 85.974Z" fill="#0A0A09"/>
<path d="M10.9042 86.1638C10.1713 85.0807 10.0117 82.5385 8.70037 82.826C7.20272 83.1545 6.93309 85.6724 6.68714 87.7731C5.75046 95.7741 4.78743 103.748 2.26036 111.184C3.35448 85.8514 9.86183 64.5173 19.6549 45.8044C19.8881 49.8237 18.5438 52.816 17.6009 56.0668C16.4984 59.8672 14.7503 63.2074 14.8062 68.1218C16.4832 72.0541 14.0618 73.4191 13.2833 76.1127C13.1026 76.4255 13.1019 76.4243 13.1019 76.4243C12.3177 77.5498 11.6756 78.7868 11.9602 81.0892C11.644 82.9087 11.3283 84.3945 10.9042 86.1638Z" fill="#060808"/>
<path d="M13.2969 76.3292C13.6374 73.9807 14.1726 71.5381 14.7719 68.7582C17.3991 64.8323 17.8251 59.0244 19.6119 54.6016C20.6393 52.0586 21.4688 49.2697 22.8005 46.6746C24.3687 44.86 25.7924 43.2434 27.2643 41.7708C27.7384 41.2965 28.3999 40.9716 28.8721 41.7277C29.4002 42.5735 29.0192 43.6009 28.7515 44.4184C27.0688 49.5578 25.3557 54.6675 23.5783 60.1136C22.1816 68.0876 19.7466 74.7989 17.5306 81.7422C17.1851 79.152 18.208 77.2997 18.631 75.1448C18.9928 73.3016 19.8115 71.0459 18.5748 69.7314C17.1827 68.2519 16.6076 70.8292 16.0136 72.4195C15.3732 74.1342 14.711 75.7092 13.2969 76.3292Z" fill="#0A0A09"/>
<path d="M8.58549 315.143C7.98405 312.843 8.13102 310.227 8.48739 307.625C9.83504 297.786 10.6845 287.846 10.5932 277.705C10.5781 276.03 10.5271 274.03 11.7282 273.689C12.9431 273.343 12.9039 275.343 13.088 277.1C14.6879 282.054 15.3129 286.543 13.2642 291.446C12.3296 293.683 12.426 296.782 12.0759 299.993C11.943 300.438 11.9445 300.422 11.9469 300.415C11.4654 302.136 11.2702 304.009 10.9087 306.151C10.7859 306.44 10.788 306.424 10.7904 306.416C10.0895 309.216 9.38628 312.024 8.58549 315.143Z" fill="#101110"/>
<path d="M2.03302 118.74C2.52831 121.475 2.38438 124.357 1.10093 127.176C0.613396 124.397 1.35326 121.753 2.03302 118.74Z" fill="#060808"/>
<path d="M1.49537 150.719C1.54385 150.406 1.83001 150.418 1.9731 150.424C2.11879 152.47 2.1214 154.51 2.125 156.988C1.56663 155.401 1.10641 153.344 1.49537 150.719Z" fill="#030303"/>
<path d="M0.939335 130.619C0.979903 130.956 0.996202 131.492 0.988299 132.227C0.94773 131.89 0.931362 131.354 0.939335 130.619Z" fill="#060808"/>
<path d="M7.54726 157.578C6.26049 149.796 7.75727 142.526 8.5685 135.25C10.1705 120.879 11.6618 106.422 14.9694 92.7991C15.6609 89.9511 16.2502 87.8481 18.5408 89.2286C20.1608 90.205 21.3486 87.5358 22.427 85.6937C25.1926 80.9698 27.0856 74.5136 31.2998 72.6764C31.7165 72.4947 32.0312 71.2353 32.2862 70.3805C34.2134 63.9202 36.9811 59.0629 41.1992 56.4722C37.2353 67.5554 33.0591 78.6859 28.7909 90.1198C26.6706 95.5993 24.1919 100.226 22.3789 106.079C22.7606 108.502 22.2754 110.252 21.6313 111.969C18.2541 120.97 15.5386 130.607 12.5346 139.951C10.6678 145.757 10.5074 152.781 7.54726 157.578Z" fill="#171714"/>
<path d="M30.2814 128.616C31.6812 137.869 30.0646 147.243 30.1915 156.664C30.2181 158.64 29.9804 160.627 29.855 163.049C27.8021 175.33 26.4287 187.377 25.5935 199.672C25.0942 207.021 25.3558 214.155 26.0459 221.345C26.305 224.044 25.3766 225.765 24.0831 225.862C22.7243 225.964 22.7979 223.589 22.7684 221.768C22.7421 220.14 22.7765 218.461 21.9573 216.787C21.335 213.408 21.1566 210.301 21.3445 207.109C22.0079 195.84 21.9187 184.58 21.3659 173.29C21.0911 167.677 21.2369 162.002 21.1915 155.887C20.9826 155.066 20.7843 154.698 20.4971 153.976C20.2939 151.862 20.4216 150.064 20.1916 147.911C20.2585 146.993 20.4511 146.615 20.9706 146.41C24.6938 147.636 26.0424 144.564 26.8236 139.044C27.3485 135.335 28.2713 131.489 30.2814 128.616Z" fill="#0E0F0F"/>
<path d="M21.1968 145.967C21.197 146.874 21.196 147.316 21.1939 148.09C21.2056 149.872 21.1806 151.321 21.1872 153.095C21.1901 153.864 21.1902 154.308 21.1902 155.086C19.2897 154.018 19.4052 150.988 19.2964 148.21C19.206 145.9 19.4325 143.512 19.1834 141.27C18.7725 137.572 15.862 135.68 14.8382 138.486C13.5327 142.064 11.4563 144.77 10.9649 149.373C10.5648 153.12 9.58874 156.644 7.5262 159.225C7.09458 159.072 6.99415 158.622 7.19844 157.741C7.33126 157.424 7.32113 157.418 7.32473 157.424C8.83318 150.776 10.2677 144.072 11.8586 137.482C14.4994 126.542 17.7731 116.206 22.1684 106.632C22.578 106.254 22.8531 106.105 23.1302 105.967C25.0298 105.02 27.2267 101.92 28.3498 107.585C29.1882 111.814 27.3079 117.978 24.9345 118.919C23.4802 119.495 22.7404 120.946 22.5579 123.275C21.9792 130.659 20.737 137.927 21.1968 145.967Z" fill="#060808"/>
<path d="M46.2066 46.2356C45.6226 42.3084 44.1699 43.1714 42.983 44.9219C41.3799 47.2859 39.8169 48.1479 37.784 46.8486C36.6971 46.154 35.4568 46.4566 34.5196 47.7519C32.7483 50.1998 30.5672 50.8649 28.3375 52.3242C30.6426 42.5952 35.3984 36.3547 40.1765 30.2506C42.2464 27.6061 44.5796 25.5622 46.8376 23.383C47.714 22.5372 48.8226 21.0051 49.7053 22.685C50.5677 24.3265 49.537 26.0706 49.1004 27.6398C48.2957 30.5322 46.7207 32.6783 46.1242 35.8445C47.556 37.0757 48.9497 33.4464 49.738 35.8051C50.5689 38.2913 48.8766 40.2141 48.1941 42.2728C47.7292 43.6752 46.9845 44.8 46.2066 46.2356Z" fill="#0A0A09"/>
<path d="M36.4197 29.2871C36.4657 29.0219 36.551 28.8322 36.6363 28.6426C36.6905 28.7444 36.7447 28.8463 36.7988 28.9481C36.6856 29.0864 36.5723 29.2245 36.4197 29.2871Z" fill="#060707"/>
<path d="M13.8757 290.055C13.5433 290.893 13.4128 291.375 13.2299 292.105C13.0386 294.918 12.8857 297.477 12.0455 300.115C12.0516 293.031 13.3274 285.807 13.1068 277.896C13.3942 277.687 13.6809 277.93 14.1105 278.298C14.2549 278.866 14.2566 279.311 14.2583 280.088C14.3293 283.522 14.9335 286.653 13.8757 290.055Z" fill="#060707"/>
<path d="M3.87114 320.409C3.86451 320.392 3.87775 320.426 3.87114 320.409Z" fill="#060707"/>
<path d="M9.35286 228.925C9.35512 228.942 9.35061 228.908 9.35286 228.925Z" fill="#060707"/>
<path d="M12.0927 81.1758C11.2715 80.8511 10.51 80.2693 10.7053 78.6388C10.9195 76.8502 11.8542 76.7446 12.8939 76.4606C13.0452 78.0626 12.9197 79.6616 12.0927 81.1758Z" fill="#0A0A09"/>
<path d="M7.21934 157.688C7.33949 157.865 7.34768 158.305 7.36133 159.076C7.1914 160.525 7.016 161.642 6.79284 163.098C6.2452 161.485 6.39904 159.663 7.21934 157.688Z" fill="#171714"/>
<path d="M10.9012 306.15C10.8573 304.501 11.0859 302.642 11.8361 300.701C11.8717 302.345 11.6636 304.215 10.9012 306.15Z" fill="#060707"/>
<path d="M55.4906 254.215C53.2323 259.363 53.3912 265.464 52.4228 270.977C52.1732 272.399 52.1386 273.929 51.9452 275.386C51.8204 276.326 51.7218 277.673 51.0442 277.648C50.1301 277.615 50.1922 276.051 50.1661 274.974C50.0536 270.322 49.8731 265.658 49.9651 261.013C50.0583 256.314 49.9633 251.977 48.6473 247.519C47.5548 243.817 48.1759 239.321 48.9502 235.346C50.2468 228.69 50.0519 222.18 48.1485 216.1C46.201 209.88 46.091 203.015 45.2821 196.382C45.0574 194.54 45.1003 192.468 43.8847 190.306C43.6903 195.965 42.3837 195.51 39.7279 195.717C35.746 196.028 34.7616 193.574 33.924 188.129C33.5286 185.559 32.1036 185.711 31.3192 187.958C30.4311 190.501 29.7739 193.297 29.0872 196.037C28.6269 197.872 28.2899 199.801 27.1249 201.23C27.9432 190.061 29.4424 178.825 29.8426 166.872C30.1813 166.104 30.5425 165.834 30.8448 165.433C33.3621 162.087 33.3589 162.079 34.0261 167.21C34.6262 171.825 35.3732 172.257 37.3622 169.177C37.8602 168.405 38.3575 167.585 38.9304 167.013C43.4053 162.547 44.3428 163.288 45.5628 171.949C45.7869 173.541 46.2509 175.034 46.6227 176.559C47.7633 181.237 48.8871 185.688 49.3207 191.018C49.9037 198.186 51.4823 205.251 52.7286 212.433C53.986 209.854 53.9002 207.093 53.5077 204.201C52.1758 194.386 51.9498 184.506 52.81 174.513C53.1322 170.77 51.9167 166.947 52.9087 162.79C54.338 170.798 54.361 179.456 54.6854 188.028C55.2743 203.587 55.8314 219.155 55.8102 235.092C56.5312 235.835 56.937 236.727 57.3159 238.12C58.0585 239.17 56.7731 240.575 57.6152 241.552C57.5097 242.719 57.2295 243.413 57.3349 244.583C57.1934 247.527 57.1909 250.132 56.6584 252.984C56.2406 253.526 55.9623 253.758 55.4906 254.215Z" fill="#0C0E0D"/>
<path d="M21.2528 153.115C20.8396 151.982 20.7325 150.525 21.1269 148.726C21.541 149.858 21.6491 151.316 21.2528 153.115Z" fill="#0A0A09"/>
<path d="M90.4266 257.703C90.8949 253.035 91.2381 248.649 91.6114 243.854C91.3035 242.749 91.101 242.004 91.5041 240.747C91.6632 229.731 91.675 219.062 91.6859 207.927C90.4003 205.83 90.259 203.443 90.2561 200.971C90.2218 171.916 91.4411 143.064 94.9467 114.584C95.2088 112.455 95.8612 110.538 96.03 107.984C97.1778 97.6451 98.7594 87.8954 100.714 78.3263C102.092 71.5783 103.316 64.7504 104.293 57.5346C103.324 59.5464 101.988 59.7752 100.685 60.2872C96.8658 61.7875 94.3996 65.2928 92.9668 72.1799C91.8335 77.6275 90.4642 83.1714 88.5604 88.2173C86.0093 94.9787 84.8564 102.802 83.9977 110.673C83.4984 115.249 83.1187 119.871 82.3944 124.358C81.6473 128.985 80.8507 130.624 79.7352 130.003C77.4942 128.754 78.1875 125.562 78.3368 122.855C78.848 113.585 79.6178 104.372 80.6536 94.0296C78.7672 103.152 78.4373 111.58 77.7342 119.868C77.3131 124.83 77.8819 129.043 80.9408 131.693C84.12 134.448 85.2926 140.311 86.9483 145.784C85.0064 155.703 85.2427 165.734 85.0766 176.117C85.1856 201.21 83.4048 224.938 73.7854 244.78C72.9007 246.604 72.1388 248.525 70.2754 247.558C69.0192 244.313 70.2792 241.305 70.1028 237.822C70.2215 236.473 70.2474 235.533 70.944 234.765C72.2098 233.681 73.5376 233.241 73.5863 230.133C73.7326 229.536 73.8156 229.313 74.0571 228.799C77.1629 219.947 78.9942 210.555 79.5331 200.801C80.3082 186.769 80.6068 172.632 80.2383 158.103C82.0252 152.762 80.986 147.761 80.2762 142.815C80.1146 141.689 79.4697 140.911 78.6966 141.081C77.7945 141.279 77.3988 142.476 77.2485 143.825C76.8668 147.25 76.8082 150.748 76.5448 154.205C76.1587 159.274 76.6394 164.464 75.6532 169.491C75.1926 171.84 75.2711 174.473 76.0715 177.241C75.7697 181.453 76.0005 185.331 75.2792 189.486C72.0741 190.619 73.3486 194.973 73.2181 197.531C72.9779 202.236 73.2155 207.042 73.027 212.295C73.0543 217.776 73.1112 222.765 72.8307 228.264C72.6392 229.444 72.382 229.958 71.7428 230.343C69.8524 228.455 71.2526 224.795 69.7605 222.404C69.4713 212.167 69.3681 202.258 69.5888 192.344C69.9554 175.876 71.1571 159.523 71.7754 143.09C72.1289 133.694 72.8568 124.389 73.948 116.885C71.0995 126.434 70.1587 138.486 69.3611 150.67C68.9881 156.368 68.2814 162.07 66.8816 167.662C66.3556 167.876 66.047 167.905 65.5081 167.895C64.4927 167.897 64.2265 166.874 63.9492 165.876C64.5995 168.362 64.0899 170.887 63.9995 173.38C63.7028 181.561 64.4727 189.692 64.3278 197.86C64.2924 199.861 65.2059 200.974 65.8026 202.867C65.9201 203.552 65.9396 203.845 65.957 204.602C65.9174 205.379 65.8799 205.692 65.7162 206.435C64.2721 211.712 65.1572 216.877 64.8245 221.847C64.6211 224.885 65.5522 228.679 63.0925 230.616C61.5498 228.312 61.556 225.603 61.7789 222.948C62.5964 213.207 61.2787 203.74 60.5725 193.802C60.4967 192.355 60.4967 191.288 60.4967 189.822C59.1528 184.404 59.9803 178.941 59.5099 173.713C59.278 171.135 59.6622 168.104 59.4 165.408C58.9931 161.222 59.4752 157.373 59.9409 153.329C60.6109 147.511 61.3974 141.521 61.5069 135.755C61.6312 129.213 61.7588 122.865 62.5812 116.432C63.3483 110.431 63.0193 103.948 64.5308 98.2766C67.3063 87.8618 68.1312 76.0323 72.2315 66.6076C72.9634 64.9255 73.6929 63.1856 74.9842 62.5827C76.4525 61.8971 77.4572 62.261 77.3079 65.9271C75.7066 71.8175 73.8175 76.9329 72.6919 83.0768C71.9725 90.7805 70.0187 97.6093 69.7599 103.625C70.2538 97.7989 71.5035 90.8117 73.0756 83.6688C76.2273 77.7758 78.5317 71.2183 81.2006 64.7077C84.0631 55.5237 86.642 46.4603 89.7777 37.9093C90.5059 35.9237 91.3626 34.8712 92.5356 34.1642C94.9545 32.7062 97.3211 31.1368 99.3179 28.1564C100.175 26.8775 101.321 26.1045 102.503 26.0038C105.076 25.7845 107.104 23.9176 108.652 20.359C109.252 18.9788 110.084 18.052 111.116 18.1041C112.858 18.1922 114.551 17.6837 116.269 17.2874C119.098 16.6348 119.981 18.9389 119.35 23.7904C118.167 32.885 113.833 38.7411 112.194 45.3916C114.341 40.3717 116.261 33.0315 119.814 27.4281C120.511 26.8732 120.993 26.3148 121.619 25.5893C122.176 24.6378 122.558 23.7481 122.995 23.0706C124.729 20.3778 125.911 21.1878 126.538 25.3289C127.458 23.9138 128.01 21.677 129.654 21.4327C131.971 19.9521 133.347 16.6491 135.473 14.6094C138.608 11.7392 141.658 9.82236 145.117 10.9924C146.115 11.3299 147.222 10.8748 148.07 12.8605C148.121 13.4162 148.11 13.6717 148.146 13.8851C148.385 12.4975 148.823 11.7729 149.883 12.3938C154.88 7.34915 159.949 5.7142 165.506 8.06302C167.321 8.83035 169.325 8.2449 171.242 8.31406C171.883 8.33725 172.707 7.85764 173.007 9.29007C173.267 10.5303 172.69 11.4633 172.273 12.3583C170.928 15.247 169.098 17.1584 167.432 19.3835C163.712 24.3501 159.942 29.2027 156.019 34.2619C153.653 35.0515 152.256 38.0083 150.587 40.0648C149.533 41.3635 148.631 42.1384 147.621 40.8009C145.439 37.911 143.243 38.625 140.833 39.7626C139.168 40.5481 137.497 42.6495 135.42 40.7412C134.446 36.8822 132.791 35.8367 130.917 37.2549C124.925 41.7912 119.072 45.692 114.555 55.4791C106.523 72.8796 104.299 93.5612 101.46 113.922C99.349 129.061 97.946 144.555 97.6438 160.274C97.546 165.358 96.5131 170.389 97.4407 175.91C96.5799 180.707 96.3604 185.242 96.4152 190.258C96.4426 191.673 96.61 193.035 96.1507 193.516C93.5932 196.192 94.1801 199.175 95.6834 202.428C95.9106 202.919 95.9023 203.688 95.9868 204.765C96.066 206.022 96.1231 206.857 96.2598 208.099C96.3962 209.344 96.5001 210.172 96.4794 211.452C96.4618 212.738 96.4574 213.597 96.5097 214.894C96.4699 216.965 96.4169 218.491 95.6666 219.846C94.4024 222.131 94.7104 224.112 96.4994 225.856C95.9633 233.865 97.4438 241.439 96.5622 249.238C94.9153 251.027 93.8748 253.214 93.2821 255.903C92.8437 257.893 92.2719 259.084 90.7911 258.461C90.5199 258.268 90.4107 258.126 90.4266 257.703Z" fill="#101110"/>
<path d="M96.7203 252.761C96.9048 251.978 96.9059 251.534 96.9052 250.757C96.4891 245.673 97.2635 241.172 97.8717 236.637C98.0749 235.121 98.4213 233.825 99.6845 233.714C100.492 234.148 101.167 233.902 101.173 235.739C101.194 242.517 102.95 248.451 104.234 253.41C100.973 243.397 100.552 231.355 100.908 218.794C102.773 217.103 103.665 214.78 103.548 211.435C103.263 203.305 104.675 195.439 104.774 187.359C104.817 183.896 105.873 182.64 107.906 184.892C108.235 194.861 108.198 204.473 108.751 214.052C109.426 225.77 110.331 237.42 112.199 248.762C112.766 252.203 111.954 255.309 111.769 258.502C111.561 262.072 111.271 265.692 110.865 269.683C110.57 270.562 110.306 270.814 109.805 270.62C109.647 270.443 109.458 270.147 109.391 270.107C109.324 270.068 109.491 270.118 109.565 270.279C109.802 270.7 110.003 270.816 110.415 270.722C111.475 265.869 111.352 260.888 112.019 256.123C112.26 254.396 111.604 251.681 113.171 251.568C114.594 251.467 116.006 252.682 116.534 255.492C117.042 258.193 117.225 261.054 117.27 263.814C117.438 274.112 118.969 284.173 118.853 294.921C115.664 296.605 115.442 301.454 114.627 305.48C114.161 307.78 113.768 309.847 111.986 309.425C110.979 309.187 110.505 307.238 110.447 306.537C110.247 304.12 109.338 303.752 108.097 303.153C106.48 301.143 105.827 298.247 104.969 295.808C104.172 293.541 103.227 291.72 102.12 290.193C98.6916 285.461 96.905 279.685 97.2603 271.887C97.4419 267.899 96.9489 263.871 96.5667 259.442C96.8853 257.016 95.9477 255.075 96.7203 252.761Z" fill="#241F19"/>
<path d="M100.641 235.22C98.5916 239.742 98.2209 245.015 96.9859 250.087C96.7722 250.206 96.6421 249.984 96.4178 249.589C95.7042 242.04 94.255 234.803 95.1155 226.801C94.8518 222.707 94.5602 218.988 94.5861 214.821C94.5994 213.672 94.5983 212.921 94.5959 211.795C94.6091 210.81 94.5189 210.266 94.1456 209.613C94.0297 208.66 94.0326 207.917 94.0356 206.802C93.7769 201.33 94.305 196.311 94.584 190.839C94.7985 185.722 94.9896 181.029 95.1805 175.886C95.8102 173.778 96.0927 171.904 96.4298 170.029C96.6981 168.537 96.7523 166.362 98.2309 166.55C99.9519 166.769 100.055 169.164 100.093 171.154C100.2 176.666 100.096 182.19 100.115 187.708C100.117 188.302 100.747 189.285 100.086 189.907C102.818 195.013 100.776 200.636 100.695 206.063C100.563 214.88 101.092 223.679 101.092 232.501C101.092 233.406 100.645 234.142 100.641 235.22Z" fill="#1B1A17"/>
<path d="M93.1317 324.604C91.0107 324.07 89.8495 327.142 87.9025 327.381C89.3738 311.308 91.4049 295.277 92.6404 278.992C93.2488 270.974 93.5495 262.844 95.0795 254.722C96.9661 253.895 96.4407 256.422 96.7846 258.335C96.8835 264.271 97.535 269.746 97.1082 275.649C97.0935 277.073 97.5274 277.877 97.7478 279.127C98.5378 284.252 98.1961 288.873 97.4509 293.723C96.0194 303.039 95.2699 312.636 94.3051 322.137C94.1814 323.354 94.1461 324.345 93.1317 324.604Z" fill="#241F19"/>
<path d="M90.3449 257.515C90.5505 257.421 90.5869 257.916 90.6074 258.163C90.2813 263.198 89.9347 267.985 89.5098 273.156C88.1901 269.965 88.1788 266.027 88.3051 262.054C88.3731 259.915 88.816 258.211 90.3449 257.515Z" fill="#2C241C"/>
<path d="M96.4288 258.798C95.9519 257.31 95.6486 256.139 95.2651 254.678C95.6483 253.801 96.1117 253.215 96.7405 252.525C97.0864 254.167 97.2668 255.912 97.4629 258.037C97.2523 258.898 96.9603 259.131 96.4288 258.798Z" fill="#101110"/>
<path d="M26.2959 210.768C26.6879 210.931 27.0023 211.474 27.4343 212.22C28.6558 212.709 28.8443 213.987 28.722 215.624C28.3232 220.961 28.6084 226.368 28.1634 232.198C27.9417 234.857 28.8581 237.32 27.2677 239.307C26.3711 239.417 25.7758 239.414 24.9593 239.408C25.641 230.049 24.869 220.432 26.2959 210.768Z" fill="#0C0E0D"/>
<path d="M13.8132 290.509C13.7132 287.318 13.5189 284.193 14.177 280.798C15.5358 282.839 15.4293 285.925 15.5844 288.864C15.7067 291.183 14.9721 291.35 13.8132 290.509Z" fill="#14120F"/>
<path d="M16.2306 309.061C14.8607 306.873 16.4818 304.839 16.2745 302.581C16.8466 304.725 16.4869 306.783 16.2306 309.061Z" fill="#14120F"/>
<path d="M15.5859 318.524C15.4319 319.292 15.2918 319.853 15.1516 320.414C15.0243 320.287 14.7972 320.181 14.786 320.028C14.7167 319.082 14.7808 318.171 15.1878 317.425C15.4523 316.941 15.7558 317.09 15.4539 317.497C15.4076 317.56 15.5466 318.034 15.5859 318.524Z" fill="#14120F"/>
<path d="M26.8675 203.702C27.2149 204.972 27.0439 206.478 26.4735 208.172C26.5229 206.975 26.6583 205.513 26.8675 203.702Z" fill="#0C0E0D"/>
<path d="M14.5444 324.937C14.5358 324.939 14.553 324.934 14.5444 324.937Z" fill="#14120F"/>
<path d="M70.6193 246.499C78.4628 232.288 82.2388 215.368 83.0303 196.307C83.2784 190.331 83.4315 184.344 83.6284 177.902C85.3136 174.061 86.2763 170.171 85.863 165.699C85.2886 159.482 85.3712 153.505 86.9081 147.641C87.1431 146.744 87.0138 144.898 86.2107 143.5C88.189 133.648 89.2601 123.708 91.3016 114.272C91.9255 111.389 92.8536 109.017 93.9895 106.793C95.0234 104.769 96.0982 104.602 97.3047 107.144C94.6686 129.586 92.6734 151.877 92.1782 174.6C91.9463 185.24 91.7495 195.871 91.6895 206.987C90.1635 208.851 90.0671 211.331 89.9815 213.891C89.7929 219.536 89.5846 225.181 89.3109 230.815C89.2272 232.538 89.297 235.15 87.8509 234.905C86.2733 234.637 86.0694 232.13 86.4024 229.853C86.8513 226.785 87.2589 223.743 87.1029 219.559C85.5485 221.824 85.2691 224.239 85.0376 226.742C84.2934 234.787 83.5799 242.843 82.7456 250.861C82.3722 254.449 81.877 258.051 80.3034 261.198C80.0854 259.16 80.8161 256.907 80.1402 253.958C78.8502 258.123 78.7731 262.238 78.4391 266.215C77.215 280.79 75.414 295.077 71.4532 308.283C70.6481 310.967 70.5968 310.921 69.2021 310.626C69.3819 307.924 68.5004 305.384 69.5005 302.649C70.2866 288.027 70.7787 273.67 69.7368 258.871C70.1585 254.502 68.6987 250.285 70.6193 246.499Z" fill="#1B1A17"/>
<path d="M66.0895 166.758C68.3464 149.783 67.8519 132.191 72.474 116.498C73.075 114.457 72.8078 112.262 72.81 110.115C72.8109 109.277 72.8661 108.321 73.4516 108.139C74.0165 107.964 74.2947 108.799 74.4963 109.548C75.2953 112.515 75.4575 115.647 75.0978 118.818C73.0574 136.811 72.7616 155.151 71.7947 173.323C70.9806 188.626 70.1207 204.145 71.4485 220.033C70.2533 223.572 70.9507 227.171 70.5439 230.434C70.2759 232.583 70.5939 236.744 67.6594 234.791C66.5522 229.723 67.5375 224.453 65.8373 219.674C63.9261 216.397 65.4645 212.518 64.7923 209.228C65.7539 208.663 64.3679 207.101 65.1529 205.953C65.1224 205.262 65.1221 205.093 65.121 204.671C66.2191 201.8 64.2799 200.475 64.3603 197.949C63.8449 196.845 65.0746 195.495 64.1927 194.419C65.607 186.063 65.4959 177.952 65.4126 169.839C65.4027 168.876 65.4371 167.845 66.0895 166.758Z" fill="#121413"/>
<path d="M65.005 205.751C66.0234 209.687 65.5852 214.118 65.6943 218.937C65.8746 231.817 66.1688 244.238 66.1929 256.661C66.2074 264.119 65.8359 271.584 65.5566 279.037C65.4919 280.764 65.5908 283.228 64.3583 283.669C63.2041 284.083 63.0819 281.594 62.5478 280.327C62.0956 279.255 61.6986 278.113 61.1788 276.712C61.0637 264.559 61.6362 252.755 62.2069 240.945C62.2516 240.02 62.6189 239.172 62.6199 237.822C62.81 235.381 62.8113 233.338 62.8134 230.857C64.1203 225.922 63.9285 221.065 63.9718 216.256C64.0029 212.794 63.7387 209.238 65.005 205.751Z" fill="#141513"/>
<path d="M69.6612 301.998C69.7278 304.838 69.7966 307.306 69.2333 310.047C68.8405 309.586 68.5243 308.755 68.1123 307.676C67.9158 302.925 67.2228 298.6 66.7102 294.218C65.5868 284.612 66.8445 275.076 67.0623 265.511C67.0741 264.99 67.4166 264.491 67.7619 263.559C69.1583 267.331 69.0508 271.131 69.1547 274.838C69.4047 283.757 68.7032 292.723 69.6612 301.998Z" fill="#181411"/>
<path d="M67.4413 234.8C69.0903 232.784 69.6185 230.115 69.7374 227.037C69.8259 224.745 69.956 222.455 71.2923 220.681C71.4606 223.154 71.4692 225.837 71.4791 228.969C72.9352 231.625 72.3865 234.14 71.6686 237.038C71.3116 240.163 71.1388 242.904 70.932 246.049C70.5607 250.197 70.2234 253.94 69.8091 258.057C69.383 256.007 69.0339 253.585 68.6352 250.791C68.6004 249.813 68.5123 249.271 68.1379 248.625C68.0134 247.031 68.0086 245.643 68.0025 243.838C67.6831 241.615 68.3467 239.654 67.5778 237.658C67.4433 236.67 67.4424 235.922 67.4413 234.8Z" fill="#171714"/>
<path d="M62.6607 237.671C63.0718 250.262 61.8279 262.915 61.155 276.035C60.0394 264.871 60.7776 253.362 61.3892 241.855C61.4687 240.36 61.8765 239.007 62.6607 237.671Z" fill="#101110"/>
<path d="M67.4472 237.806C68.4269 238.915 68.4977 240.756 68.0586 243.094C67.8173 241.679 67.6341 239.937 67.4472 237.806Z" fill="#121413"/>
<path d="M68.0808 248.674C68.2042 248.956 68.3923 249.493 68.582 250.225C68.4376 249.923 68.2915 249.426 68.0808 248.674Z" fill="#121413"/>
<path d="M135.406 39.4191C137.743 38.488 139.897 37.6462 141.942 36.3045C144.11 34.8821 146.051 33.7711 147.902 37.4866C148.847 39.3841 150.004 38.0463 151.034 37.136C152.451 35.8843 153.68 33.7216 155.666 34.3671C153.261 38.9932 150.135 42.5941 147.81 48.0755C147.816 50.2298 147.35 51.4037 146.572 52.7886C141.659 61.5301 137.604 71.2939 134.808 82.6127C133.524 87.8067 133.068 93.2186 132.462 99.0834C131.601 103.51 130.844 107.494 131.23 111.864C131.418 113.998 130.678 115.671 129.94 117.629C128.541 122.797 127.74 128.062 126.113 133.059C125.931 134.507 126.148 135.7 125.675 137.051C125.554 137.702 125.522 137.975 125.339 138.577C123.757 139.268 123.296 141.082 122.966 143.198C121.941 149.771 120.902 156.333 120.313 163.084C120.137 165.11 120.184 167.568 118.2 167.836C116.012 165.686 116.672 162.275 117.044 159.737C118.055 152.832 117.923 145.701 118.827 138.76C119.52 133.441 118.437 127.933 117.917 122.553C116.762 110.617 116.895 99.0554 121.117 88.6347C121.192 88.4508 121.059 88.0188 121.14 87.3788C121.806 84.542 122.495 82.1154 122.941 79.1339C124.056 74.6342 125.017 70.4327 125.883 65.7427C129.285 57.6234 130.789 48.1481 134.145 39.9679C134.538 39.2493 134.843 39.1455 135.406 39.4191Z" fill="#1B1A17"/>
<path d="M148.664 51.3848C151.719 47.2532 154.503 43.0348 157.441 38.6154C160.645 37.1313 163.527 34.2261 166.884 35.9536C167.789 36.4194 168.795 35.5315 169.602 34.6132C172.969 30.782 176.599 27.772 180.101 24.3649C181.484 23.019 182.776 21.8575 184.424 22.5737C185.482 23.0334 186.498 22.5181 187.503 21.8099C188.462 21.1346 189.549 20.6985 190.255 22.4805C190.933 24.1898 190.622 25.9733 189.893 27.4913C187.837 31.7717 185.776 36.0666 183.352 39.7343C182.152 41.55 181.615 44.5326 179.757 45.5655C178.894 46.2504 178.375 47.1397 177.816 48.455C176.09 49.2104 174.935 51.0671 173.648 52.4918C170.033 56.4951 166.365 60.093 161.99 61.2526C159.152 62.0044 157.779 66.7427 155.553 69.8519C154.267 72.0399 153.238 74.1592 151.791 76.0659C151.468 76.3556 151.332 76.4457 150.985 76.6446C150.476 76.8032 150.188 76.7317 149.693 76.4637C147.929 75.3904 146.565 76.5288 145.484 78.0774C144.871 78.9561 144.309 79.7806 143.595 79.7026C141.979 79.5259 140.632 80.4412 139.275 81.8411C137.975 83.1824 136.705 83.1739 135.87 79.9124C138.568 68.7445 142.359 59.2043 147.672 51.5811C147.972 51.1512 148.154 51.3613 148.664 51.3848Z" fill="#171714"/>
<path d="M178.853 43.7196C183.311 39.0124 186.119 32.2871 188.951 25.1567C187.481 24.2623 186.829 25.8826 185.981 26.4272C185.444 26.7715 184.75 27.7234 184.408 27.4277C180.043 23.6526 177.73 31.2298 174.362 32.8846C172.587 33.7568 171.069 36.2452 169.462 38.0747C168.183 39.5305 166.909 40.2056 165.394 39.0725C162.989 37.274 160.452 40.6539 157.812 38.5294C160.78 32.4769 164.422 27.5402 168.443 23.3986C169.415 22.3975 170.267 21.0483 171.321 19.6413C174.098 16.6694 176.899 14.5668 179.767 12.6636C181.224 11.697 182.585 10.6602 184.192 11.5021C185.517 12.1963 186.611 10.9334 187.706 9.90833C189.657 8.08075 191.651 6.52344 193.919 6.2713C196.474 5.98724 196.792 6.7926 195.864 11.0657C194.991 15.0804 193.149 18.3807 192.939 23.2831C194.17 25.3311 193.477 26.3365 192.727 28.0543C190.686 32.7322 187.969 36.2404 185.695 41.0734C183.53 44.5012 181.19 46.936 179.443 50.6056C179.015 51.5051 178.214 51.8102 177.27 51.9531C176.325 50.8146 176.035 49.8074 176.924 48.2686C177.852 46.9099 178.002 45.1434 178.853 43.7196Z" fill="#101110"/>
<path d="M119.994 27.1219C117.27 36.9169 112.882 44.5445 110.207 54.884C108.916 51.9919 109.666 50.1753 110.182 48.6514C112.315 42.3551 114.523 36.1335 116.773 29.9609C117.336 28.4191 118.06 27.0549 118.34 25.2459C118.908 21.5656 118.004 19.6141 115.849 20.3349C112.971 21.2971 109.51 20.104 107.866 26.1961C107.794 26.4624 107.581 26.7504 107.416 26.7858C102.82 27.7715 99.3087 33.64 94.9676 35.3276C91.545 36.6582 89.6887 39.808 88.211 44.897C86.285 51.5293 84.3374 58.198 81.4658 64.2363C83.131 53.0441 86.6881 43.2371 90.7355 33.9347C91.5863 31.9793 92.6925 30.3252 93.4914 28.2301C95.3207 23.4326 97.8271 20.4503 101.146 19.3278C104.574 18.1681 107.536 14.8899 110.636 12.3107C112.333 10.899 113.842 10.1349 115.428 12.4486C116.335 13.7719 117.259 14.0898 118.283 12.6833C119.857 10.5224 121.648 11.9188 123.273 12.2576C124.642 12.5428 124.337 14.692 123.721 16.15C122.988 17.8868 122.124 19.4645 121.285 21.0602C120.421 22.7026 119.666 24.3862 119.994 27.1219Z" fill="#0E0F0F"/>
<path d="M77.4063 66.2047C75.9142 64.5333 74.7897 65.1953 73.7619 67.2717C72.2449 70.3366 71.0333 73.762 70.1464 77.4523C65.8537 95.3152 62.4326 113.475 62.1308 133.174C62.0002 141.702 61.7587 150.4 60.2909 158.79C59.3542 164.145 60.6603 169.671 60.3676 175.185C60.1316 179.631 60.4174 184.16 60.4835 189.037C58.5583 184.385 59.2482 178.516 58.8073 173.022C57.8978 161.69 59.2295 150.689 60.2304 139.512C61.0603 130.244 61.291 120.787 62.1648 111.436C62.7514 105.158 63.5257 99.1507 64.6893 93.1278C66.7599 82.4107 68.6866 71.6354 71.685 61.5345C72.6597 58.2507 73.6143 55.0396 75.3967 52.8021C77.2334 50.4962 78.2779 47.0567 79.5498 43.9398C80.0645 42.6787 80.7618 41.6272 81.7401 42.1851C82.6732 42.7172 82.7302 44.2295 82.5043 45.5213C81.2614 52.6313 80.4848 60.0931 77.4063 66.2047Z" fill="#0E0F0F"/>
<path d="M148.859 51.1864C144.371 59.8412 139.803 68.2051 136.886 79.1569C137.507 84.0073 135.921 87.6675 135.257 91.6833C134.8 94.4504 134.219 97.1575 133.896 100.701C133.965 101.537 134.032 101.662 134.208 101.969C134.477 102.43 134.63 102.718 134.909 103.265C135.591 105.171 135.082 106.709 134.812 108.216C133.64 114.779 131.933 120.939 129.948 127.279C129.92 127.916 129.917 128.171 129.916 128.806C129.976 130.446 130.053 131.708 129.64 133.242C129.235 134.136 128.887 134.609 128.438 135.457C128.066 136.137 127.929 136.605 127.866 137.562C127.823 143.345 127.476 148.556 125.148 153.066C122.535 150.378 121.984 145.589 123.593 140.228C123.785 139.588 123.6 138.262 124.503 137.72C124.69 137.351 124.686 137.012 124.68 136.843C125.017 135.835 124.902 134.84 125.117 133.633C126.362 128.439 127.48 123.525 128.647 118.287C129.995 112.376 130.731 106.552 131.265 100.27C132.806 79.2085 138.83 62.791 147.578 48.585C148.079 49.2206 148.432 50.061 148.859 51.1864Z" fill="#0F0E0C"/>
<path d="M147.188 15.7114C143.561 12.7429 139.833 13.3299 135.861 14.4037C139.803 7.81927 145.121 4.74407 150.044 0.462456C150.955 -0.329292 151.966 -0.126839 152.688 1.24267C153.548 2.87243 153.215 4.68365 152.612 6.26269C151.879 8.17858 151.034 9.96557 150.159 12.1213C149.407 13.6376 148.735 14.8409 147.918 16.2353C147.531 16.481 147.336 16.3414 147.188 15.7114Z" fill="#0E0F0F"/>
<path d="M129.9 21.0862C129.041 24.9366 127.384 27.2132 125.838 29.6411C125.489 30.1902 125.031 30.7349 124.553 30.3076C123.988 29.8028 124.243 28.8979 124.393 28.1354C125.401 23.0254 123.713 24.2191 121.936 25.3137C123.858 18.3425 127.475 14.1857 131.367 10.6157C131.992 10.0419 132.968 9.44567 133.487 10.688C134.075 12.0931 133.158 13.0435 132.684 13.9614C131.612 16.0372 130.302 17.8052 129.9 21.0862Z" fill="#0E0F0F"/>
<path d="M73.0685 83.4274C73.5061 90.3308 71.4504 96.3097 70.6538 102.786C70.242 106.134 69.607 109.4 68.7585 112.574C69.0531 102.669 69.298 92.7625 72.4688 83.6319C72.726 83.4234 72.8239 83.4245 73.0685 83.4274Z" fill="#0E0F0F"/>
<path d="M55.7326 244.676C55.8529 246.863 55.9231 249.32 55.3665 252.051C54.7561 249.847 54.4531 247.301 55.7326 244.676Z" fill="#0E0F0F"/>
<path d="M33.8171 174.879C33.8863 174.826 33.9441 174.828 34.002 174.83C33.9365 174.864 33.8712 174.899 33.8171 174.879Z" fill="#0A0C0C"/>
<path d="M55.8463 239.619C55.8867 239.955 55.9027 240.49 55.8943 241.223C55.8539 240.886 55.8379 240.352 55.8463 239.619Z" fill="#0E0F0F"/>
<path d="M89.7752 245.18C89.8812 247.938 90.3243 250.549 88.9515 253.129C87.9225 249.792 88.3534 246.984 88.9959 244.323C89.2157 243.413 89.5758 244.305 89.7752 245.18Z" fill="#2C241C"/>
<path d="M91.5597 240.566C91.6523 241.162 91.6544 241.923 91.6484 243.064C91.1455 242.623 90.9338 241.748 91.5597 240.566Z" fill="#1B1A17"/>
<path d="M135.706 39.2188C135.529 39.7598 135.419 39.9687 135.221 40.3292C131.242 47.2429 129.555 56.4163 126.444 64.4196C126.124 65.4906 125.921 66.3043 125.579 67.2814C125.36 68.0073 125.267 68.4865 125.162 69.353C124.489 72.0422 124.607 74.9128 123.236 77.0932C123.047 78.0966 123.083 78.8066 122.866 79.7706C122.741 80.5432 122.689 80.9929 122.598 81.7713C122.508 82.6242 122.333 82.9611 121.921 83.4066C119.798 83.6906 119.378 84.8609 120.939 87.7783C120.78 88.5945 120.74 89.1166 120.671 90.0214C116.821 91.9943 115.497 97.1403 114.788 102.774C114.353 106.233 113.576 108.901 111.932 111.021C109.442 114.229 108.076 118.771 107.198 123.833C106.151 129.878 105.293 136.008 104.049 141.967C102.594 148.943 102.601 156.427 102.505 163.683C102.284 180.471 101.981 197.286 102.748 214.068C102.834 215.951 102.37 217.39 101.718 219.165C101.379 233.912 102.698 247.857 106.282 261.117C103.597 253.28 100.76 245.641 100.38 235.847C99.9752 215.087 99.5888 194.739 99.1809 174.391C99.1486 172.779 99.3137 170.601 98.2497 170.039C96.9885 169.373 96.9188 171.879 96.3757 173.091C96.0839 173.742 95.7741 174.369 95.3271 175.222C96.4182 158.791 96.6946 141.981 98.5232 125.419C100.929 103.628 103.417 81.7879 109.712 62.3022C113.07 51.9098 117.75 42.7248 124.796 38.3453C127.76 36.5034 130.675 34.4025 133.709 32.8845C134.78 32.3485 136.029 30.7609 136.918 32.602C137.739 34.3005 136.421 35.8573 136.108 37.5081C136.018 37.9804 135.887 38.4293 135.706 39.2188Z" fill="#121413"/>
<path d="M97.5297 107.074C94.6998 107.84 93.624 111.225 92.8491 115.214C91.4104 122.619 89.9824 130.025 88.9767 137.658C88.7446 139.419 88.2287 141.069 87.7516 143.097C87.1548 144.132 87.3892 146.093 86.1223 145.619C83.2813 140.243 81.381 133.843 77.5245 130.604C76.3283 129.6 76.1538 126.998 76.1868 124.815C76.3588 113.436 77.1883 102.233 79.6123 91.5553C79.9667 89.9942 80.278 87.38 81.5879 88.0175C82.7306 88.5736 82.1669 90.9082 82.0611 92.4592C81.3731 102.548 80.6288 112.625 79.9316 122.712C79.8584 123.769 79.4492 124.948 80.2135 126.198C81.5846 121.741 81.7306 116.893 82.2512 112.253C83.3758 102.23 84.8979 92.5332 88.1416 83.7773C89.5257 80.0411 90.8324 75.9099 91.4046 71.6488C92.4929 63.5452 95.5924 59.623 99.803 57.5187C101.258 56.7917 102.468 55.9439 103.23 53.4859C103.519 52.5523 104.191 51.8552 104.774 51.3419C105.519 50.686 106.405 49.716 107.165 51.0819C107.781 52.1887 107.473 53.71 107.126 54.8506C105.135 61.4066 104.395 68.7067 102.926 75.5658C100.746 85.7425 99.2609 96.2672 97.5297 107.074Z" fill="#121413"/>
<path d="M72.1946 228.649C72.0767 223.386 72.0754 218.393 72.0722 212.937C72.813 211.226 73.2252 209.929 73.2147 207.917C73.1883 202.862 73.1672 197.799 73.2578 192.738C73.2859 191.165 73.3868 189.95 74.2158 188.682C74.3704 184.738 74.3768 181.051 74.3837 176.904C76.1188 173.036 75.1998 168.359 76.2818 164.6C76.878 162.528 77.1403 160.192 77.5021 157.954C77.8615 155.732 78.4606 153.621 79.7958 153.345C81.4389 153.005 81.6121 155.788 82.2676 158.083C81.6251 167.667 81.6497 176.963 81.6706 186.252C81.706 201.99 80.2597 216.999 74.5341 230.241C73.5837 230.34 72.8166 230.166 72.1946 228.649Z" fill="#1B1A17"/>
<path d="M82.4414 157.973C80.4914 155.728 79.2493 156.25 78.6064 160.664C78.047 164.506 77.2477 168.242 76.632 172.062C76.3288 173.943 75.8194 175.391 74.5697 176.301C74.7867 165.22 75.1517 153.991 75.6198 142.776C75.741 139.873 75.8024 136.134 78.1567 136.167C80.3709 136.197 82.0108 138.728 82.2324 142.626C82.5122 147.549 82.3925 152.541 82.4414 157.973Z" fill="#141513"/>
<path d="M85.8615 145.769C86.4161 144.861 86.8934 144.307 87.5145 143.587C87.7555 144.571 88.0925 145.85 87.9116 146.848C86.5788 154.205 87.0248 161.562 87.5896 169.003C87.9276 173.456 86.5972 176.274 83.8296 177.338C83.4638 166.819 83.797 156.3 85.8615 145.769Z" fill="#141513"/>
<path d="M65.7242 194.958C65.6952 196.183 65.6947 196.915 65.6945 198.013C65.5995 199.911 65.8418 201.487 65.3065 203.203C64.1458 202.122 63.5374 200.347 63.5615 198.296C63.657 190.169 62.3098 182.194 62.8207 174.011C63.0353 170.572 62.8477 167.062 62.8999 163.587C62.924 161.982 62.7447 159.573 63.8413 159.357C65.1448 159.101 64.8891 161.608 65.0532 163.121C65.1407 163.927 65.0984 164.775 65.1178 166.015C66.4246 172.004 65.4636 177.855 65.7386 183.567C65.9103 187.135 65.7177 190.827 65.7242 194.958Z" fill="#141513"/>
<path d="M74.1577 188.519C74.3633 197.394 74.3633 206.364 74.3633 215.846C73.4378 214.769 73.2546 213.036 72.2297 212.587C72.0707 206.513 72.0539 200.553 72.0812 194.593C72.0928 192.068 72.1472 189.498 74.1577 188.519Z" fill="#14120F"/>
<path d="M65.7714 195.059C64.488 186.151 65.4023 176.719 65.1193 166.893C65.3765 166.424 65.633 166.423 66.082 166.422C66.0609 175.833 66.7426 185.285 65.7714 195.059Z" fill="#0E0F0F"/>
<path d="M67.9379 118.514C69.1098 124.645 67.2826 130.199 66.8495 136.02C67.0259 130.14 66.062 124.117 67.9379 118.514Z" fill="#0E0F0F"/>
<path d="M94.5152 190.762C95.4411 195.58 94.5485 200.602 94.1102 206.049C93.0712 201.24 93.2919 196.14 94.5152 190.762Z" fill="#121413"/>
<path d="M94.5249 214.8C95.2687 218.103 95.9415 221.782 95.2502 226.064C93.6047 222.932 93.9126 219.077 94.5249 214.8Z" fill="#141513"/>
<path d="M71.9782 228.552C72.9605 228.215 73.8098 228.194 74.3085 230.171C74.3723 230.424 74.3668 230.421 74.3672 230.426C73.2831 231.758 73.3755 234.05 72.755 236.162C72.3445 236.708 72.0594 236.953 71.6289 237.311C71.4818 235.05 71.4802 232.679 71.479 229.862C71.6131 229.188 71.7462 228.958 71.9782 228.552Z" fill="#14120F"/>
<path d="M72.7703 236.223C72.6912 234.266 72.6333 231.984 74.1893 230.583C74.1981 232.529 73.8035 234.452 72.7703 236.223Z" fill="#1B1A17"/>
<path d="M147.055 15.5933C147.321 15.6373 147.451 15.8618 147.678 16.256C147.247 17.5489 146.795 18.8344 145.674 19.3438C145.549 17.3606 146.363 16.6888 147.055 15.5933Z" fill="#0C0E0D"/>
<path d="M65.1172 203.67C65.2598 201.971 65.403 200.521 65.6197 198.725C66.1364 200.33 66.3238 202.237 65.2492 204.186C65.1181 204.418 65.1176 203.919 65.1172 203.67Z" fill="#0E0F0F"/>
<path d="M94.0936 209.659C94.2175 209.944 94.4062 210.485 94.5957 211.223C94.4505 210.918 94.3045 210.417 94.0936 209.659Z" fill="#121413"/>
<path d="M108.682 200.764C107.991 183.466 110.182 166.876 111.08 150.096C110.845 150.031 110.61 149.966 110.375 149.901C109.378 161.474 108.38 173.048 107.345 185.029C106.496 186.779 106.23 188.49 106.177 190.362C105.923 199.211 104.379 207.938 105.462 216.933C105.713 219.022 105.712 221.794 103.592 219.449C103.186 219.001 102.487 219.349 101.747 219.394C100.196 195.752 100.287 171.991 101.755 148.37C102.478 136.749 104.708 125.452 107.804 114.877C108.631 112.053 109.659 109.462 111.372 107.884C112.827 106.544 112.878 103.88 113.249 101.465C114.145 95.6257 115.458 90.3199 119.788 89.4832C120.944 90.6274 120.202 92.2254 119.988 93.0447C117.929 100.929 117.372 109.25 117.344 117.742C117.332 121.409 118.376 124.685 118.849 128.18C119.663 134.198 119.812 140.187 118.679 146.561C117.125 148.07 116.553 149.807 116.014 152.615C114.5 160.501 114.206 168.834 112.294 176.661C110.775 182.88 111.143 190.313 110.996 197.271C110.955 199.22 111.393 202.922 108.682 200.764Z" fill="#1B1A17"/>
<path d="M102.38 263.103C102.163 263.993 102.059 264.905 101.803 265.059C101.077 265.494 101.085 264.309 101.106 263.616C101.204 260.245 101.364 256.881 101.548 252.406C102.759 256.398 102.711 259.558 102.38 263.103Z" fill="#1B1A17"/>
<path d="M108.445 268.168C108.111 267.73 107.768 266.999 107.248 265.891C108.335 265.975 108.253 267.121 108.445 268.168Z" fill="#121413"/>
<path d="M110.517 276.896C110.513 276.872 110.52 276.919 110.517 276.896Z" fill="#181411"/>
<path d="M109.132 269.595C109.198 269.592 109.33 269.808 109.544 270.216C109.634 270.393 109.622 270.42 109.613 270.432C109.464 270.243 109.332 270.028 109.132 269.595Z" fill="#181411"/>
<path d="M108.481 268.408C108.631 268.589 108.761 268.803 108.969 269.212C109.057 269.389 109.043 269.417 109.035 269.43C108.886 269.247 108.754 269.036 108.542 268.634C108.453 268.459 108.471 268.424 108.481 268.408Z" fill="#121413"/>
<path d="M96.3785 276.745C96.8067 277.109 97.0292 277.953 96.9018 279.266C96.7234 278.698 96.5683 277.88 96.3785 276.745Z" fill="#101110"/>
<path d="M28.4111 333.293C28.6052 324.387 28.9842 315.378 29.3844 305.925C32.3489 310.781 31.8124 329.138 28.4111 333.293Z" fill="#0E0F0F"/>
<path d="M29.9544 300.305C29.8106 298.102 29.8375 295.723 29.8813 292.904C31.3936 294.892 32.1948 297.383 29.9544 300.305Z" fill="#0E0F0F"/>
<path d="M81.2437 247.912C80.8575 248.796 80.561 248.736 80.5751 247.775C80.5843 247.144 80.5584 246.032 81.2753 246.431C81.3522 246.474 81.2854 247.29 81.2437 247.912Z" fill="#14120F"/>
<path d="M196.182 19.6932C197.52 20.1849 197.522 21.4724 196.79 22.8576C193.659 28.7858 190.936 35.4001 186.955 40.3154C186.263 40.9244 185.777 41.6928 184.915 40.7622C186.796 36.6483 188.863 32.9431 190.938 29.2527C191.749 27.8117 192.513 26.3288 192.862 23.9908C194.18 22.974 195.061 21.3226 196.182 19.6932Z" fill="#241F19"/>
<path d="M121.268 229.352C119.325 227.916 119.546 225.125 119.443 222.515C119.346 220.055 119.191 217.602 118.991 214.752C117.292 211.879 118.21 208.65 118.12 205.757C117.739 193.494 117.081 181.243 117.489 168.935C117.512 168.242 117.536 167.691 118.027 166.826C119.228 159.011 120.18 151.548 121.169 144.099C121.573 141.058 122.308 138.407 124.488 137.466C125.013 141.838 123.408 146.464 125.135 151.154C126.996 149.513 127.465 152.161 127.175 153.761C126.696 156.404 126.974 158.11 128.236 160.125C127.177 169.209 125.546 177.651 124.439 186.333C123.198 196.064 122.715 205.96 122.041 215.831C121.734 220.314 122.46 224.841 121.268 229.352Z" fill="#241F19"/>
<path d="M118.192 166.098C118.478 182.123 118.693 197.779 118.915 213.897C118.454 216.248 118.323 218.408 117.285 220.181C115.534 220.225 115.828 217.967 115.755 216.307C115.61 213 115.626 209.668 115.707 206.356C116.064 191.744 114.965 177.195 115.111 162.593C115.155 158.177 115.624 153.963 116.511 149.811C116.802 148.448 117.252 147.742 118.071 146.76C119.264 138.284 119.434 130.307 116.514 123.041C116.023 121.819 116.141 120.535 116.205 119.212C116.685 109.239 117.782 99.4997 119.931 89.7858C120.018 89.0045 120.026 88.5625 120.038 87.7894C119.699 85.9744 119.483 84.5364 120.767 83.4937C122.284 83.4424 122.386 84.8232 122.277 86.9493C118.096 99.6277 117.384 112.671 119.284 126.337C120.267 133.408 120.117 140.405 119.248 147.553C118.525 153.495 117.383 159.471 118.192 166.098Z" fill="#0C0E0D"/>
<path d="M125.737 64.8367C128.091 55.7272 130.585 47.2913 134.959 40.6411C132.139 48.2744 130.357 57.2426 127.104 65.1661C126.518 66.1724 126.075 66.258 125.737 64.8367Z" fill="#101110"/>
<path d="M125.679 64.5868C126.096 64.6605 126.39 64.9271 126.836 65.3141C126.05 69.8646 125.113 74.2949 124.112 79.0766C123.316 80.1992 123.37 82.7531 121.896 81.7594C121.775 80.9735 121.773 80.5387 121.769 79.778C121.777 78.5592 121.692 77.6328 122.211 76.6317C123.196 74.1901 123.782 71.8085 124.045 68.8173C124.062 67.8451 124.14 67.2922 124.521 66.6425C124.948 65.8854 125.252 65.3325 125.679 64.5868Z" fill="#0C0E0D"/>
<path d="M131.273 100.173C131.093 105.962 130.948 112.037 128.828 117.652C129.361 112.042 130.014 106.116 131.273 100.173Z" fill="#473224"/>
<path d="M121.679 81.5793C122.425 80.8405 123.074 80.2726 123.885 79.5665C123.525 81.8687 123.002 84.309 122.398 87.0723C121.994 86.5635 121.672 85.7318 121.25 84.6523C120.838 84.072 120.729 83.5987 121.007 82.7045C121.322 82.2019 121.453 81.9772 121.679 81.5793Z" fill="#0E0F0F"/>
<path d="M125.166 133.669C125.111 134.245 124.976 135.137 124.758 136.352C124.811 135.778 124.949 134.882 125.166 133.669Z" fill="#241F19"/>
<path d="M161.427 72.941C163.529 75.0284 165.263 74.3975 167.087 71.9745C170.449 67.5081 174.208 64.3799 178.181 61.5815C182.352 58.6433 186.717 55.243 189.021 47.5118C189.841 44.7596 191.395 42.9345 192.835 41.536C196.611 37.8662 198.975 32.0935 201.357 26.2332C201.799 25.1452 202.258 24.0559 202.791 23.1058C203.292 22.213 203.874 20.6435 204.668 21.854C205.276 22.7803 204.63 24.0306 204.252 24.9333C199.453 36.3942 194.79 48.0689 189.113 58.3039C186.203 63.5498 184.32 70.5353 180.171 74.1571C176.798 75.4258 175.113 80.3346 172.604 83.1907C168.944 87.3563 165.35 91.6999 161.475 95.9496C160.869 96.1307 160.797 97.6286 160.051 97.2456C159.781 97.5605 159.673 97.6838 159.371 97.8836C155.836 98.7303 153.57 102.725 151 105.907C149.489 107.777 147.899 110.549 145.601 107.783C145.401 106.535 145.304 105.602 145.171 104.318C144.857 103.5 144.536 103.077 144.663 101.983C144.856 101.559 144.967 101.443 145.245 101.167C146.326 98.2092 147.756 96.2848 149.352 94.928C151.361 93.22 151.775 88.8842 153.411 87.7145C151.582 92.4455 148.35 95.6099 145.752 99.964C144.892 101.405 144.118 101.524 143.166 101.637C141.158 101.874 140.404 103.841 140.251 107.196C139.941 114.009 138.493 119.972 135.284 124.302C134.655 125.151 134.237 126.197 133.817 127.317C132.249 131.503 131.512 131.745 128.727 128.754C129.285 122.055 131.741 116.97 132.693 110.853C133.042 108.612 133.467 106.407 133.832 103.555C133.766 102.764 133.726 102.603 133.665 102.182C133.656 101.746 133.668 101.57 133.706 101.126C133.749 100.681 133.766 100.505 133.851 100.072C133.945 99.6352 133.97 99.4556 134.031 99.0082C134.106 98.5679 134.147 98.3955 134.263 97.9714C134.398 97.5559 134.456 97.3921 134.605 96.9809C134.757 96.566 134.817 96.3984 134.973 95.9778C135.136 95.5553 135.203 95.3858 135.384 94.9733C135.828 94.08 136.188 93.4794 136.689 92.6345C136.932 92.2324 137.03 92.0711 137.282 91.6688C140.7 89.9635 143.126 86.1928 145.679 82.6906C146.195 81.9839 146.573 81.4621 146.7 80.0637C146.681 79.4877 146.674 79.2575 146.658 78.6874C146.546 77.6172 146.715 77.046 147.156 76.3401C147.436 76.0976 147.561 76.0585 147.871 75.9927C148.177 75.9309 148.298 75.896 148.59 75.766C148.856 75.5488 148.95 75.4267 149.183 75.1192C149.413 74.8157 149.506 74.6974 149.7 74.3407C149.87 73.9477 149.939 73.7932 150.175 73.6026C150.544 73.755 150.758 73.8319 151.113 73.6091C152.292 71.8584 153.343 70.2955 154.544 68.5328C156.319 68.82 157.349 66.8113 158.608 65.6566C161.282 63.204 163.745 59.1723 167.287 61.9949C167.981 64.3824 167.625 65.4909 166.421 66.6282C164.36 68.5743 162.345 70.649 160.184 72.192C160.645 71.8849 161.045 71.9569 161.427 72.941Z" fill="#241F19"/>
<path d="M132.602 101.663C132.792 93.6316 134.505 86.738 136.689 79.7546C137.58 79.8387 138.346 79.7919 138.969 78.8541C141.905 74.4346 145.521 74.7039 149.279 74.9127C149.501 75.4359 149.506 75.4212 149.508 75.4136C149.25 75.8407 149.225 76.4462 149.02 77.228C148.916 77.4592 148.931 77.4272 148.939 77.4114C148.6 77.8832 148.155 78.1874 147.868 79.2078C147.763 79.4394 147.771 79.4235 147.775 79.4159C144.561 84.1475 141.644 89.4734 138.124 94.2101C137.938 94.4304 137.945 94.4201 137.948 94.4138C137.469 95.6105 137.175 97.0481 136.341 98.1981C136.084 98.6436 135.955 98.8655 135.731 99.2537C135.635 99.4202 135.634 99.4229 135.634 99.4229C135.381 99.8472 135.352 100.43 135.161 101.193C135.058 101.415 135.056 101.422 135.054 101.424C134.959 101.59 134.864 101.753 134.629 102.161C134.487 102.406 134.478 102.422 134.473 102.43C134.374 102.602 134.279 102.766 134.041 103.177C133.899 103.423 133.9 103.42 133.9 103.42C133.752 103.589 133.61 103.771 133.373 104.118C132.892 104.92 132.638 104.544 132.33 103.656C132.248 103.363 132.23 102.9 132.217 102.669C132.29 102.261 132.376 102.085 132.602 101.663Z" fill="#241F19"/>
<path d="M167.218 63.9173C163.779 63.0901 161.399 65.9795 158.956 68.6008C157.646 70.0053 156.32 71.7618 154.809 68.5761C156.143 65.7055 157.577 63.0559 159.045 60.462C159.441 59.7621 159.911 58.7732 160.39 58.693C166.488 57.6727 171.229 50.7332 177.033 47.4823C177.344 47.2545 177.444 47.0963 177.691 47.18C177.666 48.3398 177.493 49.2577 177.267 50.5256C178.04 54.3494 175.972 54.6681 175.149 56.1023C173.303 59.3205 170.759 61.0691 168.663 64.4699C168.127 64.7439 167.832 64.6456 167.218 63.9173Z" fill="#1E1C19"/>
<path d="M177.959 47.1787C177.737 47.4204 177.638 47.4191 177.39 47.4151C177.445 45.8656 177.828 44.53 178.848 43.5881C178.704 44.5993 178.393 45.7675 177.959 47.1787Z" fill="#1B1A17"/>
<path d="M149.508 74.4276C149.675 73.6777 149.688 72.6112 150.523 73.1679C150.664 73.6842 150.583 73.9629 150.206 74.2562C150.074 74.4314 150.082 74.4219 150.086 74.4178C149.996 74.5588 149.901 74.7038 149.659 74.6413C149.512 74.4337 149.506 74.4245 149.508 74.4276Z" fill="#241F19"/>
<path d="M150.227 74.334C150.181 74.1605 150.296 73.8985 150.509 73.4556C150.707 73.2919 150.814 73.3177 151.08 73.3823C150.953 73.6931 150.667 73.9649 150.227 74.334Z" fill="#0F0E0C"/>
<path d="M167.906 62.6175C171.388 59.6085 174.192 55.4791 177.094 51.0885C179.611 47.4969 182.009 44.1181 184.566 40.5433C185.24 40.3753 185.756 40.4033 186.531 40.4393C180.46 52.7373 172.85 62.1859 164.635 70.2846C163.719 71.1879 162.761 71.9655 161.661 73.0136C160.825 73.4663 160.185 73.815 159.686 75.1258C159.516 75.4762 159.429 75.5708 159.214 75.8158C158.883 76.1223 158.701 76.0673 158.3 75.5542C156.444 74.9624 157.086 74.174 157.919 73.2869C160.819 70.1983 163.712 67.0907 166.74 63.7483C166.872 63.5062 166.871 63.468 166.862 63.4626C167.094 62.976 167.443 62.933 167.906 62.6175Z" fill="#402E20"/>
<path d="M128.695 128.417C131.047 128.688 132.552 126.905 133.165 122.919C133.441 121.122 133.624 119.852 135.225 120.213C136.881 120.586 138.911 113.635 138.691 109.355C138.25 100.754 138.978 99.8663 144.039 98.1501C146.688 97.2522 149.102 94.2598 150.801 90.2207C152.272 86.7227 154.128 84.3887 157.115 83.6293C153.956 90.7604 149.666 94.9008 146.688 101.694C146.689 102.286 146.769 102.59 146.605 103.165C146.025 103.564 145.688 103.692 145.243 103.895C142.336 105.575 141.89 110.428 140.375 114.23C140.158 114.631 140.076 114.793 140.12 115.194C140.563 117.64 140.261 119.708 139.696 122.04C138.312 123.968 138.594 127.014 137.506 129.214C137.367 129.472 137.369 129.42 137.378 129.44C137.054 129.968 136.733 130.504 136.257 131.122C136.099 131.512 136.02 131.649 135.938 132.098C135.254 134.263 134.706 136.218 134.292 138.607C134.1 139.248 133.946 139.552 133.729 140.102C133.475 141.187 132.998 141.797 133.007 143.092C132.785 143.785 132.622 144.144 132.482 144.84C131.917 148.063 130.747 150.497 130.272 153.812C129.89 155.44 129.381 156.662 129.192 158.473C129.015 159.962 128.762 160.812 127.794 160.617C125.626 158.531 126.467 154.536 125.363 151.689C125.747 146.573 126.235 141.695 126.802 136.433C127.348 135.938 127.407 135.486 127.094 134.626C127.082 133.9 127.198 133.379 127.392 132.614C128.271 131.632 128.059 130.022 128.576 128.679C128.693 128.417 128.697 128.422 128.695 128.417Z" fill="#2C241C"/>
<path d="M126.951 134.693C127.615 135.23 128.725 135.865 127.942 137.643C127.568 138.494 127.214 137.241 126.938 136.306C126.899 135.687 126.917 135.327 126.951 134.693Z" fill="#241F19"/>
<path d="M128.564 128.651C128.591 129.756 128.373 131.004 127.616 132.154C127.793 131.207 128.114 130.047 128.564 128.651Z" fill="#241F19"/>
<path d="M132.265 103.554C132.501 103.598 132.755 103.832 133.141 104.169C132.773 105.045 132.457 104.792 132.265 103.554Z" fill="#171714"/>
<path d="M132.648 101.582C132.627 101.652 132.509 101.881 132.296 102.271C132.317 102.2 132.434 101.97 132.648 101.582Z" fill="#171714"/>
<path d="M129.22 152.646C130.331 149.915 131.091 147.256 131.546 143.986C131.699 143.33 131.827 143.028 132.075 142.533C132.346 141.619 132.505 140.907 132.699 139.915C132.85 139.338 132.974 139.05 133.215 138.582C133.859 136.357 134.392 134.32 134.985 131.967C135.169 131.328 135.301 131.015 135.551 130.493C136.119 130.028 136.575 129.782 137.209 129.497C136.64 132.551 135.893 135.644 135.097 139.086C134.779 139.847 134.778 140.453 134.565 141.201C134.302 141.909 134.145 142.397 133.943 143.156C133.461 144.127 133.684 145.102 133.423 146.181C133.297 146.432 133.308 146.372 133.29 146.37C132.95 151.074 131.841 155.443 131.319 160.073C131.013 162.786 130.497 165.465 128.743 167.132C121.803 205.256 120.347 243.14 129.756 281.026C129.544 282.509 129.084 282.557 128.32 281.731C127.99 281.207 127.866 280.983 127.652 280.585C124.08 269.626 121.811 258.174 121.336 245.782C121.238 243.219 120.283 240.84 120.982 237.787C121.098 235.067 121.059 232.724 120.994 229.943C120.21 205.881 123.117 183.3 127.535 160.768C127.76 159.65 127.922 158.894 128.121 157.841C128.105 155.783 128.429 154.236 129.22 152.646Z" fill="#473224"/>
<path d="M159.142 95.9882C159.484 95.9183 159.589 95.8449 159.848 95.6483C160.128 94.8546 160.44 94.7702 160.934 94.667C166.453 88.8785 171.769 83.0754 176.627 76.1161C177.509 74.8525 178.374 73.4731 179.836 74.1958C171.52 86.4992 162.485 97.2642 152.626 106.514C150.708 104.428 152.429 103.233 153.013 102.635C155.038 100.565 156.91 98.1158 159.142 95.9882Z" fill="#4D3826"/>
<path d="M159.225 95.8697C157.587 100.285 154.18 101.267 152.494 106.244C152.416 106.558 152.38 106.534 152.388 106.504C152.218 106.712 152.065 106.994 151.878 107.591C149.419 110.329 147.036 112.84 144.613 115.229C144.018 115.815 143.257 117.238 142.614 115.617C142.14 114.419 142.549 112.962 143.041 111.924C143.709 110.514 144.497 109.276 145.365 107.716C149.899 105.049 153.664 100.604 157.448 96.2153C157.937 95.6487 158.479 95.3564 159.225 95.8697Z" fill="#382B20"/>
<path d="M137.531 129.297C137.882 126.728 138.24 123.846 138.975 121.289C139.463 119.59 139.454 121.429 139.604 122.132C139.002 124.626 138.94 127.375 137.531 129.297Z" fill="#5E442F"/>
<path d="M166.838 142.456C166.851 142.459 166.826 142.454 166.838 142.456Z" fill="#121413"/>
<path d="M143.23 227.663C143.351 227.948 143.533 228.49 143.715 229.229C143.573 228.923 143.432 228.422 143.23 227.663Z" fill="#181411"/>
<path d="M133.371 146.141C133.429 145.61 133.561 144.787 133.795 143.695C133.747 144.233 133.596 145.041 133.371 146.141Z" fill="#0F0E0C"/>
<path d="M140.238 115.19C140.183 115.516 140.122 115.602 140.06 115.688C140.09 115.368 140.12 115.049 140.195 114.598C140.239 114.467 140.232 114.949 140.238 115.19Z" fill="#5E442F"/>
<path d="M134.539 141.178C134.584 140.901 134.709 140.381 134.941 139.649C134.905 139.936 134.762 140.435 134.539 141.178Z" fill="#0F0E0C"/>
<path d="M151.941 107.662C151.94 107.544 152.062 107.225 152.291 106.69C152.287 106.803 152.175 107.132 151.941 107.662Z" fill="#4D3826"/>
<path d="M121.038 82.3983C121.182 82.8648 121.173 83.3049 121.158 84.075C120.844 85.2529 120.536 86.1008 120.135 87.2031C117.837 84.5272 118.977 83.2585 121.038 82.3983Z" fill="#1B1A17"/>
<path d="M122.242 76.5626C122.205 77.2152 122.061 78.0378 121.842 79.1562C121.602 78.4288 121.651 77.4926 122.242 76.5626Z" fill="#1B1A17"/>
<path d="M124.555 66.5643C124.506 66.9453 124.37 67.4526 124.155 68.207C124.207 67.8663 124.337 67.2784 124.555 66.5643Z" fill="#1B1A17"/>
<path d="M74.1779 222.242C74.3247 222.238 74.4446 222.327 74.5645 222.416C74.5277 222.54 74.4909 222.664 74.454 222.787C74.3529 222.636 74.2519 222.486 74.1779 222.242Z" fill="#14120F"/>
<path d="M118.09 146.397C116.524 155.443 116.226 164.766 116.676 174.08C117.407 189.21 116.996 204.346 117.144 219.944C116.21 228.412 116.649 236.612 115.965 244.647C115.832 246.206 116.185 248.394 114.976 248.855C113.777 249.311 113.12 247.481 112.585 245.891C112.3 245.045 112.045 244.08 111.971 243.124C110.889 229.183 108.476 215.572 108.504 200.905C109.704 198.324 109.491 195.594 109.641 192.966C110.127 184.489 109.824 175.955 112.316 167.846C113.879 162.758 113.452 156.155 114.905 150.637C115.515 148.319 116.006 145.887 118.09 146.397Z" fill="#241F19"/>
<path d="M121.011 237.672C122.525 251.829 124.413 266.018 127.535 280.039C123.689 273.05 121.903 263.941 121.026 254.471C120.531 249.119 119.607 243.461 121.011 237.672Z" fill="#241F19"/>
<path d="M128.184 281.755C128.542 281.415 128.968 281.4 129.606 281.377C130.749 284.167 131.68 286.964 132.674 290.098C130.488 288.86 129.222 285.708 128.184 281.755Z" fill="#241F19"/>
<path d="M132.745 290.418C132.748 290.412 132.751 290.466 132.743 290.45C132.735 290.434 132.741 290.423 132.745 290.418Z" fill="#241F19"/>
<path d="M115.682 127.937C115.694 127.951 115.67 127.923 115.682 127.937Z" fill="#0C0E0D"/>
<path d="M111.646 145.428C111.637 145.433 111.655 145.424 111.646 145.428Z" fill="#181411"/>
<path d="M118.889 326.836C118.919 327.267 118.951 328.05 118.944 329.059C118.901 328.585 118.896 327.886 118.889 326.836Z" fill="#181411"/>
<path d="M138.141 94.375C140.842 89.0063 143.427 82.9766 147.576 79.4678C147.573 80.4987 147.563 82.0962 147.13 82.5992C144.049 86.1749 141.854 91.7344 138.141 94.375Z" fill="#0F0E0C"/>
<path d="M136.381 98.2793C136.457 96.9346 136.97 95.7639 137.802 94.6041C137.815 96.0231 137.403 97.3267 136.381 98.2793Z" fill="#0F0E0C"/>
<path d="M158.306 75.1321C158.688 75.0209 158.875 75.0657 159.332 75.246C159.182 75.999 158.744 76.331 158.155 75.4587C158.062 75.3067 158.111 75.2883 158.306 75.1321Z" fill="#101110"/>
<path d="M147.891 79.2539C148.062 78.865 148.361 78.2903 148.803 77.5557C148.637 77.9533 148.328 78.5107 147.891 79.2539Z" fill="#0F0E0C"/>
<path d="M160.975 94.5493C160.817 94.8041 160.549 95.0618 160.142 95.4219C160.289 95.2001 160.577 94.8762 160.975 94.5493Z" fill="#382B20"/>
<path d="M135.148 101.184C135.188 100.905 135.319 100.395 135.541 99.6547C135.501 99.9337 135.37 100.443 135.148 101.184Z" fill="#0F0E0C"/>
<path d="M149.002 77.2129C149.052 76.935 149.19 76.4113 149.418 75.6466C149.369 75.9261 149.228 76.4465 149.002 77.2129Z" fill="#0F0E0C"/>
<path d="M149.508 74.684C149.608 74.4287 149.705 74.424 149.946 74.4164C149.979 74.6719 149.854 74.9097 149.608 75.2812C149.502 75.2683 149.503 75.1013 149.508 74.684Z" fill="#0F0E0C"/>
<path d="M135.739 99.2715C135.743 99.1683 135.866 98.9359 136.105 98.5726C136.102 98.6766 135.98 98.91 135.739 99.2715Z" fill="#0F0E0C"/>
<path d="M134.591 102.262C134.589 102.152 134.708 101.921 134.947 101.572C134.947 101.679 134.828 101.908 134.591 102.262Z" fill="#0F0E0C"/>
<path d="M134.005 103.277C134.005 103.169 134.124 102.937 134.363 102.582C134.365 102.692 134.245 102.924 134.005 103.277Z" fill="#0F0E0C"/>
<path d="M146.42 103.275C146.403 103.195 146.444 102.954 146.547 102.347C146.565 102.359 146.522 102.737 146.42 103.275Z" fill="#101110"/>
<path d="M167.893 62.565C167.752 62.7206 167.458 62.9909 167.008 63.3594C167.148 63.1982 167.444 62.939 167.893 62.565Z" fill="#241F19"/>
<path d="M158.455 74.9645C158.501 74.9758 158.332 75.1397 158.246 75.2148C158.225 75.1371 158.308 75.0249 158.455 74.9645Z" fill="#241F19"/>
<path d="M129.238 152.61C129.041 153.932 128.695 155.432 128.253 157.238C127.86 155.602 128.102 153.976 129.238 152.61Z" fill="#241F19"/>
<path d="M133.227 138.599C133.199 138.675 133.071 138.955 132.838 139.436C132.865 139.359 132.996 139.081 133.227 138.599Z" fill="#241F19"/>
<path d="M132.086 142.547C132.057 142.627 131.926 142.923 131.687 143.43C131.713 143.348 131.848 143.056 132.086 142.547Z" fill="#241F19"/>
<path d="M135.559 130.504C135.53 130.588 135.398 130.899 135.156 131.432C135.182 131.346 135.319 131.039 135.559 130.504Z" fill="#241F19"/>
<path d="M152.109 277.414C152.102 277.4 152.117 277.428 152.109 277.414Z" fill="#181411"/>
<path d="M152.703 280.408C152.705 280.388 152.7 280.429 152.703 280.408Z" fill="#181411"/>
<path d="M153.258 283.43C153.265 283.444 153.25 283.415 153.258 283.43Z" fill="#181411"/>
<path d="M154.134 259.414C154.14 259.405 154.136 259.469 154.127 259.455C154.118 259.442 154.129 259.424 154.134 259.414Z" fill="#1E1712"/>
<path d="M148.628 314.919C148.626 314.902 148.631 314.936 148.628 314.919Z" fill="#1E1712"/>
<path d="M136.501 308.908C136.51 308.905 136.493 308.91 136.501 308.908Z" fill="#241B15"/>
<path d="M148.348 231.421C148.348 231.421 148.36 231.455 148.353 231.439C148.347 231.423 148.348 231.421 148.348 231.421Z" fill="#181411"/>
<path d="M145.369 201.879C145.439 201.826 145.497 201.828 145.555 201.829C145.489 201.864 145.423 201.899 145.369 201.879Z" fill="#1E1712"/>
<path d="M151.796 177.412C151.793 177.432 151.799 177.392 151.796 177.412Z" fill="#121413"/>
<path d="M146.26 191.377C146.273 191.339 146.383 191.539 146.383 191.539C146.383 191.539 146.246 191.416 146.26 191.377Z" fill="#13100D"/>
<path d="M146.325 197.419C146.32 197.407 146.33 197.43 146.325 197.419Z" fill="#13100D"/>
<path d="M146.328 179.906C146.336 179.904 146.32 179.907 146.328 179.906Z" fill="#121413"/>
<path d="M204.401 97.4023C204.436 97.1419 204.478 96.893 204.52 96.6443C204.514 96.8382 204.508 97.0321 204.465 97.3303C204.427 97.4344 204.41 97.414 204.401 97.4023Z" fill="#101110"/>
<path d="M204.998 88.472C205.005 88.5216 204.991 88.4225 204.998 88.472Z" fill="#101110"/>
<path d="M125.487 325.932C125.483 325.952 125.491 325.912 125.487 325.932Z" fill="#181411"/>
</svg>
