<svg width="286" height="633" viewBox="0 0 286 633" fill="none" xmlns="http://www.w3.org/2000/svg">
<path d="M227.151 631.812C225.504 632.07 224.077 632.07 222.292 632.07C221.319 631.303 220.72 630.42 219.622 631.85C200.542 632.07 181.647 632.07 162.362 632.07C160.312 630.558 159.76 628.855 160.89 626.487C162.239 623.658 162.895 620.439 164.563 617.747C165.986 615.449 166.549 612.631 166.416 609.84C165.896 598.913 168.64 588.228 168.046 577.3C167.905 574.708 169.013 572.311 169.057 569.633C169.101 566.888 168.677 564.718 167.004 562.391C166.998 561.628 167.015 561.328 167.092 560.593C167.322 559.053 167.41 557.932 167.69 556.447C167.981 555.047 168.164 554.027 168.283 552.596C168.383 551.404 168.589 550.641 168.925 549.494C171.808 540.379 171.539 531.121 172.121 522.076C172.538 515.61 173.531 509.132 173.033 502.147C173.017 500.787 172.952 499.876 172.857 498.487C172.145 481.684 171.966 465.359 173.008 449.045C173.07 448.085 172.504 447.179 172.925 445.743C172.882 444.573 172.986 443.928 173.561 443.022C176.749 441.414 177.999 444.544 180.121 446.171C179.774 458.331 179.844 470.009 179.613 482.018C180.914 483.682 180.778 485.329 180.675 486.96C179.304 508.738 179.104 530.644 175.696 552.2C174.995 556.632 175.109 561.258 173.569 565.499C175.206 560.866 175.476 555.817 176.058 550.988C177.564 538.485 180.112 526.358 183.662 514.478C185.047 509.845 185.836 505.039 186.581 500.21C187.424 494.753 188.485 489.357 190.329 484.195C194.009 473.897 195.052 462.741 197.658 452.076C200.219 441.594 203.403 431.282 204.867 420.421C205.326 417.011 206.166 413.694 205.246 410.302C204.511 407.596 205.808 405.195 205.905 402.173C207.965 391.874 210.176 382.11 211.903 372.176C213.434 363.372 214.36 354.565 215.038 345.696C215.917 334.182 216.888 322.694 218.014 311.211C218.873 302.454 218.754 293.244 217.733 283.77C217.475 282.625 217.392 281.965 217.593 280.862C219.012 278.109 219.582 275.832 217.242 273.34C217.29 270.552 218.033 268.194 217.127 265.338C216.916 264.268 216.95 263.653 217.294 262.653C218.107 261.547 218.785 260.866 218.877 259.345C219.076 256.444 218.997 253.914 219.034 251.027C218.972 248.256 221.078 248.317 222.057 247.085C225.371 242.914 224.944 239.732 220.498 237.128C219.872 236.761 219.345 236.304 219.294 235.008C218.919 232.552 219.065 230.426 219.022 227.901C218.835 225.045 219.098 222.947 220.825 221.054C223.267 218.377 222.95 215.446 220.371 212.452C220.304 211.506 220.383 210.964 220.63 210.056C221.587 208.927 220.554 207.262 221.818 206.33C222.359 202.404 222.384 198.822 222.385 194.811C222.479 193.546 222.447 192.681 222.842 191.496C223.873 188.428 223.63 185.539 224.05 182.333C224.383 178.181 227.917 178.628 229.353 176.353C229.373 176.322 230.416 176.388 231.009 176.92C233.718 179.35 236.275 187.214 234.944 191.108C233.57 195.127 233.709 198.663 235.585 202.278C235.922 202.928 236.398 203.766 236.108 204.561C234.096 210.062 235.516 216.198 233.841 221.704C232.7 225.458 232.553 229.359 231.95 233.193C231.662 235.024 232.514 236.054 233.819 237.272C234.328 237.927 234.663 238.248 235.188 238.87C235.266 241.017 234.681 242.87 235.904 244.899C236.567 247.922 238.284 249.989 238.663 253.087C237.093 254.885 236.535 256.882 237.023 258.935C240.047 271.651 238.938 284.446 237.835 297.276C237.29 303.609 236.636 309.887 235.483 316.128C234.586 320.98 234.783 326.406 236.913 330.464C240.339 336.992 237.787 342.498 235.339 347.31C231.696 354.47 230.969 361.659 231.222 369.7C231.425 376.164 229.542 382.572 227.788 388.714C225.208 397.75 223.918 407.175 221.344 416.199C220.91 417.724 221.763 419.355 222.494 421.199C222.998 422.797 223.959 423.817 223.488 425.694C219.464 428.554 217.014 432.029 215.671 437.348C214.503 441.971 213.148 446.175 214.814 451.297C214.78 452.578 214.459 453.413 214.754 454.71C215.677 462.987 219.297 469.839 220.647 477.925C220.823 485.232 220.55 492.161 222.212 498.895C222.89 501.639 223.003 504.338 220.276 505.608C217.659 506.826 215.781 505.742 214.654 502.594C214.094 501.028 213.457 498.841 211.495 499.528C209.936 500.074 210.096 502.129 209.916 503.723C208.907 512.642 209.456 521.276 213.336 529.286C213.924 530.499 213.784 531.792 213.762 533.08C213.688 537.471 214.557 541.13 218.566 542.83C220.879 543.811 220.659 546.414 220.663 548.677C220.685 560.2 218.641 571.327 215.926 582.322C215.592 583.674 214.893 584.927 215.061 586.627C217.605 582.462 219.17 577.97 220.378 573.268C220.957 571.013 221.695 568.609 224.295 569.456C226.87 570.295 226.581 572.869 226.034 575.097C223.931 583.672 224.611 592.992 220.949 601.152C220.437 602.294 220.259 603.69 220.449 604.984C221.003 608.771 220.407 612.388 219.798 614.496C220.868 606.653 223.012 597.566 225.634 588.623C226.146 586.877 226.385 585.16 228.592 585.573C230.622 585.952 231.361 587.237 231.494 589.494C231.841 595.41 231.622 601.472 230.07 606.923C228.098 613.845 228.184 620.706 228.285 627.695C228.307 629.175 228.597 630.562 227.151 631.812Z" fill="#030303"/>
<path d="M221.334 421.686C219.82 418.727 219.879 416.011 220.356 412.954C222.357 400.118 225.741 387.708 228.436 375.088C229.024 372.332 229.407 369.688 227.87 367.116C227.432 366.383 226.982 365.067 227.25 364.439C229.705 358.686 229.749 352.089 232.739 346.29C234.785 342.323 237.251 337.183 234.493 331.1C232.491 326.685 232.057 320.878 233.19 315.779C235.597 304.949 235.564 293.821 236.731 282.847C237.512 275.498 236.21 268.224 235.681 260.93C235.491 258.315 235.054 255.716 236.89 253.195C239.316 251.62 239.42 253.706 239.974 255.311C242.611 262.94 243.201 271.042 243.991 279.091C245.672 296.22 247.246 313.368 251.673 329.921C253.735 337.635 256.294 345.075 260.438 352.147C261.159 354.371 262.181 356.09 262.143 358.038C262.026 364.111 262.111 370.133 263.56 376.036C263.822 377.106 263.666 378.253 262.253 379.071C261.117 379.638 260.311 380.313 259.554 380.242C253.894 379.713 255.08 383.264 256.166 387.351C257.663 392.98 258.277 398.722 257.37 404.726C256.898 407.845 257.522 411.204 257.718 414.449C258.368 425.235 257.292 435.958 256.542 446.652C255.4 462.928 256.753 478.866 259.641 494.733C260.279 498.235 260.623 501.811 261.104 505.353C261.456 507.938 261.633 511.357 264.668 510.627C267.636 509.913 266.479 506.677 265.817 504.516C261.737 491.204 259.78 477.419 258.849 463.376C258.568 459.137 258.412 454.905 258.849 450.68C258.977 449.447 259.029 447.766 260.471 447.689C261.59 447.63 261.894 449.08 262.291 450.093C264.681 456.2 266.458 462.603 267.452 469.171C268.449 475.756 273.243 479.852 274.637 486.07C275.237 488.742 276.168 491.308 276.85 493.958C277.12 495.007 277.625 496.436 276.686 497.156C275.433 498.117 274.774 496.477 273.961 495.707C273.142 494.932 272.798 493.412 271.357 493.454C270.803 495.688 272.247 497.075 272.951 498.73C277.029 508.318 282.352 517.279 283.677 528.245C283.871 529.852 284.23 531.579 283.935 533.094C282.932 538.239 283.569 543.093 285.088 547.945C285.558 549.447 285.625 551.136 285.793 552.751C285.875 553.549 285.835 554.544 285.04 554.777C284.645 554.893 283.933 554.49 283.659 554.061C278.392 545.819 271.406 538.663 271.771 526.921C271.887 523.165 270.874 519.494 269.504 516.066C268.122 512.605 266.021 513.35 264.093 515.212C262.935 516.33 262.683 517.887 264.723 518.241C269.006 518.984 267.998 522.115 266.457 524.548C263.821 528.711 265.271 533.368 264.724 537.754C264.522 539.37 265.73 540.047 266.996 539.059C268.604 537.804 270.043 538.013 270.85 539.964C275.036 550.079 281.339 558.752 285.072 569.182C286.683 573.682 286.341 577.253 282.901 580.39C280.49 582.589 279.681 585.641 282.25 588.316C285.143 591.327 285.654 595.15 285.103 599.022C283.579 609.722 285.145 620.467 284.397 631.614C284.027 632.07 283.657 632.07 283.009 632.07C280.881 630.613 279.623 628.754 278.827 626.188C275.173 614.418 271.586 602.607 266.788 591.383C265.822 589.123 265.433 586.758 265.813 584.281C266.589 579.223 265.581 574.561 263.55 570.166C260.709 564.019 257.874 557.868 254.995 551.744C252.673 546.806 252.791 546.384 256.884 543.246C258.405 542.081 258.264 540.483 257.895 538.938C256.953 534.985 255.518 531.369 252.738 528.601C250.618 526.491 248.623 524.186 246.741 521.278C246.631 520.578 246.591 520.287 246.482 519.543C245.062 512.276 246.008 505.531 246.545 498.705C247.284 489.334 246.773 479.887 246.945 470.479C247.325 449.63 249.785 428.938 250.598 408.118C250.685 405.882 250.638 403.632 250.675 401.389C250.537 417.74 249.075 433.976 247.537 450.561C239.879 453.508 239.784 453.49 239.865 444.178C239.935 436.05 239.682 427.931 240.324 419.787C240.822 413.48 239.056 407.256 238.54 400.958C238.393 399.161 237.548 397.456 235.804 397.08C233.921 396.674 232.586 398.008 231.621 399.643C228.163 405.496 225.948 411.932 225.554 419.108C225.371 422.438 224.572 424.259 221.334 421.686Z" fill="#060707"/>
<path d="M227.264 632.07C224.868 621.095 226.571 610.404 228.714 599.751C229.416 596.257 229.685 592.773 228.663 589.183C225.259 598.223 222.553 607.455 221.259 617.226C221.065 618.695 221.587 621.266 219.858 621.256C218.061 621.246 217.743 618.597 217.993 616.974C219.213 609.072 216.878 600.924 220.768 592.989C223.48 587.457 222.284 579.96 224.325 572.675C222.125 573.967 222.127 575.667 221.756 577.017C220.157 582.847 217.263 587.837 214.358 592.806C213.566 594.162 212.236 595.417 210.815 594.488C209.098 593.364 210.214 591.612 210.779 590.215C215.678 578.084 217.385 565.063 218.507 551.888C218.766 548.848 218.668 546.097 215.244 545.182C212.707 544.504 212.016 541.489 211.951 538.941C211.774 531.979 208.916 525.873 207.803 519.217C206.517 511.523 207.233 504.025 208.595 496.518C208.928 494.683 209.678 493.08 211.475 492.814C213.439 492.522 214.009 494.332 214.697 495.958C215.314 497.416 215.994 498.839 216.662 500.267C217.249 501.524 217.7 503.308 219.324 502.544C220.726 501.884 220.683 500.195 220.392 498.716C219.168 492.489 219.204 486.177 219.476 479.541C222.086 478.362 221.759 480.997 222.065 482.313C227.462 505.541 232.425 528.903 237.703 552.168C238.328 554.921 238.305 557.711 238.56 560.486C238.584 560.744 238.444 561.041 238.714 561.304C238.528 561.192 238.72 560.916 238.663 560.902C238.119 560.773 238.86 560.931 238.523 560.048C238.464 557.101 237.829 554.584 239.446 552.16C240.764 550.185 238.488 547.919 239.378 545.315C239.631 543.803 239.56 542.61 240.512 541.293C242.31 534.906 242.249 528.595 243.394 522.538C243.896 519.881 244.829 517.267 248.235 519.99C248.586 520.383 248.584 520.381 248.584 520.381C251.787 531.424 252.488 542.653 248.999 553.665C245.504 564.693 244.024 575.77 244.631 587.589C245.079 596.294 244.136 605.081 244.647 613.895C244.954 619.2 242.512 624.236 241.197 629.353C240.947 630.326 239.846 630.839 238.848 631.794C237.434 632.07 236.277 632.07 234.774 632.07C232.823 630.7 232.074 628.826 232.612 626.589C234.441 618.981 233.319 611.1 234.268 603.415C234.784 599.239 235.564 595.133 236.234 591.76C234.354 600.117 233.665 609.364 233.618 618.743C233.595 623.187 233.019 627.659 230.505 631.785C229.374 632.07 228.486 632.07 227.264 632.07Z" fill="#070604"/>
<path d="M155.679 632.07C155.311 631.903 155.313 631.737 155.319 631.32C158.02 624.455 157.096 617.342 157.442 610.392C157.635 606.542 157.991 602.695 158.257 598.847C158.422 596.465 159.319 594.79 161.343 594.656C163.177 594.534 163.672 593.228 163.932 591.618C164.371 588.908 165.015 586.128 164.648 583.407C163.822 577.293 165.419 571.467 165.965 565.536C166.172 563.289 166.018 559.644 169.968 560.345C170.163 578.314 168.004 595.985 168.505 613.783C168.545 615.2 168.406 617.005 167.705 618.002C164.911 621.98 165.481 627.839 162.035 631.74C159.997 632.07 158.023 632.07 155.679 632.07Z" fill="#060808"/>
<path d="M230.61 632.07C231.669 615.799 233.402 599.594 237.301 583.805C238.66 591.939 234.727 599.344 235.204 607.395C235.676 615.343 235.887 623.343 234.437 631.653C233.27 632.07 232.114 632.07 230.61 632.07Z" fill="#030303"/>
<path d="M219.75 632.07C219.659 630.921 219.202 629.134 220.581 628.952C221.759 628.796 221.637 630.452 221.904 631.764C221.312 632.07 220.687 632.07 219.75 632.07Z" fill="#070604"/>
<path d="M262.044 379.604C259.683 370.941 261.252 361.933 258.669 353.25C257.385 351.056 258.571 348.769 257.849 346.5C261.938 342.928 261.793 338.325 260.974 333.162C260.916 332.575 260.909 332.338 260.945 331.749C262.308 326.961 261.449 322.702 260.124 318.533C258.814 314.412 257.701 310.226 256.63 306.014C255.557 301.794 255.027 297.898 255.932 293.242C256.877 288.376 256.491 282.893 255.725 277.825C254.632 270.59 253.777 263.368 254.025 256.029C254.251 249.325 253.277 242.729 253.017 236.073C252.845 231.657 249.858 228.982 248.301 225.429C247.672 223.992 246.301 225.062 245.548 226.095C244.2 227.945 244.101 230.257 244.006 232.546C243.78 237.952 241.465 241.812 237.294 244.53C234.822 244.461 234.913 241.514 233.083 240.42C232.765 239.756 232.749 239.316 232.723 238.547C230.789 233.53 233.327 229.389 233.986 225.061C235.621 214.315 236.273 203.407 238.052 192.689C238.46 190.232 239.103 187.922 240.325 185.924C241.787 183.534 245.121 183.269 245.788 185.788C247.1 190.739 250.978 192.86 253.311 196.637C255.371 199.971 257.338 203.263 257.777 207.248C258.276 211.768 259.008 216.358 258.01 221.275C258.968 227.271 260.033 233.01 261.399 238.648C266.771 260.825 269.019 283.711 272.157 306.361C273.673 317.308 273.923 328.648 270.482 339.687C269.061 344.247 269.713 349.607 269.153 354.604C268.674 358.869 268.06 362.525 265.416 365.513C264.223 366.862 263.861 368.379 265.261 369.675C266.718 371.025 267.444 369.426 268.208 368.259C271.209 363.678 271.784 364.196 274.616 369.139C280.243 378.959 279.047 390.005 279.175 400.677C279.247 406.718 279.146 412.642 280.334 418.555C280.859 421.17 281.308 423.888 280.376 426.74C277.02 409.61 269.179 394.985 262.044 379.604Z" fill="#0C0E0D"/>
<path d="M258.075 221.579C257.433 217.86 257.254 214.111 256.733 210.428C255.61 202.494 253.364 195.405 245.901 192.815C244.425 192.303 244.856 190.755 244.652 189.562C244.481 188.56 244.231 187.58 243.215 187.495C242.263 187.416 241.644 188.221 241.366 189.147C240.864 190.822 240.397 192.539 240.138 194.284C238.479 205.467 237.31 216.716 236.421 228.027C236.159 231.37 234.214 234.53 232.877 237.996C230.455 236.89 229.533 234.798 229.94 231.829C231.092 223.423 232.16 215.001 233.364 206.606C233.586 205.059 233.74 203.629 232.728 202.53C229.944 199.504 230.578 196.067 231.908 192.687C233.164 189.493 233.19 186.466 231.913 183.317C230.57 180.004 228.977 178.572 226.304 182.206C223.479 182.022 224.119 179.564 224.282 177.871C226.08 159.175 228.008 140.498 233.523 122.661C234.568 119.281 235.192 115.794 235.543 112.229C235.669 110.939 235.689 109.634 235.965 108.366C237.44 101.605 239.275 100.898 244.056 105.576C244.843 106.354 245.597 106.612 245.92 107.346C250.67 118.145 256.026 128.609 258.32 140.704C259.498 146.915 263.01 152.087 264.488 158.2C265.939 164.201 268.61 169.779 268.949 176.524C267.147 179.783 265.467 178.811 263.925 176.64C261.953 173.866 260.814 170.483 259.206 167.443C258.502 166.112 257.674 164.083 256.097 165.028C254.494 165.99 255.489 167.907 255.974 169.384C256.423 170.753 257.117 171.989 257.692 173.291C259.148 176.583 258.415 178.536 255.491 179.278C250.912 180.44 249.693 183.532 251.878 188.441C252.136 189.021 252.374 189.678 252.805 190.052C261.495 197.596 260.501 209.168 261.776 219.795C261.887 220.721 261.621 221.371 260.519 221.602C259.614 221.583 258.998 221.581 258.075 221.579Z" fill="#060707"/>
<path d="M260.261 221.982C259.135 217.51 258.493 213.339 258.592 209.065C258.736 202.897 256.628 197.84 252.745 194.026C248.946 190.295 248.177 185.76 248.891 180.425C249.734 174.128 250.779 173.41 255.761 176.21C256.012 174.147 254.863 172.839 254.229 171.381C253.343 169.343 252.316 167.366 252.34 164.986C252.363 162.719 253.033 160.736 254.927 159.844C256.904 158.913 258.104 160.525 259.004 162.208C260.624 165.241 262.081 168.395 263.621 171.487C264.535 173.324 265.483 175.135 267.407 176.324C271.185 179.189 270.864 184.073 271.381 187.877C272.083 193.049 273.058 198.112 274.221 203.556C274.413 203.914 274.424 203.924 274.421 203.931C275.012 204.633 274.725 205.569 275.073 206.629C275.247 206.879 275.227 206.876 275.232 206.865C275.596 207.282 275.641 207.862 275.928 208.619C276.08 208.839 276.06 208.833 276.066 208.824C276.68 209.514 276.389 210.466 276.744 211.54C276.918 211.795 276.9 211.784 276.907 211.776C277.225 212.163 277.344 212.627 277.086 213.474C276.219 216.024 276.303 218.203 276.938 220.48C281.517 236.885 283.136 253.843 283.508 271.003C283.558 273.305 284.171 277.221 281.99 277.391C279.451 277.589 280.248 273.622 280.001 271.471C278.718 260.305 277.11 249.231 274.276 238.445C274.047 237.575 273.935 236.484 272.54 236.075C273.404 242.29 274.809 248.183 275.686 254.186C277.832 268.874 278.382 283.654 278.562 298.49C278.641 305.006 278.354 311.531 279.19 318.022C279.372 319.438 279.161 320.945 279.004 322.391C278.9 323.344 278.642 324.536 277.694 324.625C276.324 324.754 276.318 323.248 276.194 322.194C275.34 314.926 274.684 307.623 273.698 300.381C270.634 277.871 267.759 255.313 262.357 233.343C261.474 229.755 260.972 226.038 260.261 221.982Z" fill="#0A0A09"/>
<path d="M256.326 25.0489C258.823 23.728 259.854 21.7421 261.064 19.9616C263.013 17.092 264.809 17.1884 266.77 20.1248C268.405 22.5721 269.358 25.0719 268.903 28.2372C268.65 30.0022 268.587 31.8082 268.484 33.5994C268.183 38.8538 268.253 38.9078 272.879 37.0565C273.706 50.1675 262.534 55.6427 259.071 67.0386C262.428 65.6218 264.179 63.3076 266.176 61.436C267.155 60.5181 268.228 59.4091 269.54 60.0524C271.183 60.8579 270.901 62.7479 270.683 64.3276C270.273 67.3032 270.845 69.7928 272.744 71.8844C273.694 72.9309 274.324 74.3683 273.973 75.8634C273.187 79.2171 273.582 82.1979 275.043 85.2387C276.276 87.8055 274.99 90.0686 273.427 91.7741C271.085 94.3285 270.534 97.1125 271.693 100.589C272.083 101.759 272.279 103.223 272.069 104.434C270.084 115.882 270.431 127.494 270.146 139.064C270.118 140.188 269.802 141.303 269.508 142.803C267.664 144.697 266.815 143.713 266.652 141.65C266.049 134.019 263.558 126.663 264.279 118.837C264.417 117.342 263.873 115.906 263.713 114.437C263.104 108.861 261.284 103.5 262.257 97.6322C262.853 94.0323 261.452 90.5672 259.823 87.4882C258.165 84.3547 256.372 84.2662 254.101 86.8706C251.519 89.8318 250.874 93.9004 249.301 97.827C247.02 99.4585 248.076 102.948 245.65 104.412C241.544 104.163 240.658 102.973 241.357 98.7748C242.431 92.3184 245.064 86.5378 247.184 80.5274C249.439 74.1339 251.925 67.9802 250.964 60.4309C250.317 55.3455 250.315 49.89 250.985 44.605C251.073 43.9048 250.917 42.7038 249.614 42.2612C248.482 40.9445 248.807 39.6473 249.353 38.8024C252.01 34.6896 253.592 29.8886 256.326 25.0489Z" fill="#060808"/>
<path d="M247.166 96.5034C248.468 91.2414 251.007 86.9685 253.705 82.8287C255.89 79.4759 258.179 79.143 260.062 82.4614C262.981 87.6038 265.63 93.151 264.536 99.7236C263.969 103.125 265.112 106.15 265.274 109.366C265.835 120.565 266.902 131.681 269.312 142.886C269.88 149.334 270.362 155.485 270.847 161.636C271.065 164.4 271.22 167.158 270.297 170.218C268.282 171.969 268.35 170.227 267.717 168.79C262.409 156.733 262.016 143.445 260.65 130.419C260.071 124.901 258.779 120.429 254.751 116.636C250.093 112.249 248.929 105.169 247.761 98.5014C247.66 97.9253 247.348 97.4021 247.166 96.5034Z" fill="#0C0E0D"/>
<path d="M246.858 96.5396C250.696 99.6599 251.238 105.186 253.233 109.763C254.059 111.659 254.495 114.302 256.224 114.848C263.357 117.099 262.255 124.088 262.96 130.088C264.543 143.57 264.289 157.49 270.022 170.302C270.414 171.68 270.649 172.77 270.949 174.188C270.717 179.018 272.183 183.287 272.472 188.014C272.507 193.348 273.915 198.153 274.406 203.51C271.004 197.463 270.704 189.893 268.942 182.85C268.481 181.006 268.196 179.101 267.739 176.848C265.59 166.791 263.07 157.289 258.557 148.756C256.306 144.5 255.736 139.727 254.522 135.113C252.514 127.478 249.257 120.413 246.239 113.26C245.438 111.36 244.632 109.464 243.708 107.252C243.144 105.724 242.898 104.545 244.245 103.352C245.244 101.022 246.007 98.9436 246.858 96.5396Z" fill="#171714"/>
<path d="M272.679 187.857C270.663 184.126 269.884 179.711 270.866 174.744C272.26 178.696 272.806 183 272.679 187.857Z" fill="#0C0E0D"/>
<path d="M259.814 397.714C261.441 397.637 261.854 397.944 261.905 399.017C261.935 399.659 261.905 400.481 261.238 400.385C260.119 400.224 259.905 399.063 259.814 397.714Z" fill="#060707"/>
<path d="M275.215 206.568C275.002 206.104 274.757 205.329 274.464 204.246C274.673 204.712 274.927 205.484 275.215 206.568Z" fill="#171714"/>
<path d="M276.873 211.482C276.673 211.007 276.426 210.22 276.126 209.123C276.324 209.599 276.576 210.385 276.873 211.482Z" fill="#171714"/>
<path d="M276.004 208.572C275.856 208.348 275.634 207.858 275.323 207.111C275.467 207.338 275.698 207.823 276.004 208.572Z" fill="#171714"/>
<path d="M278.993 217.632C278.98 217.617 279.005 217.648 278.993 217.632Z" fill="#101110"/>
<path d="M276.953 213.588C276.904 213.338 276.905 212.889 276.91 212.103C276.943 212.307 276.973 212.847 276.953 213.588Z" fill="#101110"/>
<path d="M278.147 215.201C278.13 215.209 278.165 215.193 278.147 215.201Z" fill="#101110"/>
<path d="M170.302 560.305C166.668 566.486 167.493 573.545 166.922 580.188C166.606 583.865 166.965 587.633 166.302 591.322C165.801 594.11 165.185 596.706 162.4 597.547C160.585 598.096 160.523 600.043 160.128 601.778C158.433 609.222 158.951 616.951 157.943 624.48C157.639 626.749 157.361 628.996 155.539 630.838C156.699 617.78 155.994 604.574 154.741 591.304C153.944 582.856 156.091 574.616 157.972 566.48C158.492 564.229 158.835 562.015 157.133 559.803C154.831 560.099 154.994 557.637 153.885 556.258C152.655 551.635 153.147 547.271 153.444 542.971C154.814 523.153 153.614 503.325 153.739 483.5C153.091 492.499 153.288 501.519 153.227 510.929C153.229 513.778 153.228 516.23 153.227 519.112C153.159 526.725 153.371 533.911 153.039 541.498C147.875 544.279 157.058 531.406 153.203 535.57C151.605 537.296 155.546 527.952 154.076 526.306C149.98 521.72 153.839 531.318 153.213 523.612C152.335 512.796 152.433 526.614 153.228 515.57C153.541 511.226 156.161 515.112 155 511.57C152.655 507.642 150.802 527.358 152 522.07C154.49 520.087 153.328 513.384 154.076 514.93C156.044 518.998 148.657 507.391 153.24 507.57C157.017 507.718 152.99 502.197 155 498.973C155.427 497.957 158.636 503.897 151.136 488.07C152.961 485.103 151.783 486.394 153.039 483.449C155.997 476.52 144.228 467.233 151.136 467.94C154.486 468.022 155.651 465.937 156.02 462.811C160.159 427.817 167.469 393.399 169.673 358.052C170.989 336.947 171.945 315.828 172.451 294.673C172.557 290.267 171.249 286.101 171.727 281.392C173.62 278.623 172.492 275.88 172.321 273.388C171.254 257.801 171.761 242.115 169.874 226.57C168.612 216.173 166.615 205.928 165.057 195.613C164.382 191.143 162.051 186.818 162.454 181.346C162.273 171.772 162.316 162.682 162.463 153.605C162.536 149.137 163.971 144.747 163.264 139.779C162.768 138.47 162.267 137.522 163.302 136.306C164.388 135.229 162.77 133.556 164.279 132.62C165.129 130.907 165.402 129.081 167.589 129.355C169.328 130.221 169.989 131.655 170.666 133.58C168.969 140.714 169.405 147.617 169.122 154.413C168.46 170.305 169.733 186.046 172.8 201.538C176.944 222.472 178.337 243.675 178.303 265.13C178.281 278.485 179.086 291.842 178.311 305.205C178.26 306.083 178.256 307.002 178.087 307.825C176.987 313.186 176.885 318.384 179.557 323.735C179.568 324.865 179.519 325.503 179.393 326.601C179.089 329.462 179.049 331.874 178.984 334.723C178.896 336.304 178.857 337.448 178.919 339.016C178.671 342.408 178.622 345.43 177.296 348.544C176.924 349.37 176.847 349.87 176.777 350.795C175.377 354.908 177.566 358.945 175.861 363.061C174.753 364.13 176.512 365.53 175.389 366.552C175.442 367.221 175.417 367.481 175.353 368.127C174.859 370.858 174.343 373.184 174.001 375.95C174.054 376.631 174.047 376.903 174.098 377.585C172.559 384.851 173.018 392.007 171.974 398.934C170.499 408.727 168.493 418.404 167.18 428.233C164.795 446.079 162.025 463.874 161.593 481.999C161.457 487.693 159.703 493.389 160.616 498.973C161.53 504.557 159.916 509.717 159.967 515.57C160.129 516.655 160.265 517.256 160.504 518.28C160.576 518.987 160.548 519.27 160.414 519.947C159.899 521.387 159.949 522.381 160.735 523.612C160.585 528.333 160.471 532.767 160.444 537.523C163.62 537.16 164.275 534.583 164.897 531.359C166.604 522.505 167.16 513.418 169.018 504.605C169.351 503.027 169.547 501.398 171.225 500.402C172.428 500.278 173.318 500.258 174.222 501.455C176.412 509.304 174.338 516.842 174.197 524.376C174.038 532.908 172.794 541.413 171.989 550.339C171.606 551.149 171.252 551.544 171.139 552.426C171.129 553.757 171.126 554.801 171.123 556.236C170.485 557.212 170.26 558.001 170.303 559.247C170.303 559.572 170.302 560.061 170.302 560.305Z" fill="#0A0A09"/>
<path d="M207.724 403.482C207.636 404.931 207.193 406.127 207.378 407.17C209.46 418.946 205.246 429.502 202.805 440.389C200.652 449.993 197.969 459.433 196.391 469.215C196.236 470.176 196.154 471.174 195.868 472.081C189.934 490.909 187.661 510.954 181.912 529.854C179.006 539.408 179.307 549.796 176.856 559.515C175.767 563.833 174.933 568.234 172.627 572.158C172.358 557.397 174.953 542.984 176.167 528.418C177.396 513.683 177.816 498.854 178.602 483.643C180.123 468.669 185.48 455.358 188.471 441.259C191.257 428.12 194.378 415.129 195.756 401.637C196.748 391.923 198.955 382.45 200.161 372.761C201.351 363.203 201.727 353.567 202.723 343.56C201.656 329.795 203.252 316.564 203.849 303.297C204.107 297.582 204.204 291.878 203.189 285.786C205.166 269.821 203.87 254.264 203.389 238.693C203.082 228.76 202.596 218.829 202.436 208.899C202.161 191.94 202.406 174.972 202.351 158.008C202.34 154.746 202.373 151.459 201.467 148.319C200.304 144.288 198.666 143.31 194.506 144.408C194.046 144.79 193.869 144.952 193.443 145.376C193.038 145.826 192.882 146.014 192.507 146.499C192.148 147.005 192.009 147.213 191.661 147.746C191.292 148.275 191.131 148.48 190.691 148.937C188.181 152.131 187.796 155.794 187.216 159.492C186.689 162.85 186.002 166.244 184.675 169.358C184.088 170.736 183.302 171.797 181.792 171.314C180.285 170.831 180.507 169.278 180.393 168.002C180.177 165.571 180.522 163.181 180.974 160.815C182.102 154.915 183.714 149.171 185.173 143.384C186.223 139.221 188.279 135.73 192.107 133.623C197.137 132.993 198.806 131.429 199.864 126.247C200.197 124.615 200.466 122.858 202.065 122.613C203.914 122.329 204.472 124.277 205.203 125.826C207.159 129.97 206.933 134.644 207.43 139.106C207.625 140.855 207.784 142.236 209.333 143.244C209.995 143.491 210.38 143.7 211.077 144.13C213.308 148.659 212.455 153.262 212.122 157.644C209.852 187.469 210.176 217.26 212.106 247.09C212.927 259.78 212.301 272.541 212.348 285.269C212.442 310.902 211.157 336.476 208.778 361.925C208.046 369.75 207.793 377.891 205.196 385.434C204.686 386.918 205.065 388.549 205.758 390.432C206.455 393.085 204.757 394.98 205.201 397.607C205.285 398.191 205.328 398.418 205.459 398.969C205.87 400.87 207.149 401.724 207.724 403.482Z" fill="#060808"/>
<path d="M203.102 392.36C207.032 365.65 208.416 338.987 209.601 312.251C210.505 291.852 211.037 271.409 209.94 251.12C208.697 228.12 208.869 205.159 208.535 182.175C208.359 170.063 210.543 158.146 210.292 145.596C209.299 139.765 210.611 134.513 210.913 128.719C212.135 123.727 212.733 119.039 213.846 114.5C214.151 113.256 214.366 111.97 214.764 110.761C217.476 102.533 219.033 101.54 226.682 103.057C226.935 103.107 227.214 102.992 227.868 103.03C234.321 107.644 234.698 108.71 232.721 116.426C229.98 127.128 229.521 138.305 227.759 149.213C225.721 161.824 224.217 174.505 223.44 187.36C223.109 192.846 222.717 198.492 221.923 204.007C221.752 205.197 221.202 206.245 221.1 207.307C220.915 209.242 219.887 209.747 218.675 209.783C217.445 209.82 217.222 208.382 216.916 207.287C215.425 201.937 216.404 196.456 216.619 191.095C217.268 174.853 217.869 158.586 220.314 142.523C220.581 140.767 221.237 139.156 221.416 137.601C220.384 141.854 219.992 146.462 219.226 150.979C218.383 155.944 218.912 161.027 217.852 165.926C216.907 170.288 217.601 174.753 217.276 179.15C216.78 185.862 216.416 192.561 216.448 199.317C216.459 201.604 216.08 203.918 216.809 206.071C218.293 210.457 218.336 214.884 217.715 219.463C217.207 223.206 217.447 227.008 218.305 230.634C219.916 237.447 220.16 244.256 219.49 251.276C219.092 255.449 219.355 259.747 220.009 264.326C220.229 266.996 220.216 269.31 220.2 272.058C218.695 274.677 219.017 277.244 219.258 280.057C219.418 280.786 219.416 281.219 219.415 281.977C217.646 288.148 218.178 294.258 218.186 300.242C218.204 313.253 215.801 325.976 215.212 338.877C214.822 347.411 214.675 355.999 213.194 364.322C211.634 373.089 211.441 382.35 207.326 390.371C206.354 392.264 205.781 394.383 203.102 392.36Z" fill="#101110"/>
<path d="M220.251 264.355C218.355 262.456 218.668 259.593 218.61 256.843C218.433 248.596 219.512 240.212 216.231 232.33C215.533 230.652 215.457 228.503 215.434 226.566C215.059 195.655 214.811 164.748 221.198 134.424C221.645 132.3 221.818 129.991 223.684 128.442C218.049 153.988 218.202 179.954 217.79 206.245C219.961 205.716 220.094 204.631 220.089 203.717C220.058 197.337 221.69 191.027 221.625 184.839C221.523 175.123 222.442 165.445 224.265 156.334C227.032 142.504 226.513 127.993 230.913 114.642C232.555 109.658 229.535 107.964 227.105 105.253C226.749 103.462 226.282 103.051 224.711 102.766C220.395 101.982 218.859 98.1873 221.015 93.6504C224.951 85.3658 228.937 77.1129 233.765 69.4426C237.157 64.0535 240.183 58.3251 242.911 51.9055C244.953 48.4696 246.436 45.1272 248.151 41.9627C248.621 41.0963 249.087 41.1821 249.915 41.0822C251.976 41.5881 252.903 42.6086 253.055 44.8073C253.582 52.4093 253.651 60.0974 253.687 67.6455C253.713 73.035 250.279 78.4438 248.403 83.851C246.992 87.9191 245.52 91.9625 244.241 96.088C243.591 98.1866 242.864 100.438 244.321 102.871C244.248 104.171 244.013 105.24 243.684 106.624C241.022 104.405 238.544 104.539 238.307 108.777C237.63 120.875 232.81 131.629 230.776 143.299C228.568 155.97 227.369 168.742 226.12 181.96C225.826 185.364 225.548 188.348 225.267 191.753C225.285 192.769 225.158 193.303 224.615 193.936C224.491 198.139 224.388 202.126 223.641 206.465C223.579 207.728 223.7 208.618 222.966 209.581C222.769 210.245 222.77 210.681 222.771 211.443C222.766 216.812 221.167 221.679 221.344 227.106C221.107 229.767 221.107 232.088 221.108 234.844C224.331 240.029 223.08 244.647 220.548 249.611C220.287 252.952 220.287 255.916 220.288 259.324C220.814 260.429 221.147 261.143 220.515 262.39C220.278 263.157 220.27 263.593 220.251 264.355Z" fill="#0A0C0C"/>
<path d="M204.188 343.706C203.276 373.234 199.03 401.977 193.186 430.298C189.518 448.074 185.954 466.069 178.811 482.961C176.985 474.237 178.128 465.138 177.808 456.1C177.722 453.674 177.815 451.24 177.827 448.351C177.312 442.877 175.821 437.89 177.616 432.351C183.632 427.961 182.092 420.489 183.463 414.517C185.178 407.044 185.643 399.201 188.04 391.887C188.791 389.592 189.224 387.099 188.879 384.692C187.888 377.777 189.797 371.125 189.986 364.328C190.021 363.074 190.109 361.674 191.924 361.242C193.922 361.539 196.197 360.263 196.831 363.949C197.182 365.27 197.164 366.183 197.144 367.518C197.43 369.619 196.318 370.911 196.241 371.972C197.666 369.173 196.683 365.586 197.078 362.222C197.887 355.34 199.255 348.543 200.017 341.629C200.094 340.933 200.883 340.081 201.709 340.144C203.392 340.272 203.349 342.187 204.188 343.706Z" fill="#101110"/>
<path d="M221.17 421.756C222.919 420.726 222.968 418.867 223.218 417.081C224.132 410.555 226.397 404.622 229.086 398.881C230.046 396.831 231.447 395.261 233.045 393.94C236.524 391.064 239.217 391.988 240.139 396.922C241.772 405.653 243.218 414.468 242.323 423.51C241.598 430.827 242.101 438.169 241.937 445.496C241.866 448.645 243.009 450.011 245.86 449.8C248.712 452.009 247.203 454.956 247.168 458.077C247.356 462.172 247.497 465.819 247.022 469.89C247.423 472.024 246.257 473.759 247.007 475.929C243.873 479.246 243.873 482.91 243.647 487.234C243.276 494.306 242.948 501.465 241.981 508.502C241.675 510.725 241.675 512.502 244.079 513.656C244.335 514.906 244.617 515.808 244.197 517.073C243.892 518.159 244.211 519.045 243.713 519.964C243.394 520.804 243.524 521.272 243.681 522.033C244.131 523.089 242.692 523.887 243.38 524.952C242.488 526.284 243.342 527.908 242.402 529.125C241.61 529.998 243.089 531.575 241.793 532.39C241.873 533.901 241.92 534.969 241.039 536.143C236.451 537.644 235.98 533.423 235.774 530.719C235.207 523.28 234.829 515.833 235.335 508.272C236.258 494.468 236.268 480.583 236.543 466.738C236.623 462.722 235.765 458.427 235.526 454.234C235.457 453.021 234.97 452.073 233.851 451.069C230.215 442.517 231.495 433.521 230.224 424.91C230.567 427.623 229.721 429.23 227.273 429.831C225.427 430.285 223.711 429.6 221.608 429.516C220.625 428.193 220.309 427.089 221.634 425.682C221.689 424.253 221.463 423.167 221.17 421.756Z" fill="#0C0E0D"/>
<path d="M179.759 431.809C179.025 437.134 178.532 442.133 177.933 447.512C177.042 446.528 176.319 445.097 174.794 444.138C170.965 442.943 172.407 439.548 172.678 437.272C173.77 428.086 174.845 418.894 176.057 409.728C177.949 395.416 179.897 381.115 180.989 366.254C181.116 365.293 181.174 364.746 181.304 363.808C181.438 363.156 181.472 362.891 181.603 362.258C183.699 355.363 182.689 348.543 183.085 341.864C184.697 314.726 185.605 287.546 186.725 260.377C187.485 241.947 187.051 223.548 187.356 205.139C187.402 202.368 187.424 199.571 187.016 196.841C185.721 188.158 186.23 180.094 192.52 173.367C193.358 172.306 193.893 171.545 194.51 170.896C196.411 168.897 197.518 170.318 197.922 172.396C198.522 175.488 198.209 178.621 196.79 181.395C194.4 186.07 193.975 191.144 193.999 196.467C194.088 216.868 193.816 237.275 194.105 257.671C194.33 273.515 193.728 289.337 193.044 305.112C191.442 342.035 189.438 378.964 183.397 415.358C182.499 420.766 182.546 426.528 179.759 431.809Z" fill="#060808"/>
<path d="M182.727 362.403C182.961 362.831 182.902 363.033 182.854 363.123C182.897 363.545 183.031 363.849 183.377 364.299C181.436 388.715 177.888 412.718 174.988 436.827C174.737 438.91 174.687 441.026 174.556 443.558C174.531 444.412 174.493 444.833 174.434 445.572C173.381 446.911 172.568 448.386 172.658 449.772C173.106 456.73 170.433 462.899 169.287 469.441C168.868 471.832 167.994 474.174 164.815 473.817C160.75 472.59 161.755 468.498 162.104 466.347C164.267 453.043 164.939 439.484 167.064 426.236C168.45 417.596 170.489 409.003 171.689 400.311C173.354 388.249 174.002 376.003 175.617 363.906C175.92 361.634 176.99 359.401 176.329 356.517C176.786 354.832 175.634 353.622 176.447 351.949C177.751 349.477 177.423 345.333 180.79 346.279C184.207 347.239 182.812 350.632 182.822 353.409C182.833 356.284 182.061 359.099 182.727 362.403Z" fill="#1B1A17"/>
<path d="M164.909 472.59C168.905 466.22 168.872 458.692 170.81 451.91C171.458 449.64 171.463 447.058 174.133 446.006C174.42 463.213 174.429 480.536 174.436 498.315C173.676 500.095 172.391 500.454 171.201 501.468C170.253 509.668 169.641 517.585 168.109 525.357C167.393 528.991 167.13 532.745 166.562 536.424C166.148 539.107 165.552 541.717 162.36 540.888C161.968 540.786 161.537 540.898 161.124 540.909C159.723 540.945 159.053 544.105 157.726 542.701C156.283 541.176 157.056 538.648 157.661 536.692C158.844 532.873 157.232 528.86 158.52 524.722C162.062 518.955 163.684 513.022 162.586 506.215C162.455 505.402 162.435 504.478 162.825 503.492C164.228 499.948 163.141 496.853 161.146 493.587C161.564 487.991 161.488 482.807 162.355 477.715C162.684 475.787 162.882 473.864 164.909 472.59Z" fill="#101110"/>
<path d="M260.199 346.612C259.676 348.707 259.204 350.461 258.657 352.551C249.802 337.999 246.616 320.878 244.468 303.394C242.926 290.844 241.728 278.236 240.252 265.675C239.761 261.498 239.057 257.326 237.242 253.21C236.307 250.538 235.522 248.157 234.642 245.457C234.869 244.069 235.443 243.452 236.798 243.707C237.703 244.14 238.491 243.635 239.265 244.556C239.856 245.094 240.128 245.487 240.518 246.268C246.848 258.03 247.943 271.034 249.023 284.002C250.254 298.774 252.369 313.332 255.966 327.572C257.108 332.095 258.173 336.657 260.554 341.011C261.044 342.062 260.871 342.783 260.684 343.861C260.617 344.927 260.445 345.601 260.199 346.612Z" fill="#1E1C19"/>
<path d="M202.779 392.4C206.809 387.373 209.014 381.711 209.239 375.15C209.33 372.474 209.728 370.092 210.681 367.653C213.374 360.759 213.025 353.236 212.993 345.984C212.96 338.417 213.647 330.915 214.92 323.697C216.688 313.678 216.557 303.666 216.974 293.621C217.129 289.904 217.044 286.08 219.214 282.561C219.602 321.637 216.849 360.618 209.255 399.014C208.975 400.428 208.473 401.782 207.929 403.485C205.64 403.104 202.226 405.492 201.912 400.142C202.066 399.687 202.177 399.532 202.12 399.146C202.22 396.875 202.49 394.834 202.779 392.4Z" fill="#0A0C0C"/>
<path d="M239.666 559.204C239.421 562.47 239.421 565.365 239.421 568.26C235.431 539.801 225.569 513.202 221.225 484.971C220.956 483.224 220.32 481.556 219.722 479.541C217.355 471.309 215.123 463.388 212.986 454.734C214.073 453.755 214.625 452.685 215.485 452.211C217.645 451.019 219.47 451.76 219.464 454.554C219.451 460.629 221.584 465.926 223.14 471.869C222.609 475.145 223.233 477.549 224.416 480.201C225.897 483.519 225.753 487.744 228.463 490.939C229.076 492.193 229.009 493.238 229.19 494.588C229.571 496.585 229.374 498.581 231.501 499.456C231.853 499.896 231.945 500.119 232.178 500.669C232.563 505.492 233.671 509.917 232.908 514.502C232.311 518.086 235.094 520.303 235.657 523.802C234.937 527.77 235.693 531.216 236.826 534.361C238.374 538.658 239.221 543.014 239.49 547.999C239.843 551.852 240.573 555.323 239.666 559.204Z" fill="#241F19"/>
<path d="M221.603 425.373C222.148 426.134 222.38 426.932 222.709 428.024C225.253 429.757 226.22 432.32 226.638 435.3C227.331 440.228 229.287 444.903 228.655 450.433C225.02 453.266 223.993 452.981 222.68 448.962C221.7 445.959 221.354 442.662 219.582 439.758C216.844 443.994 216.406 449.443 213.314 453.475C212.838 453.459 212.651 453.392 212.232 453.113C210.92 443.32 214.808 435.318 218.016 427.129C218.555 425.753 220.031 425.563 221.603 425.373Z" fill="#060707"/>
<path d="M220.564 249.877C220.558 245.376 220.829 240.764 221.105 235.715C221.991 235.734 222.907 236.116 223.75 236.655C228.56 239.73 228.738 244.332 224.157 247.824C223.128 248.609 221.951 249.126 220.564 249.877Z" fill="#060707"/>
<path d="M221.277 227.23C220.819 222.334 220.359 217.201 222.605 212.075C224.47 217.108 222.689 222.03 221.277 227.23Z" fill="#060707"/>
<path d="M219.517 279.982C217.354 277.731 217.666 275.26 219.98 272.698C220.262 274.895 220.241 277.287 219.517 279.982Z" fill="#0A0C0C"/>
<path d="M171.448 501.783C170.606 498.896 172.779 499.59 174.173 498.833C174.444 499.516 174.455 500.26 174.471 501.374C173.578 501.755 172.682 501.767 171.448 501.783Z" fill="#070604"/>
<path d="M237.094 243.998C236.281 244.491 235.648 244.728 234.779 245.051C234.025 243.695 233.506 242.253 232.885 240.503C234.254 240.609 235.429 241.619 236.745 242.983C237.063 243.375 237.169 243.559 237.094 243.998Z" fill="#101110"/>
<path d="M222.92 209.648C222.971 209.02 223.175 208.23 223.483 207.155C223.828 207.854 223.758 208.754 222.92 209.648Z" fill="#060707"/>
<path d="M170.409 559.287C170.069 558.588 170.137 557.686 170.973 556.79C170.92 557.419 170.717 558.21 170.409 559.287Z" fill="#060808"/>
<path d="M220.424 262.562C220.286 261.983 220.285 261.245 220.286 260.137C221.038 260.552 221.384 261.394 220.424 262.562Z" fill="#060707"/>
<path d="M224.569 194.014C224.642 193.644 224.842 193.15 225.152 192.415C225.074 192.746 224.885 193.317 224.569 194.014Z" fill="#060707"/>
<path d="M171.245 552.471C171.324 552.14 171.513 551.568 171.83 550.872C171.757 551.242 171.557 551.736 171.245 552.471Z" fill="#060808"/>
<path d="M212.077 453.142C211.999 452.902 212.378 452.891 212.567 452.891C213.197 453.201 213.383 453.656 213.037 454.503C212.76 454.752 212.772 454.743 212.779 454.739C212.576 454.284 212.365 453.833 212.077 453.142Z" fill="#241F19"/>
<path d="M160.445 407.412C162.89 396.438 163.819 385.563 164.801 374.707C165.96 361.89 166.96 349.056 167.054 335.699C164.911 330.808 166.569 326.033 166.49 321.484C166.428 317.916 165.989 313.962 167.705 310.013C168.208 306.993 168.382 304.371 168.528 301.34C167.33 299.688 166.598 298.196 166.612 296.289C166.676 287.386 166.148 278.472 167.203 269.156C171.301 267.544 171.978 268.011 172.333 272.288C172.569 275.129 172.328 278.072 174.054 280.949C174.611 331.921 171.444 382.157 162.458 431.796C160.415 443.085 159.328 454.619 157.945 466.065C157.088 473.153 157.209 473.173 151.519 469.431C148.249 467.264 147.742 464.616 150.07 461.067C150.395 460.571 150.456 459.262 151.692 458.98C154.768 441.697 157.584 424.742 160.445 407.412Z" fill="#473224"/>
<path d="M147.785 575.642C148.096 574.404 148.377 573.561 148.771 572.406C151.481 569.165 151.051 565.084 151.918 561.475C152.469 559.187 150.719 555.345 154.932 555.255C155.728 556.72 156.213 557.856 156.816 559.274C154.959 571.039 153.222 582.575 148.816 593.279C145.924 600.303 142.498 606.786 137.438 612.098C142.987 600.834 145.69 588.562 147.785 575.642Z" fill="#1B1A17"/>
<path d="M240.259 529.527C240.502 527.803 240.744 526.406 241.032 524.656C241.067 523.707 241.197 523.17 241.725 522.52C241.893 521.884 241.894 521.461 241.899 520.72C241.542 520.031 241.403 519.567 241.697 518.709C241.91 517.677 241.911 516.946 241.914 515.851C241.498 506.313 243.352 497.311 243.4 488.179C243.421 484.098 244.231 480.16 244.944 475.725C245.241 473.623 245.244 471.948 245.249 469.856C245.399 466.084 244.976 462.703 245.828 459.005C246.068 456 246.073 453.363 246.079 450.286C247.813 439.591 247.945 429.155 248.554 418.778C249.002 411.149 249.157 403.497 249.476 395.857C249.514 394.954 249.31 393.859 250.666 393.103C251.626 396.4 251.771 399.721 251.922 403.076C252.449 414.858 250.917 426.48 250.046 438.153C249.272 448.532 248.308 458.907 248.602 469.346C248.989 483.04 247.942 496.684 247.757 510.357C247.715 513.457 247.79 516.551 248.51 519.983C246.286 520.772 245.437 522.636 245.02 525.061C244.092 530.461 243.099 535.846 242.027 541.593C240.806 542.957 239.918 543.067 239.072 541.396C238.046 539.37 238.522 537.638 239.845 535.462C240.243 534.012 240.245 532.975 240.25 531.549C240.254 530.725 240.256 530.289 240.259 529.527Z" fill="#030303"/>
<path d="M239.987 534.887C240.331 537.271 240.128 539.573 241.724 541.69C241.924 542.989 241.924 544.029 241.924 545.459C240.64 546.673 241.522 550.03 238.673 549.133C236.828 541.287 235.27 533.667 233.675 525.663C232.31 511.206 232.156 497.07 232.416 482.95C232.607 472.566 233.39 462.198 233.243 451.793C233.221 450.245 233.096 448.466 234.882 447.167C235.403 445.673 235.013 444.28 235.964 443.235C237.06 443.682 236.809 444.826 236.851 445.711C237.944 468.95 237.839 492.169 236.412 515.396C236.106 520.366 236.878 525.438 237.261 530.452C237.404 532.316 238.291 533.794 239.987 534.887Z" fill="#060707"/>
<path d="M231.422 566.261C231.097 569.181 231.544 571.981 230.069 575.021C228.355 571.399 229.166 568.192 229.843 565.326C230.312 563.338 231.128 564.723 231.422 566.261Z" fill="#030303"/>
<path d="M238.437 549.302C239.417 548.006 240.448 547.107 241.701 546.028C240.722 550.162 241.761 554.971 239.61 559.346C239.11 556.283 238.8 552.991 238.437 549.302Z" fill="#030303"/>
<path d="M238.937 577.904C236.877 579.106 237.283 577.282 237.242 576.167C237.218 575.522 237.586 574.692 238.202 574.893C239.461 575.304 239.213 576.563 238.937 577.904Z" fill="#030303"/>
<path d="M229.791 582.963C229.274 583.378 229.032 583.098 229.008 582.601C228.998 582.38 229.23 582.144 229.352 581.914C229.517 582.225 229.683 582.535 229.791 582.963Z" fill="#030303"/>
<path d="M237.018 244.478C236.923 244.079 236.93 243.902 236.948 243.459C239.868 237.87 242.485 232.618 242.363 225.765C242.302 222.322 246.025 220.766 248.002 218.364C249.26 216.836 249.922 218.986 250.518 220.28C255.768 231.676 256.166 244.067 256.134 256.608C256.116 263.776 257.444 270.805 258.208 277.869C258.855 283.842 260.064 290.403 258.01 296.553C257.231 298.882 257.785 300.993 258.245 303.232C259.878 311.166 263.116 318.532 264.191 326.655C264.463 328.705 265.234 330.808 263.765 333.005C263.594 333.233 263.314 332.888 263.439 333.076C264.622 338.32 263.621 342.727 260.352 346.721C259.949 346.515 259.75 346.073 259.464 345.403C259.422 344.529 259.331 343.932 258.746 343.223C252.433 327.446 249.678 310.852 247.752 294.021C246.922 286.76 246.383 279.454 245.595 272.185C244.659 263.543 242.661 255.281 238.706 247.428C238.409 246.875 238.225 246.629 237.901 246.203C237.54 245.588 237.331 245.144 237.018 244.478Z" fill="#141513"/>
<path d="M236.497 233.81C236.495 233.793 236.5 233.826 236.497 233.81Z" fill="#060707"/>
<path d="M270.003 227.318C270.022 226.453 269.75 224.925 270.665 225.774C271.742 226.772 272.1 228.647 271.771 230.529C270.446 230.047 270.499 228.609 270.003 227.318Z" fill="#030303"/>
<path d="M265.135 212.336C265.123 211.461 264.799 210.078 265.9 210.945C266.642 211.529 267.516 213.017 266.399 214.075C265.922 214.528 265.457 213.26 265.135 212.336Z" fill="#030303"/>
<path d="M259.377 181.987C258.216 183.421 258.182 181.867 257.893 181.239C257.773 180.978 258.086 180.107 258.147 180.115C258.975 180.219 259.134 181.063 259.377 181.987Z" fill="#060707"/>
<path d="M268.563 220.551C268.55 220.564 268.576 220.538 268.563 220.551Z" fill="#030303"/>
<path d="M250.356 40.972C248.44 44.7299 246.631 48.1692 244.624 51.8441C243.321 53.3572 242.183 54.0417 240.696 51.9549C238.87 49.3177 240.786 47.7681 241.438 45.5764C242.173 43.774 243.525 43.2097 244.443 41.6591C245.456 39.1127 246.147 36.7582 248.022 34.8301C249.368 33.6955 249.652 31.6313 251.626 31.5089C253.456 29.3691 254.987 27.2272 256.717 24.8631C256.044 30.6921 252.288 35.1339 250.356 40.972Z" fill="#030303"/>
<path d="M183.07 362.465C179.34 360.128 181.669 356.135 181.398 352.713C181.299 351.465 181.765 349.864 180.471 349.329C179.141 348.778 178.653 350.341 177.907 351.621C176.894 352.914 176.065 353.113 175.265 351.213C175.188 350.405 175.197 350.032 175.222 349.38C176.21 346.087 175.382 342.839 176.099 339.428C176.102 338.014 176.121 336.965 176.153 335.524C176.96 332.813 176.393 330.405 176.333 327.743C176.164 326.98 176.166 326.516 176.18 325.705C177.83 320.295 177.007 314.917 177.761 309.262C178.701 299.879 178.387 290.881 179.131 281.972C179.661 275.611 178.945 268.851 180.902 262.992C182.434 258.406 182.941 253.925 181.935 249.794C180.552 244.115 179.918 238.273 180.977 232.959C184.032 217.641 180.405 202.655 179.499 187.718C178.762 175.559 176.954 163.276 176.428 150.992C175.869 137.935 176.35 124.863 180.855 112.097C183.756 110.533 185.19 107.735 186.676 105.053C189.03 100.803 191.085 99.6884 194.993 101.053C198.378 102.235 199.062 105.415 199.018 109.093C198.994 111.068 198.74 112.969 198.266 114.851C196.935 120.141 195.35 125.373 195.582 131.024C195.645 132.535 195.034 133.697 193.861 135.001C190.699 136.928 188.52 139.429 187.612 143.033C185.728 150.518 184.028 158.068 182.282 165.6C182.15 166.171 182.005 166.892 182.797 167.423C185.942 160.861 185.875 152.984 189.199 146.188C193.286 147.727 192.574 151.481 191.782 154.835C190.89 158.612 189.368 162.186 189.67 165.336C189.787 164.628 189.665 162.961 189.831 161.365C189.969 160.044 190.349 158.342 191.946 157.94C193.445 157.562 194.638 158.088 195.541 159.49C197.47 162.485 198.016 165.727 196.066 168.905C195.088 170.499 194.443 171.963 194.646 174.236C188.592 181.044 188.841 188.97 189.15 197.819C190.127 225.808 189.528 253.831 188.163 281.816C187.402 297.418 186.955 313.043 186.051 328.632C185.403 339.813 185.181 351.068 183.07 362.465Z" fill="#241F19"/>
<path d="M179.584 310.767C177.867 315.515 178.898 320.664 176.389 325.105C176.154 319.003 176.55 312.647 176.587 306.315C176.758 277.163 177.06 247.964 173.376 219.022C171.859 207.107 168.995 195.445 167.823 183.45C166.252 167.352 166.269 151.26 168.674 134.828C170.473 131.77 171.598 131.893 172.738 135.37C173.434 137.495 174.324 138.873 176.246 139.629C175.846 154.032 177.156 167.975 178.779 181.848C181.148 202.085 183.676 222.293 183.184 242.793C182.784 259.456 182.255 276.114 180.84 292.718C180.524 296.426 180.586 300.18 179.879 304.301C180.037 305.915 179.599 306.998 179.692 308.502C179.884 309.395 179.856 309.912 179.584 310.767Z" fill="#2C241C"/>
<path d="M169.06 269.831C168.618 254.56 168.086 239.578 166.257 224.706C165.301 216.929 163.194 209.499 161.198 202.036C160.494 199.402 159.972 196.701 159.365 193.632C159.741 191.613 159.052 189.602 161.537 189.011C163.312 188.589 161.992 185.984 162.418 184.45C162.818 183.009 161.726 180.08 164.949 181.352C166.443 194.362 169.247 206.822 171.15 219.475C174.178 239.618 173.792 260.041 174.34 280.836C171.735 280.617 170.924 278.317 170.535 275.625C170.261 273.732 170.293 271.739 169.06 269.831Z" fill="#553D2A"/>
<path d="M165.066 472.064C164.528 478.895 163.397 485.398 163.613 492.506C163.609 500.558 162.112 508.063 162.725 515.737C162.917 518.136 161.582 519.882 158.894 517.755C157.479 482.119 162.401 447.54 168.094 413.068C170 401.524 171.095 389.849 172.662 377.86C173.012 377.285 173.116 377.006 172.921 376.478C172.755 373.63 172.807 370.959 173.526 367.978C173.731 367.427 173.852 367.253 173.798 366.812C173.628 365.802 173.633 365.059 173.654 363.945C174.659 361.535 174.776 359.284 174.91 357.009C175.008 355.36 175.492 354.037 177.521 355.484C176.744 371.535 174.63 387.162 173.002 402.822C172.173 410.794 170.926 419.239 168.179 426.981C167.654 428.459 167.234 430.173 167.319 431.736C167.925 442.813 165.378 453.436 164.105 464.239C163.798 466.845 163.426 469.44 165.066 472.064Z" fill="#241F19"/>
<path d="M175.469 140.232C173.909 141.001 174.007 143.796 172.29 143.123C171.071 142.644 171.297 140.674 171.126 139.29C170.906 137.513 170.573 135.841 168.943 134.598C168.438 133.317 168.171 132.217 167.746 130.44C166.998 129.191 165.898 129.118 166.094 127.349C166.149 126.751 166.258 126.53 166.386 125.902C167.464 125.079 166.317 123.571 167.484 122.75C169.113 112.935 172.845 104.51 176.222 95.9161C177.197 93.4341 178.476 91.0316 178.501 87.6429C181.369 80.2159 183.815 73.0435 188.411 66.9469C191.989 67.899 191.091 71.8027 192.262 74.8039C192.344 75.4447 192.357 75.7033 192.374 76.3484C192.5 80.1356 190.189 82.1953 189.096 84.9258C188.158 87.2707 187.022 89.5355 188.752 92.4408C184.691 101.317 180.66 109.883 178.698 119.462C177.308 126.247 176.667 133.214 175.469 140.232Z" fill="#1E1C19"/>
<path d="M155.248 555.135C152.708 559.07 153.999 563.833 152.33 567.649C151.58 569.364 151.44 571.502 149.148 572.031C150.673 562.457 151.438 552.713 151.109 542.398C151.084 534.36 151.082 526.778 151.048 518.728C150.435 516.394 150.848 514.463 150.845 512.172C150.992 500.874 150.997 489.969 151.124 479.066C151.146 477.14 150.56 474.093 153.134 474.091C155.69 474.088 156.877 476.428 156.695 479.539C155.223 504.561 156.727 529.663 155.248 555.135Z" fill="#382B20"/>
<path d="M165.185 181.133C164.155 184.398 164.61 187.309 164.822 190.211C164.955 192.035 164.97 194.07 163.526 195.058C161.77 196.259 162.112 193.074 160.905 192.886C160.52 192.825 160.109 192.984 159.537 193.137C159.364 193.232 159.399 193.157 159.431 193.177C159.059 192.715 159.099 191.959 158.447 191.324C154.35 178.944 154.9 166.541 157.17 154.081C157.547 152.01 158.075 149.977 158.608 147.562C161.256 146.092 160.705 142.959 161.692 140.823C162.482 139.113 161.876 135.16 165.562 137.743C163.699 152.213 164.269 166.453 165.185 181.133Z" fill="#402E20"/>
<path d="M165.842 137.814C163.198 139.685 162.504 142.593 162.034 145.691C161.721 147.75 161.365 149.958 158.848 147.375C163.587 126.639 169.483 106.53 178.395 87.4333C179.592 90.3044 178.682 93.1124 177.683 96.047C174.724 104.734 170.46 112.871 169.481 122.789C169.02 124.037 169.067 125.029 168.799 126.281C168.614 126.573 168.635 126.533 168.635 126.509C167.892 127.511 168.386 128.779 167.97 130.189C167.788 130.473 167.817 130.469 167.814 130.453C167.375 131.146 166.939 131.853 166.331 132.73C165.758 133.794 165.616 134.739 165.922 135.975C166.02 136.675 165.966 137.14 165.842 137.814Z" fill="#2C241C"/>
<path d="M158.621 517.782C160.873 516.495 160.865 514.196 160.452 512.186C159.064 505.434 161.498 499.595 163.464 493.271C166.007 501.169 164.715 509.514 163.968 517.76C163.705 520.656 161.044 522.241 158.863 524.189C158.622 523.287 158.629 522.215 158.644 520.743C158.762 520.187 158.872 520.031 158.813 519.646C158.636 518.981 158.628 518.545 158.621 517.782Z" fill="#1B1A17"/>
<path d="M177.787 355.392C174.863 357.006 175.655 360.89 173.85 363.309C174.088 359.553 174.507 355.533 175.053 351.145C175.873 351.078 176.565 351.379 177.52 351.779C177.784 352.918 177.786 353.96 177.787 355.392Z" fill="#2C241C"/>
<path d="M175.954 339.434C176.828 342.251 176.248 345.321 175.357 348.736C175.245 345.985 175.052 342.853 175.954 339.434Z" fill="#2C241C"/>
<path d="M176.148 327.87C176.968 329.752 177.101 332.088 176.271 334.795C176.157 332.852 176.145 330.574 176.148 327.87Z" fill="#2C241C"/>
<path d="M161.129 591.869C161.117 591.882 161.142 591.857 161.129 591.869Z" fill="#060808"/>
<path d="M166.1 135.799C166.062 135.295 166.051 134.38 166.099 133.182C166.149 133.728 166.139 134.558 166.1 135.799Z" fill="#402E20"/>
<path d="M158.647 519.649C158.666 519.649 158.672 519.881 158.66 520.228C158.654 520.343 158.648 519.88 158.647 519.649Z" fill="#241F19"/>
<path d="M172.762 376.604C172.795 376.603 172.796 376.895 172.764 377.336C172.751 377.289 172.75 377.093 172.762 376.604Z" fill="#2C241C"/>
<path d="M173.615 366.81C173.639 366.809 173.642 367.072 173.619 367.469C173.609 367.426 173.608 367.25 173.615 366.81Z" fill="#2C241C"/>
<path d="M194.575 174.425C193.515 171.466 194.351 168.482 194.795 165.445C195.033 163.814 194.861 161.764 193.268 161.393C191.209 160.911 191.369 163.251 191.209 164.729C190.877 167.787 190.53 170.779 188.099 173.569C186.742 164.062 191.038 155.575 189.452 146.323C189.394 145.916 189.421 145.532 189.439 145.34C189.657 144.944 189.844 144.723 190.152 144.314C190.287 144.143 190.307 144.18 190.289 144.177C190.491 143.937 190.695 143.682 191.002 143.185C193.186 138.814 196.424 139.589 199.605 140.185C202.723 140.769 203.243 143.663 203.786 146.623C204.907 152.739 204.877 159.018 204.666 165.122C203.622 195.273 205.521 225.335 206.079 255.435C206.257 265.041 206.075 274.656 206.052 284.721C201.185 287.728 200.369 292.474 199.434 298.27C198.042 306.9 196.414 315.413 196.243 324.233C196.215 325.691 195.74 327.286 196.216 328.585C198.119 333.782 197.06 338.727 195.927 343.862C194.89 348.56 194.265 353.407 193.918 358.276C193.813 359.753 193.431 361.13 192.189 362.398C192.439 369.461 190.425 376.152 191.593 383.067C192.05 385.769 191.33 388.992 190.501 391.705C187.202 402.512 186.001 413.908 183.5 424.932C182.879 427.667 182.314 430.331 179.765 431.988C182.046 409.006 185.452 386.017 187.385 362.79C189.182 341.202 190.311 319.571 191.124 297.903C192.293 266.76 191.879 235.605 191.937 204.453C191.944 200.866 192.117 197.228 191.687 193.703C191.121 189.071 191.617 185.042 194.223 181.34C195.455 179.589 196.11 177.334 195.985 174.945C195.929 173.874 195.51 173.431 194.575 174.425Z" fill="#1B1A17"/>
<path d="M193.925 135.281C193.033 128.003 193.362 120.95 196.005 114.037C197.223 110.851 198.238 106.528 194.589 104.085C191.535 102.041 188.615 103.915 186.099 108.996C185.188 110.837 184.257 112.611 182.304 113.732C179.615 113.177 181.013 111.094 181.378 110.045C185.548 98.0364 191.405 87.5337 200.496 79.6897C202.813 77.6905 206.488 76.1966 205.89 70.8591C205.907 70.1098 205.966 69.8209 206.246 69.2063C207.236 68.0714 207.838 67.0985 208.586 65.8385C208.873 65.3995 208.988 65.225 209.274 64.7872C209.781 63.9874 210.107 63.4427 210.593 62.6178C211.252 61.6371 211.736 60.9246 212.359 59.8959C212.875 59.017 213.264 58.4671 213.879 57.6502C214.499 56.7523 214.923 56.1487 215.558 55.222C217.567 54.7401 218.378 53.6154 218.983 51.6262C219.976 48.3677 220.788 44.9369 223.269 42.5225C224.541 41.2856 225.72 40.0764 227.372 40.8353C229.26 41.7026 228.717 43.7586 228.467 45.4025C227.194 53.7519 226.556 62.0698 228.046 70.5146C228.263 71.7448 228.566 72.5168 229.509 73.6182C230.173 77.5234 227.83 79.7719 226.539 82.4135C220.151 95.4877 214.464 108.834 212.047 123.841C211.617 126.515 210.775 129.11 210.693 132.361C209.584 136.605 210.495 140.73 208.914 144.808C208.5 146.242 208.852 147.432 207.848 148.82C205.847 141.424 205.842 133.667 202.669 125.973C201.837 129.092 203.136 132.228 200.711 133.658C198.701 134.842 196.462 134.978 193.925 135.281Z" fill="#141513"/>
<path d="M192.243 362.727C192.316 355.153 193.91 347.875 194.917 340.489C195.113 339.052 195.637 337.472 195.332 336.179C192.317 323.421 194.537 311.08 197.188 298.731C197.59 296.859 197.98 294.781 197.695 292.945C196.868 287.623 200.05 284.65 202.658 281.906C204.883 279.565 204.222 284.358 205.867 284.97C206.735 304.528 204.205 323.756 204.412 343.545C201.502 342.458 201.072 344.849 200.845 347.237C200.143 354.627 198.388 361.857 198.426 369.358C198.427 369.679 198.402 370.016 198.32 370.319C197.555 373.13 197.683 378.808 195.962 378.18C192.866 377.05 194.832 372.463 195.195 368.893C195.987 367.793 196.343 367.006 195.474 365.806C194.797 364.081 193.912 363.089 192.243 362.727Z" fill="#141513"/>
<path d="M208.909 145.15C208.672 141.154 208.3 137.127 209.337 132.806C211.176 131.613 208.945 127.417 212.484 128.201C212.008 133.799 211.26 139.107 210.405 144.777C209.927 145.143 209.557 145.146 208.909 145.15Z" fill="#0A0A09"/>
<path d="M190.135 144.292C190.109 144.371 189.926 144.597 189.598 144.982C189.612 144.891 189.787 144.656 190.135 144.292Z" fill="#241F19"/>
<path d="M190.969 143.156C190.934 143.236 190.746 143.507 190.414 143.977C190.451 143.899 190.633 143.623 190.969 143.156Z" fill="#241F19"/>
<path d="M201.955 399.146C201.978 399.146 201.984 399.378 201.966 399.726C201.957 399.841 201.956 399.378 201.955 399.146Z" fill="#101110"/>
<path d="M212.83 128.119C211.782 129.669 210.809 130.846 209.635 132.223C209.998 113.823 216.814 97.7904 224.361 82.0556C225.443 79.8004 226.48 77.5154 227.646 74.9277C227.041 72.6254 227.854 71.0057 228.701 69.4319C232.011 63.2837 236.017 57.655 238.565 50.9325C239.069 49.6024 239.881 48.2824 241.668 49.8842C242.6 50.7004 243.273 51.2854 244.186 51.9744C240.686 63.0481 234.311 72.1467 228.983 81.9811C227.499 84.7206 226.076 87.4692 224.727 90.3026C222.596 94.7788 220.829 98.9141 226.391 101.809C227.185 102.222 227.232 103.41 226.985 104.716C221.173 103.358 219.193 104.423 217.027 110.919C215.213 116.362 213.898 122.008 212.83 128.119Z" fill="#060808"/>
<path d="M195.294 365.966C196.052 366.371 196.398 367.2 195.43 368.355C195.293 367.784 195.293 367.056 195.294 365.966Z" fill="#1B1A17"/>
<path d="M192.383 376.463C192.345 376.472 192.338 376.172 192.338 376.172C192.338 376.172 192.42 376.453 192.383 376.463Z" fill="#1B1A17"/>
<path d="M235.053 446.616C235.48 467.789 234.327 488.63 233.992 509.493C233.911 514.534 233.867 519.576 233.722 524.947C231.92 520.919 231.213 516.397 231.607 511.564C231.831 508.816 231.234 506.083 230.382 503.094C228.314 496.42 228.549 489.696 227.752 483.165C227.288 479.361 228.107 474.762 227.259 471.74C225.718 466.251 226.367 460.489 224.511 454.77C224.476 453.976 224.492 453.653 224.73 452.921C225.461 452.249 225.921 451.901 226.62 451.117C226.369 443.328 224.468 436.232 222.884 428.677C228.481 428.238 228.788 422.933 229.534 417.859C231.934 421.857 232.032 426.052 232.782 430.05C233.79 435.428 232.675 441.169 235.053 446.616Z" fill="#121413"/>
<path d="M245.012 475.501C245.472 486.822 245.234 498.315 243.414 509.685C243.135 511.425 242.596 513.107 242.047 515.15C240.952 513.847 240.279 512.024 240.38 510.042C240.834 501.043 241.233 492.033 241.98 483.065C242.197 480.461 242.758 477.576 245.012 475.501Z" fill="#060707"/>
<path d="M245.866 458.908C246.006 461.999 246.372 465.395 245.361 469.062C244.36 465.959 243.76 462.498 245.866 458.908Z" fill="#060707"/>
<path d="M241.766 522.435C241.695 522.809 241.498 523.312 241.19 524.059C241.265 523.723 241.452 523.143 241.766 522.435Z" fill="#060707"/>
<path d="M240.224 529.393C240.283 529.723 240.305 530.247 240.291 530.965C240.232 530.635 240.21 530.111 240.224 529.393Z" fill="#060707"/>
<path d="M241.808 518.531C241.91 518.851 241.91 519.294 241.908 520.07C241.444 519.883 241.235 519.323 241.808 518.531Z" fill="#060707"/>
<path d="M183.428 364.262C183.371 364.205 183.203 363.933 182.921 363.438C182.976 363.492 183.147 363.769 183.428 364.262Z" fill="#241F19"/>
<path d="M258.646 343.276C258.834 343.58 259.112 344.162 259.383 344.957C259.163 344.631 258.95 344.092 258.646 343.276Z" fill="#0C0E0D"/>
<path d="M237.886 246.216C237.946 246.261 238.138 246.498 238.463 246.924C238.408 246.873 238.215 246.637 237.886 246.216Z" fill="#0C0E0D"/>
<path d="M226.675 450.581C226.913 451.211 226.922 451.652 226.934 452.423C227.027 453.43 227.478 453.796 227.984 454.51C228.167 455.233 228.185 455.675 228.15 456.468C228.078 457.555 228.209 458.286 228.182 459.425C228.073 467.311 229.259 474.729 228.959 482.668C226.785 485.706 225.49 483.622 224.713 481.713C223.576 478.921 222.819 475.91 221.316 472.779C219.801 467.18 217.115 462.516 217.018 456.837C216.96 453.448 214.422 455.735 212.994 454.808C212.761 454.34 212.76 453.925 212.759 453.201C213.342 446.349 217.026 440.947 217.677 434.418C217.755 433.644 218.152 432.786 218.946 432.695C219.96 432.579 220.372 433.556 220.66 434.454C221.828 438.091 222.971 441.741 224.066 445.409C224.614 447.247 224.989 449.168 226.675 450.581Z" fill="#0E0F0F"/>
<path d="M221.107 472.791C225.424 473.963 225.132 479.829 228.266 482.914C228.901 483.479 229.069 483.968 228.92 484.983C228.152 487.464 229.255 489.713 228.033 491.916C223.552 486.714 221.536 480.344 221.107 472.791Z" fill="#141513"/>
<path d="M228.359 485.681C228.51 484.808 228.508 484.322 228.497 483.473C228.713 474.909 227.252 466.778 227.762 458.107C227.644 457.487 227.533 457.327 227.595 456.935C227.77 456.26 227.772 455.818 227.759 455.044C227.383 454.361 227.247 453.914 227.547 453.086C229.173 458.489 228.844 464.416 229.231 470.215C229.933 480.738 229.967 491.322 230.273 502.313C230.268 502.746 229.871 502.735 229.673 502.729C228.643 500.699 229.11 498.324 228.202 495.893C228.192 492.337 228.153 489.203 228.359 485.681Z" fill="#2C241C"/>
<path d="M228.413 495.548C228.895 497.913 229.171 499.927 229.461 502.332C227.579 501.19 228.593 498.592 227.82 496.259C227.919 495.656 228.063 495.427 228.413 495.548Z" fill="#14120F"/>
<path d="M228.627 495.449C228.48 495.895 228.339 495.893 227.988 495.888C227.752 494.865 227.727 493.845 227.692 492.446C227.893 490.035 228.103 488.004 228.414 485.632C228.554 488.528 228.593 491.765 228.627 495.449Z" fill="#0E0F0F"/>
<path d="M0.00141021 572.8C0.00330221 572.816 -0.000512791 572.784 0.00141021 572.8Z" fill="#060808"/>
<path d="M26.6373 487.063C26.6489 487.06 26.6257 487.067 26.6373 487.063Z" fill="#0C0E0D"/>
<path d="M167.777 309.841C167.914 317.885 167.949 326.162 167.092 334.822C165.842 333.991 165.241 332.343 165.25 330.527C165.279 325.06 165.38 319.592 165.54 314.128C165.59 312.451 166.347 311.076 167.777 309.841Z" fill="#0A0C0C"/>
<path d="M173.267 282.832C173.303 282.807 173.23 282.858 173.267 282.832Z" fill="#0A0A09"/>
<path d="M214.518 61.6837C213.908 62.3452 213.492 62.8192 212.929 63.4812C212.839 64.5905 212.634 65.442 212.112 66.5215C211.937 66.787 211.944 66.7705 211.949 66.7647C211.042 67.7509 210.201 68.8059 209.603 70.461C209.439 70.705 209.445 70.6898 209.452 70.6853C203.185 77.9299 195.481 83.3223 189.926 91.4856C189.252 92.4758 188.794 93.3384 187.298 92.4652C184.743 85.9851 188.051 81.6496 190.956 76.8457C191.47 76.3317 191.683 75.9787 191.442 75.5493C190.018 73.0289 188.855 70.4661 188.655 67.1084C193.84 53.9742 200.017 41.9481 207.234 30.5705C211.16 24.3817 215.802 19.1091 220.24 13.5489C221.056 12.5259 221.884 10.8792 223.276 11.5647C224.744 12.2881 224.214 14.1067 223.991 15.4801C223.597 17.9179 223.485 20.1892 224.313 22.6348C225.215 25.3014 223.838 27.8793 222.081 28.9028C217.34 31.6639 217.702 36.9449 216.871 41.9688C218.279 44.7869 216.115 45.9193 215.17 46.8552C212.862 49.1404 210.72 51.5966 208.651 54.0559C210.486 52.0431 211.977 49.7651 214.068 48.0927C215.297 47.1093 216.061 46.2312 217.542 48.0318C219.291 51.4508 218.393 54.3435 217.136 57.6376C216.758 58.5168 216.579 58.9838 216.301 59.6786C215.69 60.4173 215.209 60.9673 214.518 61.6837Z" fill="#121413"/>
<path d="M216.43 48.2042C212.601 50.116 210.359 53.8804 207.184 56.8308C206.511 57.3408 206.145 57.2359 205.968 56.3439C209.584 51.5791 213.098 47.1848 216.781 42.532C223.736 35.8884 228.79 27.8541 233.031 19.0284C234.727 15.4983 236.527 12.0372 238.436 8.26593C239.777 7.69348 240.962 7.39982 242.447 7.04916C242.274 8.11727 241.802 9.24242 241.211 10.6481C241.305 11.3474 241.648 11.7323 241.726 12.177C241.943 13.4122 237.041 27.7165 236.073 28.2558C234.759 28.9884 233.376 29.8929 232.836 31.2841C230.122 38.2868 223.879 41.0616 219.922 46.5469C219.173 47.586 218.254 48.8454 216.43 48.2042Z" fill="#060808"/>
<path d="M158.312 191.465C158.524 191.671 158.851 192.169 159.32 192.932C159.118 192.717 158.772 192.237 158.312 191.465Z" fill="#553D2A"/>
<path d="M263.572 333.256C263.563 333.262 263.565 333.144 263.58 333.187C263.594 333.231 263.58 333.249 263.572 333.256Z" fill="#0C0E0D"/>
<path d="M216.157 48.5464C217.579 45.7436 219.34 43.6548 221.431 42.0266C225.092 39.1759 227.975 35.5631 229.996 30.9553C230.882 28.9358 231.889 26.9803 233.891 26.0856C234.463 25.8301 235.243 25.079 235.284 24.4933C235.647 19.2623 239.048 15.8759 240.957 11.2235C244.038 11.4275 245.288 13.6055 245.478 16.9281C245.557 18.2928 244.84 20.1916 246.279 20.8395C247.672 21.467 247.899 18.8652 249.484 18.5673C250.412 21.9316 249.363 25.1447 248.84 28.3212C248.466 30.5917 247.98 32.7478 249.296 35.1511C248.408 37.5273 247.381 39.6147 246.221 41.9908C245.185 43.4784 244.489 43.537 243.71 42.0013C242.659 39.9268 241.239 38.1164 240.609 35.9406C240.958 39.1748 244.688 40.7532 243.805 44.9835C243.142 46.6679 242.676 48.1072 242.068 49.8322C237.593 58.3327 233.596 66.8156 227.937 74.3672C225.368 69.5468 224.258 64.1231 224.711 58.3487C224.989 54.8015 225.541 51.2851 225.891 47.7441C226.025 46.3899 226.922 44.3481 225.507 43.8304C223.837 43.2197 223.448 45.5614 222.933 46.9356C221.483 50.7996 220.187 54.7447 217.15 57.8284C216.693 55.0155 216.45 51.9802 216.157 48.5464Z" fill="#0A0C0C"/>
<path d="M243.835 45.082C242.247 40.0346 238.204 36.32 237.548 30.1738C241.681 33.1478 242.135 38.9873 245.854 42.1002C245.636 43.4004 245.011 44.3396 243.835 45.082Z" fill="#060808"/>
<path d="M186.864 92.5741C193.172 83.5554 200.673 76.7017 209.178 70.7793C207.658 74.8438 204.723 77.78 201.739 80.6886C192.75 89.4505 185.813 99.938 182.116 113.525C176.887 128.707 177.375 144.232 178.089 159.747C178.404 166.583 178.675 173.491 179.738 180.197C182.234 195.948 182.979 211.878 183.537 227.794C184.466 254.262 182.657 280.627 180.224 306.93C180.119 308.058 179.854 309.166 179.548 310.697C179.411 310.586 179.389 310.062 179.352 309.149C179.014 308.379 178.896 307.925 179.175 307.098C181.211 286.02 181.923 265.154 182.52 244.294C183.002 227.457 181.368 210.789 179.176 194.132C176.868 176.598 174.195 159.04 175.064 140.735C174.817 123.104 179.521 107.566 186.864 92.5741Z" fill="#060808"/>
<path d="M192.369 105.483C192.356 105.487 192.383 105.48 192.369 105.483Z" fill="#141513"/>
<path d="M179.273 306.921C179.37 307.235 179.372 307.671 179.356 308.434C178.908 308.237 178.755 307.677 179.273 306.921Z" fill="#241F19"/>
<path d="M191.144 75.8478C191.835 75.4445 192.573 73.9804 193.122 75.3053C193.373 75.9102 192.189 76.2145 191.334 76.5166C191.115 76.5754 191.134 76.0903 191.144 75.8478Z" fill="#0A0C0C"/>
<path d="M167.913 130.16C167.986 129.351 168.183 128.229 168.508 126.796C168.436 127.606 168.237 128.727 167.913 130.16Z" fill="#0A0A09"/>
<path d="M168.741 126.256C168.817 125.661 169.02 124.749 169.348 123.501C169.271 124.09 169.07 125.014 168.741 126.256Z" fill="#0A0A09"/>
<path d="M160.311 157.236C160.26 157.707 160.29 157.74 160.311 157.236Z" fill="#2C241C"/>
<path d="M209.645 70.5078C209.697 69.1662 210.251 67.8563 211.715 66.9123C211.52 68.1609 210.841 69.3629 209.645 70.5078Z" fill="#060808"/>
<path d="M212.081 66.6074C212.147 65.9535 212.356 65.1188 212.674 63.9773C212.977 64.6955 212.852 65.6312 212.081 66.6074Z" fill="#060808"/>
<path d="M214.538 61.7148C214.807 61.3272 215.292 60.7812 215.988 60.0718C215.718 60.4578 215.236 61.007 214.538 61.7148Z" fill="#0A0C0C"/>
<path d="M196.663 347.629C196.448 347.126 196.31 346.82 196.294 346.504C196.209 344.892 195.88 343.099 197.169 341.985C197.904 341.351 198.511 342.283 198.613 343.082C198.866 345.064 199.644 347.443 196.663 347.629Z" fill="#1B1A17"/>
<path d="M195.981 354.484C196.161 354.623 196.272 354.811 196.383 354.999C196.287 355.067 196.192 355.134 196.096 355.201C196.035 354.979 195.974 354.757 195.981 354.484Z" fill="#1B1A17"/>
<path d="M194.443 358.761C194.458 358.764 194.427 358.758 194.443 358.761Z" fill="#101110"/>
<path d="M227.554 452.788C227.759 453.223 227.759 453.649 227.752 454.393C227.476 454.187 227.206 453.662 226.937 452.945C226.936 452.752 227.348 452.778 227.554 452.788Z" fill="#060707"/>
<path d="M227.763 456.82C227.769 456.702 227.769 457.175 227.762 457.41C227.745 457.41 227.746 457.174 227.763 456.82Z" fill="#060707"/>
<path d="M163.56 91.8711C163.553 91.7378 163.583 91.6432 163.613 91.5486C163.677 91.6138 163.741 91.679 163.805 91.7443C163.735 91.7994 163.666 91.8546 163.56 91.8711Z" fill="#0A0C0C"/>
<path d="M163.223 87.8196C163.235 87.817 163.211 87.8221 163.223 87.8196Z" fill="#0A0C0C"/>
<path d="M177.873 50.0078C177.997 49.4553 178.24 48.59 178.654 47.4457C178.548 48.0094 178.269 48.8522 177.873 50.0078Z" fill="#121413"/>
<path d="M205.875 56.1532C206.268 56.2069 206.467 56.441 206.814 56.8522C206.091 58.0589 205.755 59.9152 204.006 59.7224C203.575 57.85 204.932 57.2997 205.875 56.1532Z" fill="#0A0C0C"/>
<path d="M200.108 64.4914C200.384 64.0637 200.658 63.547 200.909 63.5624C201.427 63.5944 201.384 64.192 201.181 64.5603C200.9 65.0696 200.505 65.5441 200.108 64.4914Z" fill="#0A0C0C"/>
<path d="M197.159 68.9732C197.366 69.0306 197.512 69.1565 197.658 69.2824C197.578 69.3745 197.498 69.4666 197.418 69.5586C197.311 69.3863 197.205 69.214 197.159 68.9732Z" fill="#0A0C0C"/>
<path d="M217.361 0.882508C217.648 0.417941 217.98 -0.163531 218.203 0.521271C218.324 0.89393 217.956 1.86947 217.667 1.96144C217.131 2.13282 217.274 1.44945 217.361 0.882508Z" fill="#382B20"/>
<path d="M215.708 7.94581C215.684 7.92054 215.732 7.97114 215.708 7.94581Z" fill="#382B20"/>
<path d="M216.515 5.55008C216.524 5.57956 216.506 5.5206 216.515 5.55008Z" fill="#382B20"/>
</svg>
