<svg width="189" height="919" viewBox="0 0 189 919" fill="none" xmlns="http://www.w3.org/2000/svg">
<path d="M-38.1511 0.257819C-36.5043 -2.91981e-08 -35.0765 0 -33.292 0C-32.3188 0.767487 -31.7197 1.65002 -30.622 0.22051C-11.5419 5.83961e-08 7.35285 0 26.6379 0C28.6876 1.51205 29.2396 3.21527 28.1101 5.58313C26.7608 8.41215 26.1052 11.6313 24.4375 14.3235C23.014 16.6213 22.4513 19.4391 22.5841 22.2302C23.1038 33.1572 20.3596 43.8422 20.9537 54.7699C21.0946 57.3622 19.9868 59.7591 19.9434 62.4373C19.899 65.1819 20.3231 67.3524 21.9957 69.6793C22.002 70.4427 21.9852 70.7425 21.9077 71.4771C21.6775 73.0171 21.5903 74.1379 21.3098 75.6236C21.0193 77.0236 20.8356 78.0431 20.7171 79.4741C20.6168 80.6667 20.4105 81.4295 20.0749 82.5765C17.1922 91.6911 17.4615 100.95 16.8788 109.995C16.4623 116.46 15.4686 122.938 15.967 129.923C15.9827 131.283 16.0485 132.194 16.1429 133.583C16.8551 150.386 17.0336 166.711 15.9917 183.025C15.9303 183.985 16.4961 184.891 16.0753 186.327C16.118 187.497 16.0144 188.143 15.4393 189.048C12.2514 190.657 11.0005 187.527 8.87897 185.9C9.22614 173.74 9.15625 162.061 9.38656 150.053C8.08573 148.389 8.22233 146.741 8.32498 145.11C9.69605 123.332 9.89631 101.426 13.3042 79.87C14.0048 75.4384 13.8915 70.8119 15.4309 66.5713C13.7941 71.2039 13.5243 76.2534 12.9424 81.0821C11.4357 93.5855 8.88842 105.712 5.33762 117.592C3.95274 122.226 3.16401 127.032 2.41871 131.86C1.57633 137.318 0.514587 142.713 -1.32945 147.875C-5.00875 158.173 -6.05167 169.329 -8.65766 179.994C-11.2191 190.476 -14.403 200.788 -15.8667 211.649C-16.3262 215.06 -17.1664 218.376 -16.2456 221.769C-15.5112 224.475 -16.8083 226.876 -16.9053 229.898C-18.9649 240.197 -21.1758 249.961 -22.9031 259.895C-24.4337 268.698 -25.3599 277.505 -26.0376 286.374C-26.9174 297.888 -27.8881 309.376 -29.0145 320.859C-29.8734 329.616 -29.7544 338.826 -28.7332 348.301C-28.475 349.445 -28.3924 350.105 -28.5935 351.208C-30.0116 353.961 -30.5816 356.239 -28.2418 358.73C-28.2904 361.519 -29.0333 363.876 -28.1274 366.733C-27.9164 367.803 -27.9501 368.417 -28.2942 369.417C-29.1068 370.524 -29.7847 371.204 -29.8766 372.725C-30.0756 375.627 -29.9972 378.156 -30.0339 381.044C-29.9721 383.815 -32.0784 383.754 -33.0574 384.986C-36.3713 389.156 -35.944 392.338 -31.4983 394.942C-30.8724 395.309 -30.3447 395.766 -30.2937 397.062C-29.919 399.518 -30.0647 401.644 -30.0218 404.169C-29.8345 407.026 -30.0976 409.123 -31.8248 411.017C-34.2666 413.694 -33.9499 416.624 -31.3706 419.618C-31.3036 420.564 -31.3832 421.107 -31.6304 422.015C-32.5869 423.143 -31.5539 424.809 -32.818 425.74C-33.3591 429.667 -33.3842 433.249 -33.3851 437.259C-33.4785 438.524 -33.447 439.389 -33.8422 440.575C-34.8729 443.642 -34.6297 446.532 -35.0496 449.737C-35.3826 453.889 -38.9169 453.442 -40.3531 455.717C-40.373 455.748 -41.416 455.682 -42.0086 455.151C-44.7184 452.72 -47.275 444.856 -45.9437 440.962C-44.5699 436.944 -44.709 433.407 -46.5846 429.793C-46.9223 429.142 -47.3983 428.305 -47.1076 427.51C-45.0961 422.008 -46.516 415.873 -44.8413 410.366C-43.6998 406.612 -43.5531 402.711 -42.9501 398.877C-42.662 397.046 -43.5143 396.016 -44.8189 394.798C-45.3283 394.144 -45.6634 393.823 -46.1883 393.201C-46.2655 391.053 -45.6809 389.2 -46.9039 387.171C-47.5672 384.148 -49.2838 382.081 -49.6627 378.983C-48.0928 377.186 -47.5349 375.188 -48.023 373.136C-51.0468 360.419 -49.938 347.624 -48.8349 334.794C-48.2905 328.461 -47.6355 322.184 -46.4826 315.943C-45.5863 311.091 -45.783 305.665 -47.9131 301.606C-51.3391 295.078 -48.7868 289.572 -46.3387 284.761C-42.6955 277.601 -41.9693 270.411 -42.2219 262.371C-42.4251 255.906 -40.5416 249.498 -38.7878 243.357C-36.2076 234.321 -34.9176 224.896 -32.3444 215.871C-31.9097 214.346 -32.7633 212.715 -33.4944 210.872C-33.9984 209.273 -34.9592 208.253 -34.4881 206.376C-30.4641 203.517 -28.0142 200.041 -26.6709 194.723C-25.5031 190.099 -24.1478 185.895 -25.8143 180.773C-25.7802 179.492 -25.4591 178.658 -25.7538 177.36C-26.6769 169.083 -30.2972 162.231 -31.6471 154.145C-31.8225 146.838 -31.5497 139.909 -33.2125 133.175C-33.89 130.431 -34.0032 127.732 -31.2762 126.463C-28.6594 125.245 -26.7814 126.328 -25.6543 129.477C-25.0937 131.043 -24.4573 133.229 -22.4953 132.542C-20.9364 131.997 -21.0964 129.941 -20.9159 128.347C-19.9066 119.429 -20.4564 110.795 -24.336 102.785C-24.9235 101.571 -24.7839 100.278 -24.7622 98.9907C-24.6884 94.5994 -25.5568 90.9405 -29.5655 89.2404C-31.8792 88.2592 -31.6592 85.6565 -31.6634 83.3933C-31.685 71.8701 -29.6411 60.7431 -26.9262 49.7487C-26.5922 48.3961 -25.8934 47.1429 -26.0611 45.4429C-28.6053 49.6085 -30.1697 54.1004 -31.3779 58.8027C-31.9572 61.0571 -32.6952 63.4611 -35.2955 62.6142C-37.8701 61.7758 -37.5807 59.201 -37.0344 56.9736C-34.9312 48.3984 -35.6111 39.0782 -31.9492 30.9178C-31.4368 29.7761 -31.2595 28.3805 -31.4488 27.0859C-32.0026 23.299 -31.4071 19.6824 -30.7975 17.5745C-31.8685 25.4171 -34.0119 34.5044 -36.634 43.4475C-37.146 45.1936 -37.3851 46.9101 -39.5922 46.4977C-41.6223 46.1184 -42.3613 44.8336 -42.4939 42.5763C-42.8413 36.6602 -42.6223 30.5988 -41.0697 25.1471C-39.0984 18.2253 -39.1841 11.3645 -39.2855 4.37526C-39.3069 2.89508 -39.5974 1.50868 -38.1511 0.257819Z" fill="#030303"/>
<path d="M33.3211 0C33.6888 0.166839 33.6866 0.333678 33.6811 0.750776C30.9801 7.61488 31.9044 14.7279 31.5575 21.6785C31.3654 25.5288 31.0093 29.375 30.7431 33.2237C30.5784 35.6056 29.6808 37.2799 27.6566 37.4142C25.823 37.5358 25.3281 38.842 25.0676 40.4524C24.6292 43.1626 23.9846 45.9424 24.3523 48.6638C25.1785 54.777 23.5811 60.6028 23.0352 66.5343C22.8283 68.7818 22.9817 72.426 19.0321 71.7251C18.8369 53.7558 20.9955 36.0855 20.495 18.287C20.4551 16.8703 20.5938 15.0656 21.2945 14.0683C24.0891 10.0907 23.519 4.23124 26.965 0.33066C29.0027 -2.91981e-08 30.9769 0 33.3211 0Z" fill="#060808"/>
<path d="M174.493 1.62967C174.022 1.45319 173.544 0.950457 172.92 0.223864C173.143 2.91981e-08 173.513 0 174.161 0C174.455 0.434473 174.471 0.868947 174.493 1.62967Z" fill="#0A0A09"/>
<path d="M18.6985 71.7649C22.332 65.5845 21.5068 58.5251 22.0781 51.882C22.3943 48.2055 22.0348 44.4369 22.698 40.7485C23.1993 37.96 23.8151 35.3647 26.5997 34.5233C28.4151 33.9747 28.4773 32.0276 28.8724 30.2924C30.5674 22.8484 30.0486 15.1197 31.0571 7.59033C31.361 5.32112 31.6388 3.07393 33.4613 1.23242C32.3009 14.29 33.0062 27.496 34.2587 40.7658C35.0561 49.2141 32.9086 57.4543 31.0279 65.5907C30.5076 67.8414 30.165 70.0552 31.8674 72.2678C34.1693 71.9714 34.0056 74.4335 35.115 75.8121C36.3447 80.4349 35.853 84.7997 35.5558 89.099C34.1856 108.917 35.3857 128.745 35.2614 148.571C35.9086 139.571 35.7117 130.551 35.7732 121.141C35.7711 118.292 35.7718 115.84 35.7727 112.958C35.8412 105.345 35.6293 98.1597 35.9606 90.572C41.1252 87.7916 44.2765 82.6212 48.1315 78.4572C49.7292 76.7314 51.3764 76.9311 52.846 78.5764C56.9426 83.1627 60.6483 87.4528 61.274 95.1589C62.1521 105.976 64.9203 116.588 64.1254 127.633C63.8128 131.976 67.5031 133.252 68.664 136.793C71.0086 140.721 73.2739 144.313 72.0759 149.601C69.5855 151.584 69.2626 149.042 68.5146 147.495C66.5466 143.427 64.3231 140.124 59.7399 139.945C55.9626 139.797 54.2283 142.527 52.2178 145.751C51.7907 146.767 51.5608 147.546 51.2558 148.621C49.431 151.588 48.9428 154.939 47.6862 157.883C44.7289 164.812 44.7718 164.837 37.8642 164.13C34.5144 164.048 33.3493 166.134 32.9796 169.259C28.8415 204.253 21.5314 238.671 19.327 274.019C18.0109 295.123 17.055 316.242 16.5487 337.397C16.4433 341.804 17.7507 345.969 17.2734 350.678C15.3802 353.448 16.5082 356.191 16.6788 358.682C17.7463 374.269 17.2389 389.955 19.1257 405.5C20.3876 415.897 22.3854 426.142 23.9427 436.457C24.6176 440.927 26.9491 445.252 26.5456 450.724C26.7275 460.298 26.6844 469.388 26.537 478.466C26.4645 482.933 25.0292 487.324 25.7356 492.291C26.232 493.6 26.7328 494.548 25.6977 495.765C24.6122 496.841 26.2298 498.515 24.7214 499.45C23.8706 501.163 23.5975 502.989 21.4109 502.715C19.6722 501.849 19.0107 500.415 18.3341 498.49C20.0309 491.356 19.595 484.454 19.8781 477.658C20.5401 461.765 19.2669 446.024 16.2001 430.533C12.0559 409.598 10.6628 388.395 10.6972 366.94C10.7186 353.585 9.91434 340.229 10.6893 326.865C10.7402 325.987 10.744 325.068 10.9129 324.245C12.0127 318.885 12.1148 313.687 9.44281 308.335C9.43224 307.206 9.48081 306.568 9.60665 305.469C9.91092 302.608 9.95068 300.196 10.0164 297.347C10.1039 295.767 10.143 294.622 10.0808 293.054C10.3289 289.663 10.3784 286.64 11.7038 283.527C12.0763 282.7 12.1535 282.2 12.2233 281.276C13.623 277.162 11.4343 273.125 13.1386 269.009C14.2466 267.94 12.488 266.54 13.6109 265.519C13.5575 264.849 13.5827 264.59 13.6474 263.943C14.1405 261.213 14.6567 258.886 14.9993 256.12C14.9459 255.439 14.9529 255.167 14.9015 254.485C16.4413 247.219 15.9822 240.064 17.0257 233.137C18.5008 223.344 20.5068 213.666 21.8202 203.837C24.2046 185.991 26.9747 168.196 27.4072 150.072C27.5431 144.377 29.2968 138.681 28.3835 133.097C27.4704 127.513 29.0836 122.353 29.0325 116.5C28.871 115.415 28.735 114.814 28.4956 113.79C28.4238 113.084 28.4516 112.8 28.5861 112.123C29.1012 110.683 29.0508 109.689 28.2645 108.458C28.415 103.738 28.5287 99.3033 28.5563 94.547C25.38 94.9107 24.7249 97.4869 24.1031 100.711C22.3957 109.565 21.8401 118.652 19.9816 127.465C19.6487 129.043 19.4528 130.673 17.7745 131.669C16.5722 131.792 15.6821 131.812 14.7782 130.615C12.5879 122.766 14.6623 115.228 14.8029 107.695C14.9622 99.1621 16.2061 90.6577 17.0115 81.731C17.3939 80.9216 17.7481 80.5261 17.8614 79.6442C17.8706 78.3135 17.8735 77.2695 17.8771 75.8341C18.5153 74.8582 18.74 74.0695 18.6973 72.8234C18.6968 72.498 18.6977 72.0093 18.6985 71.7649Z" fill="#0A0A09"/>
<path d="M-18.7239 228.588C-18.6356 227.14 -18.1933 225.943 -18.3778 224.9C-20.4601 213.124 -16.246 202.568 -13.8053 191.681C-11.6521 182.077 -8.96868 172.637 -7.39105 162.855C-7.23608 161.894 -7.15372 160.896 -6.86787 159.989C-0.933998 141.162 1.33908 121.116 7.08816 102.216C9.99433 92.662 9.69323 82.2746 12.1438 72.555C13.2325 68.237 14.067 63.836 16.3727 59.9121C16.6421 74.6732 14.047 89.0858 12.8327 103.652C11.6043 118.388 11.1836 133.216 10.3984 148.427C8.87675 163.402 3.52002 176.712 0.529442 190.812C-2.25723 203.95 -5.37785 216.941 -6.75566 230.433C-7.74759 240.147 -9.95464 249.62 -11.1609 259.31C-12.3507 268.867 -12.7274 278.503 -13.7228 288.511C-12.6561 302.276 -14.2523 315.506 -14.8495 328.774C-15.1067 334.488 -15.204 340.193 -14.1894 346.284C-16.1655 362.249 -14.8702 377.807 -14.3889 393.378C-14.0818 403.311 -13.5965 413.241 -13.4357 423.172C-13.1612 440.13 -13.4059 457.098 -13.3506 474.062C-13.34 477.324 -13.3729 480.612 -12.4671 483.752C-11.3042 487.782 -9.66559 488.76 -5.50646 487.662C-5.04569 487.28 -4.86869 487.118 -4.4427 486.694C-4.03802 486.244 -3.88232 486.057 -3.50677 485.571C-3.14787 485.065 -3.00881 484.857 -2.66125 484.325C-2.29206 483.795 -2.13139 483.59 -1.69079 483.133C0.81875 479.939 1.20403 476.276 1.78423 472.578C2.31105 469.221 2.99837 465.826 4.32485 462.713C4.91198 461.335 5.69764 460.273 7.20792 460.757C8.71518 461.239 8.49347 462.792 8.60677 464.068C8.8228 466.5 8.47848 468.889 8.02615 471.255C6.89826 477.155 5.28617 482.899 3.82673 488.686C2.77682 492.849 0.721434 496.34 -3.10709 498.448C-8.13725 499.077 -9.80614 500.641 -10.8638 505.824C-11.1968 507.455 -11.4664 509.212 -13.0646 509.457C-14.9144 509.741 -15.4721 507.794 -16.2032 506.244C-18.1586 502.1 -17.9329 497.426 -18.43 492.964C-18.625 491.215 -18.7843 489.835 -20.3333 488.826C-20.9952 488.58 -21.3798 488.371 -22.0774 487.941C-24.308 483.412 -23.4553 478.808 -23.1217 474.426C-20.8516 444.602 -21.1759 414.81 -23.1062 384.98C-23.9274 372.29 -23.3008 359.529 -23.3476 346.801C-23.442 321.169 -22.1572 295.594 -19.7779 270.146C-19.0462 262.32 -18.7928 254.179 -16.1964 246.636C-15.6857 245.153 -16.0651 243.522 -16.7582 241.639C-17.4553 238.985 -15.7567 237.09 -16.2012 234.463C-16.2852 233.88 -16.3282 233.653 -16.4585 233.101C-16.8695 231.2 -18.1491 230.347 -18.7239 228.588Z" fill="#060808"/>
<path d="M-15.1875 288.365C-14.2759 258.836 -10.0295 230.094 -4.18568 201.772C-0.517868 183.997 3.04625 166.001 10.1888 149.109C12.0154 157.833 10.872 166.932 11.1924 175.971C11.2784 178.396 11.1849 180.831 11.1732 183.72C11.6883 189.193 13.1789 194.18 11.3843 199.719C5.3681 204.11 6.90814 211.581 5.53748 217.553C3.82226 225.026 3.35674 232.87 0.960199 240.184C0.208528 242.478 -0.22438 244.971 0.120881 247.379C1.11236 254.293 -0.796666 260.945 -0.98595 267.743C-1.02086 268.996 -1.10851 270.396 -2.9238 270.828C-4.92219 270.531 -7.19655 271.807 -7.83083 268.121C-8.18233 266.8 -8.16421 265.888 -8.14417 264.552C-8.43008 262.451 -7.31777 261.16 -7.24132 260.099C-8.66615 262.897 -7.68299 266.485 -8.07825 269.848C-8.88704 276.731 -10.255 283.527 -11.0169 290.441C-11.0937 291.138 -11.8825 291.989 -12.7085 291.926C-14.392 291.798 -14.3492 289.884 -15.1875 288.365Z" fill="#101110"/>
<path d="M9.24091 200.261C9.97544 194.936 10.468 189.937 11.0668 184.559C11.9585 185.542 12.6811 186.973 14.2063 187.932C18.035 189.128 16.5927 192.523 16.322 194.799C15.2296 203.984 14.1546 213.176 12.9428 222.343C11.0508 236.654 9.103 250.956 8.01147 265.817C7.88373 266.778 7.82596 267.325 7.6961 268.263C7.56248 268.915 7.52832 269.18 7.3974 269.813C5.30131 276.707 6.31118 283.527 5.9145 290.206C4.30283 317.344 3.39544 344.524 2.27521 371.693C1.51527 390.124 1.94917 408.522 1.64403 426.931C1.59809 429.702 1.57631 432.499 1.98353 435.229C3.27879 443.912 2.77023 451.976 -3.51987 458.703C-4.35791 459.764 -4.89314 460.525 -5.51038 461.174C-7.41095 463.173 -8.51809 461.753 -8.9216 459.674C-9.52174 456.583 -9.20876 453.449 -7.79038 450.675C-5.3999 446 -4.97541 440.926 -4.99869 435.603C-5.08791 415.202 -4.81585 394.796 -5.10515 374.399C-5.32989 358.555 -4.72796 342.733 -4.04375 326.958C-2.44232 290.036 -0.43784 253.106 5.60319 216.713C6.50095 211.304 6.45369 205.542 9.24091 200.261Z" fill="#060808"/>
<path d="M6.27255 269.667C6.0386 269.239 6.09792 269.038 6.14594 268.947C6.10287 268.525 5.96861 268.221 5.62305 267.771C7.5635 243.355 11.1117 219.352 14.0122 195.243C14.2628 193.161 14.313 191.045 14.4443 188.512C14.4694 187.659 14.5067 187.237 14.5662 186.498C15.6189 185.159 16.4316 183.684 16.3424 182.298C15.8944 175.34 18.567 169.171 19.7133 162.629C20.1322 160.239 21.0063 157.896 24.1846 158.253C28.2502 159.48 27.2453 163.573 26.8957 165.723C24.7329 179.027 24.0607 192.586 21.936 205.834C20.5504 214.474 18.5108 223.067 17.311 231.759C15.646 243.821 14.9976 256.067 13.3829 268.164C13.0796 270.436 12.0105 272.669 12.6707 275.553C12.2139 277.239 13.3662 278.449 12.5525 280.121C11.249 282.593 11.5774 286.737 8.20992 285.791C4.79256 284.831 6.18813 281.439 6.1775 278.661C6.16653 275.786 6.93936 272.971 6.27255 269.667Z" fill="#1B1A17"/>
<path d="M24.0914 159.481C20.0946 165.85 20.1283 173.379 18.1902 180.161C17.5416 182.43 17.5373 185.012 14.8665 186.065C14.5801 168.857 14.5706 151.534 14.5645 133.755C15.3245 131.976 16.6091 131.616 17.7995 130.602C18.7474 122.403 19.3595 114.486 20.8911 106.713C21.6071 103.079 21.8697 99.3249 22.4377 95.6466C22.8521 92.9629 23.4482 90.3534 26.64 91.1825C27.0316 91.2842 27.463 91.1726 27.876 91.1618C29.2765 91.1252 29.9469 87.9656 31.2743 89.3689C32.7172 90.8943 31.9445 93.4223 31.3389 95.378C30.1562 99.1972 31.768 103.21 30.48 107.349C26.9376 113.115 25.3159 119.048 26.4142 125.855C26.5454 126.668 26.5649 127.592 26.1748 128.578C24.7719 132.123 25.8587 135.218 27.8536 138.483C27.4358 144.079 27.512 149.264 26.6446 154.355C26.3161 156.283 26.118 158.206 24.0914 159.481Z" fill="#101110"/>
<path d="M17.552 130.287C18.3944 133.175 16.2207 132.48 14.8269 133.238C14.556 132.554 14.545 131.81 14.5293 130.696C15.4216 130.315 16.3185 130.304 17.552 130.287Z" fill="#070604"/>
<path d="M18.5909 72.7832C18.9313 73.4825 18.8625 74.3839 18.0273 75.28C18.0796 74.6512 18.2831 73.8599 18.5909 72.7832Z" fill="#060808"/>
<path d="M17.7547 79.5996C17.6763 79.9305 17.4866 80.502 17.1699 81.1981C17.2431 80.8286 17.4432 80.3343 17.7547 79.5996Z" fill="#060808"/>
<path d="M49.343 203.97C49.5093 203.774 49.5131 203.289 49.5157 203.046C49.9691 202.29 50.4023 201.755 51.0094 201.033C52.1893 199.059 53.2021 197.279 54.3656 195.233C58.8467 189.392 62.4857 183.199 65.6077 176.652C69.272 168.968 74.3207 162.19 76.7918 153.211C76.9934 152.395 76.9993 151.962 77.0094 151.205C77.4551 150.358 77.8891 149.827 78.49 149.102C78.6547 148.905 78.6578 148.421 78.6603 148.18C81.738 141.288 84.9504 134.726 86.8748 127.426C88.3052 122 89.5666 121.439 92.7714 124.925C93.3261 127.21 93.2221 129.044 92.7786 131.014C90.4599 141.311 86.0512 150.32 81.3241 159.32C73.2636 174.668 65.6522 190.306 57.0726 205.314C51.6133 214.865 45.5168 223.595 39.2181 232.265C37.753 234.282 36.1118 236.253 35.5681 238.276C35.0031 239.404 34.924 238.24 35.2987 238.722C35.3669 238.81 35.4438 238.736 35.5579 238.521C39.0116 232.025 43.562 226.556 47.7225 220.73C48.9252 219.046 50.498 218.866 51.5467 221.447C53.5685 226.424 51.3706 230.573 49.9848 235.012C48.5654 239.56 45.4193 242.967 44.3213 248.024C44.6629 254.665 42.5444 260.44 41.2854 266.306C39.7311 273.547 38.0863 280.733 37.0877 288.323C38.6275 286.848 39.4824 284.924 40.857 283.552C42.2421 282.169 43.5211 281.48 45.0102 283.359C46.4427 285.166 46.9765 286.838 45.4618 289.093C41.0087 295.725 36.8718 302.647 33.107 308.012C37.2212 302.527 40.9292 294.695 46.1715 288.425C54.4193 278.558 59.3369 265.694 67.7956 256.043C69.5472 254.044 70.5818 251.175 71.4052 248.377C71.9162 246.641 72.5353 245.049 74.2754 244.095C77.6726 244.422 77.362 240.868 78.7626 238.813C80.2792 236.381 80.9131 233.782 82.0975 231.516C82.7888 230.193 83.1588 229.028 85.0342 229.616C87.0218 231.375 86.8059 233.411 86.3724 235.495C85.2793 240.751 84.2334 246.021 84.126 251.461C84.0912 253.225 84.0232 255.12 85.9979 256.441C86.6685 258.389 86.1744 259.853 85.4859 261.743C82.6399 265.575 83.9401 269.85 83.6426 273.713C83.4691 275.964 83.281 278.113 82.2935 280.353C76.3026 281.543 72.7426 277.943 70.2816 268.446C68.2215 269.065 67.303 271.187 66.1671 272.859C54.85 289.515 42.9837 305.663 32.6572 323.24C30.45 326.997 27.452 329.954 23.9202 332.102C22.0098 333.264 20.3338 333.453 18.594 331.267C18.1329 327.975 18.263 325.101 19.1618 321.861C24.3359 317.246 21.9481 310.783 22.5995 305.33C22.8918 302.883 19.5333 301.352 19.9837 297.8C20.2975 274.419 21.8117 251.62 25.5855 229.086C25.8651 227.417 25.3045 224.851 28.1651 224.813C30.575 226.132 32.3197 225.338 33.726 223.551C38.2908 217.749 43.5554 212.72 47.6925 206.005C48.3044 205.227 48.738 204.693 49.343 203.97Z" fill="#0C0E0D"/>
<path d="M28.5551 224.658C26.1098 235.632 25.1806 246.507 24.1987 257.364C23.0396 270.18 22.0399 283.015 21.9464 296.371C24.0894 301.263 22.4315 306.038 22.5103 310.587C22.5721 314.154 23.0113 318.108 21.2949 322.057C20.792 325.077 20.6178 327.699 20.4721 330.73C21.6701 332.382 22.4021 333.874 22.3882 335.781C22.3236 344.685 22.8518 353.599 21.7971 362.915C17.6988 364.526 17.0224 364.059 16.6669 359.783C16.4307 356.941 16.6715 353.998 14.9465 351.122C14.3891 300.15 17.5563 249.913 26.5418 200.274C28.5852 188.985 29.6719 177.451 31.0555 166.006C31.9123 158.918 31.7908 158.897 37.4806 162.639C40.7506 164.807 41.2584 167.454 38.9302 171.003C38.6049 171.499 38.5441 172.808 37.3076 173.091C34.2324 190.373 31.4164 207.328 28.5551 224.658Z" fill="#473224"/>
<path d="M101.651 107.539C101.998 107.742 102.396 107.766 102.595 107.778C105.685 111.989 105.529 117.298 106.605 122.59C106.764 124.706 107.311 126.46 105.495 127.581C103.938 128.543 103.812 130.981 103.742 132.314C103.388 138.995 100.153 143.972 97.7523 149.619C93.1516 160.442 87.314 170.367 82.4779 180.988C81.3405 183.486 79.6955 185.259 77.9207 187.15C73.0281 192.362 67.9592 197.62 67.3502 206.21C67.1822 208.58 66.1022 210.496 64.8586 212.284C63.6166 214.07 62.2973 215.981 62.0879 218.231C61.3558 226.098 58.3291 233.503 58.8024 241.607C58.9264 243.731 58.3374 245.809 57.7295 247.802C56.9591 250.328 56.594 252.763 57.5136 255.4C58.1882 257.334 57.7402 259.175 56.6085 260.89C54.7654 263.682 53.1167 263.918 50.2564 262.169C45.6191 259.334 44.1108 254.792 43.416 248.996C46.4974 242.173 49.9463 235.992 51.9057 228.905C52.4812 226.824 52.5372 224.795 51.7388 222.956C50.3185 219.684 50.8525 216.985 52.4526 213.948C59.3073 200.941 67.2082 188.703 73.5121 175.319C77.6898 166.449 81.9067 157.613 86.603 148.652C91.8073 145.329 92.3339 139.468 93.6996 134.039C95.6365 126.339 96.2651 118.273 98.6372 110.688C99.1902 108.92 99.5676 107.54 101.651 107.539Z" fill="#0E0F0F"/>
<path d="M92.3349 126.581C89.3074 124.351 89.0921 127.253 88.3663 128.952C85.6175 135.387 82.9541 141.876 78.8926 147.752C81.2783 139.753 83.9032 131.573 86.5057 123.383C87.7186 119.566 88.5971 115.657 88.6549 111.129C90.6314 105.192 91.1972 99.2984 91.9656 93.4599C92.1859 91.786 92.5931 90.2151 93.2451 88.6785C94.5251 85.6617 94.6351 85.6036 96.938 88.6822C97.1126 93.4817 96.7809 97.7705 96.1894 102.453C96.6413 103.454 97.18 103.995 97.404 105.227C97.2751 107.016 96.9229 108.34 96.6685 110.114C95.4155 114.077 95.9864 117.995 94.9643 121.557C94.4345 123.403 94.8135 125.878 92.3349 126.581Z" fill="#0A0A09"/>
<path d="M41.2155 56.4279C40.9044 57.6664 40.6233 58.5093 40.2288 59.6644C37.5192 62.9058 37.9495 66.9865 37.0817 70.5948C36.5311 72.8838 38.2806 76.7255 34.0676 76.8155C33.2718 75.35 32.7873 74.2146 32.1836 72.7962C34.0408 61.0313 35.7783 49.4948 40.184 38.7918C43.0756 31.7668 46.502 25.2842 51.5621 19.9727C46.0134 31.2365 43.3105 43.5086 41.2155 56.4279Z" fill="#1B1A17"/>
<path d="M76.7869 153.051C76.4229 159.091 74.7159 164.788 71.4232 169.876C66.9197 176.834 63.8335 184.989 58.4213 191.203C57.3378 192.447 56.4784 193.956 54.7715 194.828C61.6444 180.901 67.9747 166.253 76.7869 153.051Z" fill="#0A0A09"/>
<path d="M37.3761 173.38C37.288 170.104 37.5286 166.791 37.7406 163.145C42.9289 162.886 45.23 158.593 47.3256 153.962C48.1604 152.117 48.9789 150.227 50.9319 149.07C51.1729 156.323 48.0353 162.58 45.5688 169.003C44.183 172.611 40.7365 172.886 37.3761 173.38Z" fill="#060808"/>
<path d="M97.0921 88.8009C93.6224 88.8625 93.4542 92.0253 92.8673 94.5785C91.6634 99.8166 91.7819 105.495 88.8652 110.47C89.7051 102.989 90.7337 95.2626 91.7964 87.5424C92.1942 84.6525 92.4275 80.7276 95.7619 81.4758C98.9969 82.2018 97.5374 85.8353 97.0921 88.8009Z" fill="#060707"/>
<path d="M101.101 102.574C99.0556 103.879 98.7865 106.632 97.1945 108.534C96.0921 108.323 96.1214 107.409 96.1563 106.145C96.1501 105.067 96.1514 104.333 96.1542 103.231C97.7784 102.556 98.9372 96.8831 101.101 102.574Z" fill="#060707"/>
<path d="M78.465 149.072C78.2308 149.449 77.8086 149.995 77.1992 150.71C77.4337 150.333 77.8554 149.787 78.465 149.072Z" fill="#0A0A09"/>
<path d="M49.3206 203.941C49.0841 204.318 48.6587 204.862 48.0449 205.575C48.2816 205.198 48.7067 204.654 49.3206 203.941Z" fill="#0A0A09"/>
<path d="M50.987 201.004C50.7495 201.38 50.3228 201.923 49.707 202.634C49.9446 202.259 50.3711 201.715 50.987 201.004Z" fill="#0A0A09"/>
<path d="M70.4824 152.698C70.5212 152.631 70.7137 152.411 71.0628 152.041C71.0223 152.105 70.8279 152.323 70.4824 152.698Z" fill="#0A0A09"/>
<path d="M143.454 32.5488C143.196 33.1781 142.765 34.024 142.146 35.0705C142.399 34.4358 142.84 33.6006 143.454 32.5488Z" fill="#060808"/>
<path d="M130.944 51.1133C130.705 51.4875 130.276 52.0302 129.658 52.7417C129.898 52.3676 130.327 51.8247 130.944 51.1133Z" fill="#060808"/>
<path d="M162.965 20.4172C163.221 19.7736 163.654 18.9105 164.28 17.8457C164.03 18.4953 163.586 19.3466 162.965 20.4172Z" fill="#060808"/>
<path d="M-47.2978 665.459C-47.1763 666.69 -47.0924 668.191 -47.361 669.598C-50.4029 685.532 -49.0111 701.842 -50.3055 717.93C-50.8367 724.532 -49.6304 731.184 -48.8569 737.774C-48.5837 740.1 -47.9521 742.213 -45.6924 743.463C-44.9803 743.503 -44.5778 743.618 -44.0852 744.305C-42.1878 758.382 -38.3219 771.47 -34.9164 784.694C-33.588 789.853 -31.4221 794.563 -29.0909 799.246C-26.5894 804.27 -24.5096 809.604 -22.1405 814.748C-19.6582 820.138 -17.4958 825.597 -14.5465 830.803C-11.2193 836.675 -7.50457 842.479 -4.90749 848.973C-3.004 853.733 -0.267536 857.314 4.07133 859.256C7.47191 860.779 9.72994 863.555 10.1148 868.301C10.5201 873.3 13.9744 875.621 17.538 876.4C26.6693 878.395 33.7368 884.593 40.7065 891.075C43.4236 893.601 46.5843 895.256 48.6328 897.558C46.7375 895.852 44.0134 894.188 41.7053 891.919C32.131 882.504 22.9989 872.529 14.6994 861.534C12.6617 858.835 11.0809 855.75 9.34813 852.809C7.4167 849.532 8.39902 847.418 12.029 846.907C12.7384 846.952 13.1491 846.954 13.8849 846.941C16.4358 847.872 14.7969 851.391 17.0935 852.646C22.502 858.191 27.2324 863.965 30.3963 871.601C30.9752 873.84 31.9449 875.432 33.4211 876.471C41.5024 882.156 48.6434 889.661 57.576 893.71C58.7239 894.23 59.8218 895.036 60.7937 895.933C62.7933 897.779 62.7604 899.837 60.6809 901.515C59.0591 902.823 57.293 903.849 57.0573 906.869C54.1184 905.662 51.2323 904.084 48.3299 902.55C46.43 901.545 44.5784 898.503 42.6622 902.882C42.0089 904.374 40.3704 903.132 39.3475 902.331C34.3464 898.413 28.8345 895.853 23.2148 893.458C18.8718 891.607 15.2802 887.831 12.054 884.32C7.18436 879.021 1.5742 874.777 -2.41076 867.922C-5.82622 862.047 -9.99067 856.46 -13.4419 850.51C-17.3985 843.689 -21.8574 837.04 -25.0232 829.897C-27.1279 825.148 -28.5401 819.176 -29.9131 813.641C-31.0111 809.214 -34.0084 806.279 -35.4201 802.261C-39.3776 790.998 -42.6269 779.455 -44.3491 767.39C-45.1636 761.685 -47.8485 756.796 -49.3219 751.354C-50.6951 746.281 -51.0623 741.192 -51.4781 735.999C-52.554 722.563 -53.1455 709.002 -55.2158 695.769C-57.1036 683.703 -52.8138 674.725 -47.2978 665.459Z" fill="#0A0A09"/>
<path d="M5.92992 269.605C9.66017 271.942 7.33131 275.935 7.60245 279.358C7.70128 280.605 7.23498 282.206 8.52857 282.742C9.85924 283.292 10.347 281.73 11.0932 280.45C12.1057 279.156 12.9345 278.957 13.7353 280.857C13.8118 281.665 13.8028 282.038 13.778 282.691C12.7898 285.984 13.6183 289.232 12.9011 292.642C12.8977 294.056 12.8795 295.105 12.847 296.547C12.0397 299.258 12.6072 301.666 12.6668 304.327C12.8364 305.09 12.8344 305.554 12.8203 306.366C11.1702 311.775 11.993 317.153 11.2388 322.808C10.2985 332.191 10.6125 341.189 9.86931 350.098C9.33872 356.459 10.0546 363.219 8.09774 369.078C6.56574 373.665 6.05859 378.146 7.06486 382.276C8.44837 387.955 9.08231 393.798 8.02279 399.111C4.96821 414.429 8.59522 429.416 9.50084 444.352C10.2381 456.512 12.0457 468.794 12.5716 481.078C13.1306 494.135 12.6504 507.208 8.14508 519.973C5.24354 521.537 3.80999 524.336 2.32419 527.018C-0.0301208 531.267 -2.08475 532.382 -5.99264 531.018C-9.37811 529.836 -10.0619 526.655 -10.0176 522.977C-9.99374 521.003 -9.73977 519.101 -9.26623 517.219C-7.93522 511.93 -6.34954 506.697 -6.58246 501.047C-6.64474 499.536 -6.03385 498.373 -4.86124 497.069C-1.69881 495.142 0.480075 492.641 1.38752 489.037C3.27187 481.552 4.97182 474.003 6.71788 466.47C6.8503 465.899 6.99496 465.178 6.20301 464.647C3.05811 471.21 3.12493 479.086 -0.199352 485.882C-4.28618 484.344 -3.57447 480.589 -2.78219 477.235C-1.88992 473.458 -0.368494 469.884 -0.670344 466.734C-0.786711 467.443 -0.664982 469.109 -0.831239 470.705C-0.968891 472.027 -1.34943 473.728 -2.94607 474.131C-4.44539 474.508 -5.63843 473.983 -6.54128 472.581C-8.47028 469.585 -9.01606 466.344 -7.06612 463.165C-6.08798 461.571 -5.44317 460.108 -5.64589 457.834C0.408225 451.026 0.159252 443.101 -0.149778 434.252C-1.12726 406.262 -0.528131 378.24 0.836964 350.254C1.59799 334.652 2.04499 319.028 2.94898 303.438C3.59737 292.257 3.81897 281.003 5.92992 269.605Z" fill="#241F19"/>
<path d="M9.41602 321.303C11.1329 316.555 10.1019 311.406 12.6109 306.965C12.8457 313.067 12.4501 319.423 12.4129 325.755C12.2417 354.908 11.9401 384.106 15.6242 413.049C17.1409 424.964 20.0054 436.625 21.1766 448.621C22.7482 464.718 22.7313 480.81 20.3262 497.242C18.527 500.3 17.4019 500.177 16.2624 496.7C15.5663 494.575 14.6763 493.198 12.754 492.442C13.1535 478.038 11.8444 464.095 10.2207 450.223C7.85214 429.986 5.32353 409.777 5.81595 389.277C6.21618 372.615 6.7454 355.957 8.15987 339.352C8.47573 335.644 8.41386 331.89 9.1208 327.77C8.96281 326.155 9.40073 325.072 9.30773 323.569C9.11552 322.676 9.14374 322.158 9.41602 321.303Z" fill="#2C241C"/>
<path d="M19.9404 362.239C20.3815 377.51 20.9137 392.492 22.7427 407.364C23.6991 415.141 25.8058 422.571 27.802 430.034C28.5064 432.668 29.0282 435.37 29.635 438.438C29.2593 440.458 29.9482 442.469 27.463 443.059C25.6879 443.481 27.0082 446.087 26.5825 447.62C26.1822 449.062 27.2741 451.99 24.051 450.718C22.557 437.708 19.7526 425.249 17.8501 412.595C14.8215 392.452 15.2081 372.029 14.6602 351.234C17.2647 351.453 18.0755 353.754 18.4653 356.445C18.7394 358.338 18.7074 360.331 19.9404 362.239Z" fill="#553D2A"/>
<path d="M23.9344 160.007C24.4716 153.175 25.6028 146.672 25.3875 139.565C25.3914 131.512 26.8882 124.007 26.2746 116.333C26.0828 113.934 27.4185 112.188 30.1064 114.315C31.5208 149.951 26.599 184.531 20.9064 219.002C19.0001 230.546 17.9052 242.221 16.338 254.21C15.9882 254.786 15.8837 255.065 16.0786 255.592C16.2453 258.44 16.1931 261.112 15.4737 264.092C15.2686 264.643 15.1475 264.818 15.2022 265.259C15.3722 266.268 15.3666 267.011 15.346 268.125C14.3405 270.535 14.224 272.786 14.0897 275.061C13.9924 276.71 13.5084 278.034 11.4785 276.586C12.2562 260.535 14.3701 244.908 15.9981 229.249C16.827 221.277 18.0739 212.831 20.8212 205.09C21.3458 203.612 21.7661 201.898 21.6807 200.334C21.0753 189.258 23.6215 178.635 24.8947 167.832C25.2019 165.225 25.5742 162.63 23.9344 160.007Z" fill="#241F19"/>
<path d="M13.5312 491.838C15.0914 491.069 14.9931 488.274 16.7096 488.948C17.929 489.426 17.7026 491.397 17.8741 492.78C18.0944 494.557 18.4273 496.229 20.0571 497.472C20.5623 498.754 20.8286 499.854 21.2538 501.63C22.002 502.879 23.1016 502.952 22.9064 504.721C22.8514 505.319 22.7422 505.54 22.614 506.169C21.5362 506.991 22.6828 508.5 21.5161 509.32C19.8872 519.135 16.1547 527.561 12.7785 536.154C11.8034 538.636 10.5238 541.039 10.4992 544.427C7.63053 551.854 5.18485 559.027 0.589293 565.123C-2.98863 564.171 -2.09132 560.268 -3.26241 557.266C-3.34426 556.626 -3.35742 556.367 -3.37392 555.722C-3.50041 551.935 -1.18939 549.875 -0.0964761 547.145C0.84204 544.8 1.97752 542.535 0.24834 539.629C4.3092 530.753 8.33998 522.187 10.3023 512.608C11.6923 505.823 12.3329 498.857 13.5312 491.838Z" fill="#1E1C19"/>
<path d="M33.7523 76.9357C36.2918 73 35.0012 68.2376 36.6698 64.4215C37.4198 62.7063 37.5598 60.5685 39.8519 60.0391C38.3273 69.6136 37.5618 79.3577 37.8908 89.6722C37.9161 97.7106 37.9176 105.292 37.952 113.342C38.5647 115.676 38.1525 117.607 38.1554 119.898C38.0079 131.196 38.0027 142.101 37.8765 153.004C37.8542 154.93 38.4404 157.977 35.8656 157.98C33.3097 157.982 32.1225 155.642 32.3054 152.531C33.7767 127.509 32.2734 102.407 33.7523 76.9357Z" fill="#382B20"/>
<path d="M23.8146 450.938C24.8454 447.672 24.39 444.762 24.1784 441.859C24.0455 440.035 24.0297 438 25.4739 437.012C27.2302 435.811 26.8875 438.996 28.095 439.185C28.4805 439.245 28.8908 439.087 29.4631 438.933C29.6365 438.838 29.6013 438.914 29.569 438.893C29.9409 439.355 29.9011 440.111 30.5531 440.746C34.6504 453.126 34.0995 465.53 31.8303 477.99C31.4532 480.061 30.9249 482.093 30.3921 484.508C27.7437 485.978 28.2953 489.111 27.3083 491.247C26.5183 492.957 27.1243 496.911 23.4375 494.327C25.3007 479.857 24.7311 465.617 23.8146 450.938Z" fill="#402E20"/>
<path d="M23.1578 494.256C25.8023 492.385 26.4962 489.477 26.9661 486.38C27.2786 484.32 27.6347 482.112 30.1521 484.695C25.4131 505.431 19.517 525.54 10.6045 544.637C9.40773 541.766 10.3178 538.958 11.3173 536.023C14.2763 527.336 18.5397 519.199 19.519 509.281C19.9802 508.033 19.933 507.042 20.201 505.789C20.3865 505.497 20.3654 505.537 20.3649 505.561C21.1083 504.559 20.6142 503.291 21.0298 501.881C21.2117 501.597 21.1835 501.602 21.1865 501.617C21.6253 500.924 22.0611 500.217 22.6688 499.34C23.2418 498.276 23.3837 497.331 23.0776 496.095C22.9803 495.395 23.0336 494.93 23.1578 494.256Z" fill="#2C241C"/>
<path d="M30.3794 114.289C28.1268 115.576 28.1351 117.875 28.5482 119.884C29.9361 126.636 27.5022 132.475 25.5359 138.799C22.9928 130.901 24.2846 122.556 25.0325 114.31C25.2951 111.414 27.9557 109.829 30.1368 107.881C30.3785 108.784 30.3709 109.855 30.3555 111.327C30.2379 111.883 30.1281 112.039 30.1869 112.424C30.3637 113.089 30.3719 113.525 30.3794 114.289Z" fill="#1B1A17"/>
<path d="M11.2129 276.679C14.1371 275.064 13.3449 271.181 15.1502 268.762C14.9121 272.517 14.4935 276.538 13.9471 280.926C13.1271 280.992 12.4348 280.691 11.4804 280.291C11.2163 279.152 11.2143 278.111 11.2129 276.679Z" fill="#2C241C"/>
<path d="M13.0456 292.637C12.1716 289.819 12.7516 286.75 13.6432 283.334C13.755 286.085 13.9477 289.218 13.0456 292.637Z" fill="#2C241C"/>
<path d="M12.8519 304.2C12.0324 302.319 11.8986 299.983 12.7288 297.275C12.8434 299.218 12.8548 301.496 12.8519 304.2Z" fill="#2C241C"/>
<path d="M38.1332 119.977C38.0208 118.401 37.9861 116.51 37.9688 114.215C38.591 115.733 38.7234 117.68 38.1332 119.977Z" fill="#070604"/>
<path d="M56.7052 135.113C56.6787 135.237 56.6255 135.313 56.5723 135.389C56.6077 135.282 56.6431 135.174 56.7052 135.113Z" fill="#060808"/>
<path d="M27.8708 40.2008C27.8833 40.1884 27.8583 40.2133 27.8708 40.2008V40.2008Z" fill="#060808"/>
<path d="M22.8995 496.271C22.9385 496.775 22.9494 497.69 22.9007 498.889C22.8513 498.342 22.8614 497.512 22.8995 496.271Z" fill="#402E20"/>
<path d="M30.353 112.421C30.3343 112.421 30.328 112.19 30.3405 111.842C30.3462 111.727 30.3521 112.19 30.353 112.421Z" fill="#241F19"/>
<path d="M16.2382 255.466C16.2054 255.467 16.2044 255.175 16.2356 254.734C16.2488 254.781 16.2496 254.977 16.2382 255.466Z" fill="#2C241C"/>
<path d="M15.3854 265.261C15.3606 265.261 15.3582 264.998 15.381 264.602C15.391 264.645 15.3915 264.821 15.3854 265.261Z" fill="#2C241C"/>
<path d="M-5.57543 457.645C-4.51536 460.604 -5.35139 463.588 -5.79502 466.626C-6.03324 468.256 -5.86062 470.306 -4.26814 470.678C-2.20864 471.159 -2.36924 468.82 -2.2089 467.341C-1.87728 464.283 -1.52982 461.291 0.901432 458.501C2.25827 468.008 -2.03806 476.495 -0.451769 485.748C-0.393847 486.154 -0.420925 486.539 -0.43854 486.731C-0.657419 487.126 -0.843998 487.348 -1.15157 487.757C-1.28725 487.927 -1.30736 487.89 -1.2888 487.893C-1.49056 488.134 -1.69492 488.389 -2.00204 488.885C-4.18643 493.257 -7.42358 492.481 -10.6046 491.885C-13.7227 491.301 -14.2434 488.408 -14.7858 485.447C-15.9065 479.331 -15.8772 473.052 -15.6658 466.948C-14.6217 436.798 -16.5209 406.735 -17.0789 376.635C-17.257 367.03 -17.075 357.415 -17.0517 347.349C-12.185 344.343 -11.3694 339.597 -10.4342 333.8C-9.04178 325.17 -7.41446 316.658 -7.24311 307.838C-7.21477 306.379 -6.74043 304.784 -7.21619 303.485C-9.11912 298.288 -8.05992 293.344 -6.92704 288.209C-5.89043 283.51 -5.26539 278.664 -4.91825 273.795C-4.81289 272.317 -4.43109 270.94 -3.18942 269.672C-3.43923 262.609 -1.4251 255.918 -2.5933 249.003C-3.04974 246.301 -2.32954 243.079 -1.50113 240.365C1.79848 229.558 2.99851 218.163 5.49991 207.138C6.12059 204.403 6.68628 201.74 9.23492 200.082C6.95388 223.064 3.54801 246.053 1.61495 269.28C-0.181765 290.868 -1.31105 312.5 -2.12419 334.167C-3.29292 365.31 -2.87878 396.465 -2.93747 427.617C-2.94423 431.205 -3.11726 434.842 -2.68665 438.368C-2.1209 443 -2.61699 447.029 -5.22267 450.731C-6.45499 452.482 -7.10994 454.736 -6.98483 457.125C-6.92874 458.196 -6.51029 458.639 -5.57543 457.645Z" fill="#1B1A17"/>
<path d="M-4.92455 496.789C-4.03289 504.067 -4.36158 511.12 -7.00504 518.034C-8.22296 521.219 -9.23809 525.542 -5.58932 527.985C-2.53489 530.029 0.38525 528.155 2.90073 523.074C3.81168 521.234 4.74277 519.46 6.69603 518.338C9.38475 518.894 7.9865 520.976 7.62227 522.025C3.45197 534.034 -2.40517 544.537 -11.4957 552.381C-13.8128 554.38 -17.4882 555.874 -16.8903 561.211C-16.9066 561.961 -16.9662 562.249 -17.2462 562.864C-18.2363 563.999 -18.8376 564.972 -19.5864 566.232C-19.8725 566.671 -19.9878 566.845 -20.2739 567.283C-20.7806 568.083 -21.1066 568.628 -21.593 569.452C-22.252 570.433 -22.7363 571.146 -23.3591 572.174C-23.8748 573.053 -24.2643 573.603 -24.8795 574.42C-25.4993 575.318 -25.9225 575.922 -26.5576 576.848C-28.5665 577.33 -29.3776 578.455 -29.9834 580.444C-30.9758 583.703 -31.7879 587.133 -34.2693 589.548C-35.5407 590.785 -36.7202 591.994 -38.3722 591.235C-40.26 590.368 -39.7172 588.312 -39.4666 586.668C-38.1939 578.318 -37.5564 570.001 -39.0464 561.556C-39.2634 560.326 -39.566 559.553 -40.5087 558.452C-41.1733 554.547 -38.8303 552.298 -37.5395 549.657C-31.1508 536.583 -25.4642 523.236 -23.0473 508.23C-22.6166 505.555 -21.7755 502.96 -21.6928 499.71C-20.5841 495.466 -21.4948 491.34 -19.9137 487.262C-19.5 485.829 -19.852 484.638 -18.8477 483.25C-16.8474 490.646 -16.8418 498.403 -13.6694 506.097C-12.8372 502.978 -14.1357 499.842 -11.7108 498.413C-9.70131 497.228 -7.46238 497.093 -4.92455 496.789Z" fill="#141513"/>
<path d="M5.57227 267.809C5.6294 267.865 5.79656 268.138 6.07923 268.632C6.02393 268.578 5.85311 268.302 5.57227 267.809Z" fill="#241F19"/>
<path d="M188.999 59.2702C188.997 59.2543 189.001 59.2862 188.999 59.2702V59.2702Z" fill="#060808"/>
<path d="M162.363 145.007C162.351 145.011 162.374 145.003 162.363 145.007V145.007Z" fill="#0C0E0D"/>
<path d="M135.355 130.245C135.42 132.128 135.334 133.823 135.15 135.929C134.731 136.309 134.408 136.276 133.843 136.221C133.579 134.096 133.549 131.993 134.419 129.664C134.788 129.572 134.995 129.814 135.355 130.245Z" fill="#382B20"/>
<path d="M105.124 124.697C106.415 131.092 105.841 137.654 104.475 144.557C104.346 145.166 104.274 145.395 103.944 145.826C100.531 150.289 101.014 155.862 99.9654 160.842C96.3793 177.867 90.5506 193.959 85.1008 210.174C83.5553 214.773 81.9672 219.478 79.8999 224.271C79.3009 224.789 78.9471 225.072 78.3949 225.666C77.6908 226.462 77.4053 227.12 77.0716 228.176C72.1364 238.013 66.526 246.88 61.5062 256.202C60.8971 257.333 60.4196 258.471 59.8378 259.989C56.0695 265.822 53.6909 272.31 51.2365 275.554C53.3787 272.465 55.9141 266.511 59.3233 260.81C63.9513 250.974 69.4197 242.194 74.5863 233.186C75.3282 231.893 76.0637 230.626 76.7039 228.827C77.3553 227.891 77.3961 227.024 78.0545 226.084C78.4923 225.602 78.6765 225.415 79.1946 225.039C80.2967 224.268 80.9969 224.569 81.995 225.391C84.2949 230.117 80.4982 232.797 79.8589 236.434C79.8228 236.64 80.1389 238.247 78.9547 238.44C78.3675 240.334 77.4784 241.664 76.8813 243.552C76.8331 244.694 76.1581 245.058 75.6056 245.788C71.2992 256.116 65.4031 264.659 58.4274 272.255C57.2872 273.496 56.5611 275.101 56.1967 276.88C55.5248 280.16 54.186 283.378 52.0652 285.217C45.5174 290.895 42.3919 299.839 36.7602 306.323C34.3492 309.099 32.2191 312.26 28.1602 314.95C30.3565 308.42 33.3742 304.015 36.1251 299.467C38.2919 295.885 40.7606 292.557 43.0262 289.054C43.6562 288.08 44.7059 286.751 43.4206 285.686C42.4368 284.87 41.6633 286.214 41.0557 287.054C39.6182 289.04 38.2654 291.11 36.8438 293.113C36.227 293.982 35.5185 295.097 34.4454 294.572C33.0757 293.903 33.3743 292.267 33.7728 291.151C35.9974 284.92 35.4859 277.992 37.6003 271.697C39.9791 264.615 40.017 256.715 42.8178 249.358C42.9893 248.804 43.1105 248.607 43.4442 248.675C45.651 249.366 47.2499 249.739 46.7603 253.178C46.3617 255.977 51.0879 260.686 53.4749 260.564C54.3935 260.517 55.0911 260.06 55.4223 259.05C55.8023 257.89 55.3341 257.206 54.3919 256.84C51.8805 255.866 52.7663 254.113 53.554 252.23C55.3297 247.985 57.1851 243.725 55.8237 238.734C55.7825 238.583 55.7394 238.379 55.7912 238.254C59.5217 229.228 57.2485 217.977 63.4157 209.831C64.1232 208.896 64.808 207.609 64.9066 206.417C65.7766 195.898 71.6727 189.444 78.1009 183.368C78.7372 182.766 79.4186 182.067 79.7664 181.233C83.7905 171.579 89.1014 162.799 93.5965 153.46C98.0396 144.23 100.853 134.275 105.124 124.697Z" fill="#121413"/>
<path d="M43.8573 248.716C43.6595 248.941 43.2648 248.965 43.0678 248.983C43.1942 245.09 45.1714 242.071 46.7782 238.837C48.533 235.305 50.116 231.656 50.7466 227.583C51.0193 225.822 51.2804 223.726 49.5169 222.874C47.9803 222.132 46.8957 223.708 46.0423 224.929C42.0813 230.592 38.225 236.358 34.2836 242.041C33.4541 243.237 33.0387 245.012 30.7207 245.431C32.5975 240.738 34.8772 236.923 37.3971 233.436C56.5719 206.906 70.4647 176.275 85.9514 146.896C89.0668 140.986 90.9358 134.161 91.9565 126.772C93.9674 121.338 94.0846 115.776 95.2537 110.102C95.6304 109.277 96.0179 109.11 96.7411 109.478C95.5652 121.322 93.2272 132.622 89.3194 143.427C88.6176 145.367 87.8901 147.295 87.0852 149.566C85.181 153.554 82.9585 157.009 81.6213 160.887C75.7323 177.964 66.1341 192.357 57.6487 207.558C54.5872 213.043 52.9409 218.466 52.9423 225.598C52.9439 234.005 49.6845 242.283 43.8573 248.716Z" fill="#060707"/>
<path d="M21.2232 322.229C21.0858 314.185 21.0506 305.908 21.9078 297.248C23.1583 298.079 23.7593 299.727 23.7498 301.543C23.7215 307.01 23.6204 312.478 23.4597 317.942C23.4103 319.619 22.6532 320.995 21.2232 322.229Z" fill="#0A0C0C"/>
<path d="M77.5605 240.062C78.2045 240.035 78.5742 240.036 79.2212 240.038C78.623 242.329 78.5902 245.362 75.5297 245.907C75.3159 245.164 75.3235 244.434 75.3346 243.338C76.2569 242.264 76.1239 240.571 77.5605 240.062Z" fill="#0A0C0C"/>
<path d="M29.1198 250.995C28.4758 251.533 27.926 251.633 28.0673 250.63C28.1343 250.154 28.777 249.371 29.0434 249.431C29.8541 249.615 29.4091 250.322 29.1198 250.995Z" fill="#060707"/>
<path d="M15.7333 349.238C15.6965 349.264 15.77 349.212 15.7333 349.238V349.238Z" fill="#0A0A09"/>
<path d="M111.94 95.2285C111.999 95.5574 112.023 96.0802 112.011 96.7969C111.953 96.468 111.929 95.9452 111.94 95.2285Z" fill="#0A0A09"/>
<path d="M111.863 99.1934C111.785 99.5238 111.596 100.094 111.281 100.79C111.354 100.421 111.553 99.9274 111.863 99.1934Z" fill="#0A0A09"/>
<path d="M111.141 127.998C110.919 127.841 110.705 127.356 110.393 126.623C110.441 126.371 110.586 126.368 110.951 126.361C111.163 126.795 111.156 127.233 111.141 127.998Z" fill="#060808"/>
<path d="M96.9917 109.493C96.62 109.734 96.2507 109.731 95.6046 109.725C95.5319 108.625 95.736 107.529 96.0448 106.117C96.3896 106.587 96.6296 107.371 96.9343 108.459C96.999 108.763 96.994 109.25 96.9917 109.493Z" fill="#030303"/>
<path d="M102.093 155.391C98.0397 180.259 92.6225 204.185 81.3504 226.08C80.5676 226.344 79.9484 226.332 79.0198 226.314C78.0906 226.024 78.299 225.314 77.9902 224.55C79.4789 213.288 85.9422 204.555 88.2981 193.856C88.8506 191.347 89.8798 189.005 89.2852 186.258C89.1014 185.408 89.1809 184.044 89.6401 183.503C96.7616 175.109 97.3511 163.66 99.969 153.178C100.676 150.349 101.079 147.432 103.392 145.219C103.989 145.342 104.149 145.792 103.878 146.653C103.16 149.644 102.65 152.333 102.093 155.391Z" fill="#1E1C19"/>
<path d="M103.795 146.827C103.655 146.521 103.641 146.086 103.617 145.326C103.609 144.999 104.015 144.969 104.217 144.953C104.253 145.524 104.086 146.112 103.795 146.827Z" fill="#0A0A09"/>
<path d="M77.2779 871.974C70.2257 867.314 63.8408 861.994 57.2341 856.475C36.2478 833.28 18.5979 807.557 8.05533 776.037C5.82006 769.354 3.47912 762.458 2.64768 755.129C2.43402 753.245 1.72794 751.361 0.961823 749.656C-2.47762 741.998 -3.2528 733.574 -4.28812 725.22C-4.53076 723.262 -3.80146 721.741 -2.31768 720.311C-0.293755 718.649 0.462453 719.921 0.939012 721.761C1.64873 724.503 3.19588 726.534 5.13399 728.703C6.06964 730.83 6.23811 732.825 7.47249 734.602C8.75126 736.443 8.97173 739.672 7.81505 741.53C6.07634 744.324 6.45833 746.931 6.8485 749.787C6.59308 748.284 6.48809 746.753 6.5161 744.909C11.002 742.597 10.9328 742.64 12.5378 747.939C12.8553 748.987 12.7334 750.685 14.4602 751.046C15.3376 750.997 15.9131 750.898 16.7236 750.49C20.2054 750.832 20.2054 750.832 20.7681 755.659C21.5149 754.434 22.1099 753.136 23.5519 753.412C24.8184 753.655 25.2587 754.754 25.6076 755.986C25.7831 756.605 25.6774 755.838 25.6682 756.461C25.5232 766.328 30.0493 774.573 32.4931 783.867C32.6613 784.577 32.7954 784.965 33.0649 785.643C33.1897 786.164 33.2054 786.382 33.1886 786.915C32.2567 789.422 34.2131 789.832 35.0633 791.354C44.1301 805.979 54.7181 818.412 65.9388 830.154C68.5282 832.864 71.1264 835.58 73.5771 838.457C77.0731 842.561 80.9288 845.598 86.3701 845.916C86.8691 846.31 87.0636 846.466 87.543 846.849C89.1947 848.382 90.9425 849.325 91.0251 851.841C91.0413 852.335 91.2878 852.883 91.6186 853.088C96.757 856.267 99.7125 863.527 106.317 863.984C106.688 864.01 107.004 864.503 107.52 865.11C107.972 865.775 108.214 866.164 108.636 866.827C109.985 868.56 110.72 870.513 112.653 871.511C113.493 871.57 112.839 871.858 113.342 871.644C123.356 867.383 128.669 876.2 134.939 882.352C138.118 885.471 141.128 889.017 146.003 888.595C150.411 892.941 154.411 897.229 158.201 901.844C159.43 903.34 160.514 904.694 159.825 906.296C158.99 908.237 157.163 908.829 155.233 907.938C153.687 907.224 152.109 906.6 150.563 905.883C148.068 904.726 145.837 904.782 143.607 906.982C141.029 909.525 138.212 909.248 135.723 906.635C132.882 903.651 129.546 901.714 125.529 899.626C121.722 898.237 118.718 896.834 116.607 893.462C115.293 891.361 113.08 890.796 111.04 890.685C103.297 890.263 96.7151 886.077 90.149 881.935C87.9068 880.52 86.3955 877.835 84.4698 875.824C82.449 873.714 80.2458 872.318 77.2779 871.974Z" fill="#121413"/>
<path d="M16.2209 753.945C13.557 753.985 11.9527 752.245 11.0512 749.462C10.4402 747.575 9.45679 746.105 7.36007 745.616C5.07228 742.531 5.99187 738.901 5.62454 735.569C4.24238 723.033 2.34837 710.586 1.01685 698.04C0.675133 694.821 1.31899 691.541 0.54212 689.054C0.985714 702.174 3.22498 715.697 4.68071 729.572C1.41039 727.686 -0.462032 724.427 -1.95868 720.387C-8.2679 705.404 -4.4356 690.264 -3.27215 675.349C-2.42522 664.492 -2.09556 653.634 -2.13841 642.705C-3.25936 656.427 -4.38031 670.15 -5.5105 684.309C-7.31564 683.411 -8.1788 681.469 -8.09391 679C-7.35901 657.626 -7.86189 636.131 -3.42694 615.119C-2.86741 612.468 -3.08987 609.601 -2.67726 606.891C-2.30626 604.455 -1.75585 601.963 1.31599 602.906C3.43944 603.557 3.50973 601.425 3.6225 599.89C4.03224 594.313 5.86908 589.169 6.9989 583.813C7.49217 581.474 8.14997 579.308 11.1014 580.091C11.7561 580.367 12.08 580.67 12.2516 581.393C12.0763 582.778 12.8038 583.888 11.8764 585.261C11.7194 586.782 11.4977 587.871 10.9678 589.227C8.1715 592.321 8.04806 596.354 7.59506 599.835C6.60809 607.419 5.77619 615.056 5.6504 622.808C5.57885 627.216 5.10046 631.674 4.95628 636.142C4.23247 658.575 6.56447 680.671 9.38916 702.791C10.6589 712.735 11.6128 722.717 13.3836 732.579C14.2054 737.156 15.5943 741.564 16.0652 746.248C16.3097 748.681 16.5848 751.071 16.2209 753.945Z" fill="#1B1A17"/>
<path d="M-25.5176 570.387C-24.9076 569.725 -24.4919 569.251 -23.9292 568.589C-23.8392 567.48 -23.6336 566.628 -23.1118 565.549C-22.9371 565.283 -22.9436 565.3 -22.9494 565.306C-22.0424 564.319 -21.2013 563.264 -20.6028 561.609C-20.4386 561.365 -20.4453 561.38 -20.4515 561.385C-14.1853 554.14 -6.48138 548.748 -0.925533 540.585C-0.251659 539.595 0.206394 538.732 1.70214 539.605C4.257 546.085 0.94944 550.421 -1.95646 555.225C-2.4699 555.739 -2.6825 556.092 -2.4419 556.521C-1.01835 559.041 0.145397 561.604 0.34486 564.962C-4.83996 578.096 -11.0169 590.122 -18.2341 601.5C-22.1598 607.689 -26.8022 612.961 -31.2397 618.521C-32.0562 619.544 -32.8843 621.191 -34.2756 620.506C-35.7439 619.782 -35.2138 617.964 -34.9914 616.59C-34.5966 614.152 -34.4845 611.881 -35.3126 609.435C-36.2154 606.769 -34.8381 604.191 -33.0809 603.168C-28.34 600.406 -28.7018 595.125 -27.8711 590.102C-29.2794 587.283 -27.1154 586.151 -26.1702 585.215C-23.8623 582.93 -21.7202 580.474 -19.651 578.014C-21.4863 580.027 -22.9768 582.305 -25.0677 583.978C-26.2971 584.961 -27.0611 585.839 -28.5421 584.039C-30.2908 580.62 -29.3932 577.727 -28.1362 574.433C-27.7583 573.554 -27.5793 573.087 -27.3007 572.392C-26.69 571.653 -26.2091 571.103 -25.5176 570.387Z" fill="#121413"/>
<path d="M44.6309 412.003C39.9454 416.391 34.146 414.149 30.8011 406.72C27.5575 399.516 28.2808 391.546 28.1549 383.803C28.1036 380.646 31.1104 379.682 32.3548 377.42C34.344 373.805 36.3406 376.116 38.4277 377.079C42.5546 378.983 46.7049 380.706 51.0895 381.782C57.3929 383.33 58.9297 386.316 57.7717 393.624C57.1832 397.338 56.9464 401.059 57.0123 405.274C58.0543 407.878 58.0543 407.878 56.4198 410.244C61.8527 401.964 64.0419 392.855 61.3204 382.267C61.1509 381.827 61.1581 381.659 61.1793 381.238C65.3927 378.621 67.695 380.372 68.5309 385.861C70.4639 398.556 65.3305 407.958 58.3859 416.407C56.6995 418.458 55.265 421.81 51.6418 420.726C49.8684 419.51 48.7968 418.242 49.6405 416.248C50.9447 413.167 49.3162 411.946 47.2134 410.585C44.0047 408.501 43.5158 404.222 41.3049 402.03C42.4689 405.008 45.4632 407.409 44.6309 412.003Z" fill="#101110"/>
<path d="M62.6812 378.769C61.5465 377.546 60.7831 376.428 60.4223 374.559C60.4379 366.577 55.7469 360.783 49.2092 360.978C46.9823 361.322 44.9336 361.809 42.5242 360.733C44.1919 358.58 46.8725 358.807 47.7387 355.913C47.9809 353.79 48.9582 354.326 49.7204 354.547C43.7726 351.44 39.8213 346.239 38.7012 338.035C39.3921 335.818 39.0208 333.917 38.8306 331.666C38.8096 330.821 38.9172 330.357 39.2425 329.598C43.3387 323.383 45.8934 323.005 50.9353 327.795C52.3642 329.153 53.8902 327.426 55.8994 329.413C60.9388 334.397 63.0729 341.722 67.7448 346.789C69.8032 349.022 69.7758 352.155 69.1006 355.045C68.4012 358.038 68.8745 360.685 69.4563 363.617C70.5741 369.251 72.0785 375.089 68.7961 380.89C66.2482 382.051 64.9309 378.9 62.6812 378.769Z" fill="#101110"/>
<path d="M-13.4 743.464C-11.9593 753.296 -7.8072 761.32 -4.25434 769.524C5.6815 792.467 16.9428 814.471 30.9848 834.355C31.3309 834.845 31.5211 835.487 31.893 836.366C32.0521 837.189 32.0589 837.705 31.8491 838.549C29.871 840.816 28.9276 838.662 27.9024 837.635C23.8767 833.603 20.388 828.925 17.2665 823.954C5.06687 804.525 -6.21335 784.432 -13.9673 761.896C-14.7009 759.764 -15.7567 757.857 -17.0724 755.64C-16.0168 752.569 -16.5838 750.436 -17.8776 747.794C-21.7654 739.857 -23.0666 730.834 -24.945 722.053C-25.9933 717.152 -27.1063 712.252 -28.4251 707.43C-29.3011 704.227 -32.4018 702.392 -32.3934 698.158C-33.0325 688.329 -33.7131 678.963 -33.564 669.544C-33.5239 667.013 -32.1714 664.696 -32.9424 661.654C-34.0315 658.073 -33.2428 654.861 -33.4326 651.251C-33.6103 649.313 -34.1537 647.941 -34.4948 646.049C-34.5642 645.303 -34.5688 645 -34.4966 644.247C-33.5391 640.358 -33.0717 636.712 -30.4343 633.867C-27.4025 634.813 -28.1806 637.679 -28.4326 639.419C-29.8905 649.485 -27.8531 659.336 -27.1182 669.198C-26.557 676.73 -25.966 684.351 -24.63 691.841C-22.3768 704.473 -20.1372 717.092 -16.9236 729.453C-15.7554 733.946 -14.9132 738.557 -13.4 743.464Z" fill="#382B20"/>
<path d="M68.6547 409.191C66.5473 412.576 65.0541 415.977 63.713 419.865C63.2538 421.38 63.2893 422.995 61.4039 423.043C61.1738 423.24 61.1525 423.707 61.1419 423.94C58.2595 426.715 55.3877 429.256 52.2488 431.917C49.6868 427.991 46.667 425.716 42.3352 426.071C40.2188 426.245 38.0011 426.385 35.4355 424.928C40.4535 423.979 44.8774 423.143 49.6194 422.294C50.2696 422.154 50.5676 421.954 51.0193 421.475C51.2026 421.258 51.1766 421.307 51.1588 421.287C57.3281 419.115 60.7556 413.352 64.3187 407.641C65.2939 406.078 65.7212 402.002 69.1414 405.16C69.1897 406.593 68.9616 407.723 68.6547 409.191Z" fill="#1E1C19"/>
<path d="M69.4774 405.083C66.5435 406.079 65.0733 408.646 63.4821 411.165C60.4781 415.921 57.2542 420.419 51.4621 421.265C51.1401 421.267 51.2423 420.822 51.2913 420.598C61.4466 415.212 68.9311 398.321 66.9123 385.468C66.3654 381.987 64.4679 381.039 61.5299 380.977C60.8279 380.608 60.4617 380.232 60.0956 379.856C60.7689 379.465 61.4423 379.074 62.3549 378.554C64.8835 377.8 66.6733 378.816 68.3815 380.956C71.3786 388.853 70.9955 396.748 69.4774 405.083Z" fill="#473224"/>
<path d="M30.9152 837.798C31.3266 837.339 31.5139 837.141 31.8549 836.812C38.965 842.232 44.3315 849.904 50.7114 856.236C51.8625 857.378 52.9432 858.618 54.2764 860.009C57.7818 865.008 63.1768 866.85 67.4256 872.431C59.3258 872.192 55.7953 865.327 50.564 861.338C49.2125 861.569 48.2489 861.321 47.2991 860.427C41.177 854.668 35.6931 848.166 30.8192 840.951C30.2179 840.061 29.5977 839.088 30.9152 837.798Z" fill="#171714"/>
<path d="M39.7814 337.397C41.3362 347.846 48.8037 351.654 55.5957 357.359C52.3526 358.484 50.5271 356.255 48.1431 355.708C38.8051 349.285 35.531 339.56 39.2483 329.443C39.4114 329.676 39.426 330.068 39.4605 330.755C40.37 332.955 39.7674 335.012 39.7814 337.397Z" fill="#2C241C"/>
<path d="M61.1494 382.461C62.4756 382.933 63.788 383.951 63.8153 386.022C63.9429 395.696 62.6678 404.852 56.5854 412.15C56.0089 412.842 55.3825 413.496 54.708 414.046C54.4172 414.284 53.9448 414.214 53.1484 414.356C53.2613 410.77 55.9266 409.057 56.9077 406.021C61.8388 398.992 61.1396 390.869 61.1494 382.461Z" fill="#1E1C19"/>
<path d="M44.7292 412.148C41.6671 409.128 41.3043 403.548 37.0819 401.677C36.5147 401.425 36.3186 400.696 36.726 400.073C37.2906 399.211 38.1443 399.193 38.9895 399.249C42.5867 399.485 46.0582 404.022 46.973 410.044C46.3037 410.945 45.6198 411.472 44.7292 412.148Z" fill="#2C241C"/>
<path d="M49.2852 361.317C49.3671 359.586 50.3785 359.521 51.5869 359.731C57.3769 360.736 61.1556 366.528 60.4638 373.881C58.8352 367.511 55.6254 362.791 49.2852 361.317Z" fill="#2C241C"/>
<path d="M51.7163 432.158C51.9903 432.447 51.9942 432.852 51.9966 433.559C47.8715 437.16 43.8649 440.727 38.5918 441.489C42.8766 438.418 47.1614 435.346 51.7163 432.158Z" fill="#1E1C19"/>
<path d="M51.8828 322.775C51.9822 322.724 52.0653 322.725 52.1484 322.727C52.0545 322.761 51.9605 322.794 51.8828 322.775Z" fill="#101110"/>
<path d="M30.6878 440.605C30.4759 440.399 30.1494 439.902 29.6797 439.139C29.8821 439.353 30.2276 439.833 30.6878 440.605Z" fill="#553D2A"/>
<path d="M50.9813 421.412C50.9227 421.489 50.6432 421.717 50.1504 422.115C50.2116 422.044 50.486 421.804 50.9813 421.412Z" fill="#473224"/>
<path d="M30.9402 837.347C36.6039 846.178 43.7931 852.853 50.1734 860.886C47.0958 865.937 44.4288 861.374 41.6887 860.199C40.3881 859.642 39.497 857.799 38.3864 856.582C36.9895 855.051 35.34 854.416 34.1031 856.502C31.5722 860.769 29.7381 858.355 28.0558 855.753C26.0372 852.63 23.8412 850.116 19.8608 850.416C17.4269 850.741 15.2213 852.261 13.1274 849.514C12.6845 849.176 12.5057 848.961 12.1908 848.586C11.9119 848.254 11.7681 848.083 11.4003 847.662C10.9909 847.304 10.8054 847.197 10.341 846.918C9.94828 846.535 9.83455 846.324 9.71319 845.744C10.0085 841.754 8.27085 839.745 5.42813 838.236C-1.02703 829.234 -5.85346 819.274 -10.8378 809.551C-17.8362 795.898 -22.8186 781.023 -24.7679 765.093C-25.446 759.551 -24.5956 753.965 -20.3679 749.532C-18.5366 748.275 -17.6293 748.388 -16.6181 750.538C-15.9722 751.912 -15.5643 753.69 -14.098 755.061C-4.9776 781.88 7.72456 805.675 22.9403 827.677C25.2889 831.073 28.1241 834.003 30.9402 837.347Z" fill="#121413"/>
<path d="M12.2156 847.225C12.0504 847.478 12.0545 847.952 12.0552 848.189C10.3007 850.36 11.5345 851.906 12.5085 853.523C19.2836 864.771 27.6592 874.248 36.4987 883.16C41.62 888.323 46.2688 894.312 52.8008 897.259C53.5731 897.607 54.4716 898.267 54.2185 899.382C53.857 900.974 52.6812 900.379 51.7648 900.187C44.9168 898.753 39.779 893.618 34.5124 888.889C29.477 884.367 24.1209 880.796 17.8421 879.427C14.6008 878.72 11.9962 876.534 9.2618 874.623C7.60299 873.464 7.17015 871.649 7.41083 869.57C7.91471 865.216 6.05631 862.622 2.75525 861.545C-1.81273 860.055 -4.25513 856.23 -6.40793 851.643C-10.1991 843.564 -14.447 835.794 -19.3472 828.574C-20.9856 826.16 -21.2904 823.203 -22.4205 820.612C-26.5746 811.087 -31.1655 801.785 -34.7813 791.986C-40.1526 777.428 -43.1686 761.994 -45.3516 745.949C-44.4555 746.434 -43.4857 747.302 -42.2995 748.344C-41.063 752.55 -40.0896 756.6 -39.0065 760.609C-38.257 763.383 -37.5171 766.222 -34.8648 767.934C-32.1181 767.21 -31.8333 769.162 -31.7424 771.258C-31.6151 774.196 -31.3609 777.096 -30.6987 779.953C-29.9086 783.361 -28.9766 786.533 -25.6044 787.551C-24.2444 787.962 -23.886 789.387 -23.362 790.774C-18.2548 804.294 -13.715 818.202 -5.01044 829.348C-3.8236 830.868 -3.54356 832.792 -2.90715 834.577C-1.27798 839.146 1.00398 842.874 6.1289 842.79C7.07467 842.712 7.71257 842.799 8.67361 842.717C10.2553 842.804 10.6686 844.248 11.8005 845.216C12.0407 845.5 12.0438 845.984 12.0444 846.227C12.1569 846.636 12.2688 846.804 12.2156 847.225Z" fill="#0A0C0C"/>
<path d="M13.0117 849.66C14.9248 849.688 16.9864 849.981 19.2868 850.341C18.3322 851.316 17.1253 852.207 16.3248 854.046C15.187 852.857 14.1736 851.391 13.0117 849.66Z" fill="#0A0C0C"/>
<path d="M2.13624 539.496C-4.17165 548.515 -11.6731 555.369 -20.1777 561.291C-18.6577 557.226 -15.7229 554.29 -12.7389 551.382C-3.74983 542.62 3.1869 532.132 6.88449 518.546C12.1133 503.363 11.6246 487.839 10.9108 472.323C10.5963 465.487 10.3246 458.579 9.26202 451.873C6.76628 436.122 6.02086 420.192 5.4626 404.277C4.53418 377.808 6.34268 351.443 8.77628 325.141C8.8807 324.012 9.14605 322.904 9.45192 321.373C9.58908 321.484 9.61078 322.008 9.64808 322.922C9.98589 323.691 10.1041 324.145 9.82544 324.972C7.78854 346.051 7.07742 366.916 6.48013 387.777C5.99804 404.614 7.63225 421.282 9.82438 437.938C12.132 455.472 14.8052 473.03 13.9358 491.335C14.1827 508.966 9.47918 524.504 2.13624 539.496Z" fill="#060808"/>
<path d="M9.72712 325.149C9.62969 324.835 9.62825 324.399 9.64447 323.637C10.0921 323.834 10.2451 324.393 9.72712 325.149Z" fill="#241F19"/>
<path d="M21.0873 501.91C21.0145 502.72 20.8171 503.841 20.4922 505.274C20.564 504.464 20.7633 503.343 21.0873 501.91Z" fill="#0A0A09"/>
<path d="M20.2587 505.814C20.1831 506.409 19.9801 507.321 19.6523 508.569C19.7288 507.981 19.9301 507.056 20.2587 505.814Z" fill="#0A0A09"/>
<path d="M28.6895 474.834C28.7404 474.363 28.7101 474.331 28.6895 474.834V474.834Z" fill="#2C241C"/>
<path d="M125.898 895.212C129.411 899.889 134.595 900.976 138.11 905.048C139.389 906.53 141.114 905.704 142.014 903.957C143.939 900.223 146.444 900.794 149.212 902.245C151.109 903.239 153.042 904.145 154.984 905.013C155.747 905.353 156.709 905.757 157.284 904.783C157.901 903.737 157.098 902.941 156.518 902.286C153.325 898.68 150.446 894.654 146.369 891.728C143.86 889.575 140.81 888.569 140.091 884.335C140.665 882.559 141.967 883.013 143.074 882.09C143.664 881.837 143.913 881.789 144.523 881.883C150.301 888.478 156.43 894.092 161.368 901.099C162.345 902.486 164.487 903.755 162.92 906.777C163.095 910.002 164.139 912.443 165.544 914.719C166.026 915.5 166.553 916.438 165.977 917.403C165.392 918.383 164.47 918.086 163.702 917.749C161.129 916.622 158.088 916.48 156.124 914.032C153.545 910.818 150.914 911.426 148.29 913.375C144.517 916.176 140.949 917.01 137.285 913.203C136.72 912.615 135.564 911.984 135.058 912.276C128.959 915.798 124.8 910.488 120.238 907.668C117.408 905.918 114.707 903.982 111.543 903.259C104.902 901.741 100.085 896.573 95.8176 891.166C90.8649 884.891 85.0751 880.016 79.4441 874.809C78.6882 874.111 78.0436 873.245 77.1719 872.204C80.2269 868.317 82.9537 869.667 85.4123 873.177C92.8165 883.751 103.057 886.775 113.951 887.749C116.116 887.943 117.194 889.036 118.213 890.851C119.599 893.322 120.989 895.809 124.229 895.509C124.779 895.031 125.17 894.864 125.898 895.212Z" fill="#0E0F0F"/>
<path d="M162.994 907.36C159.976 900.701 155.46 895.967 150.933 891.275C148.769 889.033 146.574 886.854 144.656 883.872C144.687 881.059 145.921 881.561 147.575 882.492C153.162 888.595 158.38 894.511 163.361 901.151C165.421 904.099 167.263 906.85 169.263 909.87C168.749 911.656 167.82 911.709 166.416 910.472C165.143 909.278 164.176 908.407 162.994 907.36Z" fill="#1E1C19"/>
<path d="M125.751 264.955C125.782 264.979 125.664 265.143 125.664 265.143C125.664 265.143 125.72 264.931 125.751 264.955Z" fill="#0A0A09"/>
<path d="M125.719 321.345C125.711 321.333 125.728 321.358 125.719 321.345V321.345Z" fill="#141513"/>
<path d="M117.384 396.797C117.395 396.811 117.373 396.783 117.384 396.797V396.797Z" fill="#141513"/>
<path d="M124.499 269.374C124.434 269.387 124.56 269.117 124.56 269.117C124.56 269.117 124.563 269.361 124.499 269.374Z" fill="#0A0A09"/>
<path d="M117.398 454.582C117.386 454.568 117.409 454.597 117.398 454.582V454.582Z" fill="#101110"/>
<path d="M126.553 333.581C126.566 333.578 126.539 333.584 126.553 333.581V333.581Z" fill="#141513"/>
<path d="M124.48 269.44C124.495 269.458 124.412 269.425 124.423 269.406C124.434 269.387 124.464 269.423 124.48 269.44Z" fill="#0A0A09"/>
<path d="M59.7051 260.382C60.5508 253.931 64.6346 249.229 67.4185 243.696C70.0886 238.39 73.1214 233.354 76.7994 228.488C76.6406 231.824 74.8498 234.55 73.2281 237.353C68.8167 244.981 64.367 252.577 59.7051 260.382Z" fill="#0C0E0D"/>
<path d="M59.5181 260.624C57.1801 267.812 53.9164 274.362 49.7155 280.242C48.9733 281.281 47.8925 283.036 46.7043 281.826C45.4834 280.583 46.8792 279.129 47.6359 278.123C51.7414 272.667 54.5015 265.99 59.2335 260.735C59.4776 260.579 59.505 260.609 59.5181 260.624Z" fill="#0C0E0D"/>
<path d="M77.8284 239.782C77.144 240.903 76.4544 241.775 75.5508 242.809C75.61 241.46 76.156 240.159 77.5799 239.195C77.8154 239.2 77.8193 239.366 77.8284 239.782Z" fill="#0C0E0D"/>
<path d="M76.9766 228.238C77.168 227.737 77.3793 227.256 77.7135 226.549C77.6439 226.82 77.4512 227.318 77.1478 228.056C77.0371 228.296 76.9964 228.258 76.9766 228.238Z" fill="#0C0E0D"/>
<path d="M77.8326 224.645C78.0672 224.803 78.2999 225.295 78.6226 226.048C78.5669 226.313 78.4211 226.316 78.0567 226.322C77.8381 226.324 77.8316 226.316 77.8285 226.313C77.8273 225.865 77.829 225.422 77.8326 224.645Z" fill="#0C0E0D"/>
<path d="M90.7475 200.362C90.7523 200.383 90.7427 200.34 90.7475 200.362V200.362Z" fill="#0A0A09"/>
<path d="M11.0732 582.048C11.2721 581.4 11.2994 581.047 11.3456 580.433C12.123 577.964 12.8814 575.756 13.6398 573.549C11.8863 601.299 8.68251 628.915 11.9546 657.171C11.0021 659.965 11.9094 662.311 12.1627 664.575C14.0156 681.134 15.9903 697.677 20.9651 713.465C21.4353 714.957 21.5606 716.547 21.4611 718.506C19.1693 720.362 17.6634 719.458 16.9016 716.951C15.1742 711.267 12.2201 706.223 10.744 700.425C10.2333 698.419 8.36141 697.563 7.90784 695.074C4.54925 674.608 3.91206 654.379 4.74666 634.09C5.36096 619.157 6.03413 604.187 9.3552 589.632C9.56402 588.717 9.0441 588.143 8.9557 586.988C9.10405 586.136 9.48805 585.683 10.0227 585.069C11.0546 584.303 10.6606 583.198 11.0732 582.048Z" fill="#2C241C"/>
<path d="M19.9734 718.368C20.471 714.84 19.8916 711.659 18.8843 708.624C14.0236 693.98 12.9446 678.485 11.427 663.093C11.2726 661.527 11.6199 659.893 11.8438 657.949C12.6121 663.145 13.271 668.682 13.9962 674.566C17.0527 696.772 20.9423 718.216 32.0223 736.888C43.2248 755.766 54.8025 774.291 67.2867 792.03C70.6383 796.792 74.3912 801.215 77.0034 807.073C75.6399 810.212 74.1616 809.854 72.5632 807.501C69.0592 802.341 64.3093 798.336 62.313 791.745C62.0342 790.825 60.864 789.766 59.5504 788.982C53.9677 781.683 49.2576 774.021 44.3783 766.533C39.1385 758.491 33.3238 750.868 29.5827 741.61C28.9818 740.124 28.3448 740.237 27.5225 740.579C26.5623 740.978 25.7014 741.393 24.6653 740.045C22.6334 735.075 20.9552 730.352 19.3253 725.617C18.5615 723.398 17.4364 720.777 19.9734 718.368Z" fill="#473224"/>
<path d="M24.5441 649.195C24.6474 649.438 24.6677 649.674 24.6881 649.909C24.5779 649.901 24.4676 649.893 24.3574 649.885C24.392 649.653 24.4267 649.421 24.5441 649.195Z" fill="#0C0E0D"/>
<path d="M25.2841 667.799C25.2776 667.667 25.3069 667.574 25.3362 667.48C25.3993 667.545 25.4624 667.609 25.5255 667.673C25.457 667.728 25.3885 667.782 25.2841 667.799Z" fill="#0C0E0D"/>
<path d="M25.4402 540.199C25.4469 540.333 25.4172 540.427 25.3874 540.522C25.3234 540.457 25.2593 540.391 25.1953 540.326C25.2648 540.271 25.3343 540.216 25.4402 540.199Z" fill="#0A0C0C"/>
<path d="M25.777 544.251C25.7647 544.253 25.7893 544.248 25.777 544.251V544.251Z" fill="#0A0C0C"/>
<path d="M64.9342 465.862C64.9362 465.878 64.9322 465.846 64.9342 465.862V465.862Z" fill="#0C0E0D"/>
<path d="M20.0964 717.897C20.6203 725.085 24.0709 730.713 26.1091 737.296C30.4902 742.047 32.9564 747.769 34.6872 754.432C32.888 762.475 37.4291 767.66 40.0606 773.905C40.2925 774.344 40.3918 774.51 40.6247 774.926C40.8654 775.318 40.9725 775.461 41.3914 776.011C41.8134 776.539 41.9234 776.659 42.3422 777.144C42.7529 777.629 42.8549 777.747 43.1009 778.049C43.3479 778.347 43.451 778.46 43.7008 778.75C43.9366 779.053 44.0255 779.18 44.2592 779.484C44.6047 779.888 44.8148 780.101 45.2134 780.424C45.6173 780.734 45.8316 780.936 46.1661 781.338C46.2967 781.523 46.5257 781.917 46.6421 782.111C46.7585 782.305 47.0401 782.64 47.3144 782.976C47.5888 783.313 47.8923 783.605 48.039 783.756C48.1856 783.908 48.5108 784.161 48.6348 784.338C48.7587 784.515 49.1385 784.7 49.2387 784.933C49.4903 785.226 49.6419 785.286 49.8731 785.637C57.4925 793.391 63.0492 802.848 68.8756 812.028C72.8708 818.323 77.8777 823.216 83.5131 827.358C85.6952 828.962 87.7342 830.798 89.511 833.172C91.2588 835.507 93.809 836.971 96.5015 838.654C97.0781 841.513 98.3009 843.178 100.324 844.565C106.665 848.911 113.241 852.828 119.372 858.341C122.342 860.174 122.778 863.866 124.896 866.201C129.807 871.615 135.369 876.15 139.989 881.933C140.478 882.545 140.859 883.173 141.07 884.333C142.641 886.821 144.221 888.929 145.968 891.294C140.92 888.761 135.047 888.044 131.183 881.495C129.092 877.952 124.219 876.751 121.136 873.488C120.461 872.773 119.518 872.962 118.868 873.727C117.266 875.612 115.322 875.137 113.098 874.932C109.642 874.969 108.801 871.804 107.162 869.177C106.846 868.648 106.698 868.465 106.427 868.155C100.56 860.792 93.5054 855.525 86.407 849.692C86.1736 849.41 86.1644 849.411 86.1636 849.407C79.1942 844.946 73.633 838.396 67.754 832.314C58.7199 822.968 50.1713 813.032 42.3326 802.312C39.8472 798.913 37.2289 795.6 34.7364 791.716C33.2363 790.091 31.9616 788.721 30.5813 786.958C30.3657 786.696 30.3618 786.723 30.3721 786.716C30.0054 786.34 29.823 785.866 30.0991 785.024C29.2682 780.757 28.1498 776.794 25.8652 773.413C23.9248 770.542 24.5064 766.915 24.1034 763.597C23.8624 761.614 24.2455 759.488 23.2781 757.621C21.318 758.675 22.936 762.824 20.4044 762.252C18.1316 761.738 18.4475 758.755 18.4835 756.481C18.5048 755.138 18.2203 753.918 17.2631 752.643C14.2767 747.603 14.0335 741.856 13.16 736.464C10.9914 723.079 9.19148 709.603 8.45898 695.773C12.5925 698.993 14.178 704.228 16.4108 708.922C17.7423 711.722 18.755 714.731 20.0964 717.897Z" fill="#1B1A17"/>
<path d="M8.73371 695.135C10.9175 714.358 12.8208 733.23 16.9923 752.03C16.8434 752.974 16.6102 753.555 16.2491 754.257C11.5521 735.832 9.85152 716.682 7.23884 697.702C2.79337 665.407 2.44291 633.158 6.24727 600.81C6.77746 596.302 7.82363 591.878 8.67632 587C10.787 588.719 9.96515 591.311 9.58009 593.855C5.61331 620.067 4.42854 646.457 6.2406 672.992C6.73771 680.271 7.85087 687.492 8.73371 695.135Z" fill="#0A0A09"/>
<path d="M34.2488 790.465C38.3362 793.999 41.2495 798.367 44.3137 802.571C56.0728 818.704 69.5891 832.652 83.4855 846.128C84.3346 846.951 85.0612 847.95 86.0049 849.133C82.2427 848.389 78.9555 845.825 76.0517 842.834C60.916 827.243 45.8852 811.508 33.8189 791.928C33.3869 791.116 33.4748 790.678 34.2488 790.465Z" fill="#0A0C0C"/>
<path d="M4.47877 730.271C1.96988 713.988 0.167241 698.047 0.150391 681.861C1.19995 703.01 5.55746 723.637 7.03584 745.131C7.47034 748.657 7.86703 751.773 8.26372 754.889C4.98415 747.202 5.5366 738.798 4.47877 730.271Z" fill="#0A0A09"/>
<path d="M86.2988 849.701C93.852 853.8 101.096 858.853 106.176 867.72C99.4317 862.395 92.6568 856.608 86.2988 849.701Z" fill="#0A0C0C"/>
<path d="M14.6484 767.426C17.3395 768.577 19.553 771.008 21.8644 773.258C22.5759 773.95 23.4863 775.099 22.7488 776.137C21.8688 777.375 20.9981 776.059 20.3769 775.343C18.3331 772.99 16.0267 770.889 14.6484 767.426Z" fill="#0A0A09"/>
<path d="M107.051 869.191C108.781 870.729 110.57 872.62 112.575 874.709C108.692 876.352 108.297 872.367 107.051 869.191Z" fill="#0A0C0C"/>
<path d="M34.4033 790.335C34.3669 790.825 34.1653 791.061 33.8132 791.477C32.3562 790.471 31.1945 789.145 30.4668 786.994C31.9789 787.315 33.2081 788.541 34.4033 790.335Z" fill="#0A0A09"/>
<path d="M119.923 886.414C119.139 886.669 118.783 886.255 118.748 885.512C118.739 885.327 119.108 884.927 119.26 884.954C119.884 885.065 120.199 885.524 119.923 886.414Z" fill="#0C0E0D"/>
<path d="M30.187 784.643C30.3697 785.193 30.3746 785.626 30.3818 786.385C29.472 786.118 27.9501 785.941 28.257 784.306C28.4215 783.429 29.4133 784.241 30.187 784.643Z" fill="#0A0A09"/>
<path d="M126.049 895.338C125.78 895.461 125.406 895.462 124.752 895.464C124.904 894.902 125.375 894.655 126.049 895.338Z" fill="#0C0E0D"/>
<path d="M14.5268 767.132C14.5183 767.142 14.5269 767.076 14.5399 767.09C14.5528 767.103 14.5353 767.122 14.5268 767.132Z" fill="#0A0A09"/>
<path d="M11.623 762.704C11.6365 762.7 11.6095 762.708 11.623 762.704V762.704Z" fill="#0A0A09"/>
<path d="M85.8652 394.833C86.0482 394.697 86.2298 394.661 86.4113 394.625C86.4103 394.762 86.4092 394.899 86.4082 395.037C86.2267 395.002 86.0452 394.967 85.8652 394.833Z" fill="#0A0C0C"/>
<path d="M99.0665 327.224C99.0803 327.219 99.0527 327.229 99.0665 327.224V327.224Z" fill="#0A0C0C"/>
<path d="M120.024 311.825C119.939 311.946 119.858 311.957 119.777 311.968C119.861 311.884 119.944 311.8 120.024 311.825Z" fill="#553D2A"/>
<path d="M97.3966 331.65C97.3827 331.654 97.4105 331.645 97.3966 331.65V331.65Z" fill="#0A0C0C"/>
<path d="M0.385204 674.018C0.370155 674.016 0.400251 674.021 0.385204 674.018V674.018Z" fill="#0A0A09"/>
<path d="M11.1274 582.062C11.0028 582.615 10.7602 583.48 10.3457 584.625C10.4523 584.061 10.7309 583.218 11.1274 582.062Z" fill="#121413"/>
<path d="M61.3516 423.378C61.8475 422.341 62.5229 421.441 63.4138 420.369C63.9226 422.173 64.8671 424.718 61.3516 423.378Z" fill="#0A0C0C"/>
<path d="M39.7365 337.484C39.5855 335.84 39.525 333.877 39.4727 331.482C40.2043 333.041 40.4408 335.071 39.7365 337.484Z" fill="#0A0C0C"/>
<path d="M6.48051 844.177C0.956543 845.533 -1.50777 844.748 -3.74899 838.517C-5.74046 832.979 -8.80484 828.487 -11.6488 823.795C-17.4124 814.288 -20.4173 803.113 -25.5749 793.27C-25.9303 792.592 -25.9823 791.315 -26.421 791.133C-34.1898 787.895 -32.6002 779.515 -33.8317 772.699C-34.0617 771.426 -34.2262 770.137 -34.5192 768.472C-39.1214 747.25 -40.7002 726.053 -40.4706 704.594C-40.318 690.329 -35.7945 677.174 -33.3484 663.494C-33.2234 662.795 -32.52 662.239 -31.8668 661.439C-32.1147 673.076 -30.686 684.792 -30.3244 697.002C-27.9145 702.09 -28.2575 707.591 -26.9393 712.576C-25.2393 719.005 -24.424 725.702 -22.6358 732.567C-21.8684 738.423 -21.4246 743.819 -21.6526 749.324C-21.7533 751.755 -23.0306 753.348 -23.6858 755.345C-25.9803 762.339 -24.4275 769.042 -22.9633 775.774C-18.9121 794.4 -10.4917 810.498 -1.77926 826.44C0.497295 830.605 2.88554 834.667 5.28912 838.726C6.15415 840.187 7.60007 841.613 6.48051 844.177Z" fill="#0E0F0F"/>
<path d="M-25.5307 731.992C-23.3303 737.706 -22.4066 744.111 -19.6733 750.112C-23.6974 755.988 -24.227 762.394 -22.604 769.251C-18.9855 784.54 -14.7915 799.513 -7.07192 812.822C-2.62291 820.493 0.722431 829.022 6.02382 836.439C7.54214 838.889 9.54436 840.703 8.96727 844.194C8.08368 844.52 7.45995 844.52 6.52454 844.521C2.88669 836.424 -1.8238 829.337 -5.9858 821.871C-15.0196 805.665 -22.7298 788.861 -25.782 769.562C-26.5352 764.8 -26.489 760.049 -24.7482 755.643C-22.4476 749.82 -23.0232 744.292 -25.0895 738.646C-25.822 736.644 -27.0774 734.55 -25.5307 731.992Z" fill="#0A0A09"/>
<path d="M8.98578 844.601C7.91157 842.142 7.11495 839.764 6.26172 837.037C9.35803 838.19 10.6067 841.518 11.9481 845.173C11.1144 845.228 10.1889 844.955 8.98578 844.601Z" fill="#0C0E0D"/>
<path d="M12.0608 847.354C12.0481 847.312 12.0471 847.143 12.0449 846.723C12.0762 846.722 12.0858 846.974 12.0608 847.354Z" fill="#0C0E0D"/>
<path d="M60.0392 787.434C64.428 792.732 68.4254 798.018 72.4418 803.283C73.6296 804.84 74.818 806.417 76.8224 807.308C79.5617 810.79 80.4235 815.96 85.1429 817.043C95.5975 819.339 104.711 824.416 112.683 832.319C113.84 833.466 115.06 834.521 116.747 835.436C117.004 835.697 116.963 835.721 116.967 835.695C117.891 836.867 118.805 838.074 120.052 839.345C124.904 840.994 127.827 845.286 131.059 848.924C138.414 857.203 145.815 865.4 154.189 872.802C157.6 872.711 158.736 875.453 160.083 878.502C160.251 878.872 160.262 879.331 160.269 879.56C160.643 881 160.377 881.8 158.92 881.889C157.093 880.222 155.575 878.694 153.84 876.971C146.855 874.488 142.226 868.63 137.443 863.112C136.953 862.546 136.436 861.847 135.618 861.013C132.964 858.264 130.311 857.208 127.094 858.247C125.086 858.895 123.368 857.177 122.142 855.968C114.009 847.945 104.015 843.818 94.9931 837.685C91.1348 835.063 88.6019 830.529 84.7476 828.311C72.8482 821.464 66.6079 808.528 59.2999 796.288C60.2414 794.23 59.1022 792.885 58.5776 791.731C57.6233 789.632 57.3561 788.199 60.0392 787.434Z" fill="#1E1C19"/>
<path d="M117.238 859.404C112.685 854.119 107.052 851.528 102.215 847.528C99.5307 845.308 96.2875 843.902 94.5605 839.856C95.0453 837.769 95.9794 838.265 97.0721 838.923C107.573 845.248 117.949 851.821 127.87 860.159C129.063 861.2 129.718 862.576 131.335 862.497C133.22 866.741 136.476 868.543 139.498 871.164C139.554 871.765 139.503 872.01 139.357 872.617C142.029 876.049 144.795 879.119 147.739 882.449C146.966 882.944 146.014 883.18 144.785 883.503C144.508 883.59 144.191 883.458 144.028 883.412C139.749 883.375 137.934 879.201 135.231 876.698C129.245 871.155 123.93 864.637 117.238 859.404Z" fill="#382B20"/>
<path d="M139.588 873.016C139.084 872.863 138.917 872.725 138.656 872.435C137.051 868.057 133.624 866.522 130.258 864.333C129.296 863.738 128.648 863.267 127.837 862.606C127.492 861.115 126.117 859.765 127.648 858.527C129.083 857.368 130.824 857.611 132.219 858.255C133.564 858.874 134.726 860.076 136.61 860.215C142.405 865.552 148.198 870.413 153.449 876.529C153.437 878.302 154.018 880.412 152.505 881.077C150.813 881.821 150.337 879.738 149.558 878.122C149.453 877.834 149.686 877.56 149.57 877.697C145.959 877.108 143.514 873.486 139.588 873.016Z" fill="#101110"/>
<path d="M116.912 835.386C112.817 835.344 110.389 831.163 106.91 829.272C102.571 826.913 99.4855 821.922 93.6475 822.4C91.5011 822.575 88.6257 818.872 85.6348 817.152C85.3711 817.006 85.2884 816.603 85.3998 816.229C88.9208 817.688 92.4396 818.792 96.5999 818.104C103.726 823.553 111.091 827.986 116.912 835.386Z" fill="#473224"/>
<path d="M158.777 882.012C159.062 881.235 159.514 880.721 160.121 879.998C163.803 884.106 167.32 888.435 170.861 892.734C172.311 894.494 173.636 896.333 174.346 899.061C168.272 894.936 163.746 888.431 158.777 882.012Z" fill="#121413"/>
<path d="M160.32 878.556C157.911 877.799 156.292 875.708 154.59 873.24C158.143 870.77 160.232 872.611 160.32 878.556Z" fill="#0C0E0D"/>
<path d="M120.153 839.282C118.892 838.895 117.747 837.946 117.074 835.965C118.384 836.284 119.472 837.314 120.153 839.282Z" fill="#473224"/>
<path d="M174.516 899.586C174.872 899.745 175.305 900.102 175.739 900.459C175.599 900.605 175.46 900.751 175.32 900.898C175.078 900.526 174.836 900.155 174.516 899.586Z" fill="#121413"/>
<path d="M160.71 845.993C160.712 846.01 160.707 845.976 160.71 845.993V845.993Z" fill="#101110"/>
<path d="M182.351 875.368C182.364 875.365 182.339 875.371 182.351 875.368V875.368Z" fill="#101110"/>
<path d="M117.121 859.367C127.077 865.074 135.226 874.072 143.678 883.129C143.125 883.747 142.384 884.13 141.353 884.611C137.048 882.626 134.581 878.323 131.345 875.133C126.428 870.287 121.936 864.846 117.121 859.367Z" fill="#101110"/>
<path d="M124.071 798.949C124.055 798.936 124.086 798.963 124.071 798.949V798.949Z" fill="#0C0E0D"/>
<path d="M107.811 448.713C107.941 449.144 108.072 449.574 108.203 450.005C108.08 449.693 107.957 449.38 107.823 448.889C107.813 448.71 107.811 448.713 107.811 448.713Z" fill="#1B1A17"/>
<path d="M123.364 225.801C123.268 225.856 123.191 225.843 123.113 225.83C123.203 225.797 123.293 225.765 123.364 225.801Z" fill="#0A0A09"/>
<path d="M85.2945 816.113C85.2218 816.198 85.1348 815.89 85.1348 815.89C85.1348 815.89 85.3799 815.766 85.446 815.811C85.5121 815.856 85.3671 816.027 85.2945 816.113Z" fill="#473224"/>
<path d="M87.0244 546.661C87.0494 546.628 86.9892 546.773 86.9663 546.764C86.9434 546.755 86.9993 546.695 87.0244 546.661Z" fill="#121413"/>
<path d="M60.2948 787.175C59.3662 790.285 61.4513 793.069 60.4271 796.207C59.2915 797.41 58.8534 796.606 58.176 795.703C53.1405 788.989 46.9377 783.628 41.9175 776.959C37.1915 770.68 33.1945 763.628 31.8026 754.783C31.9831 748.158 28.2399 743.672 26.3223 737.941C28.9858 738.263 30.6197 740.358 32.2835 743.006C40.0308 755.336 48.0491 767.43 55.93 779.645C57.4353 781.978 58.7584 784.474 60.2948 787.175Z" fill="#241F19"/>
<path d="M82.7288 535.653C82.6413 535.602 82.4365 535.287 82.1035 534.713C82.1874 534.765 82.3994 535.077 82.7288 535.653Z" fill="#121413"/>
<path d="M31.7987 754.633C35.3025 766.206 41.1854 775.877 49.4489 783.559C53.3906 787.223 56.2937 792.073 60.1178 796.318C66.3381 804.788 69.9236 815.789 78.1269 821.435C87.0814 827.598 94.2654 836.986 104.131 841.241C110.731 844.088 116.475 848.321 121.891 853.408C123.684 855.092 125.809 856.089 128.114 855.408C131.947 854.274 134.545 856.18 136.788 859.95C135.841 862.284 134.421 862.967 132.505 861.641C130.988 860.591 129.476 860.239 127.873 862.169C117.386 853.662 106.141 846.814 94.73 839.633C82.4966 829.1 70.2907 819.044 62.0852 803.829C58.6854 797.525 54.1973 792.156 49.2813 786.929C48.756 786.608 48.4618 786.411 48.0172 785.936C47.8379 785.721 47.8348 785.765 47.8518 785.755C47.6717 785.529 47.4791 785.307 47.1518 784.908C47.0126 784.736 46.998 784.778 47.0164 784.771C46.8378 784.547 46.645 784.326 46.3155 783.928C46.1748 783.757 46.1637 783.797 46.1817 783.796C45.971 783.542 45.7603 783.27 45.447 782.741C45.2092 782.335 45.0809 782.179 44.8335 781.933C44.1209 781.446 43.4663 781.132 43.0023 780.076C42.8451 779.833 42.8379 779.873 42.8553 779.873C42.6763 779.652 42.483 779.428 42.1511 779.029C42.0095 778.857 42.0044 778.898 42.0217 778.895C41.8436 778.673 41.6511 778.45 41.3213 778.051C41.181 777.879 41.17 777.923 41.1881 777.915C41.01 777.692 40.8185 777.472 40.4949 777.074C40.3579 776.901 40.3402 776.927 40.3542 776.925C40.1115 776.651 39.8842 776.349 39.5978 775.73C36.735 770.589 34.128 765.617 32.1046 760.257C31.4537 758.533 30.314 756.817 31.7987 754.633Z" fill="#0E0F0F"/>
<path d="M42.9863 780.084C43.3526 780.355 43.8597 780.878 44.5464 781.616C44.1931 781.332 43.6601 780.834 42.9863 780.084Z" fill="#382B20"/>
<path d="M47.1387 784.922C47.2522 784.895 47.4604 785.099 47.7526 785.546C47.6477 785.558 47.4466 785.346 47.1387 784.922Z" fill="#382B20"/>
<path d="M46.3066 783.938C46.4068 783.928 46.6126 784.136 46.9142 784.571C46.8205 784.569 46.6212 784.355 46.3066 783.938Z" fill="#382B20"/>
<path d="M45.4629 782.727C45.5304 782.781 45.7357 783.058 46.0697 783.564C45.9992 783.512 45.8 783.231 45.4629 782.727Z" fill="#382B20"/>
<path d="M42.1406 779.041C42.2384 779.036 42.4437 779.246 42.7482 779.681C42.6567 779.677 42.457 779.46 42.1406 779.041Z" fill="#382B20"/>
<path d="M41.3125 778.063C41.4105 778.057 41.6148 778.266 41.9166 778.702C41.8263 778.696 41.6278 778.48 41.3125 778.063Z" fill="#382B20"/>
<path d="M40.4785 777.09C40.5983 777.054 40.806 777.257 41.0922 777.707C40.9805 777.727 40.7791 777.519 40.4785 777.09Z" fill="#382B20"/>
<path d="M39.6406 775.703C39.7157 775.764 39.9219 776.081 40.2484 776.661C40.1697 776.603 39.9707 776.281 39.6406 775.703Z" fill="#382B20"/>
<path d="M48.0352 785.904C48.1188 785.936 48.3996 786.153 48.8823 786.551C48.8002 786.519 48.5162 786.304 48.0352 785.904Z" fill="#382B20"/>
<path d="M86.0556 469.566C85.9541 470.074 85.7472 470.867 85.4336 471.946C85.5347 471.438 85.7425 470.645 86.0556 469.566Z" fill="#101110"/>
<path d="M180.294 850.875C180.285 850.84 180.303 850.911 180.294 850.875V850.875Z" fill="#0C0E0D"/>
<path d="M87.0931 824.158C87.1393 824.163 87.0853 824.496 87.0853 824.496C87.0853 824.496 87.0469 824.153 87.0931 824.158Z" fill="#0C0E0D"/>
<path d="M130.148 864.461C133.866 864.915 137.381 866.274 138.497 871.93C135.818 869.774 133.085 867.244 130.148 864.461Z" fill="#0E0F0F"/>
<path d="M149.533 877.773C149.56 877.753 149.506 877.793 149.533 877.773V877.773Z" fill="#0E0F0F"/>
</svg>
