<svg width="237" height="253" viewBox="0 0 237 253" fill="none" xmlns="http://www.w3.org/2000/svg">
<path d="M109.871 1.37429C121.472 1.11395 132.826 1.11395 144.649 1.11395C146.646 2.7974 146.378 4.31333 144.531 5.37172C141.503 7.10682 138.691 9.35758 134.87 9.04695C131.104 8.74075 127.602 9.70982 124.803 12.6584C123.673 13.8486 122.162 13.9987 120.672 14.2469C114.604 15.2578 108.494 16.0332 103.086 19.5907C100.349 21.3916 97.1722 19.2747 93.1784 20.5803C98.8405 20.642 103.427 20.5736 108.011 20.6305C115.91 20.7286 116.366 21.399 113.874 29.6657C112.471 31.3914 111.718 33.3599 109.97 33.6576C111.016 33.1554 112.29 32.4106 113.169 30.6113C115.487 26.3311 119.11 27.7817 121.935 28.3083C124.262 28.7422 124.203 31.1799 122.961 33.4189C119.763 39.1838 117.892 45.3053 118.978 52.128C119.312 54.2266 119.285 56.552 117.499 57.8486C115.399 59.373 114.237 57.6512 113.283 55.801C112.857 54.973 112.019 54.9217 111.124 54.9794C108.234 55.1657 106.869 53.526 106.812 50.5998C106.754 47.6335 105.387 45.9986 102.568 45.8818C100.295 45.7876 98.5069 44.4492 96.539 43.5372C93.2113 41.9952 90.1136 42.6169 88.1461 45.8056C85.8747 49.4869 83.4846 52.9898 80.5535 56.1209C79.5527 57.1901 78.4549 58.6747 79.4975 60.3452C80.4818 61.9222 82.0998 61.6037 83.5954 61.3374C88.7336 60.4224 92.8244 56.7481 97.9472 55.544C104.308 54.0491 105.828 55.2342 104.819 62.1622C104.099 67.1016 102.217 71.5496 99.7388 76.1631C98.2984 77.7192 96.7518 77.8965 94.8302 77.9525C92.1581 77.1992 92.1126 72.0552 89.2256 73.8786C86.7672 75.4314 86.7198 79.1175 87.764 82.5551C88.1722 83.6903 88.0263 84.628 88.7876 85.616C89.7516 87.1001 90.7352 87.6448 92.1928 87.9311C96.2454 88.7272 97.4582 91.8288 95.0664 95.4568C93.8103 97.362 92.9964 99.3206 92.2908 101.483C90.8105 106.018 87.2407 106.989 83.5213 103.998C82.1371 102.885 80.722 102.059 78.9781 102.49C77.201 102.929 75.2699 103.496 74.6092 105.504C73.8562 107.792 75.6551 108.914 77.0854 110.097C78.1186 110.951 79.4903 111.288 80.4482 112.808C84.6453 121.069 80.3932 127.968 78.1624 135.1C77.8503 136.097 77.1296 137.152 76.232 137.372C70.0647 138.883 67.0868 144.481 62.969 148.617C59.9405 151.658 56.7501 154.467 52.9873 156.489C50.0415 158.072 47.2394 158.694 44.0629 156.806C41.2121 155.112 40.4234 152.949 41.4521 149.863C41.7805 148.877 42.3213 147.969 42.4952 146.923C42.701 145.684 42.8028 144.403 41.6561 143.603C40.4687 142.774 39.4418 143.498 38.4936 144.253C37.6919 144.89 37.1158 145.756 36.4678 146.553C33.0884 150.71 31.2645 150.963 26.4769 147.721C24.5834 145.897 24.3644 143.723 25.7664 142.34C28.5918 139.553 29.9479 135.634 32.6858 132.864C30.6884 131.745 27.2685 132.444 27.0409 128.453C26.8407 124.942 29.1816 123.638 31.5835 122.306C32.8784 121.588 34.7262 120.963 34.1999 119.03C33.5686 116.712 31.5603 117.421 29.9774 117.764C27.8686 118.223 25.881 119.309 23.7087 119.399C21.5794 119.487 19.1201 119.778 18.2544 116.97C17.4251 114.281 17.7092 111.51 20.3373 110.108C22.872 108.756 24.2482 107.632 23.1838 104.142C22.1751 100.835 20.4805 99.7018 17.4659 99.5769C13.3016 99.4043 8.8463 100.253 6.7415 94.4533C5.97429 92.3391 2.10033 94.9579 0.364304 91.9916C0.117722 90.2689 0.117722 88.8054 0.117722 86.9029C2.14867 85.0794 2.24406 82.8786 2.04027 80.744C1.57799 75.9034 1.8062 71.025 2.93034 66.4248C4.95256 58.1498 11.9688 55.8593 18.6103 53.4362C19.8425 52.9866 21.2418 53.046 22.4879 52.4973C25.6181 51.1188 26.9508 48.5975 25.6878 45.3137C22.1059 36.0007 29.6101 30.5378 32.3576 23.4519C32.8893 22.0808 34.6789 21.4319 36.1415 21.099C40.0488 20.2095 43.7448 19.4135 46.3855 15.4914C47.6985 13.5414 50.7557 14.397 53.0622 14.3127C55.0606 14.2395 57.0569 14.2025 59.0354 13.8524C60.4989 13.5934 61.7406 13.6923 61.2608 11.1127C60.664 7.9043 62.9584 6.2858 65.7477 6.07897C73.2125 5.52543 80.7187 6.17975 88.1865 5.21872C89.9902 4.98655 91.6471 6.33384 93.2439 7.27243C100.426 11.4941 104.676 10.2457 108.589 2.76872C108.824 2.32078 109.277 2.01189 109.871 1.37429Z" fill="#231717"/>
<path d="M41.3613 218.99C36.9556 221.611 32.803 223.987 28.6267 226.316C27.9078 226.717 26.9849 227.123 26.3171 226.385C25.4827 225.463 26.0172 224.386 26.4982 223.487C26.8996 222.737 27.4535 222.057 28.026 221.433C29.1032 220.261 30.1162 219.053 29.5039 217.283C28.8707 215.453 27.3773 215.3 25.7969 215.402C22.5083 215.614 21.5538 214.285 23.8225 211.54C25.4011 209.63 25.4817 208.312 23.3914 206.911C21.7622 205.82 21.7738 204.079 21.8292 202.24C21.9752 197.405 20.6378 193.084 18.3494 188.799C16.1007 184.588 13.9949 184.81 10.9415 187.444C7.61146 190.316 4.16133 193.034 0.440319 195.935C0.117077 174.251 0.117077 152.452 0.117077 130.16C0.897839 128.822 2.12245 128.719 2.87465 127.827C2.24501 128.403 1.52015 128.772 0.409069 128.774C0.117077 116.648 0.117077 104.684 0.117077 92.2266C2.78675 91.6628 5.16444 89.4726 7.86909 90.2564C9.72688 90.7948 13.8577 89.7612 11.2332 94.5995C10.2887 96.3405 12.02 96.4321 13.1774 96.5171C15.4974 96.6875 17.8183 96.8459 20.1392 97.0012C23.6812 97.2384 27.672 96.8858 25.9866 102.956C25.6207 104.274 26.8345 105.129 27.8955 105.728C31.8478 107.958 29.7174 109.22 27.2276 110.423C26.9264 110.568 26.5805 110.622 26.2956 110.792C24.2471 112.021 19.6892 111.423 21.1351 115.326C22.3547 118.619 25.7889 115.894 28.2214 115.384C29.846 115.044 31.4144 114.384 33.0447 114.101C35.648 113.649 37.5788 114.416 38.2672 117.509C38.9147 120.419 38.6869 122.749 35.635 123.874C35.1644 124.048 34.68 124.182 34.216 124.372C32.4244 125.105 29.5632 125.348 30.0922 127.967C30.614 130.552 33.455 130.274 35.5935 130.311C37.2207 130.339 39.5791 128.178 40.2355 131.075C40.9688 134.311 37.7431 133.448 36.1629 134.282C31.5623 136.71 30.2505 141.982 27.1841 146.162C28.5597 150.728 26.1572 153.555 23.7474 156.183C21.1811 158.982 17.9519 160.804 14.4556 162.117C13.0288 162.653 11.6116 163.571 11.7164 165.436C11.8281 167.423 13.5233 167.21 14.7802 167.284C19.9208 167.586 19.2615 171.296 18.9711 175.106C20.147 171.56 22.6058 169.185 24.7907 166.614C27.6051 163.301 29.7969 163.465 32.3535 167.02C35.2142 170.998 40.0266 171.879 43.5562 168.507C46.217 165.965 49.1913 165.212 51.6281 167.32C56.1542 171.233 61.7861 174.81 60.6482 182.591C60.4461 183.973 61.2008 185.354 60.5495 187.103C57.7852 190.224 57.2824 194.593 53.7598 197.167C49.8582 198.529 48.2991 201.488 47.6452 205.032C47.1168 207.895 46.3126 209.925 42.9415 209.271C41.9779 209.084 40.5072 208.982 40.2352 210.666C40.0009 212.117 41.3227 212.103 42.0662 212.661C45.0878 214.927 43.9096 216.885 41.3613 218.99Z" fill="#1E1315"/>
<path d="M98.9482 75.2225C98.7269 70.1311 101.872 66.3279 102.342 61.7476C102.671 58.5313 102.464 56.7619 98.812 58.3456C94.3874 60.2645 89.9212 62.0801 85.4432 63.8567C84.2237 64.3405 82.851 64.9184 81.6283 64.7619C79.0447 64.4314 75.7584 64.7693 74.3998 62.0411C72.9254 59.0806 75.9844 57.3545 77.5196 55.5426C80.7294 51.7546 83.8141 47.9195 86.3519 43.5781C88.9963 39.0544 92.9391 38.2268 97.144 40.6443C100.334 42.4779 103.563 43.2382 107.105 43.5147C109.691 43.7164 112.466 44.3411 110.138 48.3662C108.897 50.5136 109.776 51.899 111.921 52.8205C113.401 53.4563 114.709 54.5336 116.149 55.4483C117.456 53.9395 116.583 52.38 115.964 51.1231C114.517 48.1816 114.133 45.5465 116.65 43.0158C117.381 42.2811 118.059 40.8212 117.396 40.1736C113.756 36.6141 115.788 34.9815 119.086 33.365C119.993 32.92 121.271 31.8821 120.54 30.4414C120.026 29.4301 118.774 29.5824 117.797 29.6994C116.477 29.857 115.176 30.1783 113.493 30.5238C112.743 28.7575 110.801 27.4986 112.238 24.8817C113.406 22.7544 110.795 23.3446 109.856 23.3214C104.549 23.1905 99.2371 23.2469 93.9269 23.2304C92.4337 23.2257 90.9299 23.2996 89.4501 23.1402C87.6972 22.9516 85.2309 23.1435 85.1793 20.6428C85.1356 18.5228 87.4747 18.4109 89.0504 18.1739C92.3132 17.6832 95.5382 16.5618 98.9099 17.3412C100.253 17.6517 101.576 17.4594 102.723 16.6099C106.1 14.1098 110.064 13.4581 113.965 12.653C118.329 11.7519 122.817 11.4451 126.307 7.84484C127.761 6.34417 129.995 6.24101 131.992 6.42764C136.953 6.89095 141.021 4.86053 144.929 1.40783C159.804 1.11199 174.492 1.11199 189.648 1.11199C193.755 5.95507 192.927 7.86433 187.736 10.0734C181.582 12.692 175.376 13.5072 168.851 13.3249C163.677 13.1804 159.207 16.8451 153.92 16.7491C152.22 16.7182 151.334 18.6211 150.68 20.3453C148.671 25.6461 146.864 27.0506 141.704 26.2881C138.627 25.8333 135.754 25.4994 132.643 26.2466C130.134 26.8491 128.004 24.6332 125.787 23.917C131.495 27.9489 138.177 25.0483 144.388 26.2514C145.781 26.5214 147.314 25.9779 148.833 27.4628C151.232 30.4035 149.586 32.2767 148.021 34.3133C146.672 36.0701 144.396 36.3698 142.899 38.4823C142.57 39.0765 142.44 39.3085 142.052 39.825C138.636 41.1348 135.66 42.3788 134.955 46.7675C134.951 47.4197 134.957 47.6846 134.985 48.3549C134.935 50.6598 133.759 51.7054 131.999 52.6627C130.394 52.9896 128.83 51.5926 127.897 53.7674C127.927 54.1528 127.941 54.4539 128.008 54.468C136.141 56.1633 135.933 56.059 132.211 64.4006C130.019 69.3153 126.371 72.3605 122.218 74.9402C118.799 77.0635 115.112 78.6835 111.871 81.1689C109.886 82.6911 107.906 83.0812 106.628 80.1108C105.826 78.247 104.267 77.8681 102.568 78.0351C100.644 78.224 98.9091 78.2843 98.9482 75.2225Z" fill="#261E1F"/>
<path d="M109.649 1.11348C111.772 8.30817 110.704 9.51886 103.502 11.8959C98.9607 13.3945 95.1632 13.8864 91.8108 9.68324C91.3127 9.05863 90.3855 8.4411 89.6612 8.44676C81.705 8.50908 73.7384 8.493 65.8013 8.97908C63.5811 9.11504 63.3882 11.3145 65.2742 12.7071C66.4391 13.5674 67.9867 13.852 69.462 15.4248C64.049 15.9237 58.6191 16.281 53.2319 16.9954C51.2442 17.2589 47.0126 15.2075 48.6365 20.7519C48.862 21.5218 48.0323 21.8824 47.3621 22.0172C46.8739 22.1154 46.3705 22.1539 45.8724 22.1682C39.2778 22.3584 33.8557 23.8579 31.0627 31.5349C29.552 35.6873 26.0974 39.024 28.1917 44.0231C28.3246 44.3404 28.409 44.6923 28.4524 45.037C28.7508 47.4102 32.7351 49.2929 30.7 51.3055C28.4618 53.5189 25.324 55.3877 21.9247 55.8026C19.7687 56.0657 17.6547 56.303 15.6202 57.2376C6.28757 61.524 3.01627 67.648 3.70213 80.1102C3.85398 82.8686 4.24784 85.5041 0.476051 86.3945C0.117164 69.9334 0.117165 53.4034 0.117165 36.3795C4.14884 31.7769 9.56101 31.1111 14.792 29.0675C11.9978 26.3288 8.79655 27.458 5.61887 28.1155C3.93699 28.4636 2.21891 29.9985 0.359108 27.7094C0.117165 20.1041 0.319068 12.7433 0.0279312 5.40418C-0.108056 1.97064 0.441262 0.979454 4.02341 0.998875C39.0748 1.18911 74.1275 1.11348 109.649 1.11348Z" fill="#231412"/>
<path d="M18.1921 31.3145C12.3381 32.8172 6.88648 35.4477 0.533453 35.8828C0.117437 33.3881 0.117437 30.8901 0.117437 27.9243C6.09559 23.5552 12.8535 25.0894 19.2936 24.4287C20.2556 24.3299 21.39 24.3842 21.9097 25.4355C22.553 26.7363 21.4377 27.2754 20.6401 27.8062C19.4839 28.5756 18.5735 29.5014 18.1921 31.3145Z" fill="#231717"/>
<path d="M0.11726 213.377C2.13289 213.096 5.09236 210.846 5.7754 214.621C6.46089 218.409 3.83192 220.107 0.464428 221.238C0.11726 218.841 0.11726 216.343 0.11726 213.377Z" fill="#1E1315"/>
<path d="M0.116882 128.876C2.94678 126.094 6.23425 124.883 9.95508 124.846C7.19037 127.012 4.24811 128.764 0.486511 129.616C0.116882 129.667 0.116882 129.14 0.116882 128.876Z" fill="#231717"/>
<path d="M51.8236 196.378C54.4222 193.38 56.1066 190.285 57.9018 186.84C59.7421 179.618 64.1074 175.651 70.0465 172.346C76.5999 168.698 82.6822 163.914 87.0991 157.304C88.5884 155.076 91.2521 153.991 92.7527 151.658C90.9066 150.054 89.5017 151.03 88.2042 151.603C82.3293 154.198 76.1556 155.613 69.8999 156.473C64.4318 157.224 60.3711 161.348 55.1903 162.687C53.901 163.02 52.6791 163.579 51.307 163.399C49.8003 163.202 48.8963 162.294 48.5384 160.794C48.2242 159.477 48.607 158.381 49.6818 157.584C50.226 157.18 50.7308 156.651 51.352 156.443C59.1279 153.838 63.8311 147.154 69.3309 141.513C70.9629 139.84 73.0304 138.916 75.0469 137.791C80.8498 134.555 87.3921 131.772 89.1139 123.69C89.7693 120.612 92.971 118.248 91.4441 114.22C87.5434 114.811 83.5311 118.636 79.3601 114.116C76.0231 113.234 73.7959 111.028 71.4796 109.063C68.5436 106.573 69.2589 104.158 72.1933 102.434C76.5926 99.8501 81.0691 96.0411 85.7654 102.079C86.71 103.293 88.1883 102.952 88.7564 101.824C90.421 98.5183 92.0824 95.1435 93.1241 91.5934C93.4974 90.3216 91.2792 90.1014 90.0196 89.6808C87.961 88.9935 84.6885 91.2751 84.082 86.7533C89.4399 83.2903 94.8573 80.413 100.718 78.5973C102.484 78.05 104.418 77.406 105.93 79.085C107.584 80.9221 106.916 82.7894 105.87 84.8097C104.739 86.994 102.926 88.9516 102.836 91.5634C103.444 91.9304 103.951 91.9998 104.046 91.7213C106.454 84.6536 113.366 82.9709 118.106 78.7119C121.254 75.8837 124.654 73.349 128.045 70.8278C130.267 69.1761 132.285 68.911 134.265 71.794C136.495 75.7611 133.16 77.8358 132.1 80.554C131.236 82.7695 129.265 84.5777 130.075 87.3198C130.296 88.0706 130.969 88.535 131.643 88.1355C133.947 86.7697 134.093 84.1322 134.796 81.8351C135.001 81.1672 135.201 80.4983 135.423 79.836C136.17 77.6069 137.003 75.2245 139.833 75.9239C142.675 76.6264 142.228 79.1618 142.134 81.5003C141.83 89.1018 138.322 95.4823 135.197 101.997C134.376 103.711 133.113 105.191 133.601 107.558C137.617 103.538 139.633 97.9753 144.226 94.3807C151.309 94.8056 151.99 95.3204 152.225 102.004C152.307 104.336 154.025 105.603 154.535 107.943C155.222 110.15 154.237 111.189 152.9 112.073C148.182 115.193 144.367 119.436 140.314 123.849C141.05 125.875 142.334 127.235 141.656 129.56C140.976 134.209 137.878 133.174 135.388 132.916C128.251 132.174 127.272 133.194 128.316 140.851C129.075 146.422 128.129 148.445 123.296 150.897C120.309 152.414 117.278 153.88 113.952 154.441C112.798 154.636 111.573 154.795 110.637 155.513C102.61 161.67 93.0639 165.869 87.3539 175.618C86.9528 176.108 86.7519 176.267 86.1904 176.55C82.0594 177.259 78.1314 177.599 77.1334 183.124C76.5713 183.865 76.1363 184.137 75.2565 184.32C71.3705 184.428 69.8696 186.782 69.0437 190.415C68.8436 191.112 68.7191 191.381 68.31 191.996C63.9875 194.721 60.1159 197.34 56.6128 200.56C55.4009 201.674 53.9156 202.734 52.1956 201.577C50.2579 200.274 50.2991 198.56 51.8236 196.378Z" fill="#261E1F"/>
<path d="M133.403 72.9654C130.466 71.6367 128.646 73.375 126.837 74.8817C121.756 79.1159 116.805 83.5396 111.127 86.8959C109.874 87.6366 109.036 88.5304 108.811 90.0621C108.57 91.7056 107.487 92.8403 106.506 94.0355C104.618 96.3356 102.185 98.1862 99.627 96.0989C96.8067 93.7974 98.778 91.1708 100.346 88.7868C101.883 86.4503 105.147 83.7942 103.5 81.3244C102.154 79.3065 99.2205 82.738 96.8049 83.0812C95.319 83.2924 93.7761 83.749 92.844 85.0827C90.5856 88.3143 87.7755 87.7937 84.4757 86.5327C84.3972 85.6063 84.6518 84.771 85.0274 83.631C87.16 79.8919 88.1645 75.2501 93.7651 75.7831C95.5534 75.586 96.9779 75.2869 98.7645 74.948C102.049 76.4392 105.82 75.6002 108.237 78.6585C108.936 79.5423 110.118 79.2592 110.97 78.5523C114.924 75.2754 119.641 73.4088 123.902 70.7076C127.808 68.231 129.447 63.8444 131.599 59.9417C132.858 57.6572 131.425 57.1138 129.602 57.3607C128.637 57.4914 127.728 58.0446 126.78 58.3589C124.795 59.0164 122.434 59.4987 121.402 57.3011C120.069 54.4643 122.916 54.0437 124.819 52.891C126.226 51.1401 127.974 51.3747 129.816 50.8352C131.393 50.2227 132.406 49.4791 133.019 47.7909C134.68 45.2428 137.495 45.8634 139.457 44.3001C141.115 42.9789 142.769 42.2148 141.17 39.3972C141.579 36.6353 142.975 35.0049 144.943 33.7996C146.6 32.7843 147.748 31.342 148.062 28.8849C150.155 25.3574 152.965 24.1463 156.59 24.2463C162.38 24.4062 167.886 21.1708 173.831 22.5029C174.685 22.6943 175.682 21.7249 175.387 20.9078C172.308 12.3752 178.764 18.2017 180.578 17.1279C180.98 16.8896 181.808 17.4495 182.782 17.8143C181.869 19.2834 181.528 20.8229 182.083 22.9006C181.336 26.3894 178.801 26.6201 176.38 26.8021C173.137 27.0457 169.887 27.151 166.27 27.8094C163.653 28.5883 161.031 26.9862 158.908 29.5413C158.243 31.7188 156.075 31.6003 155.427 32.9113C158.879 30.4424 163.052 29.0437 167.16 28.0556C170.332 27.2925 172.936 30.1211 175.209 32.2992C177.371 34.3704 175.347 36.4424 174.506 38.8133C174.099 39.5918 173.746 39.9336 172.967 40.2925C169.047 39.2803 165.375 35.2636 162.026 41.4302C162.154 43.413 162.342 44.7672 162.139 46.3641C163.72 44.2101 164.833 41.6839 168.143 41.7191C174.967 40.5873 181.662 41.9899 187.972 39.369C191.923 37.7277 196.18 38.6967 200.298 38.5304C203.295 38.4093 206.252 37.7829 209.246 37.8365C211.27 37.8726 213.187 38.4367 214.904 40.426C215.607 43.3134 215.03 45.6728 214.299 48.3786C213.039 50.2623 211.949 51.6582 209.899 51.6814C203.16 51.7575 197.143 54.6379 191.066 57.2151C185.08 59.7534 178.51 58.3698 172.426 60.5371C169.116 61.7161 167.113 63.2466 167.561 67.5166C167.826 70.3454 167.53 72.1768 164.639 72.874C158.631 74.3225 155.929 81.8212 159.449 87.4224C161.558 90.7771 164.203 93.6715 162.633 98.2439C162.187 99.5408 163.487 100.41 164.652 100.77C167.544 101.665 168.121 103.642 166.92 106.725C162.42 107.956 158.343 110.086 153.47 108.837C152.72 108.291 152.342 107.777 151.909 107.72C147.493 107.134 144.016 106.779 149.164 101.125C151.425 98.6421 147.541 97.447 145.416 96.0628C142.912 94.9078 142.887 93.1779 143.542 91.1236C144.447 88.2888 145.65 85.6054 147.304 83.1909C148.699 81.1541 149.504 78.9114 150.018 76.5024C151.384 70.1029 150.305 68.9686 144.207 70.4365C143.399 70.6309 142.603 70.927 141.769 70.9133C140.119 70.8862 138.299 71.0609 137.551 68.9963C136.851 67.0655 138.426 66.1853 139.473 65.1568C140.3 64.3442 141.405 63.8649 141.995 62.8143C139.661 64.7895 137.022 66.3593 137.398 70.4801C137.57 72.362 136.186 74.1798 133.403 72.9654Z" fill="#2E2829"/>
<path d="M79.1657 114.278C84.3348 114.465 88.8433 112.063 93.484 110.154C94.9603 109.547 96.8192 108.391 97.9589 110.423C99.0785 112.42 96.5027 112.793 96.0336 113.997C94.3816 118.236 93.0977 122.636 91.7314 126.995C91.4281 127.963 91.6412 129.685 91.1376 129.92C85.5873 132.509 82.6725 139.563 76.0985 140.128C72.3259 140.453 70.0718 142.767 67.7922 145.319C63.6899 149.911 59.8038 154.736 53.6608 156.529C52.289 156.93 50.5063 158.02 51.2691 159.871C51.9877 161.615 53.7618 160.552 54.7421 159.896C66.4051 152.092 80.7991 153.238 92.8952 146.895C94.2391 146.191 95.749 145.473 96.9622 147.111C98.1607 148.729 97.6862 150.427 96.8218 152.026C96.4958 152.63 96.1273 153.271 95.6261 153.696C85.7893 162.039 77.8146 172.893 65.7228 178.203C62.3096 179.702 60.7361 183.212 58.3633 186.326C61.0765 178.733 55.0551 174.787 51.295 170.219C49.1113 167.566 46.2275 169.152 43.9381 171.575C40.1158 175.62 32.4697 174.202 29.9636 169.083C29.321 167.77 28.4789 166.748 27.3835 167.932C25.1793 170.313 21.6866 172.097 22.9324 176.528C23.3858 178.141 24.5626 180.111 22.5601 181.216C20.5131 182.346 18.7927 180.497 17.0598 179.592C15.4949 178.775 14.4168 177.622 14.8057 175.432C15.8015 169.825 15.7017 169.664 10.6061 171.322C7.86786 172.213 7.43481 171.314 7.59149 168.669C7.88879 163.647 9.37585 160.081 14.7026 158.891C20.7637 157.536 23.7612 152.228 26.8904 146.788C30.4608 147.726 33.1977 147.488 35.1244 143.701C36.6658 140.673 40.1774 139.807 42.3465 137.347C43.1263 136.463 44.486 136.677 44.7628 137.916C45.5396 141.395 47.0901 144.918 45.5204 148.522C44.7965 150.183 42.6743 151.572 44.4459 153.555C46.2805 155.608 48.7493 156.36 51.3068 155.144C53.419 154.139 55.5723 153.03 57.3662 151.519C63.592 146.272 69.2604 140.236 74.8624 134.394C79.2857 129.78 80.9396 122.061 79.1657 114.278Z" fill="#221A1B"/>
<path d="M67.2812 40.2509C63.9686 40.6967 59.5133 42.3258 58.8044 39.1558C58.0396 35.7353 62.9288 36.4383 65.2955 35.4509C71.7567 32.7551 78.687 34.2873 85.5586 33.914C78.8619 33.9233 74.1312 39.5892 67.2812 40.2509Z" fill="#261E1F"/>
<path d="M94.125 75.4442C91.3196 78.2333 88.5103 80.5831 85.4247 83.1289C85.9868 79.4445 82.6626 75.3822 86.0879 71.3965C87.3765 69.8971 87.48 67.8098 90.2036 68.4045C92.7276 68.9556 94.0594 70.1812 94.0674 72.9109C94.0695 73.6089 94.1024 74.3068 94.125 75.4442Z" fill="#261E1F"/>
<path d="M113.117 30.6153C112.877 36.5111 107.393 36.9649 104.518 40.1367C106.638 36.5185 107.006 31.2204 112.757 30.7079C113.121 30.6191 113.117 30.6153 113.117 30.6153Z" fill="#261E1F"/>
<path d="M85.1211 39.6056C82.1899 41.5092 82.1899 41.5092 76.7244 39.4769C79.9551 38.8477 82.4265 38.8929 85.1211 39.6056Z" fill="#261E1F"/>
<path d="M93.9484 24.603C94.127 24.727 94.2159 24.8918 94.3047 25.0566C94.156 24.919 94.0073 24.7814 93.9484 24.603Z" fill="#261E1F"/>
<path d="M94.9944 35.9703C94.9543 35.9208 95.2188 35.762 95.2188 35.762C95.2188 35.762 95.0345 36.0197 94.9944 35.9703Z" fill="#261E1F"/>
<path d="M105.612 24.8268C105.595 24.8314 105.63 24.8222 105.612 24.8268Z" fill="#261E1F"/>
<path d="M65.5981 196.046C63.9855 196.743 62.2831 197.149 61.8054 198.184C58.1219 206.16 50.6752 210.389 45.4651 216.814C45.0399 217.338 44.7693 218.002 44.2726 218.915C43.3681 219.235 42.6179 219.241 41.4925 219.25C41.89 215.57 41.8392 212.841 37.17 215.475C36.4344 215.89 35.652 216.414 34.9311 215.604C34.2867 214.879 34.5285 213.971 34.846 213.149C35.5322 211.37 36.2424 209.601 36.9481 207.83C37.8415 205.589 39.128 204.165 41.493 205.845C43.8432 207.514 44.9621 206.494 45.046 203.971C45.1954 199.478 48.0247 197.657 51.7667 196.154C52.2732 198.672 52.7614 200.064 55.7124 198.179C59.5239 195.743 63.4463 193.55 66.7991 189.875C69.8081 192.374 68.6471 194.336 65.5981 196.046Z" fill="#221A1B"/>
<path d="M6.10577 107.418C5.96533 107.155 5.94763 106.899 5.92993 106.644C6.06396 106.651 6.198 106.658 6.33203 106.666C6.29761 106.919 6.26306 107.172 6.10577 107.418Z" fill="#231717"/>
<path d="M141.125 39.0485C142.793 39.3414 145.252 38.2132 145.844 40.4928C146.391 42.5941 144.125 43.5414 142.632 44.4766C139.96 46.1497 137.175 47.5742 133.533 47.467C133.133 47.4746 133.131 46.948 133.132 46.6846C134.416 42.6899 138.355 42.1698 140.85 39.3203C141.117 39.0604 141.119 39.0494 141.125 39.0485Z" fill="#282327"/>
<path d="M140.75 39.0922C139.987 42.9571 136.58 44.1975 133.434 46.2578C132.3 40.4048 137.442 40.977 140.75 39.0922Z" fill="#2E2829"/>
<path d="M108.69 62.3915C109.158 59.754 110.569 58.3586 113.434 57.4452C112.521 60.4889 112.226 63.082 108.69 62.3915Z" fill="#231717"/>
<path d="M129.809 50.5227C129.16 52.3855 127.58 52.7124 125.493 52.7363C125.829 50.3952 127.262 49.5585 129.809 50.5227Z" fill="#282327"/>
<path d="M18.2997 31.7829C18.6964 31.6459 19.2759 31.6193 19.8555 31.5929C19.8307 31.7334 19.8017 31.9969 19.7817 31.9961C19.348 31.9796 18.9154 31.9337 18.2997 31.7829Z" fill="#231717"/>
<path d="M164.936 26.6881C170.113 23.0201 176.036 25.1157 181.727 23.2799C187.994 20.2844 193.645 22.6373 199.793 23.8478C198.39 26.2293 195.324 24.6231 193.876 27.9855C203.212 25.9712 211.627 29.818 220.769 29.4812C221.38 29.4294 221.628 29.297 222.214 29.4247C222.853 34.0506 219.681 35.2238 216.755 36.2637C211.747 38.0441 206.567 37.8519 201.455 36.7208C196.298 35.5796 191.61 35.497 187.075 39.3419C183.396 42.4605 176.814 41.7375 173.336 38.4481C173.412 33.0393 169.729 29.7752 165.151 30.8465C160.814 31.8613 157.206 34.1615 153.902 37.1845C152.803 38.1895 151.296 39.4319 150.037 37.7058C148.979 36.2534 150.361 35.1107 151.371 34.2559C153.295 32.6283 153.715 29.5141 156.733 28.5831C159.567 27.6136 162.391 28.6032 164.936 26.6881Z" fill="#282327"/>
<path d="M86.1773 175.353C89.7201 167.549 94.8698 162.527 101.986 158.05C108.524 153.937 115.459 151.822 122.115 148.602C126.198 146.626 126.821 143.443 125.105 139.507C124.034 137.051 122.67 134.796 125.239 132.432C127.676 130.19 130.032 127.931 133.659 129.489C135.525 130.29 137.431 130.972 139.785 129.871C140.682 129.106 141.227 128.474 142.172 127.685C144.96 128.015 147.306 127.146 150.114 127.08C152.067 127.696 152.907 128.907 153.332 130.526C156.379 142.129 159.797 153.579 160.735 165.755C161.418 174.615 163.591 183.347 161.981 192.742C158.424 194.542 157.259 197.544 156.52 201.007C155.959 203.639 155.715 206.452 153.546 208.816C150.282 210.036 148.09 209.341 146.776 206.145C146.066 204.418 145.291 202.244 143.002 202.715C140.65 203.2 140.135 205.645 140.009 207.65C139.567 214.648 135.207 220.029 133.037 226.636C127.611 229.139 124.39 233 123.434 238.898C123.045 241.298 121.8 243.225 119.261 243.419C116.924 243.598 115.631 241.859 114.777 239.878C112.091 233.646 109.854 227.335 109.477 220.321C109.213 215.412 109.287 209.802 102.756 207.955C102.251 207.746 102.014 207.66 101.998 207.54C101.072 200.683 96.4082 196.581 91.9101 192.374C90.1405 190.719 89.5724 188.584 89.6954 186.265C89.9098 182.223 88.7534 178.75 86.1773 175.353Z" fill="#281A1B"/>
<path d="M85.8657 174.969C90.7268 174.467 92.6512 176.829 92.0895 181.477C91.1843 188.967 95.0559 193.393 100.859 196.205C105.722 198.562 103.073 202.413 103.158 206.187C107.203 209.753 106.002 214.495 105.266 218.184C103.723 225.913 104.476 233.491 105.071 241.108C105.45 245.957 103.882 249.533 99.8252 252.365C98.389 252.378 97.4144 252.502 96.0961 251.778C95.0637 250.532 95.0208 249.547 95.7983 248.114C99.2453 243.686 97.3191 239.331 96.7677 235.116C96.3498 231.921 95.3807 228.864 94.99 225.594C94.4846 221.363 89.8935 218.835 86.5129 216.695C81.7936 213.707 77.7028 209.743 71.8984 208.143C67.8873 207.037 66.3786 201.365 65.1422 196.442C65.7263 194.177 66.3328 192.31 67.0173 190.08C67.0953 189.717 67.1136 189.719 67.1135 189.711C69.204 187.339 71.7467 185.44 73.8326 182.563C74.5625 182.351 75.004 182.349 75.7767 182.345C77.808 178.513 81.9499 178.041 84.8524 175.237C85.1175 174.975 85.6163 174.971 85.8657 174.969Z" fill="#231717"/>
<path d="M133.01 73.1127C135.115 71.2115 135.935 68.9287 136.517 66.531C137.697 61.666 142.162 57.7222 146.944 57.455C147.552 57.421 148.404 57.5018 148.746 57.9042C149.572 58.8752 148.928 59.9152 148.308 60.7C147.146 62.1722 145.976 63.686 144.585 64.8962C143.251 66.0566 141.632 66.8539 139.152 68.4434C143.312 68.3203 145.982 66.9486 148.726 65.8818C152.526 64.4045 154.222 65.5656 153.661 69.7674C152.908 75.4071 152.639 81.1855 148.781 85.9739C146.792 88.4425 145.635 91.7171 145.166 95.4819C141.201 101.695 137.283 107.519 132.93 113.99C131.778 110.891 130.84 108.368 129.904 105.845C129.427 104.56 129.741 103.679 130.726 102.635C136.874 96.1181 138.562 87.7034 139.978 78.6902C137.82 79.2068 137.887 80.7844 137.503 81.9345C136.841 83.9138 136.59 86.1016 135.659 87.912C134.104 90.935 132.476 94.4513 128.39 93.758C126.969 93.5167 126.389 84.093 127.69 82.3728C129.779 79.6125 131.57 76.6956 133.01 73.1127Z" fill="#2D3036"/>
<path d="M143.504 129.625C142.383 129.709 141.626 129.713 140.491 129.715C139.385 126.869 137.108 126.267 134.456 125.54C139.687 119.251 145.806 113.721 152.863 108.817C156.91 106.44 160.901 105.157 165.686 105.43C167.377 103.129 169.017 101.619 172.192 102.365C175.013 101.802 177.052 103.058 179.603 103.92C180.245 104.22 180.484 104.377 180.966 104.9C181.393 105.827 181.464 106.405 181.31 107.415C181.051 108.067 180.9 108.302 180.442 108.803C176.731 112.521 172.295 113.531 167.675 115.031C166.374 115.887 165.226 116.271 164.116 116.262C157.935 116.207 154.181 119.944 151.088 125.445C148.574 127.086 146.015 127.888 143.504 129.625Z" fill="#2F2A2D"/>
<path d="M127.039 120.261C129.489 121.008 128.367 122.41 127.856 123.579C124.885 130.377 114.316 136.388 107.577 135.193C106.872 135.068 106.131 134.906 106.129 134.121C106.127 133.54 106.53 132.839 106.946 132.393C112.489 126.45 118.888 122.037 127.039 120.261Z" fill="#272B34"/>
<path d="M84.7344 175.025C83.7776 179.206 80.6844 181.187 76.4589 182.256C75.1313 175.232 80.7548 176.428 84.7344 175.025Z" fill="#221A1B"/>
<path d="M73.8418 182.276C73.7753 186.476 70.8384 188.042 67.4458 189.594C68.6415 186.608 69.5025 182.878 73.8418 182.276Z" fill="#221A1B"/>
<path d="M61.24 190.693C61.2803 190.743 61.0146 190.902 61.0146 190.902C61.0146 190.902 61.1997 190.643 61.24 190.693Z" fill="#221A1B"/>
<path d="M134.129 125.472C134.146 125.49 134.035 125.469 134.056 125.444C134.078 125.42 134.113 125.454 134.129 125.472Z" fill="#2F2A2D"/>
<path d="M173.448 104.265C171.034 104.667 168.955 104.955 166.495 105.336C164.781 102.868 161.869 103.688 160.021 102.276C158.026 100.752 155.206 99.3476 158.92 96.4978C161.566 94.4672 159.919 92.5556 158.566 90.7175C155.031 85.916 154.565 78.2317 157.122 73.0934C159.081 69.1571 163.046 70.7181 165.949 68.7807C169.508 63.0803 174.843 60.7359 180.379 58.8962C182.509 58.1884 184.415 59.0222 184.773 62.2144C184.199 67.1729 180.499 69.1062 177.702 71.5702C171.633 76.9164 169.551 83.8529 172.474 91.8207C173.622 94.9508 173.636 98.3069 174.718 101.422C175.092 102.498 174.677 103.462 173.448 104.265Z" fill="#352A29"/>
<path d="M215.509 42.3521C214.962 42.2444 214.777 42.2314 214.312 42.1957C212.177 40.8722 210.18 40.4167 207.918 40.4883C194.514 40.9122 181.231 42.6794 167.501 44.3145C165.562 39.9533 168.553 39.6105 171.728 39.0711C172.368 38.8667 172.589 38.6462 172.962 38.2456C180.605 40.6385 186.756 38.5032 191.608 32.1113C192.813 30.5237 193.661 30.8145 195.331 31.5903C204.243 35.7299 213.142 37.0426 221.779 29.8365C225.763 29.7153 229.512 29.5678 233.203 30.4343C235.838 31.0531 237.037 32.2991 235.166 35.346C233.136 41.238 225.179 45.5426 220.13 43.4978C218.713 42.9243 217.267 42.8819 215.509 42.3521Z" fill="#2D3036"/>
<path d="M183.295 63.6771C182.51 61.1027 181.549 60.941 179.478 61.7813C175.044 63.5801 171.549 67.2734 166.486 68.4805C164.734 68.0676 163.346 67.6052 161.55 67.0071C163.248 64.9221 164.976 63.3273 165.513 60.8095C165.989 58.5727 167.975 58.2126 169.875 58.0807C180.546 57.3404 190.797 54.9033 200.737 50.5953C203.986 49.1873 207.873 49.415 211.843 48.7086C212.746 49.0463 213.274 49.5702 213.97 50.3227C214.6 51.2517 214.711 52.0111 214.31 53.1817C213.828 53.9524 213.486 54.3358 212.797 54.893C211.79 55.354 211.065 55.4826 210.012 55.7874C207.267 56.2349 205.277 57.7815 202.624 58.5286C198.927 59.4277 196.434 61.6476 193.667 64.1957C189.978 64.7957 186.649 67.2023 183.295 63.6771Z" fill="#36373C"/>
<path d="M171.996 38.7465C170.589 40.6532 169.039 42.226 167.278 44.0635C165.281 46.6031 163.492 48.8755 161.71 51.1538C160.821 52.2901 160.758 55.2736 158.368 53.207C156.748 51.8068 155.769 49.673 157.846 47.8342C160.548 45.4416 158.995 43.6549 157.271 41.4468C158.65 39.5609 160.086 37.8466 161.734 36.3983C165.486 33.1001 169.353 33.9223 171.996 38.7465Z" fill="#282327"/>
<path d="M164.682 26.3649C163.935 31.4106 160.568 29.215 157.409 28.6631C158.913 25.7068 161.739 26.6127 164.682 26.3649Z" fill="#261E1F"/>
<path d="M157.051 40.9941C156.855 40.9898 156.578 40.8435 156.338 40.6479C156.281 40.6018 156.346 40.3896 156.355 40.2538C156.564 40.4473 156.774 40.6408 157.051 40.9941Z" fill="#282327"/>
<path d="M42.4033 164.158C42.4295 165.569 41.9187 166.433 40.9763 166.9C39.7204 167.524 38.1613 167.768 37.5163 166.323C36.6616 164.409 38.6317 164.233 39.6711 163.671C40.5164 163.213 41.51 162.848 42.4033 164.158Z" fill="#1E1315"/>
<path d="M93.0059 234.881C92.6644 235.074 92.2264 235.071 91.46 235.07C91.579 234.208 92.0831 233.629 93.0059 234.881Z" fill="#231717"/>
<path d="M43.0358 211.723C43.0829 211.681 43.2344 211.961 43.2344 211.961C43.2344 211.961 42.9887 211.766 43.0358 211.723Z" fill="#1E1315"/>
<path d="M148.839 124.557C149.112 125.495 149.113 126.627 149.111 128.184C147.273 128.894 145.687 130.346 143.416 129.8C144.449 127.448 146.633 126.253 148.839 124.557Z" fill="#261E1F"/>
<path d="M211.744 53.7381C211.838 56.8212 209.851 59.9438 213.121 62.8578C214.308 63.9149 212.775 65.4984 211.435 65.9099C205.719 67.6652 199.729 68.6773 195.139 73.2468C194.734 73.6495 193.817 73.7702 193.224 73.6266C188.558 72.4972 186.92 75.0907 186.452 79.4262C186.345 80.4146 185.935 81.7644 185.237 82.2234C177.324 87.4209 178.9 95.2477 179.887 102.939C179.953 103.459 179.958 103.988 179.982 104.956C177.895 105.409 175.796 105.63 173.462 104.549C172.393 101.529 171.45 98.7199 171.009 95.8256C170.52 92.6177 168.522 91.2244 165.187 90.3113C169.057 87.3392 169.332 83.6303 169.147 79.736C169.007 76.7915 169.883 74.3111 172.195 72.4239C175.71 69.5537 179.146 66.5751 182.893 63.4356C186.41 63.5391 189.421 62.6098 192.734 61.2409C196.402 61.4094 199.002 59.6806 201.852 57.665C204.155 56.041 207.046 56.5705 208.922 54.0272C209.901 53.7696 210.638 53.7574 211.744 53.7381Z" fill="#392A26"/>
</svg>
