<svg width="25" height="24" viewBox="0 0 25 24" fill="none" xmlns="http://www.w3.org/2000/svg">
<path d="M9.04142 11.065C9.04142 11.2837 8.03921 11.2181 8.19592 11.4222C9.04506 12.4681 9.88691 13.5978 10.8818 14.5855C10.8818 14.017 10.8126 12.7196 10.8126 11.8996C10.8126 11.178 11.5488 11.127 11.5488 11.065C11.5488 10.8755 10.7798 11.0431 10.7798 10.6058C10.7798 9.97898 10.5502 9.00593 11.024 9.00593H11.8111C12.1537 9.00593 12.0663 9.84049 12.0663 10.1248C12.0663 11.1634 12.981 10.7443 12.981 11.0103C12.981 11.3128 12.0553 10.8828 12.0553 11.6299C12.0553 12.2494 12.0553 12.9491 12.0553 13.6161C12.0553 14.6183 12.1865 15.7772 11.6799 15.8027C10.6158 15.8537 10.1785 15.9631 9.763 15.4528C9.05235 14.5673 7.48162 12.8289 6.43568 11.4914C6.002 10.9338 5.32779 10.2778 5.28406 10.5839C5.20753 11.116 5.2549 12.0526 5.2549 12.5446C5.2549 13.0038 5.28406 13.3464 5.28406 13.6197C5.28406 14.5673 6.41017 14.1482 6.41017 14.4397C6.41017 14.6146 5.46263 14.3486 5.46263 14.8333C5.46263 14.9317 5.44077 15.041 5.44077 15.1795C5.44077 15.4528 5.43712 15.759 4.97793 15.759C4.51874 15.759 3.75706 15.8501 3.75706 15.42C3.75706 15.1722 3.78986 14.9791 3.78986 14.713C3.78986 14.4142 4.63172 14.4105 4.81758 14.4105C4.95971 14.4105 3.75342 14.2028 3.75342 13.4411C3.75342 12.5811 3.768 12.2276 3.80444 11.5898C3.82631 11.1853 4.16159 11.3055 4.61714 11.229C3.48009 11.229 3.78257 10.2232 3.78257 9.58539C3.78257 9.01686 4.32923 9.00228 4.93055 9.00228C5.93276 9.00228 6.28991 9.27197 6.93132 9.91338C8.4656 11.4477 9.03048 10.7662 9.03048 11.0614L9.04142 11.065Z" fill="#0F1410"/>
<path d="M21.7239 12.3369C21.7312 11.9178 21.5781 11.7356 21.1444 11.7392C20.0219 11.7538 18.9031 11.7611 17.7806 11.7392C17.2777 11.7283 17.1757 11.9579 17.172 12.3988C17.1647 12.8763 17.4162 12.9491 17.7989 12.9382C18.3455 12.9273 18.8885 12.9382 19.4352 12.9382C19.8835 12.9382 20.339 12.8325 20.3281 13.5796C20.3171 14.2939 20.0001 14.4616 19.3769 14.4178C18.8958 14.385 18.4075 14.4178 17.9228 14.4105C15.6851 14.3777 15.4009 14.826 15.3608 12.5118C15.3608 12.1146 15.3936 11.7465 15.5029 11.5096C15.6815 11.127 16.4614 11.4622 16.4614 11.178C16.4614 10.9411 15.594 11.342 15.5977 10.7953C15.5977 10.7625 15.6159 10.7261 15.6305 10.6969C15.8345 10.4819 16.1662 10.3981 16.691 10.3908C18.1451 10.3762 19.5992 10.3689 21.0533 10.3908C21.5744 10.3981 21.7384 10.2122 21.7312 9.70565C21.7239 9.23188 21.6437 8.97313 21.0861 9.00228C20.2698 9.04237 19.4498 9.01322 18.6334 9.01322V9.02051C17.7843 9.02051 16.9351 8.98406 16.0897 9.0278C14.8506 9.08975 14.1618 9.64005 13.9723 10.7079H13.9796C13.9176 11.0358 14.2565 11.0686 14.8251 11.1816C14.4096 11.3019 14.2164 11.331 14.0597 11.6262C13.914 11.8923 13.8848 12.213 13.8884 12.5082H13.8921C13.8884 12.8836 13.8884 13.2589 13.8957 13.6379C13.9322 14.9426 14.5918 15.6751 15.9038 15.7371C17.4454 15.81 18.9942 15.7808 20.5394 15.7845C21.3193 15.7845 21.7129 15.3472 21.7384 14.6037C21.764 13.8493 21.7166 13.0913 21.7275 12.3369H21.7239Z" fill="#0F1410"/>
</svg>
