<svg width="261" height="522" viewBox="0 0 261 522" fill="none" xmlns="http://www.w3.org/2000/svg">
<path d="M231.367 108.958C233.397 109.147 234.679 110.097 235.034 112.08C236.409 119.743 240.189 126.412 241.25 134.303C241.855 138.81 243.807 143.256 245.819 147.267C248.52 152.65 249.605 158.401 250.108 164.426C250.411 168.047 250.983 171.69 252.562 174.717C255.705 180.74 255.403 187.03 254.765 193.607C253.961 201.901 253.821 210.27 256.507 218.196C258.773 224.88 257.985 231.24 255.869 237.614C255.572 238.507 255.015 239.177 255.592 240.267C260.679 249.865 260.391 260.924 260.073 271.312C259.715 283.016 258.22 294.995 252.732 305.482C252.014 306.854 251.633 308.468 251.005 310.307C250.914 310.643 250.915 310.643 250.915 310.643C249.502 313.494 248.613 316.766 245.875 318.801C243.632 318.314 244.278 316.648 244.431 315.288C245.417 306.514 247.996 298.191 249.707 289.622C252.132 277.474 250.919 278.963 243.106 277.525C242.404 277.395 241.832 276.935 240.967 276.4C240.238 271.334 242.299 267.208 243.368 262.842C247.126 247.486 250.582 231.969 249.403 215.894C248.743 206.879 246.748 197.973 246.653 188.833C246.506 174.704 241.658 161.978 238.237 148.804C235.778 139.334 232.282 130.244 230.801 120.406C230.44 118.008 231.243 115.5 229.961 112.81C229.536 110.975 230.049 109.936 231.367 108.958Z" fill="#060808"/>
<path d="M228.66 108.252C225.485 103.039 224.962 97.0243 222.662 91.8876C222.08 90.5895 222.096 88.8381 223.623 88.2201C225.113 87.6171 225.923 88.9482 226.415 90.3444C228.359 95.8561 229.173 101.851 231.674 107.504C230.948 108.81 230.133 109.757 228.66 108.252Z" fill="#060808"/>
<path d="M228.173 108.03C229.313 107.84 230.202 107.84 231.425 107.841C231.758 107.842 231.758 108.326 231.758 108.568C231.756 109.857 231.755 110.905 231.754 112.345C230.884 115.56 229.688 117.811 226.276 116.722C223.714 115.432 223.059 113.078 222.65 110.151C224.471 109.726 226.309 109.498 228.173 108.03Z" fill="#070604"/>
<path d="M216.175 92.0039C214.134 90.2762 213.533 87.8109 213.455 84.7057C215.169 83.0972 216.897 82.6628 218.029 85.1553C219.263 87.8729 218.596 90.1641 216.175 92.0039Z" fill="#070604"/>
<path d="M221.18 105.736C219.135 103.61 218.775 100.737 218.463 97.4477C220.576 96.3378 221.787 97.6476 222.497 99.7841C223.217 101.949 223.606 104.124 221.18 105.736Z" fill="#070604"/>
<path d="M230.298 252.611C230.176 251.38 230.092 249.88 230.361 248.473C233.403 232.538 232.011 216.228 233.306 200.14C233.837 193.539 232.63 186.886 231.857 180.297C231.584 177.97 230.952 175.857 228.692 174.608C227.98 174.568 227.578 174.453 227.085 173.766C225.188 159.688 221.322 146.6 217.916 133.376C216.588 128.218 214.422 123.507 212.091 118.825C209.589 113.8 207.51 108.466 205.14 103.322C202.658 97.9324 200.496 92.4729 197.546 87.2673C194.219 81.3949 190.505 75.5914 187.907 69.0974C186.004 64.3375 183.268 60.756 178.929 58.8139C175.528 57.2916 173.27 54.5156 172.885 49.7692C172.48 44.7702 169.026 42.4494 165.462 41.6707C156.331 39.6753 149.263 33.4769 142.293 26.9957C139.576 24.469 136.416 22.8143 134.367 20.5126C136.263 22.2185 138.987 23.8819 141.295 26.1516C150.869 35.5666 160.001 45.5417 168.301 56.5361C170.338 59.2354 171.919 62.3206 173.652 65.2609C175.583 68.5384 174.601 70.652 170.971 71.1635C170.262 71.1183 169.851 71.1165 169.115 71.1289C166.564 70.1982 168.203 66.6795 165.906 65.4243C160.498 59.879 155.768 54.1057 152.604 46.4692C152.025 44.2298 151.055 42.6382 149.579 41.5997C141.498 35.9144 134.357 28.4096 125.424 24.3603C124.276 23.84 123.178 23.0344 122.206 22.1374C120.207 20.2918 120.24 18.2334 122.319 16.5558C123.941 15.2473 125.707 14.2213 125.943 11.201C128.882 12.4084 131.768 13.986 134.67 15.5206C136.57 16.5251 138.422 19.5674 140.338 15.1888C140.991 13.696 142.63 14.9384 143.653 15.7398C148.654 19.6575 154.165 22.2177 159.785 24.6124C164.128 26.4631 167.72 30.2398 170.946 33.7503C175.816 39.0492 181.426 43.2938 185.411 50.1483C188.826 56.0234 192.991 61.6101 196.442 67.5602C200.399 74.3816 204.857 81.0305 208.023 88.1735C210.128 92.9223 211.54 98.8939 212.913 104.43C214.011 108.856 217.008 111.791 218.42 115.809C222.378 127.072 225.627 138.616 227.349 150.68C228.164 156.386 230.848 161.275 232.322 166.717C233.695 171.789 234.062 176.878 234.478 182.072C235.554 195.507 236.145 209.069 238.216 222.302C240.104 234.368 235.814 243.345 230.298 252.611Z" fill="#0A0A09"/>
<path d="M232.792 294.379C233.097 291.932 233.603 289.877 234.188 287.477C237.21 283.763 238.051 279.223 239.003 274.833C241.74 262.219 244.877 249.709 246.766 236.863C247.924 228.985 248.427 221.005 247.084 213.091C244.132 195.691 241.658 178.131 237.784 161.013C234.993 148.68 233.132 135.841 227.671 124.436C226.689 122.385 226.554 119.771 225.978 117.036C227.425 114.897 229.302 113.898 231.487 112.859C234.536 132.127 241.236 150.165 246.258 168.742C248.79 178.109 248.541 187.232 249.173 196.505C249.484 201.067 249.256 205.64 251.374 209.764C252.037 211.055 251.965 212.535 251.935 214.037C251.518 234.918 247.699 255.009 241.81 275.007C244.115 277.396 243.126 280.071 242.546 282.451C241.519 286.669 239.946 290.655 237.793 294.744C235.991 294.885 234.45 295.925 232.792 294.379Z" fill="#030303"/>
<path d="M244.356 326.972C242.44 330.73 240.631 334.169 238.624 337.844C237.321 339.357 236.183 340.042 234.696 337.955C232.87 335.318 234.786 333.768 235.438 331.576C236.173 329.774 237.525 329.21 238.443 327.659C239.456 325.113 240.147 322.758 242.022 320.83C243.368 319.696 243.652 317.631 245.626 317.509C247.456 315.369 248.987 313.227 250.717 310.863C250.044 316.692 246.288 321.134 244.356 326.972Z" fill="#030303"/>
<path d="M245.973 317.118C245.229 318.687 244.534 319.862 243.638 321.238C240.159 322.151 239.629 319.756 239.962 316.868C240.216 314.661 241.079 312.586 241.548 310.44C238.6 311.499 237.435 309.811 237.177 306.505C236.919 303.201 237.06 299.647 233.882 297.331C233.879 295.219 235.042 294.38 236.436 293.229C238.455 287.4 240.843 282.079 241.679 275.741C243.876 274.254 245.732 270.746 248.357 274.717C249.304 276.148 250.431 271.493 251.596 274.238C252.826 277.138 253.52 280.317 253.045 283.688C252.253 289.309 251.184 294.861 249.58 300.224C247.968 305.614 246.649 311.057 245.973 317.118Z" fill="#0A0A09"/>
<path d="M105.722 46.0959C112.774 50.7565 119.159 56.0763 125.766 61.5956C146.752 84.7905 164.402 110.513 174.945 142.033C177.18 148.716 179.521 155.613 180.352 162.942C180.566 164.825 181.272 166.709 182.038 168.415C185.478 176.072 186.253 184.496 187.288 192.85C187.531 194.808 186.801 196.33 185.318 197.759C183.294 199.421 182.538 198.15 182.061 196.309C181.351 193.568 179.804 191.537 177.866 189.367C176.93 187.241 176.762 185.245 175.528 183.468C174.249 181.627 174.028 178.398 175.185 176.54C176.924 173.747 176.542 171.139 176.152 168.284C176.407 169.786 176.512 171.318 176.484 173.161C171.998 175.473 172.067 175.43 170.462 170.131C170.145 169.083 170.267 167.386 168.54 167.025C167.662 167.073 167.087 167.173 166.276 167.581C162.795 167.239 162.795 167.239 162.232 162.411C161.485 163.636 160.89 164.935 159.448 164.658C158.182 164.415 157.741 163.316 157.392 162.085C157.217 161.465 157.323 162.232 157.332 161.609C157.477 151.742 152.951 143.497 150.507 134.203C150.339 133.494 150.205 133.106 149.935 132.427C149.81 131.906 149.795 131.688 149.811 131.156C150.743 128.648 148.787 128.238 147.937 126.717C138.87 112.092 128.282 99.6588 117.061 87.9161C114.472 85.2061 111.874 82.4907 109.423 79.6134C105.927 75.509 102.071 72.4722 96.6299 72.1539C96.1309 71.7603 95.9364 71.6042 95.457 71.2217C93.8053 69.6885 92.0575 68.7457 91.9749 66.2296C91.9587 65.7356 91.7122 65.1874 91.3814 64.9827C86.243 61.8035 83.2875 54.5434 76.6832 54.0859C76.3119 54.0602 75.9957 53.5676 75.4803 52.96C75.0285 52.2951 74.7865 51.9068 74.3645 51.2436C73.0148 49.51 72.2799 47.5577 70.3467 46.5588C69.5067 46.5008 70.1607 46.2121 69.6577 46.4262C59.6437 50.6878 54.3308 41.8699 48.0605 35.7181C44.8816 32.5992 41.8723 29.053 36.9972 29.4757C32.5888 25.129 28.5892 20.8412 24.799 16.2267C23.5703 14.7307 22.4857 13.3759 23.1749 11.7746C24.0103 9.8334 25.8367 9.24105 27.7669 10.1323C29.3135 10.8464 30.8905 11.4698 32.4368 12.187C34.9321 13.3443 37.163 13.2886 39.3929 11.0888C41.9709 8.54554 44.7878 8.82252 47.2765 11.4357C50.1176 14.4189 53.4543 16.3567 57.4711 18.4441C61.2777 19.8332 64.2825 21.2358 66.3926 24.6081C67.7072 26.7088 69.9202 27.2748 71.9604 27.3858C79.703 27.8069 86.2849 31.9937 92.851 36.1356C95.0932 37.5499 96.6045 40.2355 98.5301 42.2463C100.551 44.3567 102.754 45.7519 105.722 46.0959Z" fill="#121413"/>
<path d="M166.779 164.125C169.443 164.085 171.047 165.825 171.949 168.609C172.56 170.495 173.543 171.965 175.64 172.454C177.928 175.539 177.008 179.17 177.375 182.501C178.758 195.037 180.652 207.484 181.983 220.03C182.325 223.25 181.681 226.529 182.458 229.016C182.014 215.897 179.775 202.374 178.319 188.498C181.59 190.385 183.462 193.643 184.959 197.683C191.268 212.666 187.436 227.807 186.272 242.721C185.425 253.578 185.096 264.436 185.138 275.365C186.259 261.643 187.38 247.921 188.51 233.762C190.316 234.659 191.179 236.601 191.094 239.07C190.359 260.444 190.862 281.939 186.427 302.951C185.867 305.602 186.09 308.469 185.677 311.179C185.306 313.615 184.756 316.107 181.684 315.164C179.561 314.513 179.49 316.645 179.378 318.18C178.968 323.758 177.131 328.901 176.001 334.257C175.508 336.596 174.85 338.762 171.899 337.98C171.244 337.704 170.92 337.401 170.748 336.677C170.924 335.292 170.196 334.182 171.124 332.809C171.281 331.288 171.502 330.2 172.032 328.843C174.828 325.749 174.952 321.717 175.405 318.236C176.392 310.651 177.224 303.015 177.35 295.263C177.421 290.854 177.9 286.397 178.044 281.928C178.768 259.495 176.436 237.399 173.611 215.279C172.341 205.336 171.387 195.354 169.616 185.491C168.795 180.914 167.406 176.506 166.935 171.822C166.69 169.389 166.415 167 166.779 164.125Z" fill="#1B1A17"/>
<path d="M196.4 174.606C194.959 164.775 190.807 156.75 187.254 148.546C177.318 125.603 166.057 103.599 152.015 83.7155C151.669 83.2255 151.479 82.5831 151.107 81.7047C150.948 80.8817 150.941 80.365 151.151 79.5212C153.129 77.2538 154.072 79.4086 155.098 80.4352C159.123 84.4669 162.612 89.1451 165.734 94.1164C177.933 113.546 189.213 133.638 196.967 156.174C197.701 158.306 198.757 160.213 200.072 162.43C199.017 165.501 199.584 167.635 200.878 170.276C204.765 178.214 206.067 187.237 207.945 196.017C208.993 200.918 210.106 205.819 211.425 210.64C212.301 213.843 215.402 215.679 215.393 219.912C216.032 229.741 216.713 239.107 216.564 248.526C216.524 251.057 215.171 253.375 215.942 256.416C217.031 259.997 216.243 263.209 216.433 266.82C216.61 268.758 217.154 270.129 217.495 272.022C217.564 272.767 217.569 273.071 217.497 273.824C216.539 277.712 216.072 281.359 213.434 284.203C210.403 283.258 211.181 280.391 211.433 278.652C212.89 268.585 210.853 258.734 210.118 248.872C209.557 241.341 208.966 233.719 207.63 226.229C205.377 213.597 203.137 200.979 199.924 188.618C198.755 184.124 197.913 179.513 196.4 174.606Z" fill="#382B20"/>
<path d="M215.228 267.971C214.81 264.33 214.735 260.966 214.655 257.205C215.589 255.334 215.714 253.53 215.838 251.836C217.003 235.848 222.436 220.619 221.439 204.194C220.49 188.569 219.859 172.947 216.774 157.623C216.229 154.915 214.781 152.064 216.91 148.935C220.167 148.108 222.671 149.99 223.454 154.359C224.311 159.144 225.683 163.783 226.308 169.101C226.923 174.525 227.851 179.454 227.011 184.869C226.771 186.279 226.77 187.33 226.771 188.776C227.817 190.423 227.657 191.864 227.01 193.692C226.907 202.926 228.581 211.8 226.849 221.101C229.261 224.232 227.801 227.66 227.251 230.313C224.783 242.228 221.604 253.933 219.603 265.997C219.169 268.614 218.125 270.507 215.228 267.971Z" fill="#060808"/>
<path d="M196.2 174.443C198.004 175.735 198.759 178.025 199.39 180.357C205.954 204.607 211.463 229.036 212.088 254.775C212.311 263.988 211.939 273.31 213.377 282.854C214.724 281.723 216.201 280.407 217.712 282.125C219.742 284.435 218.273 286.853 217.007 289.592C214.814 291.886 212.896 293.759 210.894 295.499C210.252 296.059 209.346 296.546 208.552 296C207.505 295.28 207.775 293.991 208.025 292.914C208.903 289.14 209.605 285.35 210.157 281.471C211.871 269.402 209.059 257.886 207.906 246.105C206.235 229.026 203.508 212.257 200.019 195.616C198.89 190.234 197.575 184.906 196.311 179.564C195.935 177.975 195.536 176.417 196.2 174.443Z" fill="#121413"/>
<path d="M216.981 289.857C217.06 287.171 217.852 284.003 213.816 283.269C213.868 280.196 214.202 277.174 214.617 273.795C215.074 273.306 215.285 273.011 215.186 272.279C214.978 270.805 214.914 269.603 214.866 268.048C216.206 266.99 217.242 265.941 217.519 264.194C219.347 252.655 223.491 241.902 225.754 230.517C226.285 227.845 226.429 225.067 226.762 221.92C229.652 223.027 229.209 225.866 228.722 228.62C227.54 235.306 226.316 241.982 225.039 248.644C224.542 251.232 224.035 253.822 225.393 256.192C228.11 260.932 226.71 265.161 224.306 269.225C223.518 270.558 222.409 271.617 222.625 273.472C223.395 280.06 220.559 284.977 216.981 289.857Z" fill="#0E0F0F"/>
<path d="M210.43 334.204C206.601 336.116 204.359 339.88 201.184 342.831C200.511 343.341 200.145 343.236 199.968 342.344C203.584 337.579 207.098 333.185 210.781 328.532C217.736 321.888 222.79 313.854 227.031 305.028C228.727 301.498 230.527 298.037 232.436 294.266C233.777 293.693 234.962 293.4 236.447 293.049C236.274 294.117 235.802 295.242 235.211 296.648C235.305 297.347 235.648 297.732 235.726 298.177C235.943 299.412 231.041 313.717 230.073 314.256C228.759 314.988 227.376 315.893 226.836 317.284C224.122 324.287 217.879 327.062 213.922 332.547C213.173 333.586 212.254 334.845 210.43 334.204Z" fill="#060808"/>
<path d="M152.085 80.2723C151.673 80.7311 151.486 80.9293 151.145 81.2578C144.035 75.838 138.668 68.1659 132.289 61.8347C131.138 60.6925 130.057 59.4522 128.724 58.0615C125.218 53.0627 119.823 51.22 115.574 45.6398C123.674 45.8787 127.205 52.7436 132.436 56.7325C133.787 56.5018 134.751 56.7492 135.701 57.6429C141.823 63.4027 147.307 69.904 152.181 77.1196C152.782 78.0097 153.402 78.9824 152.085 80.2723Z" fill="#171714"/>
<path d="M226.97 184.957C226.229 180.273 225.69 175.321 225.117 169.96C227.861 167.288 226.837 171.413 228.194 172.214C228.426 172.938 228.427 173.372 228.429 174.132C228.172 177.895 229.139 181.541 226.97 184.957Z" fill="#0E0F0F"/>
<path d="M226.948 193.832C226.77 192.685 226.769 191.333 226.769 189.575C228.035 190.529 228.412 191.986 226.948 193.832Z" fill="#0E0F0F"/>
<path d="M152.06 80.7234C146.396 71.8925 139.207 65.2175 132.827 57.184C135.904 52.1335 138.571 56.696 141.311 57.8709C142.612 58.4287 143.503 60.2709 144.614 61.4884C146.01 63.0198 147.66 63.6538 148.897 61.5686C151.428 57.3016 153.262 59.7149 154.944 62.3175C156.963 65.4401 159.159 67.954 163.139 67.6541C165.573 67.3295 167.779 65.809 169.873 68.5559C170.316 68.8939 170.494 69.1095 170.809 69.4847C171.088 69.8162 171.232 69.9873 171.6 70.4085C172.009 70.7659 172.195 70.8732 172.659 71.1528C173.052 71.5356 173.165 71.7462 173.287 72.3267C172.992 76.3166 174.729 78.3257 177.572 79.8347C184.027 88.8363 188.853 98.7964 193.838 108.52C200.836 122.172 205.819 137.047 207.768 152.977C208.446 158.52 207.596 164.106 203.368 168.538C201.537 169.795 200.629 169.683 199.618 167.532C198.972 166.158 198.564 164.38 197.098 163.01C187.978 136.19 175.275 112.395 160.06 90.3937C157.711 86.9977 154.876 84.0674 152.06 80.7234Z" fill="#121413"/>
<path d="M170.784 70.8457C170.95 70.592 170.945 70.1183 170.945 69.8818C172.699 67.7105 171.465 66.1643 170.492 64.5474C163.716 53.2997 155.341 43.8226 146.501 34.9105C141.38 29.7472 136.731 23.7585 130.199 20.8115C129.427 20.4632 128.528 19.8032 128.781 18.6884C129.143 17.096 130.319 17.6916 131.235 17.8834C138.083 19.3172 143.221 24.4519 148.488 29.1817C153.523 33.7037 158.879 37.274 165.158 38.6434C168.399 39.3504 171.004 41.5367 173.738 43.4474C175.397 44.6065 175.83 46.4212 175.589 48.5005C175.085 52.8539 176.944 55.4481 180.245 56.5248C184.813 58.0149 187.255 61.8398 189.408 66.4273C193.199 74.506 197.447 82.2764 202.347 89.4965C203.986 91.9104 204.29 94.8671 205.421 97.4583C209.575 106.983 214.165 116.285 217.781 126.085C223.153 140.642 226.169 156.077 228.352 172.121C227.455 171.636 226.486 170.768 225.3 169.727C224.063 165.52 223.09 161.47 222.007 157.462C221.257 154.687 220.517 151.848 217.865 150.137C215.118 150.861 214.833 148.908 214.742 146.812C214.615 143.874 214.361 140.974 213.699 138.118C212.909 134.709 211.977 131.537 208.604 130.519C207.244 130.109 206.886 128.683 206.362 127.296C201.255 113.777 196.715 99.8679 188.01 88.7222C186.824 87.2025 186.544 85.2786 185.907 83.4936C184.278 78.9244 181.996 75.1964 176.871 75.2805C175.925 75.3583 175.287 75.2714 174.326 75.3536C172.745 75.2663 172.331 73.8221 171.2 72.8548C170.959 72.5702 170.956 72.0859 170.956 71.8437C170.843 71.4342 170.731 71.2667 170.784 70.8457Z" fill="#0A0C0C"/>
<path d="M169.988 68.4102C168.075 68.3828 166.014 68.0892 163.713 67.7293C164.668 66.7548 165.875 65.8635 166.675 64.0244C167.813 65.2137 168.826 66.6788 169.988 68.4102Z" fill="#0A0C0C"/>
<path d="M210.157 334.546C211.579 331.744 213.34 329.655 215.431 328.027C219.092 325.176 221.975 321.563 223.996 316.955C224.882 314.936 225.889 312.98 227.891 312.086C228.463 311.83 229.243 311.079 229.284 310.493C229.647 305.262 233.048 301.876 234.957 297.223C238.038 297.427 239.288 299.606 239.478 302.928C239.557 304.293 238.84 306.192 240.279 306.84C241.672 307.467 241.899 304.865 243.484 304.567C244.412 307.932 243.363 311.145 242.84 314.321C242.466 316.592 241.98 318.748 243.296 321.151C242.408 323.527 241.381 325.615 240.221 327.991C239.185 329.478 238.489 329.537 237.71 328.001C236.659 325.927 235.239 324.116 234.609 321.941C234.958 325.175 238.688 326.753 237.805 330.984C237.142 332.668 236.676 334.107 236.068 335.832C231.593 344.333 227.596 352.816 221.937 360.367C219.368 355.547 218.258 350.123 218.711 344.349C218.989 340.802 219.541 337.285 219.891 333.744C220.025 332.39 220.922 330.348 219.507 329.83C217.837 329.22 217.448 331.561 216.933 332.936C215.483 336.8 214.187 340.745 211.15 343.828C210.693 341.015 210.45 337.98 210.157 334.546Z" fill="#0A0C0C"/>
<path d="M237.835 331.082C236.247 326.035 232.204 322.32 231.548 316.174C235.681 319.148 236.135 324.987 239.854 328.1C239.636 329.4 239.011 330.34 237.835 331.082Z" fill="#060808"/>
<path d="M185.144 361.848C185.835 361.444 186.573 359.98 187.122 361.305C187.373 361.91 186.189 362.214 185.334 362.517C185.115 362.575 185.134 362.09 185.144 361.848Z" fill="#0A0C0C"/>
<path d="M203.645 356.508C203.697 355.166 204.251 353.856 205.715 352.912C205.52 354.161 204.841 355.363 203.645 356.508Z" fill="#060808"/>
<path d="M206.081 352.607C206.147 351.953 206.356 351.119 206.674 349.977C206.977 350.695 206.852 351.631 206.081 352.607Z" fill="#060808"/>
<path d="M208.538 347.715C208.807 347.327 209.292 346.781 209.988 346.072C209.718 346.458 209.236 347.007 208.538 347.715Z" fill="#0A0C0C"/>
<path d="M57.1017 22.8586C53.589 18.1814 48.4054 17.0939 44.8904 13.0228C43.6105 11.5405 41.8858 12.3668 40.9858 14.1131C39.0612 17.8476 36.5556 17.2765 33.7876 15.8254C31.8905 14.8309 29.9576 13.9253 28.0156 13.0578C27.2531 12.7172 26.2911 12.3129 25.7162 13.2874C25.0992 14.3329 25.9016 15.1289 26.4819 15.7844C29.6752 19.3904 32.5538 23.4166 36.6306 26.3419C39.1404 28.4955 42.1901 29.5013 42.9093 33.7354C42.3347 35.511 41.0328 35.057 39.9262 35.9799C39.3363 36.2332 39.0865 36.2812 38.4773 36.1877C32.6987 29.5925 26.5698 23.9783 21.6324 16.9715C20.6551 15.5847 18.5133 14.3148 20.0799 11.2936C19.9054 8.06785 18.8605 5.62745 17.4561 3.35179C16.9739 2.57024 16.447 1.63261 17.023 0.667714C17.6084 -0.312847 18.5297 -0.0154739 19.2976 0.320948C21.8713 1.44867 24.9118 1.59045 26.8763 4.03839C29.4551 7.25185 32.0859 6.64383 34.7099 4.69556C38.4827 1.89422 42.0514 1.05987 45.7147 4.86778C46.2796 5.45511 47.4358 6.08633 47.9418 5.7941C54.0413 2.27202 58.1999 7.58181 62.7618 10.4022C65.592 12.1519 68.2927 14.088 71.4566 14.8113C78.0976 16.3294 82.9149 21.4976 87.1824 26.9042C92.1351 33.1789 97.9249 38.0547 103.556 43.261C104.312 43.9597 104.956 44.825 105.828 45.866C102.773 49.7533 100.046 48.4038 97.5877 44.8929C90.1835 34.3196 79.9431 31.2958 69.0488 30.3209C66.8838 30.1271 65.8056 29.0347 64.7873 27.2197C63.401 24.7486 62.0107 22.2609 58.7709 22.5613C58.2208 23.039 57.8304 23.2064 57.1017 22.8586Z" fill="#0E0F0F"/>
<path d="M20.0057 10.7107C23.0239 17.3691 27.54 22.1032 32.0674 26.7956C34.2307 29.0378 36.4256 31.2168 38.3438 34.198C38.3133 37.0116 37.0785 36.5098 35.4248 35.5783C29.8376 29.4753 24.6198 23.5588 19.639 16.9197C17.5795 13.9709 15.7373 11.2203 13.7373 8.20012C14.2512 6.41414 15.1801 6.36164 16.5844 7.59837C17.8573 8.79265 18.8243 9.66307 20.0057 10.7107Z" fill="#1E1C19"/>
<path d="M65.6159 521.273C65.6048 521.259 65.6271 521.288 65.6159 521.273Z" fill="#141513"/>
<path d="M65.6022 463.488C65.6136 463.503 65.5907 463.473 65.6022 463.488Z" fill="#101110"/>
<path d="M171.927 336.023C171.728 336.67 171.701 337.023 171.654 337.637C170.877 340.106 170.119 342.314 169.36 344.521C171.114 316.771 174.317 289.155 171.045 260.899C171.998 258.105 171.091 255.759 170.837 253.496C168.984 236.937 167.01 220.394 162.035 204.606C161.565 203.113 161.439 201.523 161.539 199.564C163.831 197.709 165.337 198.613 166.098 201.119C167.826 206.803 170.78 211.847 172.256 217.646C172.767 219.652 174.639 220.507 175.092 222.996C178.451 243.463 179.088 263.691 178.253 283.98C177.639 298.914 176.966 313.883 173.645 328.438C173.436 329.353 173.956 329.928 174.044 331.083C173.896 331.935 173.512 332.387 172.977 333.002C171.945 333.767 172.339 334.872 171.927 336.023Z" fill="#2C241C"/>
<path d="M163.027 199.702C162.529 203.23 163.108 206.411 164.116 209.446C168.976 224.09 170.055 239.585 171.573 254.977C171.727 256.543 171.38 258.177 171.156 260.121C170.388 254.925 169.729 249.389 169.004 243.504C165.947 221.298 162.058 199.854 150.978 181.183C139.775 162.305 128.197 143.78 115.713 126.04C112.362 121.278 108.609 116.855 105.997 110.998C107.36 107.859 108.838 108.216 110.437 110.57C113.941 115.729 118.691 119.735 120.687 126.325C120.966 127.245 122.136 128.304 123.45 129.089C129.032 136.387 133.742 144.049 138.622 151.537C143.861 159.579 149.676 167.202 153.417 176.46C154.018 177.947 154.655 177.834 155.477 177.492C156.438 177.092 157.299 176.678 158.335 178.025C160.367 182.996 162.045 187.719 163.675 192.453C164.438 194.672 165.564 197.293 163.027 199.702Z" fill="#473224"/>
<path d="M158.456 268.875C158.353 268.632 158.332 268.397 158.312 268.161C158.422 268.169 158.532 268.177 158.643 268.185C158.608 268.417 158.573 268.65 158.456 268.875Z" fill="#0C0E0D"/>
<path d="M157.716 250.272C157.722 250.403 157.693 250.496 157.664 250.59C157.601 250.526 157.538 250.461 157.474 250.397C157.543 250.342 157.612 250.288 157.716 250.272Z" fill="#0C0E0D"/>
<path d="M162.904 200.173C162.38 192.986 158.929 187.358 156.891 180.774C152.51 176.024 150.044 170.302 148.313 163.638C150.112 155.596 145.571 150.411 142.939 144.165C142.707 143.726 142.608 143.56 142.375 143.145C142.135 142.752 142.028 142.61 141.609 142.059C141.187 141.532 141.077 141.412 140.658 140.926C140.247 140.442 140.145 140.323 139.899 140.021C139.652 139.724 139.549 139.611 139.299 139.321C139.063 139.017 138.974 138.89 138.741 138.586C138.395 138.183 138.185 137.97 137.787 137.646C137.383 137.337 137.168 137.134 136.834 136.732C136.703 136.548 136.474 136.153 136.358 135.959C136.242 135.765 135.96 135.431 135.686 135.094C135.411 134.757 135.108 134.465 134.961 134.314C134.814 134.163 134.489 133.909 134.365 133.732C134.241 133.555 133.861 133.37 133.761 133.138C133.51 132.845 133.358 132.784 133.127 132.433C125.508 124.68 119.951 115.222 114.124 106.042C110.129 99.747 105.122 94.8542 99.4869 90.7119C97.3048 89.108 95.2658 87.2718 93.489 84.8982C91.7412 82.563 89.1911 81.0989 86.4985 79.4162C85.9219 76.557 84.6991 74.8925 82.6756 73.5056C76.3347 69.1595 69.759 65.2425 63.6282 59.7297C60.6576 57.8963 60.2215 54.2042 58.1036 51.869C53.1934 46.4549 47.6314 41.9202 43.0109 36.1375C42.5216 35.5253 42.1414 34.8973 41.9304 33.7368C40.3588 31.2497 38.7795 29.141 37.0318 26.7766C42.0802 29.3094 47.9534 30.0265 51.8172 36.5748C53.9083 40.1187 58.7809 41.3189 61.864 44.5823C62.5392 45.297 63.4816 45.1082 64.1321 44.3428C65.7337 42.4584 67.6777 42.9335 69.9019 43.1385C73.3578 43.1016 74.1992 46.2659 75.838 48.8937C76.1535 49.4222 76.3021 49.6057 76.5727 49.9151C82.4405 57.2784 89.4946 62.5452 96.593 68.3787C96.8264 68.6606 96.8356 68.6589 96.8364 68.6637C103.806 73.124 109.367 79.6741 115.246 85.7562C124.28 95.1022 132.829 105.038 140.667 115.758C143.153 119.157 145.771 122.47 148.264 126.354C149.764 127.98 151.038 129.349 152.419 131.112C152.634 131.374 152.638 131.347 152.628 131.354C152.995 131.73 153.177 132.204 152.901 133.046C153.732 137.313 154.85 141.276 157.135 144.657C159.075 147.528 158.494 151.155 158.897 154.473C159.138 156.457 158.755 158.583 159.722 160.45C161.682 159.396 160.064 155.246 162.596 155.818C164.868 156.332 164.553 159.315 164.516 161.589C164.495 162.932 164.78 164.152 165.737 165.427C168.723 170.468 168.966 176.214 169.84 181.606C172.009 194.992 173.809 208.467 174.541 222.297C170.408 219.077 168.822 213.842 166.589 209.148C165.258 206.349 164.245 203.339 162.904 200.173Z" fill="#1B1A17"/>
<path d="M174.266 222.935C172.082 203.713 170.179 184.84 166.008 166.04C166.157 165.096 166.39 164.516 166.751 163.813C171.448 182.238 173.148 201.388 175.761 220.368C180.207 252.663 180.557 284.912 176.753 317.26C176.223 321.768 175.176 326.192 174.324 331.07C172.213 329.352 173.035 326.76 173.42 324.215C177.387 298.003 178.571 271.614 176.759 245.078C176.262 237.799 175.149 230.578 174.266 222.935Z" fill="#0A0A09"/>
<path d="M148.751 127.605C144.664 124.072 141.751 119.704 138.686 115.5C126.927 99.3664 113.411 85.4184 99.5145 71.9423C98.6654 71.1189 97.9388 70.1207 96.9951 68.9372C100.757 69.6809 104.045 72.2454 106.948 75.2365C122.084 90.827 137.115 106.563 149.181 126.143C149.613 126.954 149.525 127.392 148.751 127.605Z" fill="#0A0C0C"/>
<path d="M178.521 187.8C181.03 204.082 182.833 220.023 182.85 236.209C181.8 215.06 177.443 194.433 175.964 172.94C175.53 169.413 175.133 166.297 174.736 163.181C178.016 170.868 177.463 179.273 178.521 187.8Z" fill="#0A0A09"/>
<path d="M96.7012 68.3691C89.148 64.2703 81.9039 59.2172 76.8241 50.3507C83.5683 55.6752 90.3432 61.4628 96.7012 68.3691Z" fill="#0A0C0C"/>
<path d="M168.352 150.645C165.66 149.494 163.447 147.062 161.136 144.813C160.424 144.12 159.514 142.971 160.251 141.933C161.131 140.695 162.002 142.012 162.623 142.727C164.667 145.081 166.973 147.181 168.352 150.645Z" fill="#0A0A09"/>
<path d="M75.9492 48.8789C74.2189 47.3414 72.4297 45.4499 70.4254 43.361C74.3079 41.7187 74.7026 45.7032 75.9492 48.8789Z" fill="#0A0C0C"/>
<path d="M148.597 127.735C148.633 127.246 148.835 127.009 149.187 126.594C150.644 127.599 151.805 128.926 152.533 131.076C151.021 130.755 149.792 129.529 148.597 127.735Z" fill="#0A0A09"/>
<path d="M63.0774 31.6562C63.8614 31.4011 64.2168 31.815 64.2518 32.5581C64.2605 32.7434 63.8925 33.143 63.7397 33.1159C63.1156 33.005 62.8015 32.5465 63.0774 31.6562Z" fill="#0C0E0D"/>
<path d="M152.813 133.427C152.63 132.877 152.625 132.444 152.618 131.686C153.528 131.953 155.05 132.129 154.743 133.765C154.579 134.641 153.587 133.83 152.813 133.427Z" fill="#0A0A09"/>
<path d="M56.9511 22.7324C57.2199 22.6094 57.5938 22.6082 58.248 22.6066C58.0961 23.1687 57.6253 23.415 56.9511 22.7324Z" fill="#0C0E0D"/>
<path d="M168.473 150.938C168.482 150.928 168.473 150.994 168.46 150.981C168.447 150.967 168.465 150.948 168.473 150.938Z" fill="#0A0A09"/>
<path d="M171.377 155.366C171.363 155.37 171.39 155.362 171.377 155.366Z" fill="#0A0A09"/>
<path d="M182.615 244.052C182.63 244.055 182.6 244.049 182.615 244.052Z" fill="#0A0A09"/>
<path d="M171.873 336.008C171.997 335.455 172.24 334.59 172.654 333.446C172.548 334.009 172.269 334.852 171.873 336.008Z" fill="#121413"/>
<path d="M199.875 342.153C200.268 342.207 200.467 342.441 200.814 342.852C200.091 344.059 199.755 345.915 198.006 345.722C197.575 343.85 198.932 343.3 199.875 342.153Z" fill="#0A0C0C"/>
<path d="M194.108 350.491C194.384 350.064 194.658 349.547 194.909 349.562C195.427 349.594 195.384 350.192 195.181 350.56C194.9 351.07 194.505 351.544 194.108 350.491Z" fill="#0A0C0C"/>
<path d="M191.159 354.973C191.366 355.031 191.512 355.157 191.658 355.282C191.578 355.374 191.498 355.467 191.418 355.559C191.311 355.386 191.205 355.214 191.159 354.973Z" fill="#0A0C0C"/>
<path d="M176.519 73.8928C182.043 72.537 184.508 73.3225 186.749 79.5538C188.74 85.0909 191.805 89.5835 194.649 94.2748C200.412 103.782 203.417 114.958 208.575 124.8C208.93 125.478 208.982 126.755 209.421 126.938C217.19 130.175 215.6 138.555 216.832 145.371C217.062 146.644 217.226 147.933 217.519 149.598C222.121 170.821 223.7 192.018 223.471 213.476C223.318 227.741 218.794 240.897 216.348 254.577C216.223 255.276 215.52 255.831 214.867 256.631C215.115 244.994 213.686 233.278 213.324 221.068C210.914 215.981 211.258 210.48 209.939 205.494C208.239 199.065 207.424 192.369 205.636 185.503C204.868 179.647 204.425 174.252 204.653 168.746C204.753 166.316 206.031 164.723 206.686 162.726C208.98 155.731 207.428 149.028 205.963 142.296C201.912 123.67 193.492 107.573 184.779 91.6305C182.503 87.4649 180.114 83.4036 177.711 79.3445C176.846 77.8837 175.4 76.4577 176.519 73.8928Z" fill="#0E0F0F"/>
<path d="M208.451 185.902C208.376 197.797 212.452 208.485 213.283 220.23C212.172 219.61 211.377 218.299 211.077 216.633C207.79 198.367 202.413 180.868 196.902 163.036C198.569 164.242 200.302 165.807 202.284 167.51C203.215 167.827 204.149 167.226 204.407 168.648C205.446 174.382 207.982 179.611 208.451 185.902Z" fill="#1E1C19"/>
<path d="M214.943 272.358C214.972 272.371 214.9 272.737 214.763 273.27C214.746 273.194 214.794 272.953 214.943 272.358Z" fill="#060808"/>
<path d="M211.361 286.883C211.648 286.418 211.98 285.836 212.203 286.521C212.324 286.894 211.956 287.869 211.667 287.961C211.131 288.133 211.274 287.449 211.361 286.883Z" fill="#382B20"/>
<path d="M209.708 293.946C209.684 293.921 209.732 293.971 209.708 293.946Z" fill="#382B20"/>
<path d="M210.515 291.55C210.524 291.58 210.506 291.521 210.515 291.55Z" fill="#382B20"/>
<path d="M208.531 186.078C206.33 180.365 205.407 173.959 202.673 167.958C206.697 162.082 207.227 155.677 205.604 148.819C201.986 133.531 197.791 118.557 190.072 105.248C185.623 97.5775 182.278 89.0485 176.976 81.6309C175.458 79.1814 173.456 77.367 174.033 73.8763C174.916 73.5506 175.54 73.55 176.475 73.5491C180.113 81.6467 184.824 88.7329 188.986 96.1994C198.02 112.406 205.73 129.209 208.782 148.508C209.535 153.271 209.489 158.021 207.748 162.427C205.448 168.25 206.023 173.778 208.09 179.425C208.822 181.427 210.077 183.52 208.531 186.078Z" fill="#0A0A09"/>
<path d="M174.014 73.4694C175.088 75.9286 175.885 78.3062 176.738 81.0332C173.642 79.8805 172.393 76.5526 171.052 72.8977C171.886 72.8424 172.811 73.1151 174.014 73.4694Z" fill="#0C0E0D"/>
<path d="M170.939 70.7165C170.952 70.7588 170.953 70.927 170.955 71.3477C170.924 71.3487 170.914 71.0961 170.939 70.7165Z" fill="#0C0E0D"/>
<path d="M122.961 130.637C118.572 125.338 114.575 120.053 110.558 114.787C109.37 113.23 108.182 111.653 106.178 110.762C103.438 107.28 102.577 102.11 97.8571 101.027C87.4025 98.7314 78.2894 93.6543 70.3169 85.7512C69.16 84.6044 67.9404 83.5495 66.253 82.6344C65.9961 82.3728 66.0366 82.3495 66.0328 82.3757C65.1086 81.2031 64.1948 79.9966 62.9475 78.725C58.096 77.0767 55.1728 72.7845 51.9407 69.1462C44.5858 60.8669 37.1846 52.6699 28.8109 45.268C25.4002 45.3595 24.2636 42.6178 22.9171 39.5684C22.7494 39.1988 22.7383 38.7395 22.7306 38.51C22.3568 37.0704 22.6228 36.2701 24.0802 36.181C25.9071 37.8484 27.4249 39.3765 29.1602 41.0998C36.1455 43.5825 40.7735 49.4399 45.5568 54.9587C46.0473 55.5247 46.5641 56.2229 47.3824 57.0576C50.0361 59.8068 52.689 60.8618 55.9063 59.8234C57.9144 59.1751 59.6322 60.893 60.858 62.1022C68.9908 70.1253 78.9849 74.2525 88.0069 80.385C91.8652 83.0076 94.3981 87.5411 98.2524 89.759C110.152 96.6062 116.392 109.542 123.7 121.782C122.759 123.84 123.898 125.185 124.422 126.339C125.377 128.438 125.644 129.872 122.961 130.637Z" fill="#1E1C19"/>
<path d="M65.7615 58.6659C70.3152 63.9512 75.9477 66.5426 80.785 70.5425C83.4693 72.7621 86.7125 74.1681 88.4395 78.2141C87.9547 80.3012 87.0206 79.8053 85.9279 79.1471C75.4274 72.8219 65.0515 66.2496 55.1305 57.9118C53.9371 56.87 53.2821 55.4947 51.665 55.5731C49.7798 51.3291 46.5239 49.5275 43.5022 46.9065C43.4456 46.3049 43.497 46.0601 43.6429 45.4536C40.9713 42.0214 38.2052 38.9508 35.2605 35.6212C36.0339 35.1264 36.9858 34.8907 38.215 34.5676C38.4921 34.4803 38.8087 34.612 38.972 34.6583C43.2509 34.6954 45.0659 38.8691 47.7688 41.3719C53.7554 46.9152 59.0699 53.4332 65.7615 58.6659Z" fill="#382B20"/>
<path d="M43.4115 45.0542C43.9164 45.2074 44.083 45.3456 44.3436 45.6357C45.9491 50.0132 49.3758 51.5484 52.7415 53.7374C53.7042 54.3327 54.3517 54.803 55.1626 55.4642C55.5077 56.955 56.8834 58.3048 55.3516 59.5431C53.9174 60.7024 52.1765 60.4592 50.7805 59.8157C49.4362 59.1962 48.2742 57.9938 46.3901 57.8549C40.5949 52.5186 34.8022 47.6569 29.5513 41.5409C29.5634 39.7679 28.9818 37.6586 30.4947 36.9934C32.1869 36.2493 32.6627 38.3319 33.4415 39.9486C33.5468 40.2359 33.3136 40.5101 33.4302 40.373C37.041 40.9619 39.4861 44.5842 43.4115 45.0542Z" fill="#101110"/>
<path d="M66.0882 82.6846C70.1833 82.7266 72.6111 86.9069 76.09 88.7981C80.4291 91.1571 83.5145 96.1485 89.3525 95.6706C91.4989 95.4949 94.3743 99.198 97.3652 100.918C97.6289 101.064 97.7116 101.467 97.6002 101.842C94.0792 100.383 90.5604 99.2786 86.4001 99.9661C79.2736 94.5173 71.9087 90.0842 66.0882 82.6846Z" fill="#473224"/>
<path d="M24.2227 36.0587C23.9378 36.8349 23.4863 37.3494 22.8789 38.0723C19.1966 33.9639 15.6805 29.6356 12.1389 25.3363C10.6887 23.5761 9.36363 21.7374 8.65409 19.0096C14.7282 23.1341 19.2536 29.6391 24.2227 36.0587Z" fill="#121413"/>
<path d="M22.6802 39.5144C25.0887 40.2717 26.7084 42.3627 28.4102 44.8304C24.8568 47.2999 22.7677 45.4593 22.6802 39.5144Z" fill="#0C0E0D"/>
<path d="M62.847 78.7885C64.1082 79.1755 65.2533 80.1244 65.9258 82.1055C64.616 81.7865 63.5276 80.7564 62.847 78.7885Z" fill="#473224"/>
<path d="M8.48438 18.4844C8.12835 18.3253 7.69463 17.9683 7.26088 17.6112C7.40062 17.465 7.54038 17.3189 7.68012 17.1727C7.92231 17.5439 8.16449 17.9152 8.48438 18.4844Z" fill="#121413"/>
<path d="M22.2903 72.0772C22.2879 72.0606 22.2927 72.0938 22.2903 72.0772Z" fill="#101110"/>
<path d="M0.648634 42.7023C0.635785 42.7051 0.661484 42.6995 0.648634 42.7023Z" fill="#101110"/>
<path d="M65.8789 58.7031C55.9233 52.9965 47.7743 43.9979 39.3221 34.9409C39.8749 34.3232 40.6161 33.9404 41.6467 33.4592C45.9524 35.4447 48.4188 39.7471 51.655 42.9369C56.5716 47.7829 61.0643 53.224 65.8789 58.7031Z" fill="#101110"/>
<path d="M58.9291 119.121C58.9446 119.135 58.9137 119.108 58.9291 119.121Z" fill="#0C0E0D"/>
<path d="M75.1895 469.357C75.059 468.926 74.9279 468.496 74.7968 468.065C74.92 468.378 75.0433 468.69 75.1766 469.181C75.1868 469.36 75.1895 469.357 75.1895 469.357Z" fill="#1B1A17"/>
<path d="M97.7055 101.958C97.7782 101.872 97.8652 102.181 97.8652 102.181C97.8652 102.181 97.6201 102.305 97.554 102.26C97.4879 102.215 97.6329 102.043 97.7055 101.958Z" fill="#473224"/>
<path d="M122.705 130.896C123.634 127.785 121.549 125.002 122.573 121.863C123.708 120.661 124.147 121.465 124.824 122.368C129.86 129.081 136.062 134.442 141.082 141.112C145.809 147.391 149.805 154.442 151.197 163.287C151.017 169.912 154.76 174.399 156.678 180.129C154.014 179.807 152.38 177.712 150.717 175.064C142.969 162.734 134.951 150.64 127.07 138.426C125.565 136.093 124.242 133.597 122.705 130.896Z" fill="#241F19"/>
<path d="M151.201 163.438C147.697 151.865 141.815 142.193 133.551 134.511C129.609 130.847 126.706 125.998 122.882 121.752C116.662 113.283 113.076 102.281 104.873 96.6353C95.9186 90.4722 88.7346 81.0842 78.8693 76.8293C72.2692 73.9828 66.5251 69.7497 61.1094 64.6627C59.3158 62.9778 57.1912 61.9812 54.886 62.6628C51.0528 63.7963 48.4548 61.8903 46.2121 58.1203C47.1588 55.7866 48.579 55.1031 50.495 56.4294C52.0123 57.4797 53.5245 57.8318 55.1266 55.9008C65.6141 64.408 76.8589 71.256 88.27 78.4372C100.503 88.9704 112.709 99.0261 120.915 114.241C124.315 120.545 128.803 125.915 133.719 131.141C134.244 131.462 134.538 131.66 134.983 132.134C135.162 132.35 135.165 132.305 135.148 132.315C135.328 132.542 135.521 132.763 135.848 133.162C135.987 133.334 136.002 133.292 135.984 133.299C136.162 133.523 136.355 133.745 136.685 134.143C136.825 134.314 136.836 134.273 136.818 134.275C137.029 134.529 137.24 134.801 137.553 135.329C137.791 135.735 137.919 135.891 138.166 136.137C138.879 136.625 139.534 136.938 139.998 137.994C140.155 138.237 140.162 138.198 140.145 138.198C140.324 138.418 140.517 138.642 140.849 139.041C140.991 139.213 140.996 139.172 140.978 139.175C141.156 139.397 141.349 139.621 141.679 140.019C141.819 140.191 141.83 140.147 141.812 140.156C141.99 140.378 142.181 140.598 142.505 140.997C142.642 141.169 142.66 141.143 142.646 141.145C142.889 141.419 143.116 141.721 143.402 142.34C146.265 147.482 148.872 152.454 150.895 157.813C151.546 159.537 152.686 161.254 151.201 163.438Z" fill="#0E0F0F"/>
<path d="M140.014 137.986C139.647 137.715 139.14 137.192 138.454 136.454C138.807 136.738 139.34 137.236 140.014 137.986Z" fill="#382B20"/>
<path d="M135.861 133.148C135.748 133.175 135.54 132.971 135.247 132.524C135.352 132.512 135.553 132.724 135.861 133.148Z" fill="#382B20"/>
<path d="M136.693 134.132C136.593 134.142 136.387 133.935 136.086 133.5C136.18 133.501 136.379 133.716 136.693 134.132Z" fill="#382B20"/>
<path d="M137.537 135.344C137.47 135.29 137.264 135.012 136.93 134.506C137.001 134.558 137.2 134.839 137.537 135.344Z" fill="#382B20"/>
<path d="M140.859 139.029C140.762 139.035 140.556 138.824 140.252 138.389C140.343 138.394 140.543 138.61 140.859 139.029Z" fill="#382B20"/>
<path d="M141.688 140.008C141.589 140.014 141.385 139.804 141.083 139.368C141.174 139.374 141.372 139.591 141.688 140.008Z" fill="#382B20"/>
<path d="M142.521 140.98C142.402 141.016 142.194 140.814 141.908 140.364C142.02 140.343 142.221 140.552 142.521 140.98Z" fill="#382B20"/>
<path d="M143.359 142.367C143.284 142.307 143.078 141.989 142.752 141.409C142.83 141.468 143.029 141.789 143.359 142.367Z" fill="#382B20"/>
<path d="M134.965 132.166C134.881 132.134 134.6 131.918 134.118 131.519C134.2 131.552 134.484 131.767 134.965 132.166Z" fill="#382B20"/>
<path d="M2.70637 67.1948C2.71541 67.2303 2.69735 67.1594 2.70637 67.1948Z" fill="#0C0E0D"/>
<path d="M95.9069 93.9121C95.8607 93.9072 95.9147 93.5744 95.9147 93.5744C95.9147 93.5744 95.9531 93.9168 95.9069 93.9121Z" fill="#0C0E0D"/>
<path d="M52.8516 53.6094C49.1343 53.1555 45.6193 51.7964 44.503 46.1399C47.1825 48.2962 49.9146 50.826 52.8516 53.6094Z" fill="#0E0F0F"/>
<path d="M33.4669 40.297C33.44 40.3169 33.4937 40.2771 33.4669 40.297Z" fill="#0E0F0F"/>
</svg>
