<svg width="259" height="170" viewBox="0 0 259 170" fill="none" xmlns="http://www.w3.org/2000/svg">
<path d="M258.24 40.8844C258.488 46.0875 258.488 51.0286 258.488 56.4608C254.897 60.8752 251.058 59.5177 246.834 57.3469C245.034 56.4592 245.289 54.8698 244.763 53.6788C243.733 51.349 242.341 49.4807 239.355 51.8776C236.903 53.8949 235.027 52.5262 233.118 51.4653C230.93 50.2499 228.688 49.7305 226.522 51.3929C224.362 53.0514 224.767 55.3181 225.425 57.6064C225.982 59.545 225.555 61.4394 225.031 63.3026C223.883 67.381 225.437 69.7099 229.23 70.6571C230.039 70.859 230.849 71.081 231.641 71.3504C236.964 73.162 239.668 79.5478 237.37 84.8071C236.901 85.8824 236.126 86.5371 235.04 86.4059C233.02 86.1614 231.303 87.3917 229.914 87.5361C231.201 87.4755 232.783 86.3456 234.684 86.3943C236.513 86.4413 238.334 86.7966 238.896 88.5456C240.446 93.3652 243.408 97.0725 246.614 100.657C247.709 101.883 247.079 103.317 247.09 105.044C247.1 105.66 247.108 105.907 247.053 106.52C246.468 107.948 245.413 108.718 245.503 110.116C245.636 112.17 244.757 113.483 242.796 113.84C240.575 114.244 238.952 113.303 237.732 111.338C232.455 102.843 232.564 102.934 227.27 111.336C225.255 114.533 223.125 117.661 220.977 121.213C220.156 122.401 219.155 122.647 218.289 123.12C215.964 124.39 214.369 125.801 216.659 128.67C217.454 129.666 217.104 130.982 216.246 132.374C209.921 135.052 201.524 130.115 200.596 123.576C200.333 121.719 199.538 120.493 197.693 119.921C194.776 119.017 191.904 118.813 188.848 119.028C185.335 119.274 181.615 119.184 178.926 116.087C176.51 113.303 175.221 110.219 177.51 106.606C178.067 105.727 178.613 104.839 178.805 103.786C179.035 102.524 178.991 101.277 177.854 100.494C176.801 99.7681 176.058 100.586 175.211 101.184C168.292 106.066 160.722 103.907 156.993 95.9879C156.105 94.1002 155.294 92.1774 154.008 90.5384C151.825 87.7549 149.473 86.4844 146.368 89.2443C144.058 91.2986 141.346 91.8094 138.114 90.6125C135.108 87.3951 135.225 84.3833 137.436 81.0715C139.215 78.4076 139.421 74.8918 141.749 72.3934C144.554 69.3813 147.165 66.3949 151.751 67.4822C152.697 67.7063 153.079 66.6652 153.514 65.531C153.611 64.6319 154.339 63.3993 153.252 63.7431C147.162 65.6705 140.829 64.2493 134.367 65.5843C129.787 65.0203 125.632 63.8919 121.223 64.5306C118.149 64.9761 112.98 60.818 111.954 57.697C110.967 54.6938 113.103 52.2988 116.424 53.0499C119.85 53.8245 123.243 54.4534 126.765 54.4349C130.854 54.4134 134.725 53.9756 137.786 50.6602C139.031 49.311 140.754 49.2707 142.411 49.0766C148.838 48.3238 155.247 47.4137 161.693 46.8402C162.816 46.7404 164.435 46.7047 164.421 45.1879C164.404 43.3906 162.705 43.3263 161.384 43.2605C159.845 43.1839 158.525 44.0032 157.123 44.5503C152.425 46.3832 147.728 46.2541 143.079 44.2344C140.33 43.0404 139.121 41.1628 140.708 37.7295C144.272 36.1007 147.177 34.1355 149.851 31.7304C155.38 26.7561 161.81 26.0843 168.597 27.6889C181.049 30.6332 193.341 31.8586 205.714 26.7738C212.116 24.1427 218.865 26.8607 225.443 27.218C228.897 27.4057 232.365 27.9265 236.239 28.3727C239.441 30.3368 242.746 28.4465 245.915 30.1921C246.576 34.5145 249.201 36.273 252.455 37.5475C254.408 38.3123 256.612 38.6753 258.24 40.8844Z" fill="#1C1316"/>
<path d="M155.331 66.0045C154.936 68.0734 153.95 69.5278 152.265 69.2027C147.772 68.3358 145.049 71.1163 143.492 74.5956C141.44 79.1799 137.921 83.3013 138.303 89.6284C134.333 93.428 130.366 90.7157 126.085 90.316C124.285 88.9077 122.644 88.0013 120.554 87.1653C119.65 86.5405 119.043 86.1382 118.213 85.4554C116.712 82.7392 114.9 81.0583 111.868 80.5388C111.32 80.3412 111.114 80.2239 110.669 79.8304C110.336 79.3256 110.241 79.0969 110.091 78.4984C110.006 77.6287 109.979 77.1289 109.94 76.2545C109.872 72.1255 108.31 68.9451 105.471 67.0226C102.391 64.9369 100.018 62.1294 97.0114 59.4665C91.8315 52.5577 92.0274 46.0434 98.4302 39.5554C94.9307 39.0255 92.4359 39.4462 89.8264 38.3521C86.6452 32.1929 81.1396 31.7936 75.9036 31.8707C72.459 31.9215 69.7682 31.2815 67.2538 28.3616C63.4119 25.6366 59.1209 25.9339 55.188 24.8189C52.9464 24.1835 50.815 23.666 50.8687 20.7283C50.9202 17.9154 52.8974 16.9822 55.2092 16.5537C66.7201 14.4202 77.7796 10.076 89.8702 10.6057C94.7297 10.8185 99.5067 9.23347 104.108 12.2677C105.627 13.2692 107.647 13.1971 109.483 13.1767C114.266 13.1232 119.06 12.2681 123.79 13.9757C125.166 14.4722 126.769 14.0714 128.181 13.4228C128.976 13.0573 129.687 12.5072 129.691 11.5314C129.694 10.5608 129.006 9.97011 128.207 9.616C126.192 8.72321 124.058 8.24935 121.899 8.144C113.598 7.73903 105.339 6.37083 96.9995 6.89427C92.9656 7.14741 89.0438 6.26227 85.1089 5.60114C82.5598 5.17274 80.4718 4.1301 82.2277 0.371201C122.174 0.050148 161.861 0.050148 202.018 0.050148C203.469 1.56774 205.134 1.76184 206.534 1.74403C208.589 1.71785 209.769 2.96205 211.022 4.21365C212.192 5.38318 212.789 6.87074 211.861 8.44544C210.923 10.0378 209.633 10.7308 207.661 10.132C202.486 8.56036 196.941 10.101 191.72 7.82559C189.405 6.81678 187.395 8.25758 188.911 11.9488C189.857 15.3408 187.955 16.6662 186.001 18.1902C184.753 19.1637 182.887 20.3659 183.453 22.2803C183.952 23.97 185.961 23.6122 187.401 23.7746C189.543 24.0161 191.673 24.3556 193.849 24.2377C196.169 24.1121 197.805 25.2268 197.871 27.8002C197.942 30.544 195.95 30.7152 194.025 30.5949C185.164 30.0412 176.362 29.98 167.629 27.15C157.544 23.8816 147.299 25.0334 137.687 30.0803C136.399 30.7564 134.602 31.3917 134.663 33.1979C134.731 35.2032 136.767 35.046 138.071 35.6311C139.417 36.2344 141.009 36.4943 141.484 38.6978C145.334 43.5446 150.833 44.3921 156.837 41.43C162.016 38.875 167.759 40.1047 171.026 44.7961C172.882 47.4618 170.522 48.1679 168.777 48.4704C163.403 49.4022 158.008 50.2511 152.593 50.8623C146.936 51.5007 141.643 51.4883 136.361 55.5862C131.92 59.031 125.196 57.6247 119.421 56.6028C117.846 56.324 116.334 55.3598 114.171 56.0011C116.377 59.8827 118.298 62.9456 123.193 61.178C126.873 59.849 130.188 62.6772 134.129 63.1351C138.888 65.5571 143.525 65.2793 148.197 64.7044C150.576 64.4116 153.063 63.2374 155.331 66.0045Z" fill="#1E1619"/>
<path d="M245.844 105.749C245.338 103.192 244.364 101.373 242.757 100.006C240.083 97.7309 238.291 94.9489 237.303 91.439C236.542 88.7346 234.924 87.0105 232.125 89.151C229.242 91.3559 226.348 89.6883 223.467 89.343C222.478 89.2245 221.441 88.679 221.59 87.3406C221.729 86.0952 222.778 85.6914 223.778 85.5822C225.917 85.3485 228.068 85.1763 230.218 85.1162C232.145 85.0624 234.837 85.8971 234.763 82.7673C234.696 79.9352 236.326 76.0878 232.34 74.5247C230.172 73.6747 227.849 73.2719 225.606 72.6281C221.884 71.5598 220.351 69.2584 221.711 65.1684C222.58 62.555 223.918 59.8209 222.238 57.1035C219.767 53.1086 221.822 50.4894 224.582 48.2404C227.39 45.951 230.528 46.5727 233.414 48.1403C234.865 48.9289 236.034 50.2968 238.127 50.5788C242.214 48.9934 243.875 52.0902 246.206 54.5462C250.064 56.2505 253.716 57.3326 258.053 56.9508C258.488 72.0761 258.488 87.2012 258.488 102.82C255.267 108.563 250.604 106.688 245.844 105.749Z" fill="#191011"/>
<path d="M245.489 105.683C249.559 104.782 253.626 104.144 258.091 103.409C258.488 123.705 258.488 144.099 258.488 164.987C254.109 168.791 250.862 164.888 248.31 162.703C244.545 159.479 240.386 156.308 238.075 151.404C237.64 150.48 237.047 149.242 235.763 148.844C229.025 146.753 223.226 142.817 217.308 138.306C215.586 136.781 216.084 134.853 215.555 132.49C208.648 124.056 208.648 124.056 219.126 120.226C221.91 117.475 223.67 119.225 225.15 121.274C227.194 124.106 229.63 126.392 232.607 128.029C234.278 128.949 236.053 129.484 237.765 128.205C239.539 126.881 239.321 125.001 238.984 123.01C238.019 117.306 238.848 115.332 244.002 113.73C249.078 112.152 243.851 109.108 245.35 106.808C245.483 106.47 245.487 105.945 245.489 105.683Z" fill="#140F14"/>
<path d="M187.78 13.0132C185.536 11.9182 182.596 11.8398 182.528 9.11446C182.45 5.97515 185.614 5.89656 187.711 5.16493C189.089 4.68445 190.994 4.10641 192.064 4.7242C197.433 7.82575 203.414 6.28777 209.272 7.76691C209.031 3.18969 203.836 4.00466 202.616 0.381847C220.216 0.0523071 237.944 0.0911522 255.672 0.00124359C257.791 -0.00956154 258.724 0.118677 258.574 2.85256C258.28 8.24675 258.488 13.6714 258.488 19.5781C257.218 21.7359 255.703 22.5081 253.682 21.6167C244.717 17.6631 234.92 18.8394 225.661 16.5901C218.766 14.915 211.55 15.5186 204.623 13.8134C202.822 13.3699 201.616 14.6803 199.924 15.7891C198.988 16.0392 198.445 16.1248 197.49 16.1902C196 16.2321 194.937 16.0735 193.49 15.7319C191.29 15.1772 189.314 15.1185 187.78 13.0132Z" fill="#191011"/>
<path d="M198.485 14.1033C199.5 12.0685 201.075 11.7916 202.806 11.6706C212.088 11.0215 221.132 12.9639 230.166 14.6447C234.748 15.4972 239.186 16.778 243.93 16.0435C249 15.2585 252.886 19.5741 258.108 20.0215C258.488 23.962 258.488 27.8532 258.488 32.2298C254.551 36.4054 250.316 35.8945 245.727 33.206C242.921 31.1572 239.864 32.0509 236.85 30.7437C235.755 29.8623 234.838 28.9843 235.289 27.9171C237.456 22.7878 234.144 22.7994 230.984 22.7262C224.021 22.5651 217.048 23.036 210.118 21.6799C205.345 20.7457 201.481 18.4647 198.485 14.1033Z" fill="#1E1619"/>
<path d="M217.183 136.791C224.779 139.846 230.927 145.458 238.863 146.714C239.752 146.855 240.489 147.491 240.259 148.521C239.21 153.203 242.456 154.865 245.267 157.148C249.186 160.332 252.449 164.517 258.125 165.391C258.488 166.606 258.488 167.73 258.488 169.275C251.287 168.004 245.302 164.063 241.078 157.808C237.332 152.261 232.751 149.706 225.935 150.716C223.733 147.888 220.586 147.984 218.043 146.886C213.157 144.776 212.65 143.723 214.97 138.158C215.257 137.567 215.386 137.339 215.822 136.881C216.377 136.622 216.626 136.594 217.183 136.791Z" fill="#1E1619"/>
<path d="M245.223 32.8741C249.515 32.7109 253.538 32.7126 258.025 32.7143C258.488 35.2121 258.488 37.71 258.488 40.6759C253.461 41.755 249.33 38.9208 244.966 37.1092C242.357 36.026 242.949 34.4098 245.223 32.8741Z" fill="#191011"/>
<path d="M184.734 144.663C184.483 144.412 183.99 144.403 183.743 144.398C180.631 142.155 180.828 139.024 181.332 135.861C182.218 130.306 178.823 126.696 176.023 122.845C175.58 122.235 174.818 122.799 174.155 123.702C173.213 124.359 172.778 125.055 171.844 125.791C170.233 126.805 168.888 126.641 167.187 126.22C165.883 125.951 165.752 123.914 164.097 125.116C163.479 125.631 163.06 125.816 162.257 125.941C157.846 126.283 156.691 123.292 156.391 120.029C155.914 114.836 154.334 111.124 149.529 108.323C144.51 105.399 140.259 100.896 137.002 95.6973C135.734 93.674 136.267 91.7142 138.238 89.8789C138.481 89.6217 138.487 89.6165 138.49 89.6127C141.613 89.9087 143.863 88.5444 145.714 85.898C148.149 82.4161 150.635 81.5735 153.585 85.7253C155.68 88.674 157.996 91.3753 159.38 94.8493C160.684 98.1229 163.285 100.181 166.497 100.894C169.552 101.572 172.467 101.437 173.542 97.1772C174.66 92.7429 177.255 93.8633 179.459 96.1075C183.104 99.817 183.202 103.357 180.15 107.823C178.089 110.839 179.263 114.231 182.942 115.61C185.68 116.637 188.51 116.252 191.349 116.086C197.926 115.703 200.457 118.068 202.852 124.349C204.86 129.614 210.088 130.427 215.1 131.739C215.487 131.76 215.489 131.765 215.489 131.765C216.921 132.947 216.728 134.619 216.599 136.632C216.493 137.023 216.486 137.033 216.483 137.038C214.697 139.566 212.241 140.176 209.972 138.409C204.419 134.087 198.412 137.471 192.658 136.963C190.369 136.761 190.471 139.709 190.111 141.444C189.464 144.558 188.223 146.257 184.734 144.663Z" fill="#1E1619"/>
<path d="M198.145 13.7361C203.343 14.3549 206.621 18.7739 211.786 19.301C218.448 19.981 225.075 20.0024 231.724 20.0454C234.783 20.0652 237.675 20.6313 240.456 21.9297C241.515 22.424 242.77 22.7743 242.798 24.3066C242.826 25.8135 241.652 26.3285 240.582 26.8195C239.049 27.5229 237.453 28.1098 236.614 30.2671C231.636 30.9556 226.741 30.6296 222.103 29.4609C210.288 26.4838 199.259 32.6783 187.632 32.1582C181.505 31.8841 175.296 32.2138 169.379 30.6076C160.93 28.3143 153.885 30.0581 148.226 37.0298C146.481 39.1806 144.729 40.1201 141.837 39.1383C137.631 38.0412 133.748 37.0815 129.911 35.9522C128.843 35.6377 127.584 35.0523 127.603 33.5401C127.619 32.3051 128.733 31.9791 129.588 31.4532C136.221 27.3738 143.148 23.4516 150.774 22.8267C158.121 22.2247 165.642 22.8244 172.799 25.7835C179.194 28.4278 186.179 28.1241 192.858 29.4054C193.767 29.5798 194.899 29.4949 195.371 27.5556C192.132 27.1566 188.942 26.8707 185.788 26.3424C183.169 25.9035 180.581 25.2304 178.004 24.5561C177.061 24.3096 175.903 23.9497 175.753 22.7547C175.584 21.4087 176.789 21.1021 177.705 20.8089C181.733 19.5192 183.794 15.5211 187.312 12.9995C189.535 12.711 191.575 12.7121 194.053 12.7158C195.092 12.7058 195.63 12.8827 196.291 13.5231C196.935 13.7398 197.375 13.7384 198.145 13.7361Z" fill="#201A20"/>
<path d="M245.24 106.712C246.565 107.936 248.173 108.416 249.72 109.039C251.034 109.568 252.064 110.469 251.984 112.109C251.897 113.899 250.805 115.002 249.275 115.454C248.015 115.825 246.661 115.829 245.362 116.073C241.567 116.783 239.993 119.091 241.946 122.755C243.745 126.132 242.451 128.326 240.338 130.586C238.13 132.947 235.666 132.892 233.066 131.487C229.655 129.644 226.459 127.485 224.1 124.205C222.999 122.672 221.984 121.057 219.81 120.288C221.441 113.566 226.048 108.544 229.038 102.534C230.974 98.6443 233.995 98.9538 236.341 102.754C237.155 104.072 238.076 105.331 238.762 106.719C241.559 112.378 241.532 112.393 245.24 106.712Z" fill="#191011"/>
<path d="M191.439 72.0672C189.062 68.1145 191.306 66.5114 194.11 66.8251C200.276 67.515 206.378 67.1811 212.531 67.0688C217.475 66.9785 219.653 72.02 216.958 76.4761C215.805 78.3824 214.365 80.154 212.813 81.7191C211.049 83.497 208.427 84.0803 207.122 81.8097C204.375 77.0325 200.204 75.557 195.491 74.6995C193.965 74.4219 192.738 73.4999 191.439 72.0672Z" fill="#191011"/>
<path d="M155.884 66.4607C150.386 66.2198 145.287 67.9944 140.154 66.4366C138.246 65.8578 136.192 65.7753 134.677 63.5899C141.09 63.4686 147.659 63.4989 153.738 60.0909C154.423 59.7069 155.375 59.4673 156.107 59.6327C158.533 60.1805 160.646 61.7748 160.603 64.3753C160.559 67.0454 157.916 66.1291 155.884 66.4607Z" fill="#282327"/>
<path d="M220.371 36.048C220.911 36.485 221.201 36.6677 221.44 36.9061C222.932 38.3921 225.894 40.0542 223.957 42.1785C221.952 44.379 218.724 43.7213 216.382 41.3771C216.031 41.0254 215.755 40.5499 215.553 40.0798C214.619 37.9123 212.503 35.3461 214.516 33.3837C217.087 30.8765 218.233 34.8788 220.371 36.048Z" fill="#201A20"/>
<path d="M246.449 54.4341C243.505 54.6353 241.17 53.0373 238.731 50.8679C238.884 48.6706 239.874 47.4714 241.923 48.0621C244.77 48.883 246.3 50.8979 246.449 54.4341Z" fill="#201A20"/>
<path d="M229.13 39.6935C231.099 39.1086 232.928 38.4026 234.234 40.3172C234.462 40.6523 234.127 41.6542 233.783 42.1331C233.069 43.1272 232.043 43.8688 230.817 43.3271C229.447 42.7219 228.099 41.9156 229.13 39.6935Z" fill="#201A20"/>
<path d="M138.127 89.5814C137.466 94.7158 143.441 96.222 143.691 100.862C143.759 102.112 145.624 101.442 146.551 100.591C147.833 99.413 149.228 98.6723 151.706 99.048C148.595 103.225 149.476 105.155 153.957 107.188C157.709 108.891 158.763 113.926 159.076 118.291C159.232 120.462 159.295 122.435 161.222 124.166C163.947 126.085 163.865 128.225 162.361 130.52C160.902 132.744 159.63 135.52 155.879 133.177C153.125 131.348 152.584 128.776 151.851 126.286C150.755 122.561 148.919 120.429 144.976 122.878C144.166 123.382 142.944 123.94 142.203 123.649C137.133 121.654 136.337 125.06 135.688 129.321C132.798 129.727 131.955 131.014 132.216 133.986C132.491 137.116 135.551 139.971 132.837 143.581C131.539 144.42 130.55 144.412 129.242 143.611C126.231 139.592 124.938 134.791 121.102 130.808C120.193 135.589 121.99 141.562 114.834 141.74C112.293 141.361 111.592 139.504 110.745 137.321C109.867 130.334 107.055 125.433 100.751 123.188C97.0216 121.859 94.2243 119.077 91.8342 115.85C91.3243 115.161 91.0195 114.212 90.3612 113.747C84.7062 109.756 82.6125 104.12 83.0062 97.1246C83.1161 95.1709 81.9179 93.479 80.787 91.9422C79.5753 90.2956 79.031 88.5859 80.2302 86.2645C80.5772 85.7222 80.7479 85.5318 81.2498 85.1723C87.6297 85.5504 93.5889 92.878 92.9428 99.0611C92.7904 100.519 92.8156 101.917 93.655 103.082C97.3633 108.228 99.5367 114.83 105.884 117.498C106.338 117.689 106.534 118.259 107.139 118.366C101.46 115.516 97.6866 111.14 95.6615 104.756C94.4579 100.962 94.0398 97.9711 96.3855 94.4764C98.8121 90.861 98.1858 89.5043 93.9744 89.2395C90.0072 88.9901 87.8178 85.9891 85.1499 83.8669C83.1554 82.2804 84.4122 80.1164 86.0458 78.5645C79.7506 77.1289 77.713 70.4587 72.8587 66.757C71.6798 65.6796 71.3113 64.1142 69.4579 63.9376C68.9252 63.8274 68.7111 63.7835 68.1827 63.638C66.0831 62.7938 65.0126 60.479 62.3429 60.93C61.5248 60.9271 61.0522 60.917 60.2119 60.9115C58.3206 61.0098 56.8156 60.913 55.0343 60.1962C54.5294 59.7905 54.3389 59.6164 53.8917 59.1534C52.3884 55.1475 54.8973 54.0224 57.3817 53.6846C60.7829 53.2222 63.8033 52.5222 66.0931 49.5034C67.456 47.7067 69.7865 48.3334 71.8809 47.7918C68.4255 44.9985 64.8527 43.216 60.4887 43.5848C58.3647 43.7644 56.8067 42.2294 54.8615 40.9174C51.9818 36.5509 54.6774 34.2757 57.6437 33.2676C61.1183 32.0868 64.5941 30.6389 68.625 30.2586C72.5393 33.7056 85.6307 37.7897 90.2578 36.8765C93.1965 37.117 95.4848 36.1061 97.7902 35.0259C99.1504 34.3885 100.763 33.7369 101.842 35.4543C102.73 36.8661 102.514 38.5024 101.808 39.9869C101.516 40.6008 101.115 41.2407 100.603 41.6418C94.9692 46.0562 94.6491 51.3094 98.3949 57.5963C100.831 61.6431 98.4496 64.4912 96.4204 66.6818C94.4089 68.8536 91.8493 67.5013 89.8185 65.6557C89.3255 65.2077 88.6844 64.9531 87.6136 65.3507C87.7561 70.0471 91.469 69.8581 94.1882 70.7586C97.0978 71.7219 100.113 73.4049 102.217 68.4652C103.459 65.5492 106.254 67.5144 107.779 69.4634C109.163 71.232 109.633 73.6356 111.271 75.706C111.507 76.4207 111.504 76.8759 111.498 77.6724C111.229 78.2705 110.986 78.7726 111.118 78.8505C116.238 81.8699 119.338 88.1619 126.142 88.7719C130.229 88.906 134.001 89.2244 138.127 89.5814Z" fill="#211D21"/>
<path d="M84.4099 61.4815C86.0378 60.5296 87.3541 59.9679 89.0728 61.1846C94.7612 65.2114 94.8249 65.1115 98.3811 58.3116C103.85 62.8138 111.481 65.758 111.486 75.5441C110.519 75.345 109.251 74.9549 108.585 74.0646C105.46 69.8853 103.232 68.0549 103.274 75.6545C103.283 77.2064 102.012 78.7648 100.657 77.2703C97.0254 73.2642 91.6966 73.7483 87.5473 71.2186C83.9072 68.9994 81.0416 66.6335 84.4099 61.4815Z" fill="#29232A"/>
<path d="M90.5792 36.4618C89.0069 41.4189 86.8144 42.2038 82.2287 39.7734C78.6156 37.8585 75.5092 34.9447 70.6997 36.6865C68.6079 37.444 69.2328 33.9159 68.5041 32.014C67.8792 30.9404 67.664 30.1458 68.2092 28.878C68.4521 28.5224 68.4773 28.0127 68.4882 27.7583C73.8279 29.735 79.5881 28.8853 85.1158 29.9272C89.1599 30.6896 90.6809 32.0651 90.5792 36.4618Z" fill="#24272F"/>
<path d="M126.187 88.4014C126.196 90.2023 125.581 91.1642 123.801 90.4168C118.545 88.2084 114.237 84.4941 110.007 80.6948C108.632 79.459 109.66 78.633 111.207 78.0876C111.496 78.1937 111.497 78.3724 111.49 78.8101C114.857 78.9342 118.045 79.293 120.279 82.9923C120.487 83.9277 120.664 84.4969 121.271 85.1966C122.957 86.3474 124.436 87.2808 126.187 88.4014Z" fill="#29232A"/>
<path d="M78.1496 19.0352C79.7309 17.2109 81.6073 16.8734 83.6007 17.6728C84.2818 17.9459 84.4862 18.951 83.8131 19.3314C81.9858 20.3638 80.0538 20.4523 78.1496 19.0352Z" fill="#211D21"/>
<path d="M121.383 85.1328C120.787 85.0837 120.2 84.6782 120.417 83.5096C120.748 83.8129 121.019 84.3326 121.383 85.1328Z" fill="#211D21"/>
<path d="M19.2797 54.1571C19.8774 49.046 16.9652 49.1527 13.7054 49.1886C10.4918 49.2241 6.43821 49.787 7.51875 43.5886C13.5842 46.8168 19.3827 42.2845 25.3449 42.5605C26.822 42.6289 26.8849 40.6408 26.3895 39.1451C25.992 37.9452 24.5387 36.608 26.1656 35.4717C27.3912 34.6159 28.8707 35.3602 29.8999 36.1535C33.4352 38.8783 37.6882 38.9095 42.3926 40.0043C44.5862 40.1158 45.5265 42.0294 47.5162 41.2896C48.9446 40.8811 49.7407 39.9053 51.1926 39.5094C52.4601 39.4253 53.2777 39.9486 54.8474 40.076C63.2347 39.8234 70.1151 42.4881 76.4951 46.8337C77.7121 47.6626 79.7473 48.4183 79.2896 50.1248C78.6525 52.5002 76.5015 51.2895 75.0004 51.0236C71.7066 50.4401 68.9521 50.6257 66.5138 53.7337C64.9865 55.6804 62.3773 56.6887 59.7233 56.4255C57.9989 56.2546 56.3993 56.39 54.7195 57.7726C54.2384 58.8378 53.6765 59.2926 52.5557 59.6414C50.9558 60.0572 49.9706 61.1501 48.2135 60.9924C44.1601 60.0397 41.2585 57.172 37.1227 56.4312C35.2858 56.4925 34.526 55.3191 33.2407 54.3576C28.3982 50.2592 25.4022 55.1235 21.421 56.3953C20.5664 56.3765 20.1096 56.188 19.4419 55.6005C19.1547 55.0225 19.109 54.757 19.2797 54.1571Z" fill="#28272E"/>
<path d="M52.7802 42.132C51.3689 42.4803 50.2487 42.7325 48.8085 43.1205C45.5376 44.8732 45.3151 40.399 42.7482 40.3417C42.4709 40.1439 42.4663 40.1287 42.4575 40.1278C41.8886 39.5 41.3972 38.7786 40.7569 38.2621C37.5876 35.7053 37.7211 33.9891 41.2066 31.9075C46.6294 28.669 52.0509 26.2104 58.6177 28.1873C61.3931 29.0228 64.5516 28.4454 67.9938 28.5157C68.4586 29.3034 68.4656 30.0856 68.4668 31.2591C67.3946 32.3285 66.7409 33.2619 66.7806 34.6344C66.8514 37.0851 66.0865 38.0131 63.8635 36.4655C59.9627 33.7499 57.3811 35.2593 55.5779 39.7461C55.51 40.1154 55.4966 40.0987 55.5014 40.1064C54.78 40.8749 53.9422 41.4787 52.7802 42.132Z" fill="#1E1619"/>
<path d="M155.344 133.044C159.666 132.172 160.929 129.01 161.454 124.791C161.712 124.166 161.941 123.931 162.327 123.504C163.76 121.979 165.132 121.375 167.128 122.998C168.586 123.676 169.684 124.013 171.13 124.371C172.184 124.186 172.498 123.651 172.541 122.587C171.892 120.315 172.331 118.708 174.175 117.98C176.113 117.214 176.709 119 177.425 120.33C178.808 122.898 180.27 125.364 182.351 127.428C184.305 129.367 184.509 131.963 184.217 134.67C183.903 137.591 183.729 140.528 183.496 143.925C180.32 145.217 175.444 145.286 174.9 148.329C174.28 151.79 179.389 151.873 181.844 153.672C183.696 155.029 186.124 155.788 186.541 158.892C177.774 158.957 170.69 154.854 163.59 149.838C160.367 147.561 156.441 146.837 154.952 142.269C154.332 140.364 152.398 140.399 150.627 140.965C149.054 141.468 147.441 142.021 145.82 142.134C143.071 142.326 141.047 140.728 139.651 138.384C138.178 135.912 139.229 133.664 140.633 131.591C141.5 130.311 142.456 129.094 143.422 127.893C145.761 124.981 147.688 125.059 149.504 128.594C150.706 130.931 151.18 134.605 155.344 133.044Z" fill="#1C1316"/>
<path d="M184.682 144.702C188.45 143.181 187.752 139.737 187.78 136.658C187.795 134.985 186.319 132.913 187.918 131.742C189.653 130.471 191.311 132.339 192.892 133.155C194.245 133.854 195.609 134.877 197.104 134.123C201.884 131.715 206.165 133.461 210.415 135.665C212.086 136.532 213.821 137.021 216.081 137.029C215.907 138.792 220.496 139.948 216.819 142.378C215.569 143.204 217.825 144.4 218.808 145.028C221.105 146.496 224.19 146.801 225.371 150.371C218.821 148.78 211.699 148.79 205.377 145.366C203.936 144.586 202.593 145.227 201.23 146.151C195.552 150 190.102 148.996 184.682 144.702Z" fill="#1C1316"/>
<path d="M216.742 137.023C216.169 135.529 215.846 134.034 215.506 132.153C217.833 132.456 218.148 134.188 217.552 136.687C217.49 137.019 216.992 137.023 216.742 137.023Z" fill="#1C1316"/>
<path d="M196.396 13.5332C195.983 13.5048 195.472 13.27 194.725 12.876C195.254 12.3897 195.875 12.5326 196.396 13.5332Z" fill="#1E1619"/>
<path d="M134.75 146.71C133.962 145.259 133.432 144.035 132.699 142.547C131.121 137.613 129.736 132.945 128.379 128.268C128.057 127.16 127.157 125.834 128.463 124.972C129.415 124.343 130.334 125.364 131.116 125.961C132.459 126.988 133.731 128.118 135.284 129.436C133.606 140.375 136.359 146.091 146.527 151.847C143.967 154.136 141.635 153.864 139.445 151.862C137.83 150.386 136.477 148.59 134.75 146.71Z" fill="#24272F"/>
<path d="M172.34 122.502C172.657 122.277 172.82 122.296 172.979 122.333C174.749 122.741 176.56 123.134 177.293 125.196C177.406 125.515 177.057 126.294 176.734 126.461C174.689 127.526 173.395 125.907 171.718 124.614C171.713 123.846 171.949 123.3 172.34 122.502Z" fill="#211D21"/>
<path d="M167.428 122.973C166.1 123.334 164.712 123.329 162.907 123.323C162.694 121.813 162.625 120.001 164.549 119.748C166.416 119.503 167 121.02 167.428 122.973Z" fill="#211D21"/>
<path d="M197.304 123.227C197.685 124.653 197.047 125.026 196.068 124.733C195.782 124.648 195.41 123.856 195.513 123.552C195.78 122.762 196.455 122.701 197.304 123.227Z" fill="#1C1316"/>
<path d="M189.648 122.234C190.415 122.931 190.502 123.559 189.63 123.824C189.297 123.925 188.569 123.586 188.449 123.269C188.113 122.378 188.676 122.086 189.648 122.234Z" fill="#1C1316"/>
<path d="M143.305 92.5604C143.195 92.8247 143.012 92.9836 142.828 93.1426C142.749 93.0273 142.669 92.912 142.59 92.7968C142.804 92.6829 143.017 92.569 143.305 92.5604Z" fill="#211D21"/>
<path d="M81.7304 86.4627C77.963 85.7871 74.3307 86.0714 71.1482 83.4383C68.9318 81.6044 66.4524 82.0536 65.3094 85.5372C64.6223 87.6311 63.5014 88.5145 61.8457 86.1586C59.0847 82.23 51.2092 81.2689 47.8116 85.1069C44.0067 89.4049 39.1912 90.7582 34.2783 92.3148C29.0337 93.9765 23.8503 95.81 18.7991 98.9529C16.9753 99.7033 15.435 99.9025 14.5531 98.1717C11.791 92.7509 8.45611 87.8366 3.94678 83.8546C3.45411 83.4195 3.61561 82.5436 3.67448 81.4147C3.71012 78.4502 2.95029 76.1503 1.66917 74.0594C-0.592278 70.3687 -0.020195 66.3433 0.343086 62.3514C0.498482 60.6442 1.58283 58.7756 3.04035 59.1716C9.06632 60.8088 13.5615 56.6215 19.1187 55.0021C19.9358 54.8838 20.3761 54.8806 21.1466 54.8717C25.2597 54.1003 28.9306 52.753 33.1295 52.5673C34.5283 52.8942 35.5046 53.2735 36.3143 54.5644C38.3145 57.2173 41.3378 57.4256 43.611 59.1948C45.4605 60.6342 47.3023 61.3698 47.9316 64.1085C48.5915 66.9808 50.9202 66.8423 52.5552 65.2535C54.8513 63.0225 57.6166 61.5835 60.2634 59.3161C60.9457 59.0629 61.3797 59.0623 62.1391 59.0616C64.0609 60.5276 65.5769 62.1481 68.2441 62.2033C68.5824 62.1993 68.9991 62.2092 69.2074 62.2161C70.498 63.1471 71.3221 64.3199 72.3991 65.7485C74.7986 68.3982 76.8946 70.838 79.0368 73.7576C79.8964 74.5127 80.1631 75.3613 81.1335 76.0151C81.5317 76.537 81.6761 76.7585 81.9544 77.3575C81.6446 79.9302 82.8351 81.4816 84.0544 83.4505C84.1108 84.7234 83.7844 85.4433 82.8093 86.2314C82.477 86.4614 81.9793 86.4617 81.7304 86.4627Z" fill="#2C1F1E"/>
<path d="M82.7025 86.7172C82.4729 85.6634 82.469 84.8682 82.4643 83.6754C81.1048 82.0049 80.6263 80.2009 79.6937 78.2782C79.4932 78.0064 79.4855 78.0237 79.4942 78.0211C78.7276 77.2936 77.6337 77.1093 76.7008 76.0666C76.3908 72.0433 73.8982 69.6636 71.6639 66.731C71.2624 65.284 71.8947 64.9406 73.1783 65.12C79.4245 71.0028 85.0105 77.1178 93.4868 79.7312C91.3492 82.0383 88.9392 79.722 87.196 80.9917C91.2904 87.0115 92.7814 87.4698 98.522 84.3655C100.612 83.2353 101.784 83.6918 101.641 86.2916C101.475 89.3009 100.713 92.1801 99.3636 94.8501C96.6305 100.258 98.0804 109.277 102.606 113.099C106.082 116.037 109.241 119.554 113.611 121.254C107.361 120.646 102.031 117.901 97.748 113.062C95.4898 110.511 93.8913 107.349 91.2766 105.08C89.718 103.728 89.027 101.63 89.7231 99.8395C91.5168 95.2257 89.4768 92.6338 86.1009 90.3012C84.879 89.4569 83.9765 88.0992 82.7025 86.7172Z" fill="#28272E"/>
<path d="M60.1543 58.9696C58.2317 66.3618 53.0899 70.6107 47.6912 69.3362C45.4101 68.7976 42.2474 68.3917 44.122 64.3091C44.952 62.5018 43.3503 61.9638 42.572 60.9228C40.9199 58.7131 37.7008 58.4579 36.5707 55.1939C40.2185 55.8788 43.955 56.914 48.0829 57.9725C49.2931 58.0127 50.118 57.9699 51.1871 58.4063C52.6707 59.4664 53.8208 58.4201 55.2398 58.2325C56.9189 58.3144 58.358 58.5971 60.1543 58.9696Z" fill="#2C2628"/>
<path d="M129.391 140.864C127.29 141.434 125.286 142.258 123.447 143.472C119.863 145.838 117.211 145.247 115.551 140.563C118.319 138.184 118.913 135.753 116.932 132.632C115.373 130.175 116.636 128.15 118.48 126.788C120.518 125.282 122.353 126.516 123.621 128.306C126.225 131.982 127.727 136.266 129.391 140.864Z" fill="#221A1B"/>
<path d="M133.164 95.4175C130.257 97.8258 130.082 94.0976 128.459 93.3234C130.539 92.6778 131.716 94.0785 133.164 95.4175Z" fill="#29232A"/>
<path d="M68.3164 61.9695C65.7301 63.7432 63.8963 62.583 62.582 59.398C64.6502 59.2059 66.4049 60.346 68.3164 61.9695Z" fill="#2C2628"/>
<path d="M73.3984 65.0247C73.0043 65.6052 72.4797 65.8592 71.7128 66.2793C70.1793 65.6753 69.6118 64.4516 69.4558 62.584C71.0761 62.3989 72.5403 62.9125 73.3984 65.0247Z" fill="#2C2628"/>
<path d="M55.2227 58.0242C54.3127 58.7413 53.7263 61.118 51.6162 59.2706C51.3525 58.8837 51.2152 58.704 51.2857 58.2564C52.2334 57.9893 52.9732 57.9901 54.0819 57.9926C54.6223 58.0009 54.7938 58.0075 55.2227 58.0242Z" fill="#2C1F1E"/>
<path d="M84.4773 61.168C84.3934 61.0863 84.3245 60.9928 84.2556 60.8993C84.3259 60.9115 84.3961 60.9238 84.4928 61.0321C84.5192 61.1284 84.4922 61.1561 84.4773 61.168Z" fill="#29232A"/>
<path d="M139.991 98.5688C140.009 98.5637 139.973 98.574 139.991 98.5688V98.5688Z" fill="#1E1619"/>
<path d="M111.483 79.0727C111.48 79.068 111.451 79.1127 111.474 79.0989C111.496 79.0851 111.487 79.0775 111.483 79.0727Z" fill="#1E1619"/>
<path d="M33.2363 52.432C30.6389 58.5909 25.945 54.7669 21.7674 54.9955C25.0186 52.5161 27.9732 47.3704 33.2363 52.432Z" fill="#2C2628"/>
<path d="M42.5757 40.4478C45.6217 37.7933 47.3818 38.9796 48.3301 42.9443C47.216 44.8868 46.3822 47.6927 43.7668 46.6335C40.9445 45.4906 44.0094 42.5504 42.5757 40.4478Z" fill="#211D21"/>
<path d="M52.7355 42.3116C53.0036 41.1887 53.7619 40.4748 55.1934 40.1774C55.0632 41.3648 54.6733 42.6812 52.7355 42.3116Z" fill="#211D21"/>
<path d="M51.2559 57.8603C51.4942 58.1681 51.4934 58.3473 51.492 58.7952C50.6729 58.8194 49.8545 58.5748 48.7561 58.1645C49.2842 57.5009 50.1202 57.296 51.2559 57.8603Z" fill="#211D21"/>
<path d="M200.426 142.048C199.81 142.903 199.21 142.809 198.721 142.204C198.352 141.747 198.434 141.162 198.991 140.953C199.716 140.68 200.241 141.046 200.426 142.048Z" fill="#140F14"/>
<path d="M27.1141 61.3464C29.468 60.7256 31.5642 60.9951 31.4464 63.533C31.3359 65.9138 28.9257 65.3492 27.4032 65.22C25.2952 65.0411 23.2187 64.4509 20.3753 63.8875C22.6025 61.5394 25.0285 62.4638 27.1141 61.3464Z" fill="#2C2628"/>
<path d="M79.5117 78.3897C81.0499 79.1091 82.18 80.5121 82.4258 82.9219C80.3696 82.5829 79.5946 80.9344 79.5117 78.3897Z" fill="#221A1B"/>
<path d="M76.6601 76.115C77.3693 76.3875 78.2356 76.9554 79.3027 77.7716C78.4155 77.8403 77.4361 77.4592 76.6601 76.115Z" fill="#221A1B"/>
<path d="M93.9866 89.0823C93.9808 89.0631 93.9924 89.1016 93.9866 89.0823V89.0823Z" fill="#211D21"/>
<path d="M29.3382 52.7079C29.3424 52.642 29.6406 52.7243 29.6406 52.7243C29.6406 52.7243 29.334 52.7739 29.3382 52.7079Z" fill="#2C1F1E"/>
</svg>
